<svg width="14" height="14" viewBox="0 0 14 14" fill="none" xmlns="http://www.w3.org/2000/svg">
<path d="M5.95 8.04609L4.3375 6.43359C4.2 6.29609 4.025 6.22734 3.8125 6.22734C3.6 6.22734 3.425 6.29609 3.2875 6.43359C3.15 6.57109 3.08125 6.74609 3.08125 6.95859C3.08125 7.17109 3.15 7.34609 3.2875 7.48359L5.425 9.62109C5.575 9.77109 5.75 9.84609 5.95 9.84609C6.15 9.84609 6.325 9.77109 6.475 9.62109L10.7125 5.38359C10.85 5.24609 10.9188 5.07109 10.9188 4.85859C10.9188 4.64609 10.85 4.47109 10.7125 4.33359C10.575 4.19609 10.4 4.12734 10.1875 4.12734C9.975 4.12734 9.8 4.19609 9.6625 4.33359L5.95 8.04609ZM1.75 13.7461C1.3375 13.7461 0.9845 13.5993 0.691 13.3058C0.3975 13.0123 0.2505 12.6591 0.25 12.2461V1.74609C0.25 1.33359 0.397 0.980594 0.691 0.687094C0.985 0.393594 1.338 0.246594 1.75 0.246094H12.25C12.6625 0.246094 13.0158 0.393094 13.3098 0.687094C13.6038 0.981094 13.7505 1.33409 13.75 1.74609V12.2461C13.75 12.6586 13.6033 13.0118 13.3098 13.3058C13.0163 13.5998 12.663 13.7466 12.25 13.7461H1.75Z" fill="white"/>
</svg>
