<svg width="15" height="15" viewBox="0 0 15 15" fill="none" xmlns="http://www.w3.org/2000/svg">
<path d="M10.95 0.375H4.05C2.025 0.375 0.375 2.025 0.375 4.05V10.95C0.375 12.975 2.025 14.625 4.05 14.625H10.95C12.975 14.625 14.625 12.975 14.625 10.95V4.05C14.625 2.025 12.975 0.375 10.95 0.375ZM10.89 6.225L7.02 10.08C6.84 10.26 6.555 10.26 6.375 10.08L4.11 7.815C3.93 7.635 3.93 7.35 4.11 7.17L4.755 6.525C4.935 6.345 5.22 6.345 5.4 6.525L6.69 7.815L9.585 4.92C9.765 4.74 10.05 4.74 10.23 4.92L10.875 5.565C11.07 5.745 11.07 6.045 10.89 6.225Z" fill="white"/>
</svg>
