<svg width="21" height="21" viewBox="0 0 21 21" fill="none" xmlns="http://www.w3.org/2000/svg">
<path d="M15.33 0.524902H5.67C2.835 0.524902 0.525002 2.8349 0.525002 5.6699V15.3299C0.525002 18.1649 2.835 20.4749 5.67 20.4749H15.33C18.165 20.4749 20.475 18.1649 20.475 15.3299V5.6699C20.475 2.8349 18.165 0.524902 15.33 0.524902ZM15.246 8.7149L9.828 14.1119C9.576 14.3639 9.177 14.3639 8.925 14.1119L5.754 10.9409C5.502 10.6889 5.502 10.2899 5.754 10.0379L6.657 9.1349C6.909 8.8829 7.308 8.8829 7.56 9.1349L9.366 10.9409L13.419 6.8879C13.671 6.6359 14.07 6.6359 14.322 6.8879L15.225 7.7909C15.498 8.0429 15.498 8.4629 15.246 8.7149Z" fill="#E3CDB4"/>
</svg>
