<svg width="18" height="18" viewBox="0 0 18 18" fill="none" xmlns="http://www.w3.org/2000/svg">
<path d="M7.6 10.3961L5.45 8.24609C5.26667 8.06276 5.03333 7.97109 4.75 7.97109C4.46667 7.97109 4.23333 8.06276 4.05 8.24609C3.86667 8.42943 3.775 8.66276 3.775 8.94609C3.775 9.22943 3.86667 9.46276 4.05 9.64609L6.9 12.4961C7.1 12.6961 7.33333 12.7961 7.6 12.7961C7.86667 12.7961 8.1 12.6961 8.3 12.4961L13.95 6.84609C14.1333 6.66276 14.225 6.42943 14.225 6.14609C14.225 5.86276 14.1333 5.62943 13.95 5.44609C13.7667 5.26276 13.5333 5.17109 13.25 5.17109C12.9667 5.17109 12.7333 5.26276 12.55 5.44609L7.6 10.3961ZM2 17.9961C1.45 17.9961 0.979333 17.8004 0.588 17.4091C0.196667 17.0178 0.000666667 16.5468 0 15.9961V1.99609C0 1.44609 0.196 0.975427 0.588 0.584094C0.98 0.19276 1.45067 -0.00323958 2 -0.00390625H16C16.55 -0.00390625 17.021 0.192094 17.413 0.584094C17.805 0.976094 18.0007 1.44676 18 1.99609V15.9961C18 16.5461 17.8043 17.0171 17.413 17.4091C17.0217 17.8011 16.5507 17.9968 16 17.9961H2Z" fill="#F2EDE5"/>
</svg>
