<svg width="16" height="16" viewBox="0 0 16 16" fill="none" xmlns="http://www.w3.org/2000/svg">
<path d="M11.45 0.875H4.55C2.525 0.875 0.875 2.525 0.875 4.55V11.45C0.875 13.475 2.525 15.125 4.55 15.125H11.45C13.475 15.125 15.125 13.475 15.125 11.45V4.55C15.125 2.525 13.475 0.875 11.45 0.875ZM11.39 6.725L7.52 10.58C7.34 10.76 7.055 10.76 6.875 10.58L4.61 8.315C4.43 8.135 4.43 7.85 4.61 7.67L5.255 7.025C5.435 6.845 5.72 6.845 5.9 7.025L7.19 8.315L10.085 5.42C10.265 5.24 10.55 5.24 10.73 5.42L11.375 6.065C11.57 6.245 11.57 6.545 11.39 6.725Z" fill="white"/>
</svg>
