<svg width="77" height="91" viewBox="0 0 77 91" fill="none" xmlns="http://www.w3.org/2000/svg">
<path d="M9.39912 25.2928C9.02635 25.355 8.69788 25.4159 8.36749 25.4639C7.17965 25.6366 5.9937 25.8358 4.78623 25.6399C4.4135 25.5794 4.05026 25.4978 3.70364 25.3469C3.23782 25.144 2.88085 24.8253 2.66918 24.3591C1.5993 22.0028 0.97606 19.5541 1.09291 16.9423C1.16977 15.2244 1.87948 13.8075 3.02721 12.5618C4.78603 10.6529 6.83907 9.12029 9.04148 7.77218C9.721 7.35626 9.72465 7.35707 9.43357 6.63765C8.93385 5.40242 8.44588 4.16211 7.92119 2.93755C7.71959 2.4671 7.77584 2.0774 8.05552 1.67191C8.34605 1.25065 8.67303 0.864406 9.07633 0.553532C9.87411 -0.0613551 10.7438 -0.169893 11.6703 0.239562C12.1009 0.429865 12.398 0.738854 12.5937 1.1759C13.1074 2.3234 13.644 3.46067 14.1742 4.60073C14.4128 5.11354 14.4466 5.13173 14.9874 4.94131C16.6376 4.36033 18.3206 3.91219 20.056 3.6743C22.4624 3.34441 24.8439 3.42594 27.1952 4.08775C28.042 4.32611 28.6851 4.87413 29.3132 5.43449C30.8508 6.80647 31.986 8.47028 32.7787 10.3693C32.8945 10.6469 33.0148 10.92 33.1752 11.1763C33.5089 11.7093 33.5318 12.2699 33.2984 12.8474C32.9663 13.6686 32.3872 14.3072 31.7561 14.9011C31.3369 15.2957 30.8916 15.6624 30.3861 16.1044C30.819 16.1475 31.1653 16.2141 31.5111 16.211C32.9069 16.1981 34.2726 16.465 35.6493 16.6286C37.0642 16.7966 38.4828 16.9385 39.8931 17.1395C41.8989 17.4253 43.9318 17.4319 45.9319 17.7827C49.2584 18.3661 52.3762 19.5048 55.2995 21.1883C55.5271 21.3194 55.756 21.4485 55.9879 21.5718C56.0577 21.609 56.1363 21.5989 56.1781 21.5188C56.2069 21.4638 56.1883 21.4034 56.1437 21.3654C56.0299 21.2683 55.9153 21.171 55.7928 21.0856C52.802 19.0031 49.9134 16.7886 47.1801 14.3766C46.4061 13.6936 45.6726 12.9651 45.0356 12.1476C44.8161 11.866 44.6111 11.5734 44.4604 11.248C44.124 10.5213 44.187 10.0841 44.747 9.51383C45.0621 9.19308 45.4053 8.8991 45.7455 8.60418C47.1249 7.40858 48.5866 6.3365 50.2103 5.48274C51.8261 4.6331 53.5355 4.49842 55.3014 4.68222C58.2774 4.99195 61.1077 5.83293 63.8372 7.03966C64.34 7.26195 64.3537 7.24948 64.6246 6.77304C65.4225 5.36997 66.2409 3.97796 67.0046 2.55651C67.331 1.94888 67.774 1.68614 68.4455 1.69417C69.0527 1.70146 69.6454 1.74125 70.2004 2.01288C71.0728 2.43994 71.5062 3.16215 71.6061 4.10766C71.6395 4.42406 71.5013 4.69229 71.366 4.96169C70.6664 6.35359 69.9674 7.74584 69.2682 9.13797C69.2177 9.23859 69.1652 9.33834 69.1172 9.44018C68.9189 9.86127 68.915 9.86762 69.2769 10.1281C69.9326 10.6001 70.5566 11.1101 71.1689 11.6369C72.8014 13.0417 74.208 14.6452 75.4098 16.4292C75.7481 16.9314 75.9585 17.4985 76.1449 18.0692C76.8275 20.1602 77.1183 22.2968 76.9561 24.5019C76.8113 26.4683 76.3612 28.3541 75.6508 30.1847C75.3427 30.9786 74.9489 31.2164 74.0921 31.1669C73.6369 31.1406 73.2054 31.0116 72.7777 30.8725C71.9197 30.5935 71.0922 30.2367 70.2792 29.8476C67.5667 28.5493 64.9737 27.0364 62.419 25.4553C62.1796 25.3071 61.9395 25.1602 61.6991 25.0137C61.548 24.9216 61.3875 24.8322 61.268 25.0452C61.1626 25.2331 60.985 25.4234 61.2068 25.6503C61.5214 25.9722 61.8353 26.2949 62.1473 26.6194C66.1922 30.8272 68.8694 35.7975 70.3763 41.4154C71.0445 43.9064 71.4085 46.442 71.5484 49.0205C71.8615 54.79 70.8385 60.3093 68.5084 65.5818C66.6887 69.6995 64.1369 73.3182 60.8503 76.4029C59.1476 78.001 57.2899 79.398 55.2541 80.551C54.8261 80.7935 54.8211 80.7978 54.9545 81.3136C55.4715 83.312 55.9872 85.3107 56.5172 87.3056C56.6311 87.7343 56.6587 88.149 56.5598 88.5821C56.3023 89.711 55.4837 90.2646 54.3488 90.0303C53.7308 89.9027 53.2063 89.6271 52.8028 89.0912C51.482 87.3371 50.1186 85.615 48.7939 83.8637C48.5159 83.4961 48.2565 83.3916 47.7989 83.5165C46.1469 83.9676 44.449 84.1614 42.7461 84.2918C41.4851 84.3884 40.242 84.1245 38.9898 84.038C37.9615 83.9669 36.9367 83.8471 35.9103 83.7489C34.492 83.6133 33.0738 83.4774 31.6554 83.3424C30.7409 83.2553 29.8278 83.1445 28.9114 83.0872C24.2567 82.7962 19.9182 81.4863 15.9116 79.0915C15.1974 78.6646 15.1907 78.6575 14.6004 79.2396C13.1435 80.6763 11.6858 82.1122 10.2448 83.5645C9.68439 84.1293 9.00456 84.3293 8.25036 84.2948C7.34569 84.2534 6.71364 83.629 6.61525 82.7292C6.56155 82.2382 6.61717 81.7634 6.81151 81.2965C7.67679 79.2174 8.52709 77.1322 9.38242 75.049C9.44658 74.8928 9.49358 74.7278 9.57284 74.5798C9.71991 74.3051 9.65668 74.1062 9.44133 73.8832C7.22238 71.5847 5.39904 68.9997 3.93463 66.164C2.54089 63.465 1.52341 60.6254 0.869872 57.6597C0.392606 55.4937 0.138493 53.302 0.0376386 51.0814C-0.15968 46.7366 0.419888 42.5052 1.75138 38.3784C3.16895 33.9848 5.37705 30.0239 8.41268 26.5343C8.73261 26.1665 9.0541 25.8002 9.37372 25.4321C9.38368 25.4207 9.38069 25.3977 9.39912 25.2928ZM0.884691 50.1038C0.866033 51.1488 0.993385 52.8684 1.22767 54.5813C1.85345 59.1566 3.30281 63.4474 5.65061 67.4303C7.39006 70.3812 9.52835 73.0043 12.1129 75.2533C15.036 77.797 18.3213 79.7174 22.0159 80.9176C24.4945 81.7228 27.0367 82.1654 29.641 82.2274C30.5966 82.2501 31.5512 82.2272 32.5084 82.1506C34.4255 81.9972 36.3043 81.658 38.1387 81.0981C43.8198 79.3642 48.4645 76.0856 52.2362 71.5361C54.2135 69.1512 55.7935 66.5175 57.0219 63.6738C58.8458 59.4515 59.7666 55.0331 59.8787 50.4413C59.9007 49.5403 59.8359 48.6415 59.7994 47.7415C59.7361 46.1809 59.5583 44.6346 59.2704 43.1042C58.3381 38.1471 56.4801 33.5744 53.5313 29.4621C50.6478 25.4406 47.0589 22.2227 42.6309 19.9896C38.0869 17.6981 33.2715 16.7392 28.1844 17.1567C25.9454 17.3405 23.7622 17.7692 21.6445 18.5049C16.3461 20.3458 11.9856 23.5245 8.44486 27.8498C5.67495 31.2335 3.68608 35.0365 2.41083 39.215C1.39598 42.5401 0.866307 45.9385 0.884691 50.1038ZM34.8737 82.7642C36.8774 82.9596 38.8175 83.1503 40.758 83.3366C41.2057 83.3796 41.6579 83.4589 42.1028 83.4326C43.2062 83.3676 44.3131 83.3164 45.404 83.1132C45.994 83.0033 46.5855 82.9007 47.1731 82.7792C47.7615 82.6575 47.7845 82.5846 47.4293 82.1212C47.1552 81.7637 46.8969 81.3928 46.605 81.0506C46.2391 80.6219 46.22 80.1892 46.4743 79.7005C46.9524 78.7817 47.6112 78.0287 48.4657 77.4458C49.7256 76.5866 51.1481 76.2076 52.642 76.0646C53.3048 76.0011 53.6206 76.2352 53.7993 76.8759C54.0109 77.635 54.1927 78.4022 54.3974 79.1633C54.5999 79.9166 54.6044 79.9137 55.2506 79.5249C58.6218 77.4962 61.4676 74.8854 63.8455 71.7584C66.0117 68.9097 67.6457 65.7762 68.8113 62.3976C69.9641 59.0563 70.5844 55.614 70.6928 52.0824C70.7545 50.0722 70.6315 48.0703 70.3751 46.0748C69.8922 42.318 68.8158 38.7386 67.1607 35.3365C65.7724 32.4831 63.9903 29.891 61.851 27.5466C61.5349 27.2003 61.194 26.8766 60.8662 26.5409C60.7137 26.3848 60.5857 26.3655 60.4809 26.5902C60.4096 26.7431 60.3299 26.8923 60.2525 27.0424C60.0116 27.5093 59.7732 27.9776 59.5277 28.4421C59.3459 28.786 59.0582 28.9895 58.665 28.9706C56.9464 28.8881 55.5101 28.2566 54.4395 26.8515C53.946 26.2038 53.7992 25.5967 54.3352 24.9217C54.3583 24.8926 54.3741 24.8576 54.3926 24.8249C54.7719 24.1555 55.1465 23.4833 55.5326 22.8178C55.673 22.5758 55.6581 22.3969 55.3927 22.267C55.3257 22.2342 55.2659 22.1868 55.2017 22.148C53.0351 20.8393 50.7258 19.8632 48.2852 19.1995C46.3232 18.6661 44.3287 18.334 42.2916 18.2952C41.8919 18.2876 41.4993 18.129 41.0809 18.2186C41.1035 18.2569 41.1087 18.2795 41.1218 18.2858C41.3239 18.3843 41.5246 18.4862 41.7303 18.5767C44.6609 19.8658 47.2945 21.6143 49.6585 23.7634C53.7379 27.472 56.6844 31.9508 58.5749 37.1185C60.2387 41.6666 60.9359 46.3701 60.7332 51.2114C60.6703 52.7143 60.5347 54.2069 60.2779 55.6865C58.8202 64.0848 54.9781 71.1383 48.3805 76.6073C45.3975 79.0801 42.0294 80.8614 38.3075 81.9635C37.1972 82.2923 36.0664 82.5321 34.8737 82.7642ZM76.1043 23.118C76.0958 21.5183 75.7993 19.7144 75.1673 17.9677C75.0005 17.5067 74.7826 17.0764 74.507 16.6682C73.4288 15.071 72.1221 13.6768 70.6976 12.3922C70.0998 11.8531 69.4423 11.3803 68.814 10.8749C68.6029 10.7051 68.4532 10.7258 68.3382 10.9866C68.2324 11.2266 68.0968 11.4533 67.9873 11.6917C67.7595 12.1876 67.3671 12.3742 66.8438 12.306C66.4167 12.2504 65.9866 12.2101 65.5696 12.0905C64.6631 11.8307 63.9674 11.3067 63.4762 10.4939C63.1217 9.90701 63.0421 9.3454 63.485 8.77245C63.5419 8.69888 63.5832 8.61272 63.6279 8.53029C63.8887 8.0495 63.8736 8.00407 63.3804 7.77586C63.3294 7.75226 63.2764 7.7329 63.2248 7.71056C60.574 6.56455 57.8262 5.77512 54.9448 5.49893C53.4428 5.35496 51.9961 5.53938 50.6287 6.24815C48.6932 7.25132 47.0221 8.60382 45.4383 10.0772C45.1129 10.38 45.1042 10.5191 45.3011 10.9252C45.5583 11.4555 45.9503 11.888 46.3499 12.3106C48.2912 14.364 50.5174 16.0875 52.7527 17.7968C55.7054 20.0548 58.7818 22.1366 61.9236 24.1205C64.8271 25.9539 67.7749 27.7122 70.8915 29.1676C71.8601 29.6199 72.8319 30.0724 73.8926 30.2746C74.523 30.3948 74.6569 30.3195 74.8763 29.7456C75.6609 27.6941 76.0975 25.575 76.1043 23.118ZM2.9302 22.4209C3.25303 22.0814 3.50075 21.6618 3.83946 21.3164C5.2591 19.8688 6.92307 18.7465 8.65284 17.7227C13.6704 14.7527 18.9982 12.5064 24.6289 10.9911C26.4782 10.4934 28.3475 10.0841 30.2831 10.1271C30.729 10.137 31.1749 10.1407 31.6076 10.2133C31.6301 10.1347 31.6566 10.0945 31.6468 10.0673C31.6026 9.94445 31.5551 9.82176 31.4964 9.70519C30.7261 8.17457 29.6656 6.87268 28.359 5.77178C27.9443 5.42242 27.5159 5.09014 26.9736 4.93359C25.7952 4.59343 24.5914 4.40768 23.3712 4.35907C21.6757 4.2915 20.001 4.49846 18.3485 4.87072C15.037 5.6166 11.9824 6.98153 9.10322 8.75583C7.24409 9.90153 5.50397 11.2033 3.9848 12.7824C2.42867 14.4 1.92177 15.5593 1.94783 17.6594C1.96704 19.2061 2.2602 20.7164 2.74358 22.1872C2.77157 22.2723 2.79289 22.3694 2.9302 22.4209ZM30.1204 10.9849C29.1738 10.9595 28.2632 11.0962 27.3626 11.2634C24.4049 11.8125 21.5557 12.7377 18.7548 13.8195C18.3774 13.9652 18.3647 13.9919 18.5272 14.348C19.025 15.439 19.5282 16.5276 20.0365 17.6137C20.2419 18.0528 20.2517 18.0523 20.7116 17.8844C23.1729 16.986 25.7149 16.4595 28.3217 16.2356C28.5542 16.2157 28.7575 16.1549 28.948 16.0214C29.8396 15.3965 30.6971 14.7298 31.468 13.9588C31.8268 13.5999 32.1471 13.207 32.367 12.7442C32.7493 11.9397 32.5119 11.4109 31.655 11.1478C31.1466 10.9918 30.6242 10.964 30.1204 10.9849ZM55.7205 88.0547C55.726 87.8466 55.6894 87.6452 55.6369 87.4441C54.7749 84.1423 53.9161 80.8397 53.0529 77.5381C52.9087 76.9867 52.8547 76.9342 52.2657 76.9976C50.9555 77.1387 49.7406 77.5561 48.6893 78.3703C48.1829 78.7625 47.7645 79.2417 47.4167 79.7863C47.1929 80.1367 47.2125 80.4068 47.4749 80.7434C49.5041 83.3465 51.5181 85.9616 53.5291 88.5788C53.8409 88.9845 54.26 89.1556 54.7373 89.2061C55.1801 89.253 55.4422 89.069 55.6159 88.6603C55.6988 88.4653 55.7138 88.2614 55.7205 88.0547ZM6.28383 24.8106C7.53533 24.7986 9.01984 24.4993 10.4957 24.1385C10.6844 24.0924 10.8394 24.0032 10.9809 23.8732C12.0447 22.8956 13.1695 21.9948 14.3631 21.1794C14.7499 20.9152 14.7624 20.8743 14.5901 20.4376C14.1089 19.2177 13.6207 18.0005 13.126 16.786C12.9641 16.3883 12.9431 16.3849 12.5474 16.5779C11.5873 17.0465 10.6543 17.5663 9.72861 18.0989C8.03639 19.0726 6.40504 20.1348 4.94972 21.4459C4.43279 21.9116 3.95862 22.4217 3.63739 23.0454C3.24127 23.8144 3.50871 24.4007 4.33526 24.6562C4.8832 24.8256 5.44599 24.7993 6.28383 24.8106ZM68.7017 2.54871C68.3018 2.52998 67.9853 2.61103 67.7625 3.01136C66.6134 5.07682 65.4494 7.13416 64.2686 9.18171C64.056 9.55032 64.0912 9.84763 64.3073 10.1703C64.8668 11.0056 65.6825 11.3418 66.6528 11.4014C66.9983 11.4226 67.2053 11.3002 67.3613 10.9863C68.4132 8.86931 69.4773 6.75842 70.5414 4.64753C70.8139 4.10696 70.702 3.62695 70.3244 3.19343C69.8968 2.70248 69.3131 2.58317 68.7017 2.54871ZM10.4449 74.934C10.3729 75.0264 10.342 75.0523 10.3284 75.0853C9.42134 77.2875 8.51314 79.4893 7.61255 81.6942C7.46787 82.0483 7.43628 82.4208 7.54011 82.798C7.64884 83.193 7.94706 83.4616 8.35443 83.4389C8.78298 83.415 9.20537 83.3426 9.54121 83.0101C11.0741 81.4926 12.6172 79.9854 14.1525 78.4704C14.4552 78.1717 14.4505 78.1578 14.0746 77.896C13.1809 77.2732 12.3326 76.5935 11.5143 75.8754C11.165 75.5688 10.8166 75.2613 10.4449 74.934ZM58.4288 28.0902C58.6102 28.1264 58.8133 27.9433 58.9625 27.6429C59.4468 26.6683 59.9446 25.7004 60.4258 24.7242C60.601 24.3687 60.5819 24.3095 60.24 24.0805C59.289 23.4436 58.3335 22.8135 57.3751 22.1879C57.0826 21.997 57.0094 22.0101 56.838 22.3073C56.2195 23.38 55.6153 24.461 54.9983 25.5346C54.8694 25.759 54.8857 25.9516 55.0269 26.1606C55.8015 27.3071 56.8792 27.935 58.4288 28.0902ZM19.3062 18.1822C19.2726 18.0985 19.2291 17.975 19.1746 17.8565C18.8852 17.2272 18.5923 16.5994 18.302 15.9704C18.1136 15.5625 17.9365 15.1491 17.7379 14.7461C17.5418 14.3482 17.4721 14.3187 17.0896 14.4849C16.1109 14.9102 15.1343 15.3406 14.1627 15.7818C13.7746 15.958 13.764 15.9929 13.9169 16.3795C14.3921 17.5809 14.8731 18.7799 15.36 19.9766C15.5307 20.3961 15.5507 20.3992 15.9703 20.1511C16.9223 19.588 17.9055 19.086 18.9097 18.6239C18.9946 18.5848 19.0802 18.5465 19.1622 18.502C19.2711 18.4429 19.3226 18.3492 19.3062 18.1822ZM10.6502 0.860211C10.3167 0.885767 10.0552 0.98133 9.80626 1.12009C9.41828 1.3363 9.15135 1.67253 8.88551 2.01571C8.70329 2.25097 8.68812 2.4767 8.80022 2.74744C9.31715 3.99556 9.81837 5.25018 10.3351 6.49842C10.4955 6.88585 10.55 6.90584 10.9218 6.71718C11.6582 6.34347 12.4005 5.98333 13.1572 5.65208C13.5845 5.46507 13.5953 5.44813 13.4071 5.03676C12.8687 3.85939 12.319 2.6872 11.7693 1.51508C11.5383 1.02253 11.08 0.924612 10.6502 0.860211Z" fill="#3B5A4F"/>
<path d="M29.5553 78.9086C24.0121 78.8413 19.0628 77.0743 14.725 73.6359C10.3271 70.1499 7.28531 65.6906 5.42563 60.4118C4.37076 57.4174 3.80781 54.3334 3.64741 51.1595C3.40752 46.4125 4.18076 41.8457 5.95879 37.4515C7.62499 33.3338 10.0945 29.7544 13.3942 26.7749C16.5159 23.9561 20.1142 22.002 24.222 21.0324C26.2584 20.5517 28.3273 20.3247 30.4196 20.415C35.1152 20.6177 39.3982 22.0657 43.2493 24.7609C47.3429 27.6257 50.3846 31.3819 52.5289 35.8724C53.996 38.945 54.9142 42.1821 55.3269 45.566C55.5066 47.0401 55.6358 48.5199 55.6066 49.9989C55.5183 54.4761 54.637 58.7879 52.7726 62.8816C51.1983 66.3383 49.0765 69.4081 46.3266 72.0309C42.7722 75.4209 38.5971 77.6312 33.7546 78.5289C32.3708 78.7854 30.9713 78.9383 29.5553 78.9086ZM33.6486 26.4107C32.2307 26.3597 30.7309 26.5919 29.2504 26.9522C25.6393 27.8312 22.551 29.6559 19.903 32.232C16.9205 35.1335 14.8838 38.6252 13.6667 42.588C12.7108 45.7003 12.3425 48.8868 12.5765 52.1482C12.7222 54.18 13.0295 56.1745 13.6124 58.1234C15.1899 63.3984 18.095 67.7554 22.6 70.9805C23.7907 71.8329 25.0401 72.6056 26.4641 73.0243C28.8861 73.7364 31.352 73.9549 33.8675 73.6964C36.1914 73.4576 38.3926 72.8183 40.4774 71.7766C44.1305 69.9512 47.0097 67.2566 49.1793 63.8229C52.6265 58.3674 53.7848 52.3999 52.9659 46.0303C52.641 43.5027 51.9509 41.0699 50.8867 38.7493C48.9036 34.4247 45.9898 30.906 41.8968 28.4201C41.1768 27.9828 40.4494 27.5485 39.6345 27.2941C37.7223 26.6972 35.7692 26.3759 33.6486 26.4107ZM41.8181 24.9258C40.8929 24.2643 39.9146 23.657 38.8295 23.2969C35.5353 22.2038 32.1492 21.9143 28.7178 22.3949C25.0687 22.9058 21.7303 24.259 18.7086 26.3641C15.1284 28.8582 12.3606 32.0834 10.3229 35.927C7.19833 41.8205 6.19218 48.1032 7.0192 54.6936C7.40008 57.7285 8.21804 60.6493 9.48466 63.4398C11.5616 68.0156 14.5685 71.8357 18.6988 74.7304C20.3655 75.8985 22.1132 76.9175 24.1435 77.3428C25.1532 77.5543 26.1581 77.7778 27.1898 77.8721C29.3118 78.0663 31.4223 78.0336 33.5249 77.6599C36.1961 77.1853 38.6923 76.2404 41.0405 74.8919C41.1181 74.8473 41.2283 74.82 41.2722 74.6588C41.0514 74.7658 40.8834 74.8484 40.7143 74.9289C37.7552 76.3386 34.6361 77.052 31.3593 77.1022C29.793 77.1263 28.2492 76.9502 26.7232 76.6227C25.6789 76.3986 24.6338 76.1635 23.6614 75.6924C20.5909 74.2048 17.9745 72.1337 15.777 69.5327C11.5414 64.5193 9.39596 58.6791 8.99822 52.1716C8.88835 50.3738 8.94633 48.5729 9.1723 46.7768C9.67806 42.7571 10.8907 38.9781 12.946 35.4826C15.1438 31.7449 18.0201 28.6515 21.7467 26.3948C25.8682 23.8989 30.3286 22.785 35.1457 23.2021C37.4591 23.4023 39.718 23.827 41.8181 24.9258ZM13.3545 71.2501C13.3545 71.1802 13.3683 71.1363 13.3522 71.1145C13.2632 70.9941 13.1692 70.8774 13.0728 70.7628C11.0761 68.3892 9.46452 65.779 8.2904 62.9071C6.43649 58.3724 5.65395 53.6569 5.90976 48.7621C6.07356 45.6278 6.66912 42.5852 7.728 39.633C9.4954 34.7055 12.3235 30.4988 16.3174 27.1013C19.1333 24.7059 22.334 23.0223 25.9109 22.0712C27.2651 21.7111 28.6459 21.4903 30.0919 21.3745C29.8842 21.2227 29.6909 21.2371 29.5158 21.2606C28.6403 21.3781 27.7561 21.3297 26.8778 21.4393C24.1274 21.7827 21.5296 22.6015 19.0785 23.8812C16.4925 25.2313 14.2236 26.9945 12.244 29.1434C10.5796 30.9503 9.16235 32.9267 8.02731 35.0997C5.27331 40.3724 4.14682 45.9789 4.5874 51.9133C4.7915 54.6625 5.30628 57.3409 6.19954 59.9464C7.60288 64.0397 9.79762 67.6521 12.8077 70.7645C12.971 70.9334 13.1197 71.1256 13.3545 71.2501ZM25.635 75.4682C25.8686 75.495 25.9976 75.3825 26.0565 75.1754C26.1486 74.8511 26.2322 74.5244 26.3236 74.1999C26.3807 73.9972 26.3102 73.8777 26.108 73.8224C24.7308 73.4452 25.1624 73.0963 24.4762 74.4246C24.4247 74.5244 24.3801 74.6278 24.3305 74.7286C24.2491 74.8943 24.2844 75.0321 24.4587 75.0923C24.8476 75.2266 25.2425 75.3439 25.635 75.4682ZM17.4664 70C17.5386 69.9545 17.6061 69.9236 17.6589 69.8762C17.7836 69.7644 17.9181 69.6576 18.0182 69.5256C18.2228 69.2559 18.7199 69.1108 18.6166 68.7377C18.5322 68.4329 18.1752 68.2036 17.9386 67.9412C17.8313 67.8221 17.7097 67.8211 17.5933 67.9183C17.2647 68.1926 16.9389 68.4705 16.6151 68.7506C16.4799 68.8676 16.4648 69.0055 16.588 69.1401C16.8142 69.3874 17.0438 69.6316 17.2768 69.8723C17.326 69.9231 17.396 69.9535 17.4664 70ZM16.3189 65.9383C16.3121 65.9067 16.3127 65.8654 16.295 65.835C16.2194 65.706 16.141 65.5784 16.0588 65.4534C15.617 64.782 15.606 64.7669 14.9702 65.1991C14.6909 65.389 14.1981 65.4572 14.2043 65.8403C14.21 66.1918 14.5669 66.4764 14.7707 66.7893C14.8909 66.9739 15.0352 66.9621 15.1992 66.844C15.5183 66.614 15.8414 66.3896 16.1623 66.1622C16.2394 66.1076 16.3106 66.0474 16.3189 65.9383ZM21.3887 71.3466C21.3936 71.2078 21.3318 71.1386 21.2594 71.0781C21.1593 70.9944 21.0553 70.9154 20.9536 70.8335C20.3643 70.3591 20.3508 70.3485 19.9018 70.9296C19.6952 71.197 19.2459 71.393 19.3588 71.7698C19.4626 72.1161 19.8928 72.2661 20.1725 72.5102C20.3327 72.65 20.4748 72.6212 20.5989 72.4552C20.8333 72.1415 21.0707 71.8299 21.3029 71.5145C21.3458 71.4561 21.37 71.384 21.3887 71.3466ZM17.4331 67.4048C17.4211 67.3698 17.4173 67.3284 17.3958 67.3007C17.1903 67.0348 16.9872 66.7666 16.7718 66.5089C16.6721 66.3896 16.5375 66.404 16.4178 66.4891C16.0827 66.7276 15.7502 66.9696 15.4175 67.2113C15.2735 67.3159 15.2344 67.4397 15.3514 67.5925C15.5561 67.8596 15.7576 68.129 15.9622 68.3961C16.056 68.5185 16.1667 68.5549 16.2978 68.4483C16.6458 68.1651 16.994 67.8823 17.3415 67.5985C17.4017 67.5493 17.4383 67.4865 17.4331 67.4048ZM21.9302 73.7142C22.0866 73.7379 22.1505 73.6687 22.203 73.5896C22.3064 73.4336 22.4046 73.2741 22.5054 73.1165C23.0531 72.2599 22.9941 72.0774 22.0559 71.6622C21.8921 71.5898 21.7644 71.601 21.6609 71.7417C21.4169 72.0732 21.1776 72.4083 20.9397 72.7442C20.8833 72.8237 20.8484 72.9307 20.9171 73.0054C21.2126 73.3269 21.5969 73.5228 21.9302 73.7142ZM10.7928 50.8786C10.6057 50.8786 10.4186 50.8743 10.2318 50.8799C10.0677 50.8849 9.92332 50.9499 9.91266 51.1298C9.88973 51.5172 9.76912 51.9509 10.0104 52.2729C10.199 52.5246 10.5727 52.3586 10.8641 52.3714C10.9747 52.3762 11.088 52.3551 11.1978 52.3344C11.6215 52.2548 11.6533 52.2153 11.6646 51.787C11.6887 50.8796 11.6787 50.869 10.7928 50.8786ZM13.9457 65.2801C13.9769 65.2729 14.0181 65.2731 14.0484 65.2551C14.4354 65.0255 14.8232 64.7974 15.2052 64.5597C15.3407 64.4754 15.3397 64.3409 15.2685 64.2122C15.1323 63.9661 14.9881 63.7245 14.8498 63.4796C14.7492 63.3013 14.6117 63.2501 14.4278 63.3489C14.0809 63.5352 13.7334 63.7206 13.3885 63.9105C13.2032 64.0126 13.1841 64.1653 13.2809 64.3399C13.4264 64.6021 13.5737 64.8634 13.7237 65.1231C13.7712 65.2054 13.8347 65.2744 13.9457 65.2801ZM13.0651 63.5658C13.1151 63.5455 13.203 63.5155 13.2859 63.475C13.5038 63.3686 13.7203 63.2591 13.936 63.1482C14.5254 62.845 14.5319 62.841 14.2251 62.2298C13.9198 61.6216 14.0403 61.4517 13.2059 61.8668C12.906 62.016 12.404 61.9988 12.3722 62.4C12.3446 62.7494 12.6401 63.0811 12.8103 63.4126C12.8543 63.4982 12.9163 63.5657 13.0651 63.5658ZM12.3408 61.7735C12.6348 61.6508 12.9998 61.5089 13.3557 61.347C13.6889 61.1954 13.7046 61.1394 13.5877 60.7818C13.5587 60.6934 13.5203 60.608 13.4861 60.5213C13.2235 59.8552 13.3116 59.8191 12.5319 60.0928C11.4832 60.4609 11.4273 60.6041 11.9757 61.5861C11.9939 61.6186 12.0099 61.6525 12.0309 61.6831C12.088 61.7663 12.1641 61.8098 12.3408 61.7735ZM13.0294 59.2668C12.9149 58.9421 12.9077 58.4969 12.6329 58.2275C12.4277 58.0263 12.1104 58.2948 11.841 58.339C11.6583 58.369 11.4844 58.4487 11.3044 58.4986C11.0791 58.5611 11.0021 58.7125 11.0599 58.9245C11.1383 59.2125 11.2313 59.4968 11.3255 59.7803C11.3805 59.9458 11.4901 60.0211 11.6715 59.957C12.0589 59.82 12.4486 59.6895 12.8354 59.551C12.9426 59.5126 13.0419 59.4544 13.0294 59.2668ZM18.3701 32.476C18.3673 32.3636 18.3046 32.2935 18.2378 32.2284C18.0372 32.0325 17.8366 31.8366 17.6319 31.6451C17.1854 31.2276 17.1549 31.2301 16.7555 31.6881C16.7309 31.7163 16.7077 31.7456 16.6836 31.7742C16.1613 32.3958 16.1658 32.3903 16.7969 32.9181C17.6506 33.632 17.4329 33.5494 18.1635 32.7886C18.2525 32.6959 18.3574 32.6092 18.3701 32.476ZM24.5302 73.3212C24.528 73.1805 24.4515 73.1227 24.3704 73.0766C24.1751 72.9654 23.9773 72.8586 23.7783 72.754C23.3918 72.551 23.3599 72.5602 23.1074 72.9384C23.0554 73.0162 23.007 73.0967 22.9611 73.1782C22.4809 74.0312 22.1988 73.9556 23.35 74.5536C23.8015 74.7882 23.8063 74.7849 24.0312 74.3554C24.1701 74.09 24.3019 73.8207 24.4339 73.5516C24.4747 73.4684 24.5057 73.3804 24.5302 73.3212ZM16.0743 35.4341C16.0947 35.3023 16.06 35.2361 15.9954 35.1921C15.6391 34.9496 15.285 34.7038 14.9213 34.4729C14.7645 34.3732 14.6299 34.4585 14.5375 34.5946C14.3585 34.8582 14.187 35.1269 14.0141 35.3946C13.9283 35.5274 13.9431 35.6417 14.0857 35.7267C14.456 35.9475 14.8251 36.1703 15.1977 36.3872C15.2803 36.4353 15.3868 36.4597 15.4589 36.379C15.7226 36.0837 15.9057 35.7356 16.0743 35.4341ZM12.2567 43.1646C12.4695 43.2317 12.579 43.1282 12.6357 42.9394C12.7107 42.6899 12.78 42.4386 12.8558 42.1894C12.9142 41.9974 12.86 41.8514 12.6716 41.7839C12.3037 41.652 11.9313 41.5331 11.5604 41.4102C11.3585 41.3433 11.2402 41.428 11.1828 41.6221C11.0984 41.9075 11.0121 42.1925 10.9275 42.4779C10.8711 42.6681 10.9158 42.8083 11.1242 42.8638C11.5017 42.9643 11.8792 43.0644 12.2567 43.1646ZM17.1639 33.876C17.1548 33.7595 17.0796 33.6767 16.9905 33.6059C16.741 33.4078 16.4906 33.2107 16.2381 33.0165C15.8814 32.742 15.8804 32.7432 15.5881 33.1151C15.565 33.1446 15.5426 33.1747 15.5204 33.2049C14.8446 34.1204 14.8922 33.8857 15.7093 34.4809C16.5056 35.061 16.3592 35.0202 16.9408 34.2668C17.0315 34.1494 17.1411 34.0408 17.1639 33.876ZM10.8317 56.1972C10.9 56.1836 11.0829 56.147 11.2659 56.1111C12.2823 55.9115 12.1637 56.0259 11.9747 54.9404C11.9287 54.676 11.7703 54.5508 11.499 54.5863C11.1656 54.63 10.8314 54.6693 10.5 54.7249C10.2921 54.7597 10.1595 54.8692 10.2074 55.1132C10.2613 55.3881 10.3035 55.6652 10.3539 55.9408C10.3903 56.1402 10.5161 56.2247 10.8317 56.1972ZM19.0782 69.2022C18.9744 69.1938 18.9035 69.2546 18.8365 69.3198C18.6357 69.515 18.4344 69.7098 18.2367 69.9082C17.7667 70.3797 17.7641 70.3839 18.2549 70.8602C18.9343 71.5194 18.8211 71.508 19.4282 70.8194C20.183 69.9632 20.1146 70.1851 19.3436 69.3998C19.266 69.3208 19.1948 69.23 19.0782 69.2022ZM13.5881 39.701C13.7124 39.6993 13.7772 39.6672 13.8125 39.5932C13.9577 39.2895 14.1054 38.9869 14.2429 38.6797C14.3101 38.5295 14.2287 38.4307 14.0959 38.3648C13.8445 38.24 13.5932 38.1151 13.3414 37.9909C12.7391 37.6939 12.739 37.6941 12.4494 38.3094C12.089 39.0749 12.0883 39.0766 12.8462 39.4014C13.1036 39.5118 13.3655 39.6115 13.5881 39.701ZM12.2403 39.6011C11.9785 39.5492 11.8953 39.6262 11.8523 39.736C11.7366 40.032 11.6262 40.3304 11.5262 40.6319C11.4818 40.7658 11.5101 40.9126 11.6477 40.9715C12.0909 41.1614 12.5527 41.4781 13.0152 41.367C13.33 41.2915 13.3118 40.7642 13.4667 40.4501C13.4909 40.4012 13.4987 40.3425 13.5058 40.2872C13.516 40.2064 13.4838 40.1264 13.4153 40.0966C12.9871 39.9104 12.5551 39.7329 12.2403 39.6011ZM9.92171 48.037C9.92101 48.2606 9.87746 48.5139 10.2072 48.5475C10.5802 48.5856 10.954 48.6157 11.3277 48.6461C11.531 48.6627 11.648 48.5691 11.6656 48.3618C11.6736 48.2683 11.6779 48.1745 11.6871 48.0811C11.7715 47.2161 11.7717 47.2161 10.8822 47.1338C9.99141 47.0513 9.96464 47.0749 9.92187 47.9806C9.92093 47.9994 9.92171 48.0182 9.92171 48.037ZM15.0716 37.0594C15.119 36.8817 15.0823 36.8152 15.0185 36.7714C14.6333 36.5071 14.2299 36.2725 13.8077 36.0731C13.6785 36.0121 13.593 36.1152 13.5372 36.2123C13.3792 36.4873 13.2297 36.7673 13.0807 37.0473C12.9814 37.2337 13.0431 37.3668 13.2262 37.4573C13.5776 37.6311 13.9273 37.8084 14.279 37.9817C14.3842 38.0336 14.5051 38.0655 14.584 37.9543C14.8005 37.649 14.9585 37.3109 15.0716 37.0594ZM11.8826 56.4055C11.5521 56.4734 11.1674 56.5495 10.7842 56.6326C10.6121 56.67 10.5319 56.782 10.5612 56.9613C10.5823 57.0904 10.6005 57.2202 10.6284 57.3478C10.8128 58.1909 10.8135 58.1907 11.6598 57.9582C12.6324 57.691 12.6384 57.6797 12.3243 56.7163C12.3127 56.6807 12.3043 56.6441 12.2905 56.6095C12.2266 56.4497 12.1075 56.3807 11.8826 56.4055ZM19.6853 31.1543C19.6741 31.119 19.6721 31.0763 19.6505 31.0495C19.3343 30.6567 19.0678 30.1256 18.5978 29.9994C18.2358 29.9023 18.0155 30.4505 17.7144 30.6899C17.6998 30.7014 17.6891 30.7176 17.6753 30.7303C17.5139 30.8793 17.5373 31.0157 17.6933 31.1556C17.9724 31.4058 18.2456 31.6625 18.5226 31.9151C18.6065 31.9916 18.7154 32.0912 18.8171 32.0077C19.1055 31.7709 19.3757 31.5118 19.65 31.2581C19.6734 31.2364 19.674 31.1899 19.6853 31.1543ZM10.9061 52.7701C10.72 52.78 10.5334 52.7838 10.3481 52.8014C10.0874 52.8261 9.93277 52.9406 9.98098 53.2382C10.0107 53.4215 10.0084 53.6098 10.0267 53.7952C10.0716 54.2502 10.14 54.3187 10.5783 54.2923C10.8191 54.2778 11.0578 54.2284 11.2975 54.1951C11.7754 54.1285 11.7973 54.1042 11.792 53.6448C11.7826 52.8089 11.723 52.7503 10.9061 52.7701ZM23.1257 28.5703C23.1744 28.5495 23.2455 28.5262 23.3095 28.4902C23.5372 28.3624 23.758 28.2216 23.9898 28.1021C24.2082 27.9896 24.2268 27.8481 24.1119 27.6474C23.9451 27.3561 23.7832 27.0614 23.635 26.7604C23.524 26.5348 23.388 26.4454 23.1511 26.5875C22.8792 26.7506 22.6041 26.9085 22.3276 27.0637C22.1564 27.1598 22.15 27.2831 22.2464 27.4352C22.4461 27.7503 22.6425 28.0675 22.844 28.3815C22.9042 28.4754 22.971 28.5693 23.1257 28.5703ZM21.5991 27.518C21.4526 27.6177 21.2661 27.7393 21.0854 27.8689C20.4912 28.2947 20.3571 28.2186 20.8988 28.9151C21.6213 29.8442 21.3551 29.7704 22.3807 29.0789C22.6018 28.9299 22.6042 28.7614 22.4657 28.5565C22.2774 28.2779 22.0967 27.9941 21.9108 27.7139C21.8488 27.6205 21.7847 27.5261 21.5991 27.518ZM21.0586 29.8832C21.0449 29.8488 21.0346 29.7896 21.0023 29.7472C20.7416 29.4058 20.4789 29.0658 20.2115 28.7296C20.1461 28.6473 20.0464 28.6313 19.9626 28.6988C19.6718 28.9328 19.3832 29.1699 19.1006 29.4136C18.9837 29.5144 18.98 29.6378 19.0864 29.7579C19.359 30.0654 19.6294 30.3749 19.9041 30.6805C19.9833 30.7686 20.0875 30.8325 20.1982 30.7446C20.4613 30.5358 20.717 30.3177 20.9733 30.1005C21.0315 30.0511 21.0624 29.9824 21.0586 29.8832ZM11.7575 44.9587C12.0018 44.9721 12.1546 44.8697 12.2102 44.6316C12.2567 44.4325 12.3064 44.2336 12.3418 44.0324C12.4074 43.6593 12.3913 43.639 12.0212 43.5273C11.9322 43.5005 11.8425 43.4757 11.7525 43.4526C10.6486 43.1707 10.5829 43.217 10.4694 44.3545C10.4675 44.373 10.4649 44.3914 10.4617 44.4097C10.4317 44.5798 10.4719 44.6972 10.6662 44.7339C11.0311 44.8029 11.3938 44.8832 11.7575 44.9587ZM11.2223 46.7557C11.5404 46.7606 11.8029 46.7954 11.8477 46.5387C11.9094 46.1844 12.1202 45.8252 11.9055 45.4558C11.8813 45.4142 11.8162 45.383 11.7649 45.3726C11.3802 45.2948 10.9949 45.2192 10.6082 45.1518C10.4368 45.1219 10.307 45.1968 10.2761 45.373C10.2212 45.6854 10.1332 45.9936 10.1383 46.315C10.141 46.486 10.2108 46.6026 10.3901 46.6303C10.7038 46.6786 11.0179 46.725 11.2223 46.7557ZM10.6611 50.4743C11.6016 50.4748 11.6839 50.3774 11.583 49.4457C11.5566 49.2021 11.4603 49.0669 11.2069 49.0522C10.9646 49.0381 10.7228 49.0139 10.4813 48.9888C9.95927 48.9346 9.87236 49.0074 9.82317 49.5506C9.74387 50.4268 9.78652 50.4738 10.6611 50.4743ZM25.8313 26.9432C25.7831 26.8248 25.7221 26.6684 25.6561 26.5142C25.2226 25.5016 25.2061 25.4965 24.2189 26.0484C23.8888 26.233 23.88 26.2594 24.0441 26.6193C24.0829 26.7045 24.1285 26.7866 24.1709 26.8701C24.6419 27.7989 24.778 27.8338 25.654 27.2492C25.685 27.2285 25.7165 27.2082 25.7453 27.1847C25.8078 27.1338 25.8295 27.0642 25.8313 26.9432ZM27.5702 26.2262C27.459 25.9035 27.3265 25.4935 27.1738 25.0912C27.1279 24.9701 26.9938 24.9666 26.8796 25.0041C26.5589 25.1093 26.238 25.2144 25.9216 25.3315C25.7483 25.3956 25.7141 25.5306 25.7839 25.6978C25.8344 25.8189 25.8785 25.9427 25.9277 26.0644C26.3167 27.0266 26.4717 27.0801 27.3904 26.5708C27.4231 26.5527 27.457 26.5363 27.4872 26.5148C27.5539 26.4673 27.5756 26.3981 27.5702 26.2262ZM28.149 74.6857C28.2081 74.4186 28.0751 74.3195 27.8326 74.2642C26.6562 73.996 26.8395 73.9543 26.5635 74.98C26.5344 75.088 26.5064 75.1965 26.4851 75.3062C26.4429 75.5232 26.5182 75.671 26.7446 75.7222C26.999 75.7797 27.2531 75.8386 27.5082 75.8933C27.7808 75.9519 27.9373 75.837 27.9865 75.5657C28.0397 75.2722 28.0948 74.979 28.149 74.6857ZM28.8284 24.4588C28.5047 24.5422 28.1808 24.6253 27.8572 24.7094C27.6484 24.7637 27.6025 24.8975 27.6642 25.0925C27.7652 25.4118 27.86 25.7331 27.9571 26.0537C28.0133 26.2394 28.1123 26.3168 28.3279 26.2842C29.4129 26.1206 29.4707 26.0439 29.2132 24.9871C29.1867 24.8786 29.154 24.7717 29.1263 24.6636C29.0867 24.5088 28.9847 24.4554 28.8284 24.4588ZM29.4015 76.1455C29.8312 76.1551 29.8786 76.1205 29.9306 75.695C30.0677 74.5748 30.2199 74.5966 28.9443 74.4731C28.738 74.4531 28.6231 74.5092 28.5868 74.7157C28.5642 74.844 28.5313 74.9704 28.5081 75.0985C28.3369 76.0459 28.4033 76.1232 29.4015 76.1455ZM31.1728 25.0576C31.1667 24.9868 31.1603 24.8376 31.1399 24.6903C31.0755 24.2246 30.9867 24.1498 30.532 24.169C30.4392 24.173 30.3461 24.1814 30.2544 24.1957C29.5155 24.3109 29.5054 24.3138 29.6662 25.0389C29.8751 25.9815 29.7093 25.9245 30.737 25.7354C31.2399 25.6429 31.2384 25.6343 31.1728 25.0576ZM32.3258 24.0318C32.3258 24.0329 32.3258 24.0341 32.3258 24.0352C32.2515 24.0352 32.177 24.0317 32.103 24.0357C31.564 24.0649 31.5013 24.1375 31.5621 24.6804C31.5849 24.8833 31.6217 25.0847 31.6517 25.2868C31.6763 25.4533 31.7631 25.5427 31.9379 25.5736C32.7922 25.725 33.1028 25.4631 33.0707 24.6053C33.0679 24.531 33.0644 24.4568 33.0619 24.3826C33.0545 24.1589 32.9391 24.0402 32.7157 24.0326C32.5859 24.0282 32.4558 24.0318 32.3258 24.0318ZM33.1731 74.633C32.3817 74.6403 32.3164 74.7064 32.3264 75.4902C32.3269 75.5274 32.3264 75.5647 32.3276 75.6019C32.3446 76.1267 32.3826 76.1614 32.9229 76.146C33.8501 76.1195 33.9181 76.0388 33.7768 75.1327C33.6989 74.6332 33.6928 74.6283 33.1731 74.633ZM36.0607 25.2851C36.0668 25.5291 36.1135 25.6008 36.3083 25.6649C37.2592 25.9778 37.4846 25.8399 37.6314 24.8548C37.6423 24.7814 37.6564 24.7075 37.6569 24.6338C37.6577 24.5315 37.6075 24.4479 37.5081 24.4219C37.0973 24.3142 36.6285 24.0867 36.273 24.2895C36.0087 24.4404 36.1276 24.9424 36.0607 25.2851ZM30.4068 75.432C30.3845 76.1382 30.424 76.1813 31.0994 76.1855C31.8117 76.19 31.8644 76.1374 31.8617 75.425C31.8594 74.7979 31.8196 74.7446 31.2953 74.6672C30.5175 74.5524 30.4323 74.6257 30.4068 75.432ZM35.6745 24.7581C35.7095 24.1083 35.6917 24.0876 35.0677 24.0542C34.2354 24.0095 34.1912 24.0542 34.2164 24.914C34.2309 25.4085 34.2503 25.4303 34.7501 25.5151C35.5752 25.655 35.6285 25.6113 35.6745 24.7581ZM35.1348 74.418C34.8893 74.4778 34.4629 74.3814 34.2638 74.6236C34.0614 74.8699 34.2655 75.2649 34.2693 75.5954C34.2697 75.6311 34.2867 75.6676 34.3003 75.702C34.3444 75.813 34.4218 75.9067 34.5421 75.9054C34.9341 75.9011 35.3596 75.8944 35.6604 75.6463C35.925 75.4282 35.6709 75.0882 35.6548 74.8018C35.6538 74.7834 35.6478 74.7653 35.6441 74.7471C35.5969 74.5113 35.4608 74.3888 35.1348 74.418ZM37.9245 25.6033C37.8581 25.8222 37.9787 25.939 38.1884 25.9957C38.2787 26.0201 38.3712 26.0362 38.4625 26.0564C39.2491 26.2308 39.2003 26.4435 39.4735 25.4695C39.6132 24.9719 39.5973 24.9368 39.1007 24.8003C38.103 24.5261 38.1306 24.41 37.9245 25.6033ZM41.522 26.0067C41.5273 25.8364 41.4253 25.7827 41.3253 25.7309C41.0599 25.5934 40.7964 25.4516 40.526 25.3244C40.0905 25.1196 40.0412 25.1437 39.8826 25.5945C39.8579 25.665 39.8361 25.7365 39.8143 25.808C39.6515 26.3425 39.6525 26.3402 40.15 26.5444C40.3572 26.6295 40.5586 26.7284 40.7642 26.8173C40.8487 26.8539 40.9533 26.9128 41.0272 26.838C41.2668 26.5957 41.4006 26.2875 41.522 26.0067ZM36.0561 74.6442C36.0979 74.8227 36.1515 75.0781 36.2197 75.3296C36.2499 75.441 36.3244 75.5477 36.4576 75.5203C36.8569 75.4382 37.3278 75.4338 37.5925 75.1185C37.8073 74.8627 37.5067 74.5253 37.4514 74.2212C37.442 74.1691 37.411 74.1146 37.3746 74.0756C37.3389 74.0372 37.2813 73.9899 37.2372 73.9935C36.8649 74.0239 36.501 74.1009 36.1643 74.266C36.0545 74.3199 36.0512 74.4504 36.0561 74.6442ZM39.4664 74.2456C39.3951 74.0283 39.3654 73.7115 39.157 73.5303C38.8153 73.2333 38.5038 73.6131 38.1747 73.668C37.983 73.6999 37.8432 73.8088 37.863 74.0564C37.9311 74.9094 38.1448 75.0476 38.9405 74.727C39.0616 74.6781 39.1829 74.6281 39.2994 74.5694C39.4067 74.5153 39.4675 74.4239 39.4664 74.2456ZM40.1774 74.1935C40.4031 74.0841 40.6749 73.9638 40.9358 73.8232C41.299 73.6274 41.3002 73.6055 41.1229 73.2156C40.8307 72.5734 40.8307 72.5734 40.1905 72.867C39.5085 73.1799 39.4488 73.3924 39.8658 74.0226C39.8862 74.0535 39.9039 74.0868 39.9285 74.114C39.981 74.1723 40.0497 74.1959 40.1774 74.1935ZM43.1676 26.9734C43.1376 26.9125 43.1257 26.8491 43.0876 26.8176C42.7991 26.579 42.4846 26.3779 42.1553 26.2008C42.0633 26.1514 41.9679 26.1664 41.9082 26.2572C41.7447 26.5061 41.5209 26.7498 41.5192 27.0496C41.5176 27.3359 41.8572 27.3551 42.0427 27.495C42.161 27.5841 42.2985 27.6488 42.4309 27.7175C42.5154 27.7613 42.6175 27.7931 42.694 27.7201C42.9132 27.511 43.0452 27.2449 43.1676 26.9734ZM41.2737 72.5254C41.3704 72.7716 41.4484 73.0617 41.6689 73.237C41.894 73.4159 42.0812 73.1734 42.2705 73.0801C42.4372 72.9979 42.5883 72.8844 42.7469 72.7856C42.8707 72.7084 42.9255 72.6152 42.8795 72.4586C42.6947 71.8304 42.4066 71.7072 41.8487 72.0291C41.7031 72.1131 41.5559 72.1945 41.4117 72.2809C41.3274 72.3313 41.2751 72.4057 41.2737 72.5254ZM44.7409 28.0856C44.7061 28.0194 44.6927 27.9553 44.6533 27.925C44.372 27.7092 44.0876 27.4971 43.7989 27.2913C43.7184 27.234 43.6123 27.2295 43.5406 27.3068C43.3498 27.5124 43.1408 27.7283 43.1156 28.0129C43.0972 28.2212 43.3466 28.2813 43.4866 28.3962C43.5876 28.4791 43.6936 28.5575 43.8051 28.6253C43.9413 28.7081 44.0775 28.8876 44.2502 28.7459C44.4655 28.5692 44.6255 28.3378 44.7409 28.0856ZM43.9293 70.7631C43.8959 70.77 43.853 70.7672 43.8245 70.7863C43.5297 70.9832 43.2351 71.1806 42.9459 71.3856C42.8845 71.4291 42.854 71.5178 42.8875 71.5882C43.0068 71.8393 43.1009 72.1373 43.3588 72.2591C43.5689 72.3583 43.7159 72.1096 43.885 72.0064C44.012 71.9289 44.1288 71.8332 44.2446 71.7388C44.3553 71.6485 44.5148 71.5862 44.4627 71.3898C44.4233 71.2411 44.0329 70.7743 43.9293 70.7631ZM46.1803 29.3558C46.1844 29.2319 46.1173 29.1647 46.048 29.1028C45.909 28.9785 45.7645 28.8603 45.6248 28.7367C45.1474 28.3142 45.1063 28.3247 44.7362 28.8315C44.5766 29.0501 44.536 29.2144 44.7957 29.3833C44.9667 29.4944 45.1121 29.6442 45.2755 29.7681C45.4059 29.8668 45.5423 30.0143 45.7207 29.8826C45.9145 29.7396 46.092 29.5733 46.1803 29.3558ZM45.9344 70.2897C45.9448 70.1471 45.6164 69.7112 45.4784 69.6435C45.3017 69.5567 45.2013 69.6891 45.0883 69.7781C44.9127 69.9163 44.7412 70.0598 44.5681 70.2012C44.3717 70.3617 44.3603 70.5385 44.5185 70.7332C44.5889 70.8199 44.6551 70.9101 44.7217 71C44.8284 71.1441 44.953 71.1838 45.0998 71.0606C45.3424 70.8571 45.5847 70.6532 45.8221 70.4439C45.8753 70.3969 45.908 70.3268 45.9344 70.2897ZM47.523 30.7027C47.5058 30.6503 47.5003 30.59 47.4697 30.5482C47.2605 30.2628 47.005 30.0206 46.741 29.7874C46.665 29.7202 46.5773 29.7176 46.483 29.76C46.0309 29.9633 45.9464 30.3551 46.2838 30.6973C46.4009 30.8162 46.5173 30.9359 46.6399 31.049C46.7443 31.1454 46.8445 31.3108 47.0118 31.2014C47.2095 31.0722 47.4188 30.9419 47.523 30.7027ZM47.3017 68.9221C47.2155 68.6857 47.0379 68.548 46.8621 68.4152C46.7021 68.2944 46.5852 68.4159 46.4772 68.5185C46.289 68.6973 46.1065 68.882 45.9194 69.0619C45.7892 69.187 45.784 69.3174 45.8949 69.4549C45.9763 69.5558 46.0601 69.6548 46.1441 69.7536C46.2633 69.8939 46.391 69.905 46.5233 69.7727C46.7462 69.5498 46.9699 69.3278 47.1883 69.1007C47.2375 69.0496 47.2663 68.9791 47.3017 68.9221ZM48.6951 32.1626C48.7127 32.0096 48.6591 31.9317 48.6026 31.8587C48.4889 31.7119 48.3716 31.5679 48.2533 31.4248C47.8975 30.9951 47.7668 31.0023 47.401 31.4388C47.2837 31.5787 47.2681 31.6886 47.3934 31.8253C47.5689 32.0168 47.7341 32.2177 47.9075 32.4111C48.0032 32.5179 48.0911 32.6829 48.2682 32.5872C48.4629 32.482 48.6435 32.3469 48.6951 32.1626ZM47.1337 67.9826C47.1441 68.0931 47.4989 68.4746 47.6182 68.4955C47.8097 68.529 47.8607 68.3538 47.9561 68.2526C48.1211 68.0773 48.2751 67.8917 48.4332 67.7099C48.6183 67.4972 48.5226 67.3434 48.3304 67.2052C48.1504 67.0758 47.9834 66.8944 47.7656 67.1578C47.6004 67.3575 47.4197 67.5443 47.2474 67.7382C47.1856 67.8077 47.129 67.8814 47.1337 67.9826ZM49.0686 32.5698C48.9254 32.5709 48.5136 32.9079 48.5062 33.0234C48.5029 33.0751 48.5185 33.1387 48.5487 33.1801C48.7471 33.4523 48.9396 33.7303 49.1582 33.9858C49.343 34.2019 49.492 33.9954 49.6373 33.8996C49.7756 33.8084 49.9566 33.7132 49.8172 33.505C49.6196 33.21 49.4056 32.9257 49.1928 32.6413C49.1632 32.6016 49.1001 32.5871 49.0686 32.5698ZM49.6773 65.9905C49.6014 65.792 49.4438 65.6937 49.2799 65.6058C49.1374 65.5295 49.0271 65.5989 48.9395 65.7085C48.7649 65.9269 48.5937 66.1481 48.4238 66.3702C48.3167 66.5102 48.3362 66.6377 48.4524 66.771C48.7457 67.1075 48.9108 67.1056 49.19 66.7396C49.3143 66.5766 49.4306 66.4072 49.5447 66.2368C49.5956 66.1608 49.6322 66.0753 49.6773 65.9905ZM50.8425 35.1878C50.6729 34.8381 50.491 34.4739 50.2093 34.1718C50.1803 34.1407 50.104 34.1365 50.0539 34.145C49.7043 34.2042 49.5559 34.5324 49.7417 34.8416C49.8661 35.0488 50.0042 35.2477 50.1343 35.4516C50.2108 35.5717 50.3037 35.664 50.453 35.5829C50.6122 35.4964 50.7986 35.4299 50.8425 35.1878ZM50.6967 64.4056C50.6508 64.2077 50.4708 64.1638 50.3329 64.0769C50.2239 64.0084 50.1152 64.0173 50.0384 64.1316C49.8607 64.3959 49.6727 64.6547 49.5159 64.931C49.3719 65.1849 49.5892 65.2968 49.7544 65.4193C49.9301 65.5497 50.0655 65.5034 50.1735 65.328C50.3306 65.0726 50.489 64.8182 50.643 64.561C50.6707 64.5145 50.6796 64.4566 50.6967 64.4056ZM51.7229 36.8123C51.5894 36.4883 51.4565 36.1371 51.2069 35.8568C51.065 35.6974 50.897 35.8061 50.7542 35.8981C50.6106 35.9906 50.5537 36.1235 50.6343 36.2812C50.7696 36.546 50.9158 36.8053 51.0599 37.0655C51.1353 37.2018 51.2492 37.2385 51.389 37.17C51.5364 37.0978 51.7079 37.0458 51.7229 36.8123ZM50.9134 63.8979C51.0213 63.8919 51.0756 63.8166 51.12 63.7334C51.2516 63.4868 51.3797 63.2383 51.5111 62.9916C51.6149 62.7966 51.602 62.6481 51.3846 62.5301C51.1644 62.4107 51.0088 62.4124 50.8865 62.6608C50.7714 62.8945 50.6193 63.1101 50.5059 63.3444C50.3883 63.5876 50.6386 63.9157 50.9134 63.8979ZM52.0849 38.8755C52.3988 38.8619 52.5466 38.6544 52.4362 38.3539C52.3463 38.1092 52.2217 37.8775 52.1277 37.6342C52.0336 37.3906 51.8805 37.3978 51.6826 37.4927C51.488 37.586 51.3812 37.7037 51.4904 37.931C51.6116 38.1832 51.7214 38.4407 51.8375 38.6953C51.8857 38.8008 51.9436 38.8962 52.0849 38.8755ZM52.3602 61.1699C52.3895 60.9708 52.2813 60.9036 52.1554 60.8466C52.0046 60.7783 51.8485 60.7587 51.7616 60.9225C51.604 61.2194 51.4644 61.5264 51.3293 61.8345C51.2596 61.9932 51.375 62.0793 51.4985 62.1384C51.6283 62.2005 51.7816 62.3205 51.8995 62.1506C52.1136 61.8421 52.2502 61.4924 52.3602 61.1699ZM52.4447 60.4826C52.5996 60.4877 52.6853 60.3898 52.7351 60.2645C52.8378 60.006 52.9253 59.7414 53.0256 59.4817C53.1078 59.2687 52.9965 59.1721 52.8181 59.1067C52.6342 59.0392 52.4942 59.0657 52.4178 59.2699C52.3202 59.5305 52.2026 59.7843 52.1159 60.0483C52.0343 60.2968 52.1893 60.4875 52.4447 60.4826ZM52.5409 39.1723C52.2779 39.1917 52.15 39.3683 52.2327 39.6253C52.3178 39.8897 52.4211 40.1483 52.5195 40.4083C52.5996 40.6198 52.7583 40.6048 52.9321 40.5468C53.0974 40.4916 53.1868 40.3876 53.1281 40.2109C53.0291 39.9125 52.9241 39.6157 52.8111 39.3223C52.7674 39.2087 52.6666 39.1584 52.5409 39.1723ZM53.0682 58.7523C53.2313 58.7678 53.2989 58.6636 53.3399 58.5308C53.4219 58.2657 53.4986 57.9988 53.583 57.7344C53.6447 57.5414 53.6035 57.4209 53.3909 57.3591C53.1917 57.3012 53.0649 57.3506 53.0004 57.5448C52.9129 57.8081 52.8158 58.0697 52.7513 58.3389C52.6939 58.5784 52.8317 58.7381 53.0682 58.7523ZM53.6623 41.934C53.5994 41.7136 53.5174 41.4276 53.4365 41.1413C53.3786 40.9363 53.2509 40.8878 53.0523 40.9469C52.8575 41.0049 52.7646 41.1097 52.8265 41.3159C52.9069 41.5834 52.9861 41.8514 53.071 42.1175C53.1234 42.2816 53.2367 42.3653 53.4121 42.3232C53.5747 42.284 53.6707 42.182 53.6623 41.934ZM54.0958 43.7613C54.0388 43.5129 53.9704 43.2016 53.895 42.8919C53.8562 42.7323 53.7419 42.6932 53.5917 42.7258C53.4358 42.7597 53.2802 42.8115 53.3161 43.0094C53.3729 43.3227 53.4482 43.6333 53.5284 43.9416C53.5662 44.0867 53.6817 44.1558 53.8314 44.1295C53.9953 44.1009 54.106 44.0124 54.0958 43.7613ZM54.0416 55.8794C54.0744 55.6936 53.9939 55.6023 53.8173 55.5573C53.6435 55.5131 53.5165 55.5475 53.4695 55.7279C53.3945 56.0156 53.336 56.3077 53.2647 56.5964C53.2123 56.8086 53.3149 56.9108 53.504 56.9596C53.6902 57.0075 53.7912 56.9086 53.834 56.7471C53.9101 56.4597 53.9732 56.1688 54.0416 55.8794ZM54.3507 54.2121C54.3507 54.1561 54.3515 54.1 54.3506 54.044C54.3477 53.8693 54.2564 53.7602 54.089 53.7302C53.8862 53.6938 53.8306 53.8456 53.7995 53.9965C53.7428 54.2708 53.6948 54.5472 53.6519 54.8242C53.6232 55.0094 53.7384 55.0965 53.8989 55.14C54.0837 55.19 54.189 55.104 54.2242 54.9305C54.2725 54.6925 54.3091 54.4521 54.3507 54.2121ZM54.0776 50.7383C54.0776 50.9532 54.0739 51.0651 54.0785 51.1766C54.0844 51.3166 54.1264 51.4361 54.29 51.4579C54.4736 51.4823 54.5655 51.3833 54.6039 51.2163C54.667 50.9427 54.697 50.6658 54.685 50.3848C54.6779 50.2187 54.6218 50.0901 54.4304 50.0841C54.2546 50.0786 54.1463 50.1769 54.1169 50.3416C54.0876 50.5057 54.0834 50.6742 54.0776 50.7383ZM54.3773 45.4046C54.3398 45.1983 54.2999 44.9397 54.2441 44.6845C54.2059 44.5101 54.0658 44.5245 53.9298 44.5442C53.7883 44.5647 53.662 44.6088 53.689 44.7841C53.7402 45.1166 53.7979 45.4484 53.8656 45.7779C53.8915 45.9038 53.999 45.9505 54.1239 45.9413C54.2507 45.932 54.334 45.8614 54.3565 45.738C54.3731 45.647 54.3691 45.5522 54.3773 45.4046ZM54.6869 48.9784C54.6684 48.8464 54.6459 48.6632 54.6162 48.4811C54.5909 48.3254 54.537 48.1809 54.3401 48.2083C54.1706 48.2318 54.0855 48.3511 54.0831 48.5192C54.08 48.7407 54.0813 48.9626 54.0895 49.1841C54.098 49.4115 54.1776 49.5981 54.4477 49.5687C54.7046 49.5407 54.6799 49.3252 54.6867 49.1414C54.6882 49.1045 54.6869 49.0675 54.6869 48.9784ZM53.9505 52.7999C53.9505 52.8527 53.9476 52.927 53.9511 53.0011C53.9607 53.2065 54.0804 53.3008 54.2758 53.3031C54.4592 53.3053 54.4691 53.161 54.4843 53.0316C54.5169 52.7554 54.5507 52.479 54.5717 52.2018C54.5821 52.0649 54.5416 51.9387 54.3802 51.9071C54.2048 51.8726 54.0972 51.9517 54.0434 52.1182C53.974 52.3332 53.9619 52.5555 53.9505 52.7999ZM54.5787 47.3961C54.5806 47.0538 54.5412 46.7985 54.4665 46.5496C54.4305 46.4299 54.3365 46.3729 54.2132 46.3768C54.0904 46.3807 53.9901 46.4394 53.9744 46.5646C53.9302 46.9178 53.9777 47.2652 54.0873 47.6021C54.1263 47.722 54.2323 47.7623 54.3542 47.7496C54.4819 47.7363 54.5515 47.6583 54.5692 47.5355C54.5797 47.4627 54.5792 47.3883 54.5787 47.3961ZM33.57 25.3263C33.6141 25.3277 33.6582 25.329 33.7023 25.3304C33.7881 24.9363 33.7635 24.5317 33.7212 24.1268C33.715 24.0669 33.6517 24.029 33.5978 24.0527C33.5554 24.0714 33.5004 24.1307 33.5021 24.1699C33.5186 24.5556 33.5459 24.9409 33.57 25.3263Z" fill="#3B5A4F"/>
<path d="M36.1619 29.6348C36.1323 31.4628 35.8214 33.2552 35.451 35.038C34.7056 38.6259 33.6621 42.1315 32.498 45.6029C32.4563 45.7274 32.42 45.8543 32.3696 45.9753C32.2496 46.2636 32.2799 46.4882 32.526 46.7264C34.1147 48.2645 34.3415 50.9234 33.3518 52.7252C33.1149 53.1564 32.8516 53.5713 32.468 53.8807C32.1894 54.1054 32.1439 54.3119 32.282 54.648C32.8952 56.1408 33.4496 57.6565 33.971 59.1842C35.0273 62.2796 35.9313 65.4144 36.3276 68.6713C36.4404 69.5983 36.5615 70.533 36.4057 71.4753C36.3413 71.8642 36.1977 72.1663 35.7982 72.2605C35.4109 72.3518 35.0993 72.1966 34.8708 71.8763C34.3893 71.2014 34.0073 70.4689 33.6547 69.7222C32.4083 67.0834 31.5124 64.3177 30.7089 61.5196C30.0664 59.2825 29.5032 57.0252 29.0178 54.7491C28.9439 54.4025 28.7787 54.184 28.462 54.0353C27.7683 53.7097 27.1169 53.3082 26.3552 53.1152C25.6311 52.9318 25.1217 52.4031 24.7728 51.7569C24.019 50.3604 23.9954 48.9432 24.8319 47.5803C25.4434 46.584 26.3364 46.0443 27.5632 46.1562C28.051 46.2007 28.5281 46.0414 29.0021 45.9329C29.2317 45.8804 29.2267 45.6612 29.2598 45.4781C29.4765 44.2781 29.6755 43.0746 29.9151 41.8793C30.6203 38.3608 31.4736 34.8829 32.8396 31.551C33.2746 30.4899 33.7595 29.4542 34.4091 28.5038C34.5146 28.3494 34.6252 28.1957 34.7525 28.0594C34.9934 27.8013 35.2992 27.7286 35.6285 27.8416C35.9628 27.9564 36.1454 28.2126 36.1588 28.5654C36.1725 28.9214 36.1619 29.2783 36.1619 29.6348ZM35.4723 71.2108C35.5886 70.9431 35.5539 70.7543 35.5545 70.5711C35.5612 68.7197 35.207 66.9165 34.7874 65.1266C33.8644 61.1898 32.4645 57.411 30.9443 53.6735C30.895 53.5522 30.8364 53.4342 30.7743 53.3189C30.711 53.2013 30.6133 53.1859 30.4875 53.2233C29.9102 53.3951 29.703 53.7202 29.8262 54.2998C30.4267 57.1253 31.1394 59.9223 31.9737 62.688C32.6404 64.898 33.3964 67.0751 34.3609 69.1758C34.6735 69.8567 35.0263 70.514 35.4723 71.2108ZM35.2822 28.8951C35.1146 28.9887 35.0539 29.1046 34.9895 29.2129C34.6445 29.7931 34.3133 30.3801 34.0359 30.997C33.4584 32.2813 32.9798 33.6021 32.5581 34.9441C31.5558 38.133 30.8648 41.3945 30.3023 44.6853C30.2012 45.2762 30.1158 45.8698 30.0254 46.4625C30.0028 46.6104 29.9679 46.7635 30.1612 46.84C30.6572 47.0361 31.1323 46.8272 31.3057 46.3184C31.62 45.3961 31.9322 44.4729 32.2331 43.5461C33.1074 40.8528 33.8646 38.1269 34.475 35.3613C34.8794 33.5293 35.1783 31.681 35.3015 29.8071C35.3206 29.5167 35.3433 29.2232 35.2822 28.8951ZM25.1108 49.6892C25.1403 50.4587 25.3129 51.1572 25.8276 51.7307C26.6679 52.6671 27.9012 52.6301 28.6918 51.6509C29.5515 50.5859 29.537 48.7832 28.6602 47.7313C27.8927 46.8104 26.6922 46.7734 25.8669 47.6491C25.322 48.2271 25.1435 48.9414 25.1108 49.6892ZM28.4583 52.982C28.7083 53.2455 28.8727 53.234 29.0987 53.0647C29.4415 52.8078 29.8143 52.5864 30.1906 52.3795C30.802 52.0435 31.2188 52.1805 31.5248 52.7901C31.5667 52.8736 31.5995 52.9617 31.6383 53.0468C31.7232 53.2332 31.8524 53.2527 31.9882 53.1136C32.1314 52.967 32.2761 52.8146 32.3845 52.6423C32.9542 51.7365 33.1704 50.7487 33.0216 49.6875C32.9186 48.9535 32.6866 48.2682 32.2191 47.6778C32.0616 47.4789 31.901 47.3657 31.661 47.5754C31.4964 47.7194 31.2812 47.7185 31.0733 47.7184C30.7738 47.7181 30.4739 47.7108 30.1746 47.7196C29.7946 47.7307 29.7722 47.7662 29.8899 48.1037C29.9207 48.192 29.9653 48.2757 29.9926 48.3648C30.3166 49.4255 30.2965 50.4654 29.8152 51.4823C29.5201 52.1062 29.0879 52.607 28.4583 52.982Z" fill="#3B5A4F"/>
</svg>
