<svg width="77" height="91" viewBox="0 0 77 91" fill="none" xmlns="http://www.w3.org/2000/svg">
<path d="M9.39912 25.2967C9.02635 25.3589 8.69788 25.4198 8.36749 25.4678C7.17965 25.6405 5.9937 25.8397 4.78623 25.6438C4.4135 25.5834 4.05026 25.5017 3.70364 25.3508C3.23782 25.148 2.88085 24.8292 2.66918 24.363C1.5993 22.0067 0.97606 19.558 1.09291 16.9462C1.16977 15.2283 1.87948 13.8114 3.02721 12.5657C4.78603 10.6568 6.83907 9.12419 9.04148 7.77608C9.721 7.36016 9.72465 7.36098 9.43357 6.64155C8.93385 5.40633 8.44588 4.16601 7.92119 2.94145C7.71959 2.47101 7.77584 2.08131 8.05552 1.67581C8.34605 1.25456 8.67303 0.868312 9.07633 0.557439C9.87411 -0.0574488 10.7438 -0.165986 11.6703 0.243468C12.1009 0.433771 12.398 0.74276 12.5937 1.17981C13.1074 2.32731 13.644 3.46458 14.1742 4.60463C14.4128 5.11745 14.4466 5.13564 14.9874 4.94522C16.6376 4.36423 18.3206 3.91609 20.056 3.6782C22.4624 3.34832 24.8439 3.42985 27.1952 4.09166C28.042 4.33001 28.6851 4.87803 29.3132 5.4384C30.8508 6.81038 31.986 8.47418 32.7787 10.3733C32.8945 10.6508 33.0148 10.9239 33.1752 11.1802C33.5089 11.7133 33.5318 12.2738 33.2984 12.8513C32.9663 13.6725 32.3872 14.3111 31.7561 14.905C31.3369 15.2996 30.8916 15.6663 30.3861 16.1083C30.819 16.1514 31.1653 16.218 31.5111 16.2149C32.9069 16.202 34.2726 16.4689 35.6493 16.6325C37.0642 16.8005 38.4828 16.9424 39.8931 17.1434C41.8989 17.4292 43.9318 17.4359 45.9319 17.7866C49.2584 18.37 52.3762 19.5087 55.2995 21.1922C55.5271 21.3233 55.756 21.4524 55.9879 21.5758C56.0577 21.6129 56.1363 21.6028 56.1781 21.5228C56.2069 21.4677 56.1883 21.4073 56.1437 21.3693C56.0299 21.2722 55.9153 21.1749 55.7928 21.0895C52.802 19.007 49.9134 16.7925 47.1801 14.3805C46.4061 13.6975 45.6726 12.969 45.0356 12.1515C44.8161 11.8699 44.6111 11.5774 44.4604 11.2519C44.124 10.5252 44.187 10.088 44.747 9.51773C45.0621 9.19698 45.4053 8.903 45.7455 8.60808C47.1249 7.41249 48.5866 6.3404 50.2103 5.48665C51.8261 4.63701 53.5355 4.50233 55.3014 4.68612C58.2774 4.99586 61.1077 5.83684 63.8372 7.04357C64.34 7.26585 64.3537 7.25339 64.6246 6.77695C65.4225 5.37388 66.2409 3.98187 67.0046 2.56042C67.331 1.95278 67.774 1.69004 68.4455 1.69808C69.0527 1.70537 69.6454 1.74515 70.2004 2.01679C71.0728 2.44384 71.5062 3.16605 71.6061 4.11157C71.6395 4.42797 71.5013 4.6962 71.366 4.9656C70.6664 6.35749 69.9674 7.74974 69.2682 9.14187C69.2177 9.24249 69.1652 9.34225 69.1172 9.44408C68.9189 9.86518 68.915 9.87153 69.2769 10.132C69.9326 10.604 70.5566 11.114 71.1689 11.6409C72.8014 13.0456 74.208 14.6491 75.4098 16.4331C75.7481 16.9353 75.9585 17.5024 76.1449 18.0731C76.8275 20.1641 77.1183 22.3007 76.9561 24.5058C76.8113 26.4722 76.3612 28.3581 75.6508 30.1886C75.3427 30.9825 74.9489 31.2204 74.0921 31.1708C73.6369 31.1445 73.2054 31.0155 72.7777 30.8764C71.9197 30.5974 71.0922 30.2407 70.2792 29.8515C67.5667 28.5532 64.9737 27.0403 62.419 25.4592C62.1796 25.311 61.9395 25.1641 61.6991 25.0176C61.548 24.9255 61.3875 24.8361 61.268 25.0491C61.1626 25.237 60.985 25.4273 61.2068 25.6542C61.5214 25.9762 61.8353 26.2988 62.1473 26.6233C66.1922 30.8311 68.8694 35.8014 70.3763 41.4193C71.0445 43.9103 71.4085 46.4459 71.5484 49.0244C71.8615 54.7939 70.8385 60.3133 68.5084 65.5857C66.6887 69.7034 64.1369 73.3221 60.8503 76.4068C59.1476 78.0049 57.2899 79.4019 55.2541 80.555C54.8261 80.7974 54.8211 80.8017 54.9545 81.3175C55.4715 83.3159 55.9872 85.3146 56.5172 87.3095C56.6311 87.7382 56.6587 88.1529 56.5598 88.586C56.3023 89.7149 55.4837 90.2685 54.3488 90.0342C53.7308 89.9066 53.2063 89.631 52.8028 89.0951C51.482 87.341 50.1186 85.6189 48.7939 83.8676C48.5159 83.5 48.2565 83.3955 47.7989 83.5204C46.1469 83.9715 44.449 84.1653 42.7461 84.2957C41.4851 84.3923 40.242 84.1284 38.9898 84.0419C37.9615 83.9708 36.9367 83.851 35.9103 83.7528C34.492 83.6172 33.0738 83.4813 31.6554 83.3463C30.7409 83.2592 29.8278 83.1484 28.9114 83.0911C24.2567 82.8001 19.9182 81.4902 15.9116 79.0954C15.1974 78.6685 15.1907 78.6614 14.6004 79.2435C13.1435 80.6802 11.6858 82.1161 10.2448 83.5684C9.68439 84.1332 9.00456 84.3332 8.25036 84.2987C7.34569 84.2573 6.71364 83.6329 6.61525 82.7331C6.56155 82.2421 6.61717 81.7673 6.81151 81.3004C7.67679 79.2213 8.52709 77.1361 9.38242 75.0529C9.44658 74.8967 9.49358 74.7317 9.57284 74.5837C9.71991 74.309 9.65668 74.1101 9.44133 73.8871C7.22238 71.5886 5.39904 69.0036 3.93463 66.1679C2.54089 63.4689 1.52341 60.6293 0.869872 57.6636C0.392606 55.4976 0.138493 53.3059 0.0376386 51.0853C-0.15968 46.7405 0.419888 42.5091 1.75138 38.3823C3.16895 33.9887 5.37705 30.0278 8.41268 26.5382C8.73261 26.1705 9.0541 25.8041 9.37372 25.436C9.38368 25.4246 9.38069 25.4016 9.39912 25.2967ZM0.884691 50.1077C0.866033 51.1527 0.993385 52.8723 1.22767 54.5852C1.85345 59.1605 3.30281 63.4513 5.65061 67.4342C7.39006 70.3852 9.52835 73.0082 12.1129 75.2572C15.036 77.8009 18.3213 79.7213 22.0159 80.9215C24.4945 81.7268 27.0367 82.1693 29.641 82.2313C30.5966 82.254 31.5512 82.2311 32.5084 82.1545C34.4255 82.0011 36.3043 81.6619 38.1387 81.102C43.8198 79.3681 48.4645 76.0895 52.2362 71.5401C54.2135 69.1551 55.7935 66.5214 57.0219 63.6777C58.8458 59.4554 59.7666 55.037 59.8787 50.4452C59.9007 49.5442 59.8359 48.6454 59.7994 47.7454C59.7361 46.1848 59.5583 44.6385 59.2704 43.1081C58.3381 38.151 56.4801 33.5783 53.5313 29.466C50.6478 25.4445 47.0589 22.2266 42.6309 19.9936C38.0869 17.702 33.2715 16.7431 28.1844 17.1606C25.9454 17.3444 23.7622 17.7731 21.6445 18.5088C16.3461 20.3497 11.9856 23.5284 8.44486 27.8537C5.67495 31.2374 3.68608 35.0404 2.41083 39.2189C1.39598 42.544 0.866307 45.9424 0.884691 50.1077ZM34.8737 82.7681C36.8774 82.9635 38.8175 83.1542 40.758 83.3406C41.2057 83.3836 41.6579 83.4628 42.1028 83.4365C43.2062 83.3715 44.3131 83.3203 45.404 83.1171C45.994 83.0072 46.5855 82.9046 47.1731 82.7831C47.7615 82.6615 47.7845 82.5885 47.4293 82.1251C47.1552 81.7676 46.8969 81.3967 46.605 81.0545C46.2391 80.6258 46.22 80.1931 46.4743 79.7045C46.9524 78.7856 47.6112 78.0326 48.4657 77.4497C49.7256 76.5905 51.1481 76.2115 52.642 76.0685C53.3048 76.0051 53.6206 76.2391 53.7993 76.8798C54.0109 77.6389 54.1927 78.4061 54.3974 79.1672C54.5999 79.9206 54.6044 79.9176 55.2506 79.5288C58.6218 77.5001 61.4676 74.8894 63.8455 71.7623C66.0117 68.9136 67.6457 65.7801 68.8113 62.4015C69.9641 59.0602 70.5844 55.6179 70.6928 52.0863C70.7545 50.0761 70.6315 48.0742 70.3751 46.0787C69.8922 42.3219 68.8158 38.7425 67.1607 35.3405C65.7724 32.487 63.9903 29.8949 61.851 27.5505C61.5349 27.2042 61.194 26.8805 60.8662 26.5448C60.7137 26.3887 60.5857 26.3694 60.4809 26.5941C60.4096 26.747 60.3299 26.8962 60.2525 27.0463C60.0116 27.5132 59.7732 27.9815 59.5277 28.446C59.3459 28.7899 59.0582 28.9934 58.665 28.9745C56.9464 28.892 55.5101 28.2605 54.4395 26.8554C53.946 26.2077 53.7992 25.6006 54.3352 24.9256C54.3583 24.8965 54.3741 24.8615 54.3926 24.8288C54.7719 24.1594 55.1465 23.4872 55.5326 22.8217C55.673 22.5797 55.6581 22.4008 55.3927 22.271C55.3257 22.2381 55.2659 22.1907 55.2017 22.1519C53.0351 20.8432 50.7258 19.8671 48.2852 19.2035C46.3232 18.67 44.3287 18.3379 42.2916 18.2991C41.8919 18.2915 41.4993 18.1329 41.0809 18.2225C41.1035 18.2608 41.1087 18.2834 41.1218 18.2897C41.3239 18.3882 41.5246 18.4901 41.7303 18.5806C44.6609 19.8697 47.2945 21.6182 49.6585 23.7673C53.7379 27.476 56.6844 31.9547 58.5749 37.1224C60.2387 41.6705 60.9359 46.374 60.7332 51.2153C60.6703 52.7182 60.5347 54.2108 60.2779 55.6904C58.8202 64.0887 54.9781 71.1422 48.3805 76.6112C45.3975 79.084 42.0294 80.8653 38.3075 81.9674C37.1972 82.2962 36.0664 82.536 34.8737 82.7681ZM76.1043 23.1219C76.0958 21.5222 75.7993 19.7183 75.1673 17.9716C75.0005 17.5106 74.7826 17.0803 74.507 16.6721C73.4288 15.0749 72.1221 13.6807 70.6976 12.3961C70.0998 11.857 69.4423 11.3842 68.814 10.8788C68.6029 10.709 68.4532 10.7297 68.3382 10.9905C68.2324 11.2305 68.0968 11.4572 67.9873 11.6957C67.7595 12.1915 67.3671 12.3781 66.8438 12.3099C66.4167 12.2543 65.9866 12.214 65.5696 12.0944C64.6631 11.8346 63.9674 11.3106 63.4762 10.4978C63.1217 9.91092 63.0421 9.3493 63.485 8.77635C63.5419 8.70278 63.5832 8.61663 63.6279 8.53419C63.8887 8.0534 63.8736 8.00797 63.3804 7.77977C63.3294 7.75617 63.2764 7.73681 63.2248 7.71446C60.574 6.56845 57.8262 5.77902 54.9448 5.50284C53.4428 5.35887 51.9961 5.54329 50.6287 6.25206C48.6932 7.25523 47.0221 8.60773 45.4383 10.0811C45.1129 10.3839 45.1042 10.523 45.3011 10.9291C45.5583 11.4594 45.9503 11.8919 46.3499 12.3145C48.2912 14.3679 50.5174 16.0914 52.7527 17.8007C55.7054 20.0587 58.7818 22.1405 61.9236 24.1244C64.8271 25.9578 67.7749 27.7161 70.8915 29.1715C71.8601 29.6238 72.8319 30.0763 73.8926 30.2785C74.523 30.3987 74.6569 30.3234 74.8763 29.7495C75.6609 27.698 76.0975 25.5789 76.1043 23.1219ZM2.9302 22.4248C3.25303 22.0853 3.50075 21.6657 3.83946 21.3203C5.2591 19.8727 6.92307 18.7505 8.65284 17.7266C13.6704 14.7566 18.9982 12.5103 24.6289 10.995C26.4782 10.4974 28.3475 10.088 30.2831 10.131C30.729 10.1409 31.1749 10.1446 31.6076 10.2172C31.6301 10.1387 31.6566 10.0984 31.6468 10.0712C31.6026 9.94835 31.5551 9.82567 31.4964 9.70909C30.7261 8.17848 29.6656 6.87658 28.359 5.77569C27.9443 5.42632 27.5159 5.09405 26.9736 4.93749C25.7952 4.59734 24.5914 4.41158 23.3712 4.36298C21.6757 4.2954 20.001 4.50237 18.3485 4.87462C15.037 5.62051 11.9824 6.98543 9.10322 8.75974C7.24409 9.90543 5.50397 11.2072 3.9848 12.7863C2.42867 14.4039 1.92177 15.5632 1.94783 17.6633C1.96704 19.21 2.2602 20.7203 2.74358 22.1911C2.77157 22.2762 2.79289 22.3733 2.9302 22.4248ZM30.1204 10.9888C29.1738 10.9634 28.2632 11.1001 27.3626 11.2673C24.4049 11.8164 21.5557 12.7416 18.7548 13.8234C18.3774 13.9691 18.3647 13.9958 18.5272 14.3519C19.025 15.4429 19.5282 16.5315 20.0365 17.6177C20.2419 18.0567 20.2517 18.0562 20.7116 17.8883C23.1729 16.9899 25.7149 16.4634 28.3217 16.2395C28.5542 16.2196 28.7575 16.1588 28.948 16.0253C29.8396 15.4004 30.6971 14.7337 31.468 13.9627C31.8268 13.6038 32.1471 13.2109 32.367 12.7481C32.7493 11.9437 32.5119 11.4148 31.655 11.1518C31.1466 10.9957 30.6242 10.9679 30.1204 10.9888ZM55.7205 88.0586C55.726 87.8505 55.6894 87.6491 55.6369 87.448C54.7749 84.1462 53.9161 80.8436 53.0529 77.5421C52.9087 76.9906 52.8547 76.9381 52.2657 77.0015C50.9555 77.1426 49.7406 77.56 48.6893 78.3742C48.1829 78.7664 47.7645 79.2456 47.4167 79.7902C47.1929 80.1406 47.2125 80.4107 47.4749 80.7473C49.5041 83.3504 51.5181 85.9655 53.5291 88.5827C53.8409 88.9884 54.26 89.1595 54.7373 89.21C55.1801 89.2569 55.4422 89.0729 55.6159 88.6642C55.6988 88.4692 55.7138 88.2653 55.7205 88.0586ZM6.28383 24.8145C7.53533 24.8025 9.01984 24.5032 10.4957 24.1424C10.6844 24.0963 10.8394 24.0072 10.9809 23.8771C12.0447 22.8995 13.1695 21.9987 14.3631 21.1833C14.7499 20.9191 14.7624 20.8782 14.5901 20.4415C14.1089 19.2216 13.6207 18.0044 13.126 16.7899C12.9641 16.3922 12.9431 16.3888 12.5474 16.5818C11.5873 17.0504 10.6543 17.5702 9.72861 18.1028C8.03639 19.0765 6.40504 20.1387 4.94972 21.4498C4.43279 21.9155 3.95862 22.4256 3.63739 23.0493C3.24127 23.8183 3.50871 24.4046 4.33526 24.6601C4.8832 24.8295 5.44599 24.8032 6.28383 24.8145ZM68.7017 2.55262C68.3018 2.53388 67.9853 2.61494 67.7625 3.01526C66.6134 5.08072 65.4494 7.13807 64.2686 9.18561C64.056 9.55423 64.0912 9.85154 64.3073 10.1742C64.8668 11.0095 65.6825 11.3457 66.6528 11.4053C66.9983 11.4265 67.2053 11.3041 67.3613 10.9902C68.4132 8.87321 69.4773 6.76232 70.5414 4.65143C70.8139 4.11086 70.702 3.63086 70.3244 3.19733C69.8968 2.70639 69.3131 2.58707 68.7017 2.55262ZM10.4449 74.9379C10.3729 75.0303 10.342 75.0562 10.3284 75.0892C9.42134 77.2914 8.51314 79.4932 7.61255 81.6981C7.46787 82.0523 7.43628 82.4247 7.54011 82.8019C7.64884 83.1969 7.94706 83.4655 8.35443 83.4428C8.78298 83.4189 9.20537 83.3465 9.54121 83.014C11.0741 81.4965 12.6172 79.9893 14.1525 78.4743C14.4552 78.1756 14.4505 78.1617 14.0746 77.8999C13.1809 77.2771 12.3326 76.5974 11.5143 75.8793C11.165 75.5727 10.8166 75.2652 10.4449 74.9379ZM58.4288 28.0941C58.6102 28.1304 58.8133 27.9472 58.9625 27.6468C59.4468 26.6722 59.9446 25.7043 60.4258 24.7281C60.601 24.3726 60.5819 24.3134 60.24 24.0844C59.289 23.4475 58.3335 22.8174 57.3751 22.1918C57.0826 22.0009 57.0094 22.014 56.838 22.3112C56.2195 23.3839 55.6153 24.4649 54.9983 25.5385C54.8694 25.7629 54.8857 25.9555 55.0269 26.1645C55.8015 27.3111 56.8792 27.9389 58.4288 28.0941ZM19.3062 18.1861C19.2726 18.1024 19.2291 17.9789 19.1746 17.8604C18.8852 17.2311 18.5923 16.6033 18.302 15.9743C18.1136 15.5664 17.9365 15.153 17.7379 14.7501C17.5418 14.3521 17.4721 14.3227 17.0896 14.4888C16.1109 14.9141 15.1343 15.3445 14.1627 15.7857C13.7746 15.9619 13.764 15.9968 13.9169 16.3834C14.3921 17.5848 14.8731 18.7838 15.36 19.9805C15.5307 20.4 15.5507 20.4031 15.9703 20.155C16.9223 19.5919 17.9055 19.0899 18.9097 18.6278C18.9946 18.5887 19.0802 18.5504 19.1622 18.5059C19.2711 18.4468 19.3226 18.3531 19.3062 18.1861ZM10.6502 0.864117C10.3167 0.889673 10.0552 0.985237 9.80626 1.12399C9.41828 1.34021 9.15135 1.67644 8.88551 2.01961C8.70329 2.25487 8.68812 2.48061 8.80022 2.75135C9.31715 3.99946 9.81837 5.25409 10.3351 6.50233C10.4955 6.88975 10.55 6.90974 10.9218 6.72109C11.6582 6.34738 12.4005 5.98724 13.1572 5.65598C13.5845 5.46897 13.5953 5.45204 13.4071 5.04066C12.8687 3.8633 12.319 2.6911 11.7693 1.51899C11.5383 1.02643 11.08 0.928518 10.6502 0.864117Z" fill="#3B5A4F"/>
<path d="M29.5553 78.9125C24.0121 78.8452 19.0628 77.0782 14.725 73.6399C10.3271 70.1538 7.28531 65.6945 5.42563 60.4157C4.37076 57.4213 3.80781 54.3373 3.64741 51.1634C3.40752 46.4164 4.18076 41.8496 5.95879 37.4555C7.62499 33.3377 10.0945 29.7583 13.3942 26.7788C16.5159 23.96 20.1142 22.0059 24.222 21.0363C26.2584 20.5556 28.3273 20.3286 30.4196 20.4189C35.1152 20.6216 39.3982 22.0696 43.2493 24.7648C47.3429 27.6296 50.3846 31.3858 52.5289 35.8763C53.996 38.9489 54.9142 42.186 55.3269 45.5699C55.5066 47.044 55.6358 48.5238 55.6066 50.0028C55.5183 54.48 54.637 58.7918 52.7726 62.8855C51.1983 66.3423 49.0765 69.412 46.3266 72.0348C42.7722 75.4249 38.5971 77.6351 33.7546 78.5328C32.3708 78.7893 30.9713 78.9423 29.5553 78.9125ZM33.6486 26.4146C32.2307 26.3636 30.7309 26.5958 29.2504 26.9562C25.6393 27.8351 22.551 29.6598 19.903 32.2359C16.9205 35.1374 14.8838 38.6291 13.6667 42.5919C12.7108 45.7042 12.3425 48.8907 12.5765 52.1521C12.7222 54.1839 13.0295 56.1784 13.6124 58.1273C15.1899 63.4023 18.095 67.7593 22.6 70.9844C23.7907 71.8368 25.0401 72.6095 26.4641 73.0282C28.8861 73.7403 31.352 73.9588 33.8675 73.7003C36.1914 73.4615 38.3926 72.8222 40.4774 71.7805C44.1305 69.9551 47.0097 67.2605 49.1793 63.8269C52.6265 58.3713 53.7848 52.4038 52.9659 46.0342C52.641 43.5066 51.9509 41.0738 50.8867 38.7532C48.9036 34.4286 45.9898 30.9099 41.8968 28.424C41.1768 27.9867 40.4494 27.5524 39.6345 27.298C37.7223 26.7011 35.7692 26.3798 33.6486 26.4146ZM41.8181 24.9297C40.8929 24.2682 39.9146 23.6609 38.8295 23.3008C35.5353 22.2077 32.1492 21.9182 28.7178 22.3988C25.0687 22.9097 21.7303 24.2629 18.7086 26.368C15.1284 28.8622 12.3606 32.0873 10.3229 35.9309C7.19833 41.8245 6.19218 48.1071 7.0192 54.6975C7.40008 57.7324 8.21804 60.6532 9.48466 63.4437C11.5616 68.0195 14.5685 71.8396 18.6988 74.7344C20.3655 75.9024 22.1132 76.9214 24.1435 77.3467C25.1532 77.5582 26.1581 77.7817 27.1898 77.8761C29.3118 78.0702 31.4223 78.0375 33.5249 77.6638C36.1961 77.1892 38.6923 76.2443 41.0405 74.8958C41.1181 74.8512 41.2283 74.8239 41.2722 74.6627C41.0514 74.7697 40.8834 74.8523 40.7143 74.9328C37.7552 76.3425 34.6361 77.0559 31.3593 77.1061C29.793 77.1302 28.2492 76.9541 26.7232 76.6266C25.6789 76.4025 24.6338 76.1674 23.6614 75.6963C20.5909 74.2087 17.9745 72.1376 15.777 69.5366C11.5414 64.5232 9.39596 58.683 8.99822 52.1755C8.88835 50.3777 8.94633 48.5768 9.1723 46.7807C9.67806 42.761 10.8907 38.982 12.946 35.4865C15.1438 31.7488 18.0201 28.6554 21.7467 26.3987C25.8682 23.9028 30.3286 22.7889 35.1457 23.206C37.4591 23.4063 39.718 23.8309 41.8181 24.9297ZM13.3545 71.254C13.3545 71.1841 13.3683 71.1402 13.3522 71.1184C13.2632 70.998 13.1692 70.8813 13.0728 70.7667C11.0761 68.3931 9.46452 65.7829 8.2904 62.911C6.43649 58.3763 5.65395 53.6608 5.90976 48.766C6.07356 45.6317 6.66912 42.5892 7.728 39.6369C9.4954 34.7094 12.3235 30.5027 16.3174 27.1052C19.1333 24.7098 22.334 23.0262 25.9109 22.0751C27.2651 21.715 28.6459 21.4943 30.0919 21.3784C29.8842 21.2266 29.6909 21.241 29.5158 21.2645C28.6403 21.382 27.7561 21.3336 26.8778 21.4433C24.1274 21.7866 21.5296 22.6054 19.0785 23.8851C16.4925 25.2352 14.2236 26.9984 12.244 29.1474C10.5796 30.9542 9.16235 32.9306 8.02731 35.1037C5.27331 40.3763 4.14682 45.9828 4.5874 51.9172C4.7915 54.6665 5.30628 57.3448 6.19954 59.9503C7.60288 64.0436 9.79762 67.656 12.8077 70.7685C12.971 70.9374 13.1197 71.1295 13.3545 71.254ZM25.635 75.4721C25.8686 75.4989 25.9976 75.3864 26.0565 75.1793C26.1486 74.855 26.2322 74.5283 26.3236 74.2038C26.3807 74.0011 26.3102 73.8817 26.108 73.8263C24.7308 73.4492 25.1624 73.1003 24.4762 74.4285C24.4247 74.5283 24.3801 74.6317 24.3305 74.7325C24.2491 74.8982 24.2844 75.036 24.4587 75.0962C24.8476 75.2305 25.2425 75.3478 25.635 75.4721ZM17.4664 70.0039C17.5386 69.9584 17.6061 69.9275 17.6589 69.8801C17.7836 69.7683 17.9181 69.6615 18.0182 69.5295C18.2228 69.2598 18.7199 69.1147 18.6166 68.7416C18.5322 68.4368 18.1752 68.2075 17.9386 67.9451C17.8313 67.826 17.7097 67.8251 17.5933 67.9222C17.2647 68.1965 16.9389 68.4744 16.6151 68.7545C16.4799 68.8715 16.4648 69.0094 16.588 69.144C16.8142 69.3913 17.0438 69.6355 17.2768 69.8762C17.326 69.927 17.396 69.9574 17.4664 70.0039ZM16.3189 65.9422C16.3121 65.9106 16.3127 65.8693 16.295 65.8389C16.2194 65.7099 16.141 65.5823 16.0588 65.4573C15.617 64.7859 15.606 64.7708 14.9702 65.203C14.6909 65.3929 14.1981 65.4611 14.2043 65.8442C14.21 66.1957 14.5669 66.4803 14.7707 66.7932C14.8909 66.9778 15.0352 66.966 15.1992 66.8479C15.5183 66.6179 15.8414 66.3935 16.1623 66.1661C16.2394 66.1115 16.3106 66.0513 16.3189 65.9422ZM21.3887 71.3505C21.3936 71.2117 21.3318 71.1425 21.2594 71.082C21.1593 70.9983 21.0553 70.9193 20.9536 70.8374C20.3643 70.363 20.3508 70.3524 19.9018 70.9335C19.6952 71.2009 19.2459 71.3969 19.3588 71.7737C19.4626 72.12 19.8928 72.27 20.1725 72.5141C20.3327 72.6539 20.4748 72.6251 20.5989 72.4591C20.8333 72.1454 21.0707 71.8338 21.3029 71.5184C21.3458 71.4601 21.37 71.3879 21.3887 71.3505ZM17.4331 67.4087C17.4211 67.3737 17.4173 67.3323 17.3958 67.3046C17.1903 67.0387 16.9872 66.7705 16.7718 66.5128C16.6721 66.3935 16.5375 66.4079 16.4178 66.493C16.0827 66.7315 15.7502 66.9735 15.4175 67.2152C15.2735 67.3198 15.2344 67.4436 15.3514 67.5964C15.5561 67.8635 15.7576 68.1329 15.9622 68.4C16.056 68.5224 16.1667 68.5588 16.2978 68.4522C16.6458 68.169 16.994 67.8862 17.3415 67.6024C17.4017 67.5532 17.4383 67.4904 17.4331 67.4087ZM21.9302 73.7181C22.0866 73.7418 22.1505 73.6726 22.203 73.5935C22.3064 73.4375 22.4046 73.2781 22.5054 73.1204C23.0531 72.2638 22.9941 72.0813 22.0559 71.6661C21.8921 71.5937 21.7644 71.6049 21.6609 71.7456C21.4169 72.0771 21.1776 72.4122 20.9397 72.7481C20.8833 72.8276 20.8484 72.9346 20.9171 73.0094C21.2126 73.3308 21.5969 73.5267 21.9302 73.7181ZM10.7928 50.8825C10.6057 50.8825 10.4186 50.8782 10.2318 50.8838C10.0677 50.8888 9.92332 50.9539 9.91266 51.1337C9.88973 51.5212 9.76912 51.9548 10.0104 52.2768C10.199 52.5285 10.5727 52.3625 10.8641 52.3753C10.9747 52.3801 11.088 52.359 11.1978 52.3383C11.6215 52.2587 11.6533 52.2193 11.6646 51.7909C11.6887 50.8835 11.6787 50.8729 10.7928 50.8825ZM13.9457 65.284C13.9769 65.2768 14.0181 65.277 14.0484 65.259C14.4354 65.0294 14.8232 64.8013 15.2052 64.5636C15.3407 64.4793 15.3397 64.3448 15.2685 64.2161C15.1323 63.97 14.9881 63.7284 14.8498 63.4835C14.7492 63.3052 14.6117 63.254 14.4278 63.3528C14.0809 63.5391 13.7334 63.7245 13.3885 63.9144C13.2032 64.0165 13.1841 64.1692 13.2809 64.3438C13.4264 64.606 13.5737 64.8673 13.7237 65.127C13.7712 65.2093 13.8347 65.2783 13.9457 65.284ZM13.0651 63.5697C13.1151 63.5494 13.203 63.5194 13.2859 63.4789C13.5038 63.3725 13.7203 63.263 13.936 63.1521C14.5254 62.8489 14.5319 62.8449 14.2251 62.2337C13.9198 61.6255 14.0403 61.4556 13.2059 61.8707C12.906 62.0199 12.404 62.0027 12.3722 62.4039C12.3446 62.7533 12.6401 63.085 12.8103 63.4165C12.8543 63.5021 12.9163 63.5696 13.0651 63.5697ZM12.3408 61.7774C12.6348 61.6547 12.9998 61.5128 13.3557 61.3509C13.6889 61.1993 13.7046 61.1433 13.5877 60.7857C13.5587 60.6973 13.5203 60.6119 13.4861 60.5252C13.2235 59.8591 13.3116 59.823 12.5319 60.0967C11.4832 60.4648 11.4273 60.6081 11.9757 61.59C11.9939 61.6225 12.0099 61.6564 12.0309 61.687C12.088 61.7702 12.1641 61.8137 12.3408 61.7774ZM13.0294 59.2707C12.9149 58.946 12.9077 58.5008 12.6329 58.2314C12.4277 58.0302 12.1104 58.2987 11.841 58.3429C11.6583 58.3729 11.4844 58.4526 11.3044 58.5025C11.0791 58.565 11.0021 58.7164 11.0599 58.9284C11.1383 59.2164 11.2313 59.5007 11.3255 59.7842C11.3805 59.9497 11.4901 60.025 11.6715 59.9609C12.0589 59.8239 12.4486 59.6934 12.8354 59.5549C12.9426 59.5165 13.0419 59.4583 13.0294 59.2707ZM18.3701 32.4799C18.3673 32.3675 18.3046 32.2974 18.2378 32.2323C18.0372 32.0364 17.8366 31.8405 17.6319 31.649C17.1854 31.2315 17.1549 31.234 16.7555 31.692C16.7309 31.7202 16.7077 31.7495 16.6836 31.7781C16.1613 32.3997 16.1658 32.3942 16.7969 32.922C17.6506 33.6359 17.4329 33.5533 18.1635 32.7925C18.2525 32.6998 18.3574 32.6131 18.3701 32.4799ZM24.5302 73.3251C24.528 73.1844 24.4515 73.1266 24.3704 73.0805C24.1751 72.9693 23.9773 72.8625 23.7783 72.7579C23.3918 72.5549 23.3599 72.5641 23.1074 72.9423C23.0554 73.0201 23.007 73.1006 22.9611 73.1821C22.4809 74.0352 22.1988 73.9595 23.35 74.5575C23.8015 74.7921 23.8063 74.7888 24.0312 74.3594C24.1701 74.0939 24.3019 73.8246 24.4339 73.5555C24.4747 73.4724 24.5057 73.3843 24.5302 73.3251ZM16.0743 35.438C16.0947 35.3062 16.06 35.24 15.9954 35.196C15.6391 34.9535 15.285 34.7077 14.9213 34.4768C14.7645 34.3771 14.6299 34.4624 14.5375 34.5985C14.3585 34.8621 14.187 35.1308 14.0141 35.3985C13.9283 35.5313 13.9431 35.6456 14.0857 35.7306C14.456 35.9514 14.8251 36.1742 15.1977 36.3911C15.2803 36.4392 15.3868 36.4636 15.4589 36.3829C15.7226 36.0876 15.9057 35.7396 16.0743 35.438ZM12.2567 43.1685C12.4695 43.2356 12.579 43.1321 12.6357 42.9433C12.7107 42.6938 12.78 42.4425 12.8558 42.1933C12.9142 42.0013 12.86 41.8553 12.6716 41.7878C12.3037 41.6559 11.9313 41.537 11.5604 41.4141C11.3585 41.3472 11.2402 41.4319 11.1828 41.626C11.0984 41.9114 11.0121 42.1964 10.9275 42.4818C10.8711 42.672 10.9158 42.8122 11.1242 42.8677C11.5017 42.9682 11.8792 43.0683 12.2567 43.1685ZM17.1639 33.88C17.1548 33.7634 17.0796 33.6806 16.9905 33.6098C16.741 33.4117 16.4906 33.2146 16.2381 33.0204C15.8814 32.7459 15.8804 32.7472 15.5881 33.119C15.565 33.1485 15.5426 33.1786 15.5204 33.2088C14.8446 34.1243 14.8922 33.8896 15.7093 34.4848C16.5056 35.0649 16.3592 35.0241 16.9408 34.2707C17.0315 34.1534 17.1411 34.0447 17.1639 33.88ZM10.8317 56.2011C10.9 56.1875 11.0829 56.1509 11.2659 56.115C12.2823 55.9154 12.1637 56.0298 11.9747 54.9443C11.9287 54.6799 11.7703 54.5547 11.499 54.5902C11.1656 54.6339 10.8314 54.6732 10.5 54.7288C10.2921 54.7636 10.1595 54.8731 10.2074 55.1171C10.2613 55.392 10.3035 55.6691 10.3539 55.9447C10.3903 56.1441 10.5161 56.2286 10.8317 56.2011ZM19.0782 69.2061C18.9744 69.1977 18.9035 69.2585 18.8365 69.3237C18.6357 69.5189 18.4344 69.7137 18.2367 69.9121C17.7667 70.3836 17.7641 70.3878 18.2549 70.8641C18.9343 71.5233 18.8211 71.5119 19.4282 70.8233C20.183 69.9671 20.1146 70.189 19.3436 69.4037C19.266 69.3247 19.1948 69.2339 19.0782 69.2061ZM13.5881 39.7049C13.7124 39.7032 13.7772 39.6711 13.8125 39.5971C13.9577 39.2934 14.1054 38.9908 14.2429 38.6836C14.3101 38.5335 14.2287 38.4346 14.0959 38.3687C13.8445 38.2439 13.5932 38.119 13.3414 37.9948C12.7391 37.6978 12.739 37.698 12.4494 38.3133C12.089 39.0788 12.0883 39.0805 12.8462 39.4053C13.1036 39.5157 13.3655 39.6154 13.5881 39.7049ZM12.2403 39.605C11.9785 39.5531 11.8953 39.6301 11.8523 39.74C11.7366 40.0359 11.6262 40.3343 11.5262 40.6358C11.4818 40.7697 11.5101 40.9165 11.6477 40.9754C12.0909 41.1653 12.5527 41.482 13.0152 41.3709C13.33 41.2954 13.3118 40.7681 13.4667 40.454C13.4909 40.4051 13.4987 40.3464 13.5058 40.2911C13.516 40.2103 13.4838 40.1303 13.4153 40.1005C12.9871 39.9143 12.5551 39.7368 12.2403 39.605ZM9.92171 48.0409C9.92101 48.2645 9.87746 48.5178 10.2072 48.5514C10.5802 48.5895 10.954 48.6197 11.3277 48.65C11.531 48.6666 11.648 48.573 11.6656 48.3657C11.6736 48.2722 11.6779 48.1784 11.6871 48.085C11.7715 47.22 11.7717 47.22 10.8822 47.1377C9.99141 47.0553 9.96464 47.0788 9.92187 47.9845C9.92093 48.0033 9.92171 48.0221 9.92171 48.0409ZM15.0716 37.0633C15.119 36.8856 15.0823 36.8191 15.0185 36.7753C14.6333 36.511 14.2299 36.2764 13.8077 36.077C13.6785 36.016 13.593 36.1191 13.5372 36.2162C13.3792 36.4912 13.2297 36.7712 13.0807 37.0512C12.9814 37.2376 13.0431 37.3707 13.2262 37.4613C13.5776 37.635 13.9273 37.8123 14.279 37.9856C14.3842 38.0375 14.5051 38.0694 14.584 37.9582C14.8005 37.6529 14.9585 37.3148 15.0716 37.0633ZM11.8826 56.4094C11.5521 56.4773 11.1674 56.5535 10.7842 56.6366C10.6121 56.6739 10.5319 56.7859 10.5612 56.9652C10.5823 57.0943 10.6005 57.2241 10.6284 57.3517C10.8128 58.1948 10.8135 58.1946 11.6598 57.9621C12.6324 57.695 12.6384 57.6836 12.3243 56.7202C12.3127 56.6847 12.3043 56.648 12.2905 56.6134C12.2266 56.4537 12.1075 56.3846 11.8826 56.4094ZM19.6853 31.1583C19.6741 31.1229 19.6721 31.0803 19.6505 31.0534C19.3343 30.6606 19.0678 30.1295 18.5978 30.0033C18.2358 29.9062 18.0155 30.4544 17.7144 30.6938C17.6998 30.7053 17.6891 30.7215 17.6753 30.7342C17.5139 30.8832 17.5373 31.0196 17.6933 31.1595C17.9724 31.4097 18.2456 31.6664 18.5226 31.919C18.6065 31.9955 18.7154 32.0951 18.8171 32.0116C19.1055 31.7748 19.3757 31.5157 19.65 31.262C19.6734 31.2403 19.674 31.1938 19.6853 31.1583ZM10.9061 52.774C10.72 52.7839 10.5334 52.7877 10.3481 52.8053C10.0874 52.83 9.93277 52.9445 9.98098 53.2421C10.0107 53.4254 10.0084 53.6137 10.0267 53.7991C10.0716 54.2541 10.14 54.3226 10.5783 54.2962C10.8191 54.2817 11.0578 54.2323 11.2975 54.199C11.7754 54.1324 11.7973 54.1081 11.792 53.6487C11.7826 52.8128 11.723 52.7542 10.9061 52.774ZM23.1257 28.5742C23.1744 28.5534 23.2455 28.5301 23.3095 28.4941C23.5372 28.3663 23.758 28.2255 23.9898 28.106C24.2082 27.9935 24.2268 27.852 24.1119 27.6513C23.9451 27.36 23.7832 27.0653 23.635 26.7643C23.524 26.5387 23.388 26.4493 23.1511 26.5914C22.8792 26.7545 22.6041 26.9124 22.3276 27.0676C22.1564 27.1637 22.15 27.287 22.2464 27.4391C22.4461 27.7542 22.6425 28.0714 22.844 28.3854C22.9042 28.4793 22.971 28.5732 23.1257 28.5742ZM21.5991 27.5219C21.4526 27.6216 21.2661 27.7432 21.0854 27.8728C20.4912 28.2986 20.3571 28.2225 20.8988 28.919C21.6213 29.8481 21.3551 29.7743 22.3807 29.0828C22.6018 28.9338 22.6042 28.7653 22.4657 28.5604C22.2774 28.2818 22.0967 27.9981 21.9108 27.7178C21.8488 27.6244 21.7847 27.53 21.5991 27.5219ZM21.0586 29.8871C21.0449 29.8528 21.0346 29.7935 21.0023 29.7511C20.7416 29.4097 20.4789 29.0697 20.2115 28.7335C20.1461 28.6512 20.0464 28.6352 19.9626 28.7027C19.6718 28.9367 19.3832 29.1738 19.1006 29.4175C18.9837 29.5183 18.98 29.6418 19.0864 29.7618C19.359 30.0693 19.6294 30.3789 19.9041 30.6844C19.9833 30.7725 20.0875 30.8364 20.1982 30.7485C20.4613 30.5397 20.717 30.3216 20.9733 30.1044C21.0315 30.055 21.0624 29.9863 21.0586 29.8871ZM11.7575 44.9626C12.0018 44.976 12.1546 44.8736 12.2102 44.6355C12.2567 44.4364 12.3064 44.2375 12.3418 44.0363C12.4074 43.6632 12.3913 43.6429 12.0212 43.5312C11.9322 43.5044 11.8425 43.4796 11.7525 43.4566C10.6486 43.1746 10.5829 43.2209 10.4694 44.3584C10.4675 44.3769 10.4649 44.3953 10.4617 44.4136C10.4317 44.5837 10.4719 44.7011 10.6662 44.7378C11.0311 44.8069 11.3938 44.8871 11.7575 44.9626ZM11.2223 46.7596C11.5404 46.7645 11.8029 46.7993 11.8477 46.5426C11.9094 46.1883 12.1202 45.8291 11.9055 45.4597C11.8813 45.4181 11.8162 45.3869 11.7649 45.3765C11.3802 45.2987 10.9949 45.2231 10.6082 45.1557C10.4368 45.1258 10.307 45.2007 10.2761 45.3769C10.2212 45.6893 10.1332 45.9975 10.1383 46.3189C10.141 46.4899 10.2108 46.6065 10.3901 46.6342C10.7038 46.6825 11.0179 46.7289 11.2223 46.7596ZM10.6611 50.4782C11.6016 50.4787 11.6839 50.3813 11.583 49.4496C11.5566 49.206 11.4603 49.0708 11.2069 49.0561C10.9646 49.042 10.7228 49.0178 10.4813 48.9927C9.95927 48.9385 9.87236 49.0114 9.82317 49.5545C9.74387 50.4307 9.78652 50.4777 10.6611 50.4782ZM25.8313 26.9471C25.7831 26.8287 25.7221 26.6723 25.6561 26.5181C25.2226 25.5055 25.2061 25.5004 24.2189 26.0523C23.8888 26.2369 23.88 26.2633 24.0441 26.6233C24.0829 26.7084 24.1285 26.7905 24.1709 26.874C24.6419 27.8029 24.778 27.8377 25.654 27.2531C25.685 27.2324 25.7165 27.2121 25.7453 27.1886C25.8078 27.1378 25.8295 27.0681 25.8313 26.9471ZM27.5702 26.2301C27.459 25.9074 27.3265 25.4974 27.1738 25.0951C27.1279 24.974 26.9938 24.9705 26.8796 25.008C26.5589 25.1132 26.238 25.2183 25.9216 25.3354C25.7483 25.3995 25.7141 25.5345 25.7839 25.7017C25.8344 25.8228 25.8785 25.9466 25.9277 26.0683C26.3167 27.0305 26.4717 27.0841 27.3904 26.5747C27.4231 26.5567 27.457 26.5402 27.4872 26.5187C27.5539 26.4712 27.5756 26.402 27.5702 26.2301ZM28.149 74.6896C28.2081 74.4225 28.0751 74.3234 27.8326 74.2681C26.6562 73.9999 26.8395 73.9582 26.5635 74.984C26.5344 75.0919 26.5064 75.2004 26.4851 75.3101C26.4429 75.5271 26.5182 75.6749 26.7446 75.7261C26.999 75.7836 27.2531 75.8425 27.5082 75.8973C27.7808 75.9558 27.9373 75.8409 27.9865 75.5696C28.0397 75.2761 28.0948 74.9829 28.149 74.6896ZM28.8284 24.4627C28.5047 24.5461 28.1808 24.6292 27.8572 24.7133C27.6484 24.7676 27.6025 24.9014 27.6642 25.0964C27.7652 25.4157 27.86 25.737 27.9571 26.0576C28.0133 26.2433 28.1123 26.3207 28.3279 26.2882C29.4129 26.1245 29.4707 26.0478 29.2132 24.991C29.1867 24.8825 29.154 24.7756 29.1263 24.6675C29.0867 24.5127 28.9847 24.4593 28.8284 24.4627ZM29.4015 76.1494C29.8312 76.159 29.8786 76.1244 29.9306 75.6989C30.0677 74.5787 30.2199 74.6005 28.9443 74.477C28.738 74.457 28.6231 74.5131 28.5868 74.7196C28.5642 74.8479 28.5313 74.9743 28.5081 75.1025C28.3369 76.0498 28.4033 76.1271 29.4015 76.1494ZM31.1728 25.0615C31.1667 24.9907 31.1603 24.8415 31.1399 24.6942C31.0755 24.2285 30.9867 24.1537 30.532 24.173C30.4392 24.1769 30.3461 24.1853 30.2544 24.1996C29.5155 24.3148 29.5054 24.3177 29.6662 25.0428C29.8751 25.9854 29.7093 25.9284 30.737 25.7393C31.2399 25.6468 31.2384 25.6382 31.1728 25.0615ZM32.3258 24.0357C32.3258 24.0368 32.3258 24.038 32.3258 24.0391C32.2515 24.0391 32.177 24.0356 32.103 24.0396C31.564 24.0688 31.5013 24.1414 31.5621 24.6843C31.5849 24.8872 31.6217 25.0886 31.6517 25.2907C31.6763 25.4572 31.7631 25.5466 31.9379 25.5775C32.7922 25.7289 33.1028 25.467 33.0707 24.6092C33.0679 24.5349 33.0644 24.4607 33.0619 24.3865C33.0545 24.1628 32.9391 24.0441 32.7157 24.0365C32.5859 24.0321 32.4558 24.0357 32.3258 24.0357ZM33.1731 74.637C32.3817 74.6442 32.3164 74.7103 32.3264 75.4941C32.3269 75.5313 32.3264 75.5686 32.3276 75.6058C32.3446 76.1306 32.3826 76.1653 32.9229 76.1499C33.8501 76.1234 33.9181 76.0427 33.7768 75.1366C33.6989 74.6371 33.6928 74.6322 33.1731 74.637ZM36.0607 25.2891C36.0668 25.5331 36.1135 25.6047 36.3083 25.6688C37.2592 25.9817 37.4846 25.8438 37.6314 24.8587C37.6423 24.7853 37.6564 24.7114 37.6569 24.6377C37.6577 24.5354 37.6075 24.4518 37.5081 24.4258C37.0973 24.3181 36.6285 24.0906 36.273 24.2934C36.0087 24.4444 36.1276 24.9463 36.0607 25.2891ZM30.4068 75.4359C30.3845 76.1421 30.424 76.1852 31.0994 76.1894C31.8117 76.1939 31.8644 76.1413 31.8617 75.4289C31.8594 74.8018 31.8196 74.7485 31.2953 74.6711C30.5175 74.5563 30.4323 74.6296 30.4068 75.4359ZM35.6745 24.762C35.7095 24.1122 35.6917 24.0915 35.0677 24.0581C34.2354 24.0135 34.1912 24.0581 34.2164 24.9179C34.2309 25.4124 34.2503 25.4342 34.7501 25.519C35.5752 25.6589 35.6285 25.6153 35.6745 24.762ZM35.1348 74.4219C34.8893 74.4817 34.4629 74.3853 34.2638 74.6275C34.0614 74.8738 34.2655 75.2688 34.2693 75.5993C34.2697 75.635 34.2867 75.6715 34.3003 75.7059C34.3444 75.8169 34.4218 75.9106 34.5421 75.9093C34.9341 75.905 35.3596 75.8983 35.6604 75.6502C35.925 75.4321 35.6709 75.0921 35.6548 74.8057C35.6538 74.7873 35.6478 74.7692 35.6441 74.751C35.5969 74.5152 35.4608 74.3927 35.1348 74.4219ZM37.9245 25.6072C37.8581 25.8261 37.9787 25.9429 38.1884 25.9996C38.2787 26.024 38.3712 26.0401 38.4625 26.0603C39.2491 26.2347 39.2003 26.4474 39.4735 25.4734C39.6132 24.9758 39.5973 24.9407 39.1007 24.8042C38.103 24.53 38.1306 24.4139 37.9245 25.6072ZM41.522 26.0106C41.5273 25.8403 41.4253 25.7866 41.3253 25.7348C41.0599 25.5973 40.7964 25.4555 40.526 25.3283C40.0905 25.1235 40.0412 25.1476 39.8826 25.5984C39.8579 25.6689 39.8361 25.7404 39.8143 25.8119C39.6515 26.3464 39.6525 26.3441 40.15 26.5483C40.3572 26.6334 40.5586 26.7323 40.7642 26.8212C40.8487 26.8578 40.9533 26.9167 41.0272 26.8419C41.2668 26.5996 41.4006 26.2914 41.522 26.0106ZM36.0561 74.6482C36.0979 74.8266 36.1515 75.082 36.2197 75.3335C36.2499 75.4449 36.3244 75.5516 36.4576 75.5242C36.8569 75.4421 37.3278 75.4377 37.5925 75.1224C37.8073 74.8666 37.5067 74.5292 37.4514 74.2251C37.442 74.173 37.411 74.1185 37.3746 74.0795C37.3389 74.0411 37.2813 73.9938 37.2372 73.9974C36.8649 74.0278 36.501 74.1048 36.1643 74.2699C36.0545 74.3238 36.0512 74.4543 36.0561 74.6482ZM39.4664 74.2495C39.3951 74.0322 39.3654 73.7154 39.157 73.5342C38.8153 73.2372 38.5038 73.617 38.1747 73.6719C37.983 73.7038 37.8432 73.8127 37.863 74.0604C37.9311 74.9133 38.1448 75.0515 38.9405 74.7309C39.0616 74.682 39.1829 74.632 39.2994 74.5733C39.4067 74.5192 39.4675 74.4278 39.4664 74.2495ZM40.1774 74.1974C40.4031 74.088 40.6749 73.9677 40.9358 73.8271C41.299 73.6313 41.3002 73.6094 41.1229 73.2195C40.8307 72.5773 40.8307 72.5773 40.1905 72.8709C39.5085 73.1838 39.4488 73.3963 39.8658 74.0265C39.8862 74.0574 39.9039 74.0907 39.9285 74.1179C39.981 74.1762 40.0497 74.1998 40.1774 74.1974ZM43.1676 26.9773C43.1376 26.9164 43.1257 26.853 43.0876 26.8215C42.7991 26.583 42.4846 26.3818 42.1553 26.2047C42.0633 26.1553 41.9679 26.1703 41.9082 26.2611C41.7447 26.51 41.5209 26.7537 41.5192 27.0536C41.5176 27.3399 41.8572 27.359 42.0427 27.4989C42.161 27.588 42.2985 27.6527 42.4309 27.7214C42.5154 27.7652 42.6175 27.797 42.694 27.724C42.9132 27.5149 43.0452 27.2488 43.1676 26.9773ZM41.2737 72.5294C41.3704 72.7756 41.4484 73.0656 41.6689 73.2409C41.894 73.4198 42.0812 73.1773 42.2705 73.084C42.4372 73.0018 42.5883 72.8883 42.7469 72.7895C42.8707 72.7123 42.9255 72.6191 42.8795 72.4626C42.6947 71.8343 42.4066 71.7111 41.8487 72.033C41.7031 72.117 41.5559 72.1984 41.4117 72.2848C41.3274 72.3352 41.2751 72.4096 41.2737 72.5294ZM44.7409 28.0895C44.7061 28.0233 44.6927 27.9592 44.6533 27.9289C44.372 27.7131 44.0876 27.501 43.7989 27.2952C43.7184 27.2379 43.6123 27.2334 43.5406 27.3107C43.3498 27.5163 43.1408 27.7322 43.1156 28.0168C43.0972 28.2251 43.3466 28.2852 43.4866 28.4001C43.5876 28.483 43.6936 28.5614 43.8051 28.6292C43.9413 28.712 44.0775 28.8915 44.2502 28.7498C44.4655 28.5731 44.6255 28.3417 44.7409 28.0895ZM43.9293 70.767C43.8959 70.7739 43.853 70.7712 43.8245 70.7902C43.5297 70.9871 43.2351 71.1845 42.9459 71.3895C42.8845 71.433 42.854 71.5217 42.8875 71.5921C43.0068 71.8432 43.1009 72.1412 43.3588 72.263C43.5689 72.3623 43.7159 72.1135 43.885 72.0103C44.012 71.9328 44.1288 71.8371 44.2446 71.7427C44.3553 71.6524 44.5148 71.5901 44.4627 71.3937C44.4233 71.245 44.0329 70.7782 43.9293 70.767ZM46.1803 29.3597C46.1844 29.2358 46.1173 29.1686 46.048 29.1067C45.909 28.9824 45.7645 28.8642 45.6248 28.7406C45.1474 28.3181 45.1063 28.3286 44.7362 28.8354C44.5766 29.054 44.536 29.2183 44.7957 29.3872C44.9667 29.4983 45.1121 29.6481 45.2755 29.772C45.4059 29.8707 45.5423 30.0182 45.7207 29.8865C45.9145 29.7435 46.092 29.5772 46.1803 29.3597ZM45.9344 70.2936C45.9448 70.151 45.6164 69.7151 45.4784 69.6474C45.3017 69.5606 45.2013 69.693 45.0883 69.782C44.9127 69.9202 44.7412 70.0637 44.5681 70.2051C44.3717 70.3656 44.3603 70.5424 44.5185 70.7371C44.5889 70.8238 44.6551 70.914 44.7217 71.0039C44.8284 71.148 44.953 71.1877 45.0998 71.0645C45.3424 70.861 45.5847 70.6571 45.8221 70.4478C45.8753 70.4008 45.908 70.3307 45.9344 70.2936ZM47.523 30.7066C47.5058 30.6543 47.5003 30.5939 47.4697 30.5521C47.2605 30.2668 47.005 30.0245 46.741 29.7913C46.665 29.7241 46.5773 29.7215 46.483 29.7639C46.0309 29.9672 45.9464 30.359 46.2838 30.7013C46.4009 30.8201 46.5173 30.9398 46.6399 31.0529C46.7443 31.1493 46.8445 31.3147 47.0118 31.2053C47.2095 31.0761 47.4188 30.9458 47.523 30.7066ZM47.3017 68.926C47.2155 68.6896 47.0379 68.5519 46.8621 68.4191C46.7021 68.2983 46.5852 68.4198 46.4772 68.5224C46.289 68.7012 46.1065 68.8859 45.9194 69.0658C45.7892 69.1909 45.784 69.3213 45.8949 69.4588C45.9763 69.5597 46.0601 69.6587 46.1441 69.7575C46.2633 69.8978 46.391 69.9089 46.5233 69.7766C46.7462 69.5537 46.9699 69.3317 47.1883 69.1046C47.2375 69.0535 47.2663 68.983 47.3017 68.926ZM48.6951 32.1665C48.7127 32.0135 48.6591 31.9357 48.6026 31.8626C48.4889 31.7158 48.3716 31.5718 48.2533 31.4288C47.8975 30.999 47.7668 31.0063 47.401 31.4427C47.2837 31.5826 47.2681 31.6926 47.3934 31.8292C47.5689 32.0207 47.7341 32.2216 47.9075 32.415C48.0032 32.5218 48.0911 32.6868 48.2682 32.5911C48.4629 32.4859 48.6435 32.3508 48.6951 32.1665ZM47.1337 67.9865C47.1441 68.097 47.4989 68.4785 47.6182 68.4994C47.8097 68.5329 47.8607 68.3577 47.9561 68.2565C48.1211 68.0812 48.2751 67.8956 48.4332 67.7139C48.6183 67.5011 48.5226 67.3473 48.3304 67.2091C48.1504 67.0797 47.9834 66.8983 47.7656 67.1617C47.6004 67.3614 47.4197 67.5482 47.2474 67.7421C47.1856 67.8116 47.129 67.8853 47.1337 67.9865ZM49.0686 32.5737C48.9254 32.5748 48.5136 32.9118 48.5062 33.0273C48.5029 33.079 48.5185 33.1426 48.5487 33.184C48.7471 33.4562 48.9396 33.7342 49.1582 33.9897C49.343 34.2058 49.492 33.9993 49.6373 33.9035C49.7756 33.8123 49.9566 33.7171 49.8172 33.5089C49.6196 33.2139 49.4056 32.9296 49.1928 32.6452C49.1632 32.6055 49.1001 32.591 49.0686 32.5737ZM49.6773 65.9944C49.6014 65.7959 49.4438 65.6976 49.2799 65.6097C49.1374 65.5334 49.0271 65.6028 48.9395 65.7124C48.7649 65.9308 48.5937 66.152 48.4238 66.3741C48.3167 66.5141 48.3362 66.6416 48.4524 66.7749C48.7457 67.1114 48.9108 67.1095 49.19 66.7435C49.3143 66.5805 49.4306 66.4111 49.5447 66.2407C49.5956 66.1647 49.6322 66.0792 49.6773 65.9944ZM50.8425 35.1917C50.6729 34.8421 50.491 34.4778 50.2093 34.1757C50.1803 34.1446 50.104 34.1404 50.0539 34.1489C49.7043 34.2081 49.5559 34.5363 49.7417 34.8455C49.8661 35.0527 50.0042 35.2516 50.1343 35.4555C50.2108 35.5756 50.3037 35.6679 50.453 35.5868C50.6122 35.5003 50.7986 35.4339 50.8425 35.1917ZM50.6967 64.4095C50.6508 64.2117 50.4708 64.1677 50.3329 64.0808C50.2239 64.0123 50.1152 64.0212 50.0384 64.1355C49.8607 64.3998 49.6727 64.6586 49.5159 64.9349C49.3719 65.1888 49.5892 65.3007 49.7544 65.4232C49.9301 65.5536 50.0655 65.5073 50.1735 65.3319C50.3306 65.0765 50.489 64.8221 50.643 64.5649C50.6707 64.5184 50.6796 64.4605 50.6967 64.4095ZM51.7229 36.8162C51.5894 36.4922 51.4565 36.141 51.2069 35.8607C51.065 35.7013 50.897 35.81 50.7542 35.902C50.6106 35.9945 50.5537 36.1274 50.6343 36.2851C50.7696 36.5499 50.9158 36.8092 51.0599 37.0694C51.1353 37.2057 51.2492 37.2424 51.389 37.1739C51.5364 37.1017 51.7079 37.0497 51.7229 36.8162ZM50.9134 63.9018C51.0213 63.8958 51.0756 63.8205 51.12 63.7373C51.2516 63.4907 51.3797 63.2422 51.5111 62.9955C51.6149 62.8006 51.602 62.652 51.3846 62.534C51.1644 62.4146 51.0088 62.4163 50.8865 62.6647C50.7714 62.8984 50.6193 63.114 50.5059 63.3483C50.3883 63.5915 50.6386 63.9196 50.9134 63.9018ZM52.0849 38.8794C52.3988 38.8658 52.5466 38.6583 52.4362 38.3578C52.3463 38.1131 52.2217 37.8814 52.1277 37.6381C52.0336 37.3945 51.8805 37.4017 51.6826 37.4966C51.488 37.5899 51.3812 37.7076 51.4904 37.935C51.6116 38.1871 51.7214 38.4446 51.8375 38.6992C51.8857 38.8047 51.9436 38.9001 52.0849 38.8794ZM52.3602 61.1738C52.3895 60.9747 52.2813 60.9075 52.1554 60.8505C52.0046 60.7822 51.8485 60.7626 51.7616 60.9264C51.604 61.2233 51.4644 61.5303 51.3293 61.8384C51.2596 61.9971 51.375 62.0832 51.4985 62.1423C51.6283 62.2044 51.7816 62.3244 51.8995 62.1545C52.1136 61.846 52.2502 61.4963 52.3602 61.1738ZM52.4447 60.4865C52.5996 60.4916 52.6853 60.3937 52.7351 60.2685C52.8378 60.0099 52.9253 59.7453 53.0256 59.4856C53.1078 59.2726 52.9965 59.176 52.8181 59.1106C52.6342 59.0431 52.4942 59.0696 52.4178 59.2738C52.3202 59.5344 52.2026 59.7882 52.1159 60.0522C52.0343 60.3007 52.1893 60.4914 52.4447 60.4865ZM52.5409 39.1762C52.2779 39.1956 52.15 39.3722 52.2327 39.6292C52.3178 39.8936 52.4211 40.1522 52.5195 40.4122C52.5996 40.6237 52.7583 40.6088 52.9321 40.5507C53.0974 40.4955 53.1868 40.3915 53.1281 40.2148C53.0291 39.9164 52.9241 39.6196 52.8111 39.3262C52.7674 39.2126 52.6666 39.1623 52.5409 39.1762ZM53.0682 58.7563C53.2313 58.7717 53.2989 58.6675 53.3399 58.5348C53.4219 58.2696 53.4986 58.0027 53.583 57.7383C53.6447 57.5453 53.6035 57.4248 53.3909 57.363C53.1917 57.3051 53.0649 57.3545 53.0004 57.5487C52.9129 57.812 52.8158 58.0736 52.7513 58.3428C52.6939 58.5823 52.8317 58.742 53.0682 58.7563ZM53.6623 41.9379C53.5994 41.7175 53.5174 41.4315 53.4365 41.1452C53.3786 40.9402 53.2509 40.8917 53.0523 40.9508C52.8575 41.0088 52.7646 41.1136 52.8265 41.3198C52.9069 41.5874 52.9861 41.8553 53.071 42.1215C53.1234 42.2855 53.2367 42.3692 53.4121 42.3271C53.5747 42.2879 53.6707 42.1859 53.6623 41.9379ZM54.0958 43.7652C54.0388 43.5168 53.9704 43.2055 53.895 42.8958C53.8562 42.7362 53.7419 42.6971 53.5917 42.7298C53.4358 42.7636 53.2802 42.8154 53.3161 43.0133C53.3729 43.3266 53.4482 43.6372 53.5284 43.9455C53.5662 44.0906 53.6817 44.1597 53.8314 44.1334C53.9953 44.1048 54.106 44.0163 54.0958 43.7652ZM54.0416 55.8833C54.0744 55.6975 53.9939 55.6062 53.8173 55.5612C53.6435 55.517 53.5165 55.5514 53.4695 55.7318C53.3945 56.0195 53.336 56.3116 53.2647 56.6003C53.2123 56.8125 53.3149 56.9147 53.504 56.9635C53.6902 57.0114 53.7912 56.9125 53.834 56.751C53.9101 56.4636 53.9732 56.1727 54.0416 55.8833ZM54.3507 54.216C54.3507 54.16 54.3515 54.1039 54.3506 54.0479C54.3477 53.8732 54.2564 53.7641 54.089 53.7341C53.8862 53.6977 53.8306 53.8495 53.7995 54.0004C53.7428 54.2748 53.6948 54.5511 53.6519 54.8281C53.6232 55.0134 53.7384 55.1004 53.8989 55.1439C54.0837 55.1939 54.189 55.1079 54.2242 54.9344C54.2725 54.6964 54.3091 54.4561 54.3507 54.216ZM54.0776 50.7422C54.0776 50.9571 54.0739 51.069 54.0785 51.1805C54.0844 51.3205 54.1264 51.4401 54.29 51.4618C54.4736 51.4862 54.5655 51.3872 54.6039 51.2202C54.667 50.9466 54.697 50.6697 54.685 50.3887C54.6779 50.2226 54.6218 50.094 54.4304 50.088C54.2546 50.0825 54.1463 50.1808 54.1169 50.3455C54.0876 50.5096 54.0834 50.6781 54.0776 50.7422ZM54.3773 45.4085C54.3398 45.2022 54.2999 44.9436 54.2441 44.6884C54.2059 44.5141 54.0658 44.5284 53.9298 44.5481C53.7883 44.5686 53.662 44.6127 53.689 44.788C53.7402 45.1205 53.7979 45.4523 53.8656 45.7818C53.8915 45.9078 53.999 45.9544 54.1239 45.9452C54.2507 45.9359 54.334 45.8653 54.3565 45.7419C54.3731 45.6509 54.3691 45.5561 54.3773 45.4085ZM54.6869 48.9823C54.6684 48.8503 54.6459 48.6671 54.6162 48.485C54.5909 48.3294 54.537 48.1848 54.3401 48.2122C54.1706 48.2358 54.0855 48.355 54.0831 48.5231C54.08 48.7447 54.0813 48.9665 54.0895 49.188C54.098 49.4154 54.1776 49.602 54.4477 49.5726C54.7046 49.5446 54.6799 49.3291 54.6867 49.1453C54.6882 49.1084 54.6869 49.0714 54.6869 48.9823ZM53.9505 52.8038C53.9505 52.8566 53.9476 52.9309 53.9511 53.005C53.9607 53.2104 54.0804 53.3047 54.2758 53.307C54.4592 53.3092 54.4691 53.1649 54.4843 53.0355C54.5169 52.7593 54.5507 52.4829 54.5717 52.2057C54.5821 52.0689 54.5416 51.9426 54.3802 51.911C54.2048 51.8766 54.0972 51.9557 54.0434 52.1221C53.974 52.3371 53.9619 52.5594 53.9505 52.8038ZM54.5787 47.4C54.5806 47.0577 54.5412 46.8024 54.4665 46.5535C54.4305 46.4338 54.3365 46.3768 54.2132 46.3807C54.0904 46.3846 53.9901 46.4433 53.9744 46.5685C53.9302 46.9217 53.9777 47.2691 54.0873 47.6061C54.1263 47.7259 54.2323 47.7663 54.3542 47.7535C54.4819 47.7402 54.5515 47.6622 54.5692 47.5394C54.5797 47.4666 54.5792 47.3922 54.5787 47.4ZM33.57 25.3302C33.6141 25.3316 33.6582 25.333 33.7023 25.3343C33.7881 24.9402 33.7635 24.5356 33.7212 24.1307C33.715 24.0708 33.6517 24.0329 33.5978 24.0566C33.5554 24.0753 33.5004 24.1347 33.5021 24.1738C33.5186 24.5595 33.5459 24.9448 33.57 25.3302Z" fill="#3B5A4F"/>
<path d="M36.1619 29.6387C36.1323 31.4667 35.8214 33.2591 35.451 35.0419C34.7056 38.6298 33.6621 42.1354 32.498 45.6068C32.4563 45.7313 32.42 45.8582 32.3696 45.9792C32.2496 46.2675 32.2799 46.4921 32.526 46.7303C34.1147 48.2684 34.3415 50.9273 33.3518 52.7291C33.1149 53.1603 32.8516 53.5752 32.468 53.8846C32.1894 54.1093 32.1439 54.3158 32.282 54.6519C32.8952 56.1447 33.4496 57.6604 33.971 59.1881C35.0273 62.2835 35.9313 65.4183 36.3276 68.6752C36.4404 69.6022 36.5615 70.5369 36.4057 71.4792C36.3413 71.8681 36.1977 72.1703 35.7982 72.2644C35.4109 72.3557 35.0993 72.2005 34.8708 71.8802C34.3893 71.2053 34.0073 70.4728 33.6547 69.7261C32.4083 67.0873 31.5124 64.3216 30.7089 61.5235C30.0664 59.2864 29.5032 57.0291 29.0178 54.753C28.9439 54.4064 28.7787 54.1879 28.462 54.0393C27.7683 53.7136 27.1169 53.3121 26.3552 53.1191C25.6311 52.9357 25.1217 52.407 24.7728 51.7608C24.019 50.3643 23.9954 48.9471 24.8319 47.5842C25.4434 46.5879 26.3364 46.0482 27.5632 46.1601C28.051 46.2046 28.5281 46.0453 29.0021 45.9368C29.2317 45.8843 29.2267 45.6651 29.2598 45.482C29.4765 44.282 29.6755 43.0785 29.9151 41.8832C30.6203 38.3647 31.4736 34.8868 32.8396 31.5549C33.2746 30.4938 33.7595 29.4581 34.4091 28.5077C34.5146 28.3533 34.6252 28.1996 34.7525 28.0633C34.9934 27.8052 35.2992 27.7325 35.6285 27.8455C35.9628 27.9603 36.1454 28.2165 36.1588 28.5693C36.1725 28.9253 36.1619 29.2822 36.1619 29.6387ZM35.4723 71.2148C35.5886 70.947 35.5539 70.7582 35.5545 70.575C35.5612 68.7236 35.207 66.9204 34.7874 65.1305C33.8644 61.1937 32.4645 57.4149 30.9443 53.6774C30.895 53.5562 30.8364 53.4381 30.7743 53.3228C30.711 53.2052 30.6133 53.1898 30.4875 53.2272C29.9102 53.399 29.703 53.7241 29.8262 54.3037C30.4267 57.1293 31.1394 59.9263 31.9737 62.6919C32.6404 64.9019 33.3964 67.079 34.3609 69.1797C34.6735 69.8606 35.0263 70.5179 35.4723 71.2148ZM35.2822 28.899C35.1146 28.9926 35.0539 29.1085 34.9895 29.2169C34.6445 29.797 34.3133 30.384 34.0359 31.001C33.4584 32.2852 32.9798 33.606 32.5581 34.948C31.5558 38.1369 30.8648 41.3984 30.3023 44.6892C30.2012 45.2801 30.1158 45.8737 30.0254 46.4664C30.0028 46.6144 29.9679 46.7674 30.1612 46.8439C30.6572 47.04 31.1323 46.8311 31.3057 46.3223C31.62 45.4 31.9322 44.4768 32.2331 43.55C33.1074 40.8567 33.8646 38.1309 34.475 35.3652C34.8794 33.5332 35.1783 31.6849 35.3015 29.811C35.3206 29.5206 35.3433 29.2271 35.2822 28.899ZM25.1108 49.6931C25.1403 50.4626 25.3129 51.1611 25.8276 51.7346C26.6679 52.671 27.9012 52.634 28.6918 51.6548C29.5515 50.5899 29.537 48.7871 28.6602 47.7352C27.8927 46.8143 26.6922 46.7773 25.8669 47.653C25.322 48.231 25.1435 48.9453 25.1108 49.6931ZM28.4583 52.9859C28.7083 53.2494 28.8727 53.2379 29.0987 53.0686C29.4415 52.8117 29.8143 52.5903 30.1906 52.3834C30.802 52.0474 31.2188 52.1844 31.5248 52.794C31.5667 52.8775 31.5995 52.9656 31.6383 53.0507C31.7232 53.2371 31.8524 53.2566 31.9882 53.1175C32.1314 52.9709 32.2761 52.8185 32.3845 52.6462C32.9542 51.7404 33.1704 50.7526 33.0216 49.6914C32.9186 48.9574 32.6866 48.2721 32.2191 47.6817C32.0616 47.4828 31.901 47.3696 31.661 47.5794C31.4964 47.7233 31.2812 47.7224 31.0733 47.7223C30.7738 47.722 30.4739 47.7147 30.1746 47.7235C29.7946 47.7347 29.7722 47.7701 29.8899 48.1076C29.9207 48.1959 29.9653 48.2796 29.9926 48.3687C30.3166 49.4294 30.2965 50.4693 29.8152 51.4862C29.5201 52.1101 29.0879 52.6109 28.4583 52.9859Z" fill="#3B5A4F"/>
</svg>
