<svg width="12" height="12" viewBox="0 0 12 12" fill="none" xmlns="http://www.w3.org/2000/svg">
<path d="M10.1023 1.09835C10.322 0.878677 10.678 0.878677 10.8977 1.09835C11.1174 1.31802 11.1174 1.67409 10.8977 1.89376L6.79541 5.99605L10.8977 10.0983C11.1174 10.318 11.1174 10.6741 10.8977 10.8938C10.678 11.1134 10.322 11.1134 10.1023 10.8938L6 6.79146L1.8977 10.8938C1.67803 11.1134 1.32196 11.1134 1.10229 10.8938C0.882625 10.6741 0.882625 10.318 1.10229 10.0983L5.20459 5.99605L1.10229 1.89376C0.882624 1.67409 0.882624 1.31802 1.10229 1.09835C1.32196 0.878676 1.67803 0.878676 1.8977 1.09835L6 5.20064L10.1023 1.09835Z" fill="white"/>
</svg>
