<svg width="13" height="13" viewBox="0 0 13 13" fill="none" xmlns="http://www.w3.org/2000/svg">
<path d="M12.7299 9.42282L8.13762 0.981048C7.39979 -0.261087 5.60119 -0.262737 4.86238 0.981048L0.270331 9.42282C-0.483923 10.6921 0.429251 12.2994 1.90757 12.2994H11.0923C12.5693 12.2994 13.4841 10.6934 12.7299 9.42282ZM6.5 10.7759C6.08009 10.7759 5.73828 10.4341 5.73828 10.0142C5.73828 9.59428 6.08009 9.25248 6.5 9.25248C6.91991 9.25248 7.26172 9.59428 7.26172 10.0142C7.26172 10.4341 6.91991 10.7759 6.5 10.7759ZM7.26172 7.72904C7.26172 8.14895 6.91991 8.49076 6.5 8.49076C6.08009 8.49076 5.73828 8.14895 5.73828 7.72904V3.92044C5.73828 3.50053 6.08009 3.15873 6.5 3.15873C6.91991 3.15873 7.26172 3.50053 7.26172 3.92044V7.72904Z" fill="white"/>
</svg>
