<svg width="14" height="13" viewBox="0 0 14 13" fill="none" xmlns="http://www.w3.org/2000/svg">
<path d="M5.26725 1.00236C6.03691 -0.331714 7.96244 -0.331714 8.7321 1.00236L13.6351 9.50041C14.4043 10.8337 13.442 12.4998 11.9027 12.4998H2.09668C0.557531 12.4996 -0.404273 10.8337 0.364911 9.50041L5.26725 1.00236ZM7.86621 1.50171C7.48138 0.834891 6.5187 0.834979 6.13379 1.50171L1.2308 10.0004C0.846289 10.667 1.32721 11.4996 2.09668 11.4998H11.9027C12.6723 11.4998 13.1536 10.667 12.7692 10.0004L7.86621 1.50171ZM7.00488 8.99976C7.28092 8.99977 7.50473 9.22376 7.50488 9.49976V9.50496C7.50488 9.78109 7.28101 10.0049 7.00488 10.005H6.99968C6.72361 10.0049 6.49968 9.78105 6.49968 9.50496V9.49976C6.49983 9.2238 6.72371 8.99985 6.99968 8.99976H7.00488ZM6.49968 7.49976V4.99976C6.49983 4.7238 6.72371 4.49985 6.99968 4.49976C7.27572 4.49976 7.49952 4.72374 7.49968 4.99976V7.49976C7.49968 7.7759 7.27582 7.99976 6.99968 7.99976C6.72361 7.99966 6.49968 7.77584 6.49968 7.49976Z" fill="#DF2F2F"/>
</svg>
