<svg width="14" height="14" viewBox="0 0 14 14" fill="none" xmlns="http://www.w3.org/2000/svg">
<path d="M13.7091 10.4986L8.76359 1.40749C7.969 0.0698102 6.03205 0.0680329 5.23641 1.40749L0.291126 10.4986C-0.521148 11.8655 0.46227 13.5964 2.05431 13.5964H11.9455C13.5362 13.5964 14.5214 11.8669 13.7091 10.4986ZM7 11.9558C6.54779 11.9558 6.17968 11.5877 6.17968 11.1355C6.17968 10.6833 6.54779 10.3152 7 10.3152C7.45221 10.3152 7.82031 10.6833 7.82031 11.1355C7.82031 11.5877 7.45221 11.9558 7 11.9558ZM7.82031 8.67456C7.82031 9.12677 7.45221 9.49487 7 9.49487C6.54779 9.49487 6.17968 9.12677 6.17968 8.67456V4.573C6.17968 4.12079 6.54779 3.75269 7 3.75269C7.45221 3.75269 7.82031 4.12079 7.82031 4.573V8.67456Z" fill="#DF2F2F"/>
</svg>
