<svg width="21" height="20" viewBox="0 0 21 20" fill="none" xmlns="http://www.w3.org/2000/svg">
<path d="M18.4758 5.48483H11.6879V8.90301H19.6151V6.62423C19.6151 5.99998 19.1061 5.48483 18.4758 5.48483ZM2.5303 5.48483C1.9 5.48483 1.39091 5.99392 1.39091 6.62423V8.90301H9.36666V5.48483H2.5303ZM2.5303 10.0424V18.0182C2.5303 18.6485 3.03939 19.1576 3.66969 19.1576H9.36666V10.0424H2.5303ZM17.3364 19.1576C17.9667 19.1576 18.4758 18.6485 18.4758 18.0182V10.0424H11.6879V19.1576H17.3364ZM10.5061 4.33938C10.5121 4.33938 10.5121 4.34544 10.5121 4.3515H15.0697C16.6455 4.3515 17.3485 3.56362 17.3485 2.59998C17.3485 1.63635 16.6394 0.848468 15.0697 0.848468C13.597 0.848468 12.4394 1.52726 11.6515 2.31513C10.9485 1.87271 10.0576 1.86665 9.34848 2.29089C8.5606 1.50907 7.40909 0.842407 5.94848 0.842407C4.37273 0.842407 3.66969 1.63029 3.66969 2.59392C3.66969 3.55756 4.37273 4.34544 5.94848 4.34544H10.5061V4.33938ZM16.197 2.64241C16.197 3.11513 15.5788 3.2121 15.0576 3.2121H12.4697C12.4636 3.19392 12.4515 3.1818 12.4455 3.16362C13.0273 2.59998 13.9 2.07271 15.0576 2.07271C15.5788 2.07271 16.197 2.16968 16.197 2.64241ZM4.80909 2.64241C4.80909 2.16968 5.42727 2.07271 5.94848 2.07271C7.08182 2.07271 7.94242 2.5818 8.51818 3.12119C8.5 3.1515 8.48788 3.1818 8.46969 3.2121H5.94848C5.42727 3.2121 4.80909 3.10907 4.80909 2.64241Z" fill="#3B5A4F"/>
</svg>
