<svg width="22" height="22" viewBox="0 0 22 22" fill="none" xmlns="http://www.w3.org/2000/svg">
<path d="M20.5709 5.58183H12.4255V9.68365H21.9382V6.94911C21.9382 6.20002 21.3273 5.58183 20.5709 5.58183ZM1.43636 5.58183C0.680001 5.58183 0.0690918 6.19274 0.0690918 6.94911V9.68365H9.64V5.58183H1.43636ZM1.43636 11.0509V20.6218C1.43636 21.3782 2.04727 21.9891 2.80364 21.9891H9.64V11.0509H1.43636ZM19.2036 21.9891C19.96 21.9891 20.5709 21.3782 20.5709 20.6218V11.0509H12.4255V21.9891H19.2036ZM11.0073 4.20729C11.0145 4.20729 11.0145 4.21456 11.0145 4.22183H16.4836C18.3745 4.22183 19.2182 3.27638 19.2182 2.12002C19.2182 0.963653 18.3673 0.018198 16.4836 0.018198C14.7164 0.018198 13.3273 0.832744 12.3818 1.7782C11.5382 1.24729 10.4691 1.24002 9.61818 1.74911C8.67273 0.810925 7.29091 0.0109253 5.53818 0.0109253C3.64727 0.0109253 2.80364 0.95638 2.80364 2.11274C2.80364 3.26911 3.64727 4.21456 5.53818 4.21456H11.0073V4.20729ZM17.8364 2.17093C17.8364 2.7382 17.0945 2.85456 16.4691 2.85456H13.3636C13.3564 2.83274 13.3418 2.8182 13.3345 2.79638C14.0327 2.12002 15.08 1.48729 16.4691 1.48729C17.0945 1.48729 17.8364 1.60365 17.8364 2.17093ZM4.17091 2.17093C4.17091 1.60365 4.91273 1.48729 5.53818 1.48729C6.89818 1.48729 7.93091 2.0982 8.62182 2.74547C8.6 2.78183 8.58546 2.8182 8.56364 2.85456H5.53818C4.91273 2.85456 4.17091 2.73093 4.17091 2.17093Z" fill="#3B5A4F"/>
</svg>
