<svg width="20" height="20" viewBox="0 0 20 20" fill="none" xmlns="http://www.w3.org/2000/svg">
<path d="M17.9758 5.57211H11.1879V8.99029H19.1152V6.71151C19.1152 6.08726 18.6061 5.57211 17.9758 5.57211ZM2.0303 5.57211C1.4 5.57211 0.890907 6.0812 0.890907 6.71151V8.99029H8.86667V5.57211H2.0303ZM2.0303 10.1297V18.1054C2.0303 18.7357 2.53939 19.2448 3.1697 19.2448H8.86667V10.1297H2.0303ZM16.8364 19.2448C17.4667 19.2448 17.9758 18.7357 17.9758 18.1054V10.1297H11.1879V19.2448H16.8364ZM10.0061 4.42666C10.0121 4.42666 10.0121 4.43272 10.0121 4.43878H14.5697C16.1455 4.43878 16.8485 3.6509 16.8485 2.68726C16.8485 1.72363 16.1394 0.935748 14.5697 0.935748C13.097 0.935748 11.9394 1.61454 11.1515 2.40241C10.4485 1.95999 9.55757 1.95393 8.84848 2.37817C8.0606 1.59635 6.90909 0.929688 5.44848 0.929688C3.87273 0.929688 3.1697 1.71757 3.1697 2.6812C3.1697 3.64484 3.87273 4.43272 5.44848 4.43272H10.0061V4.42666ZM15.697 2.72969C15.697 3.20241 15.0788 3.29938 14.5576 3.29938H11.9697C11.9636 3.2812 11.9515 3.26908 11.9455 3.2509C12.5273 2.68726 13.4 2.15999 14.5576 2.15999C15.0788 2.15999 15.697 2.25696 15.697 2.72969ZM4.30909 2.72969C4.30909 2.25696 4.92727 2.15999 5.44848 2.15999C6.58182 2.15999 7.44242 2.66908 8.01818 3.20848C8 3.23878 7.98788 3.26908 7.9697 3.29938H5.44848C4.92727 3.29938 4.30909 3.19635 4.30909 2.72969Z" fill="white"/>
</svg>
