<svg width="14" height="14" viewBox="0 0 14 14" fill="none" xmlns="http://www.w3.org/2000/svg">
<path d="M13.1247 3.54864H7.91021V6.16148H14V4.41959C14 3.94242 13.6089 3.54864 13.1247 3.54864ZM0.875291 3.54864C0.391087 3.54864 0 3.93779 0 4.41959V6.16148H6.12704V3.54864H0.875291ZM0.875291 7.03243V13.1291C0.875291 13.6109 1.26638 14 1.75058 14H6.12704V7.03243H0.875291ZM12.2494 14C12.7336 14 13.1247 13.6109 13.1247 13.1291V7.03243H7.91021V14H12.2494ZM7.00233 2.67306C7.00698 2.67306 7.00698 2.6777 7.00698 2.68233H10.5081C11.7187 2.68233 12.2587 2.08008 12.2587 1.34348C12.2587 0.606883 11.714 0.00463271 10.5081 0.00463271C9.37679 0.00463271 8.48753 0.523494 7.88228 1.12574C7.3422 0.787558 6.6578 0.782925 6.11307 1.10721C5.50782 0.509596 4.62321 0 3.50116 0C2.29066 0 1.75058 0.60225 1.75058 1.33885C1.75058 2.07545 2.29066 2.6777 3.50116 2.6777H7.00233V2.67306ZM11.3741 1.37591C11.3741 1.73726 10.8992 1.81138 10.4988 1.81138H8.51081C8.50615 1.79748 8.49684 1.78822 8.49219 1.77432C8.93914 1.34348 9.60958 0.940437 10.4988 0.940437C10.8992 0.940437 11.3741 1.01456 11.3741 1.37591ZM2.62587 1.37591C2.62587 1.01456 3.10077 0.940437 3.50116 0.940437C4.3718 0.940437 5.03292 1.32958 5.47522 1.74189C5.46126 1.76506 5.45195 1.78822 5.43798 1.81138H3.50116C3.10077 1.81138 2.62587 1.73263 2.62587 1.37591Z" fill="white"/>
</svg>
