<svg width="108" height="62" viewBox="0 0 108 62" fill="none" xmlns="http://www.w3.org/2000/svg">
<path d="M53.492 22.545C53.5369 22.6002 55.3547 24.8382 57.5332 27.5201C58.6248 28.8594 59.811 30.3062 60.9147 31.6435C62.0186 32.9807 63.0412 34.2074 63.8001 35.1107L64.3006 34.6842C60.8196 30.5366 57.4065 26.3302 53.9923 22.1182L53.492 22.545Z" fill="#3B5A4F"/>
<path d="M51.0477 24.5771C51.0653 24.5988 51.6018 25.2601 52.424 26.2738C53.2519 27.2918 54.3677 28.6637 55.5366 30.1009C56.709 31.5371 57.9403 33.036 58.9948 34.3098C60.0486 35.5838 60.9267 36.6326 61.3807 37.1727L61.8811 36.7462C60.128 34.6585 58.3992 32.5615 56.6789 30.4595L54.106 27.3032L51.5481 24.1504L51.0477 24.5771Z" fill="#3B5A4F"/>
<path d="M56.2113 20.299C56.2638 20.3638 57.753 22.1979 59.7647 24.6756C61.7741 27.1437 64.3155 30.2419 66.4847 32.8226L66.9851 32.3962C65.2594 30.3412 63.5442 28.2607 61.8351 26.1724L59.2754 23.0322L56.7116 19.8721L56.2113 20.299Z" fill="#3B5A4F"/>
<path d="M59.2271 17.8083C59.2858 17.8806 60.42 19.2782 62.2533 21.5372C63.1656 22.6589 64.2523 23.9914 65.4687 25.4724C66.6852 26.9525 68.0318 28.5826 69.4618 30.2851L69.9623 29.8586C68.2534 27.8238 66.5469 25.754 64.8452 23.6748L62.2945 20.5455L59.7284 17.3828L59.2271 17.8083Z" fill="#3B5A4F"/>
<path d="M63.807 35.1181C63.83 35.1453 64.3067 35.7098 65.0567 36.5976C65.8105 37.4823 66.838 38.6896 67.9938 39.9781C68.1378 40.1396 68.2845 40.3017 68.4338 40.464C68.582 40.6272 68.7327 40.7906 68.8863 40.9533C69.1907 41.2807 69.5064 41.6053 69.8355 41.9223L70.089 42.1561L70.3444 42.3784C70.5147 42.5264 70.687 42.6713 70.8589 42.8152C71.2033 43.1021 71.5517 43.378 71.8977 43.6429C72.5928 44.1689 73.2841 44.6445 73.9414 45.0435C74.5981 45.4432 75.217 45.771 75.754 46.0259L76.0339 45.4288C74.8432 44.8626 73.7125 44.1645 72.642 43.3768C72.1064 42.9831 71.5848 42.5679 71.0749 42.1368C70.9473 42.0292 70.8201 41.921 70.6945 41.8105L70.5057 41.646L70.3289 41.4823C70.0931 41.2613 69.8598 41.0223 69.6289 40.7818C68.7075 39.8116 67.8152 38.7945 66.9306 37.7738C66.0464 36.7517 65.1713 35.7197 64.3007 34.6836L63.807 35.1181Z" fill="#3B5A4F"/>
<path d="M61.3945 37.1886C61.4035 37.1994 61.5466 37.3696 61.7937 37.6634C62.0424 37.957 62.3957 38.3739 62.8233 38.8786C63.252 39.3832 63.7599 39.9746 64.318 40.6179C64.8781 41.2615 65.4887 41.9553 66.1448 42.673C66.471 43.0312 66.8172 43.3988 67.185 43.7762C67.279 43.8717 67.3821 43.9723 67.4803 44.0697L67.5548 44.1432C67.5804 44.1682 67.6023 44.1907 67.6336 44.2194L67.8099 44.3829L67.9866 44.5452L68.13 44.6703C68.2253 44.7529 68.3203 44.8354 68.415 44.9175C68.7971 45.2446 69.1841 45.5625 69.5693 45.8669C69.9579 46.1693 70.3398 46.4611 70.7211 46.7299C71.4774 47.2721 72.2116 47.7331 72.8491 48.0991C73.4871 48.465 74.0274 48.7377 74.4012 48.9129L74.6811 48.3158C73.2814 47.6503 71.9784 46.8417 70.7772 45.9581C70.176 45.5162 69.5985 45.0562 69.041 44.5851C68.9015 44.4674 68.7627 44.3493 68.6267 44.2297L68.4212 44.0508L68.1776 43.8265C67.8627 43.5313 67.6077 43.2682 67.3511 43.0014C66.8474 42.4729 66.3768 41.9545 65.9128 41.4351C65.4511 40.916 64.996 40.3973 64.5471 39.8779C63.6484 38.8391 62.7653 37.7977 61.8882 36.7539L61.3945 37.1886Z" fill="#3B5A4F"/>
<path d="M66.4914 32.831C66.518 32.8625 66.9086 33.3255 67.5474 34.0827C68.187 34.8353 69.0779 35.8834 70.1053 37.0456C70.362 37.3373 70.6271 37.632 70.8975 37.9307C71.1676 38.2275 71.4444 38.5277 71.7164 38.8112C71.7838 38.881 71.8515 38.9511 71.9195 39.0214C71.9545 39.0583 71.9853 39.088 72.0173 39.1196L72.1127 39.2139L72.2083 39.3088C72.2384 39.3381 72.2614 39.3576 72.2881 39.3827L72.3654 39.4548L72.3847 39.473L72.3945 39.4823L72.409 39.4949L72.467 39.5453C72.776 39.8177 73.0906 40.0804 73.4072 40.3385C73.7243 40.5947 74.045 40.8405 74.3663 41.0778C74.6887 41.3113 75.0118 41.5358 75.3349 41.7456C75.9819 42.1625 76.6267 42.5273 77.2552 42.8235L77.5351 42.2264C76.5774 41.771 75.6388 41.1962 74.7139 40.5155C74.2515 40.1755 73.7924 39.8105 73.3354 39.4241C73.2212 39.3279 73.1069 39.2307 72.9931 39.1306L72.8236 38.9829L72.721 38.8867L72.668 38.8383L72.5991 38.7697L72.4609 38.633C72.4168 38.591 72.3625 38.5325 72.3129 38.4818L72.161 38.3246C72.1111 38.2738 72.0582 38.2171 72.0055 38.1606L71.8475 37.9919C71.7429 37.8814 71.6355 37.7634 71.5283 37.6459C71.3147 37.4142 71.0981 37.171 70.8821 36.9305C70.4492 36.4437 70.015 35.949 69.5813 35.447C68.7137 34.4441 67.848 33.4233 66.9852 32.3965L66.4914 32.831Z" fill="#3B5A4F"/>
<path d="M69.4686 30.2933C69.4979 30.3281 69.7967 30.6824 70.3175 31.3002C70.8377 31.9139 71.5826 32.7925 72.4938 33.8365C72.9483 34.3577 73.4476 34.9225 73.958 35.4791C74.2139 35.7596 74.4677 36.0278 74.6972 36.264L74.7194 36.2871L74.7377 36.3051L74.773 36.3397L74.8437 36.4096L74.9118 36.4777C74.9205 36.4846 74.9289 36.4918 74.937 36.4995C74.9451 36.5071 74.9529 36.5151 74.9604 36.5235C74.9936 36.5525 75.027 36.5816 75.0604 36.6109C75.1327 36.6737 75.2055 36.7369 75.2788 36.8005C76.4488 37.8028 77.6814 38.6885 78.9199 39.271L79.1997 38.6739C78.5005 38.3412 77.775 37.9032 77.0118 37.3415C76.6305 37.0611 76.2407 36.7518 75.8426 36.4152C75.7432 36.3314 75.6433 36.2467 75.5425 36.1578L75.3941 36.0287C75.388 36.0207 75.3813 36.0136 75.3739 36.0072C75.3694 36.0032 75.3679 36.003 75.3606 35.9964L75.3127 35.9482L75.216 35.8526L75.1917 35.8289L75.161 35.7973L75.0973 35.731L74.9695 35.5989L74.9041 35.531L74.8329 35.4548L74.6904 35.3025L74.5462 35.1479L74.396 34.9835C74.198 34.7689 73.99 34.5352 73.7842 34.306L73.1564 33.5954L72.5218 32.8664C71.6728 31.885 70.8176 30.8767 69.9636 29.8604L69.4686 30.2933Z" fill="#3B5A4F"/>
<path d="M75.7637 46.0313C75.7801 46.0386 75.9549 46.1254 76.264 46.2599C76.4168 46.3312 76.6079 46.403 76.8255 46.4918C76.9346 46.5352 77.0504 46.5833 77.174 46.6309C77.2991 46.6747 77.431 46.721 77.5692 46.7694C78.1202 46.968 78.788 47.1568 79.534 47.3214C79.7214 47.3583 79.9133 47.3961 80.1089 47.4346C80.3057 47.4669 80.5073 47.494 80.7118 47.5246C80.9157 47.5593 81.1259 47.5713 81.3376 47.5938C81.4436 47.6037 81.5503 47.6137 81.6575 47.6237C81.7652 47.6287 81.8736 47.6335 81.9824 47.6385C82.8531 47.6812 83.7639 47.6473 84.6652 47.5304C85.5663 47.4108 86.4552 47.207 87.2902 46.9496C87.3946 46.9174 87.4986 46.8855 87.6019 46.8536C87.7054 46.8227 87.8053 46.7825 87.9063 46.7477C88.1068 46.6743 88.3072 46.6075 88.5 46.5313C88.8858 46.3801 89.2563 46.2248 89.6056 46.0643C90.305 45.7451 90.922 45.4129 91.4337 45.1092L91.0998 44.541C90.5337 44.878 89.9478 45.1827 89.3474 45.4571C89.1985 45.5283 89.0459 45.5917 88.8944 45.6573C88.8184 45.6896 88.743 45.7233 88.6666 45.7547L88.4364 45.8465L88.2061 45.9384C88.1292 45.9682 88.0514 45.9944 87.9741 46.0226L87.5097 46.1891C86.8842 46.39 86.2531 46.5764 85.6089 46.6989C85.2891 46.7725 84.9639 46.8135 84.6406 46.8662C84.4787 46.8904 84.3154 46.9024 84.1528 46.9212C83.9901 46.9386 83.8275 46.9581 83.6639 46.9636L83.174 46.9909C83.0106 46.9961 82.8469 46.9936 82.6834 46.9955L82.4381 46.9969C82.3563 46.9959 82.2747 46.9901 82.193 46.9871L81.7028 46.965L81.2142 46.9187L80.9699 46.8953L80.727 46.8596L80.2412 46.788L79.759 46.6929C79.6787 46.6767 79.5981 46.6621 79.5181 46.6446L79.2794 46.5853L78.8021 46.4663L78.3303 46.3251L78.0945 46.2544L77.8619 46.1727L77.3965 46.0098L76.9383 45.8261L76.7092 45.7341C76.6327 45.7037 76.5584 45.6681 76.4828 45.6354L76.2571 45.5353L76.0337 45.4295L75.7637 46.0313Z" fill="#3B5A4F"/>
<path d="M74.4237 48.9232C74.4311 48.9268 74.4936 48.9564 74.6049 49.0092C74.7164 49.0616 74.8799 49.1326 75.0856 49.2242C75.2921 49.3142 75.547 49.413 75.8377 49.5306C75.9106 49.5594 75.9852 49.5903 76.0635 49.6198C76.1426 49.6478 76.224 49.6766 76.3077 49.7061C76.4752 49.7646 76.6515 49.8263 76.8358 49.8907C76.9272 49.9242 77.0243 49.9513 77.1221 49.9813C77.2202 50.0107 77.3202 50.0407 77.422 50.0712C77.6259 50.132 77.8359 50.1971 78.059 50.2491C78.2807 50.3039 78.5085 50.3621 78.7436 50.4165C78.9813 50.4635 79.2248 50.5116 79.4733 50.5607C80.4723 50.738 81.5741 50.848 82.7036 50.8469C83.8328 50.848 84.986 50.7374 86.0808 50.5326C87.1779 50.3322 88.21 50.0277 89.1282 49.6971C89.2431 49.6557 89.3567 49.6148 89.469 49.5743C89.5824 49.5343 89.685 49.49 89.7913 49.4487C89.8964 49.4067 90.0001 49.3653 90.1022 49.3244C90.2043 49.2832 90.3041 49.2386 90.4028 49.1967C90.5013 49.1542 90.5982 49.1124 90.6934 49.0714C90.7885 49.0302 90.8812 48.9855 90.9724 48.9438C91.1546 48.8589 91.3303 48.7798 91.4959 48.6952C91.6617 48.6117 91.8206 48.5354 91.9691 48.4566C92.1173 48.3773 92.2571 48.3025 92.3878 48.2327C92.6475 48.0888 92.8691 47.9601 93.048 47.8553L92.7141 47.2871C92.0447 47.6857 91.3576 48.0427 90.66 48.3617C90.4863 48.4443 90.3103 48.518 90.1348 48.5939L89.8713 48.7063L89.6062 48.8122L89.3409 48.9179C89.2518 48.9526 89.1584 48.9845 89.0673 49.0178L88.5171 49.2146C87.7735 49.4555 87.0184 49.6759 86.2407 49.826C85.8555 49.913 85.4612 49.9661 85.0696 50.0279C84.9719 50.0448 84.8725 50.0526 84.7737 50.064L84.477 50.0957C84.2792 50.1164 84.0817 50.1394 83.8824 50.1473L83.2855 50.18C83.0864 50.187 82.8868 50.1847 82.6873 50.1867L82.3882 50.1876C82.2885 50.187 82.189 50.1803 82.0894 50.1767L81.4918 50.149C81.2934 50.1327 81.0952 50.1126 80.8969 50.0938L80.5997 50.0646L80.3045 50.0224L79.7147 49.9351L79.1314 49.8209L78.8401 49.7622L78.5526 49.6916L77.9781 49.548L77.4131 49.3797L77.1309 49.2947L76.8539 49.1984L76.3005 49.004C76.1188 48.934 75.9391 48.8603 75.7585 48.788C75.578 48.7156 75.3973 48.6437 75.2208 48.5628L74.9546 48.4444L74.6917 48.3205L74.4237 48.9232Z" fill="#3B5A4F"/>
<path d="M77.2629 42.8268C77.2933 42.8424 77.7438 43.0618 78.5013 43.3455C78.8802 43.4802 79.3337 43.6354 79.8488 43.7582C79.9131 43.7743 79.9783 43.7906 80.0443 43.8071C80.0773 43.8154 80.1105 43.8238 80.1439 43.8323C80.1774 43.8397 80.2113 43.8454 80.2454 43.8522C80.3813 43.8791 80.5206 43.9066 80.6628 43.9346C80.7338 43.951 80.8061 43.9586 80.879 43.9695C80.9518 43.9801 81.0253 43.9908 81.0996 44.0016C81.1738 44.0126 81.2487 44.0237 81.3243 44.0348C81.4 44.0418 81.4765 44.0488 81.5535 44.0558C82.785 44.1918 84.1858 44.1021 85.5923 43.749C85.9443 43.6652 86.2952 43.5543 86.6449 43.4401C86.8193 43.3776 86.9934 43.3153 87.167 43.2532C87.344 43.1804 87.5244 43.1138 87.6976 43.0382C88.3949 42.7426 89.0505 42.4135 89.6428 42.0604L89.3089 41.4922C88.8579 41.7606 88.3848 42.0069 87.8928 42.2318C87.7716 42.2904 87.6451 42.3422 87.5203 42.3964C87.4576 42.4231 87.3957 42.451 87.3324 42.4769L87.141 42.553L86.9498 42.6296C86.8867 42.654 86.8261 42.6737 86.7642 42.6962L86.3953 42.829C85.9017 42.9856 85.4085 43.1341 84.9131 43.2263C84.6661 43.2851 84.418 43.3129 84.1709 43.3553C84.0473 43.3742 83.9234 43.3815 83.7998 43.3964C83.6761 43.4099 83.5525 43.426 83.4288 43.4289L83.0578 43.4501C82.9342 43.4539 82.8106 43.4509 82.687 43.4528L82.5016 43.4547C82.4398 43.4542 82.378 43.4489 82.3163 43.4465L81.9456 43.4307L81.5754 43.3947L81.3901 43.3779L81.2052 43.3498L80.835 43.2962L80.4656 43.2224C80.4039 43.2101 80.3422 43.1996 80.2806 43.1862L80.0963 43.1396L79.7271 43.0484L79.3591 42.9375L79.1748 42.8831L78.9916 42.8179L78.6243 42.69L78.259 42.5428L78.076 42.47C78.0149 42.4462 77.9556 42.4171 77.8951 42.391L77.7145 42.3112L77.535 42.2259L77.2629 42.8268Z" fill="#3B5A4F"/>
<path d="M78.9257 39.274C78.9523 39.2858 79.208 39.4144 79.6638 39.5903C79.692 39.602 79.721 39.6141 79.7508 39.6264C79.7805 39.6363 79.8109 39.6466 79.842 39.657C79.904 39.6786 79.9689 39.7012 80.0367 39.7248C80.172 39.7789 80.3171 39.8132 80.472 39.8622C80.5107 39.8744 80.5501 39.8866 80.59 39.8991C80.6298 39.9084 80.6701 39.9179 80.7112 39.9274C80.7931 39.947 80.8773 39.9682 80.9637 39.9912C81.05 40.0117 81.1381 40.024 81.2285 40.0435C81.2736 40.0529 81.3194 40.0624 81.3657 40.0721C81.4119 40.0823 81.4585 40.0849 81.5055 40.0924C81.5995 40.1064 81.6958 40.1208 81.7942 40.1354C81.8922 40.1427 81.9922 40.1519 82.0941 40.1631C82.1195 40.1657 82.1452 40.1696 82.1709 40.1713C82.1966 40.172 82.2225 40.1727 82.2484 40.1734C82.3002 40.1756 82.3526 40.1778 82.4054 40.18C82.4583 40.1818 82.5116 40.1879 82.5654 40.1879C82.6192 40.187 82.6736 40.1861 82.7283 40.1852C83.1669 40.1836 83.637 40.1456 84.1465 40.0506C84.6568 39.9556 85.2033 39.804 85.7981 39.575C86.1248 39.4474 86.4452 39.3092 86.7579 39.1618C87.0666 39.011 87.3674 38.8508 87.6566 38.6805L87.3227 38.1123C86.9994 38.3046 86.6515 38.4862 86.2796 38.656C86.1892 38.7006 86.0916 38.7397 85.9964 38.7811C85.9484 38.8015 85.9015 38.8231 85.8528 38.8431L85.7045 38.9016L85.5565 38.9612C85.5087 38.9798 85.4672 38.9922 85.4224 39.0085C85.3345 39.0392 85.2469 39.071 85.1595 39.1038C84.8121 39.2114 84.472 39.3177 84.1417 39.3764C83.9755 39.4186 83.813 39.4319 83.6503 39.4629C83.6096 39.4721 83.5694 39.4719 83.5292 39.4766L83.4085 39.4887C83.3282 39.4977 83.2478 39.5103 83.1682 39.5101C83.0885 39.5135 83.0089 39.5183 82.9293 39.5247C82.8498 39.5272 82.7706 39.5232 82.6913 39.5252L82.5724 39.5278C82.5327 39.5278 82.4931 39.523 82.4535 39.5214C82.3742 39.5169 82.2949 39.514 82.2154 39.5125C82.1359 39.5039 82.0562 39.4946 81.9764 39.4879L81.8566 39.4786L81.7361 39.4588C81.6557 39.4461 81.5752 39.4359 81.4942 39.4251C81.4129 39.407 81.3315 39.3904 81.2497 39.375C81.2089 39.367 81.168 39.3609 81.1269 39.3522L81.0029 39.3196C80.9201 39.2981 80.8371 39.2794 80.7535 39.2593C80.6696 39.2323 80.5853 39.2065 80.5008 39.1819L80.3736 39.1456L80.2451 39.0987C80.1594 39.068 80.0732 39.0384 79.9866 39.0098L79.7246 38.9031L79.5927 38.8515C79.5485 38.835 79.5059 38.8131 79.4623 38.7945L79.3317 38.7371L79.2007 38.6746L78.9257 39.274Z" fill="#3B5A4F"/>
<path d="M91.4429 45.1032C91.4578 45.093 91.6258 44.9933 91.9113 44.8134C91.9818 44.7671 92.0598 44.7159 92.1448 44.6602C92.2299 44.6047 92.3219 44.5445 92.4176 44.4758C92.514 44.4081 92.6168 44.336 92.7255 44.2597C92.8318 44.1801 92.944 44.0961 93.0615 44.0082C93.5276 43.6514 94.0608 43.2042 94.6062 42.665C94.6756 42.599 94.7434 42.5296 94.8109 42.4584C94.8788 42.3878 94.9475 42.3163 95.0169 42.2442C95.1532 42.0976 95.2892 41.9453 95.4266 41.7899C95.4935 41.7105 95.5609 41.6305 95.6288 41.5499C95.6628 41.5095 95.6968 41.4691 95.731 41.4285C95.7638 41.3868 95.7968 41.345 95.8299 41.303C95.896 41.219 95.9626 41.1344 96.0295 41.0494C96.0953 40.9635 96.1587 40.8749 96.2239 40.787C96.7441 40.0825 97.2177 39.2992 97.6279 38.4839C98.0403 37.6694 98.3761 36.8171 98.6499 35.9831C98.9235 35.148 99.1249 34.3297 99.2721 33.5685C99.4136 32.8067 99.4891 32.1054 99.5331 31.5085L98.8789 31.4648C98.832 32.1244 98.7486 32.7809 98.6308 33.4317C98.5038 34.0793 98.347 34.7278 98.156 35.3626C97.7757 36.6331 97.2628 37.8612 96.6038 39.0035C95.9461 40.146 95.1419 41.2003 94.2124 42.1301C93.2834 43.0605 92.2325 43.8675 91.1 44.5405L91.4429 45.1032Z" fill="#3B5A4F"/>
<path d="M93.0696 47.8415C93.0767 47.8372 93.1362 47.8007 93.2422 47.7358C93.3475 47.6694 93.502 47.5808 93.6913 47.454C93.7863 47.3916 93.8914 47.3225 94.0057 47.2475C94.1201 47.1727 94.2405 47.0849 94.3708 46.9946C94.4357 46.9489 94.5027 46.9017 94.5717 46.8531C94.6397 46.8025 94.7095 46.7505 94.7813 46.6971C94.9243 46.5891 95.0766 46.4786 95.2299 46.3533C95.8502 45.8642 96.5518 45.2451 97.2533 44.5056C97.9579 43.7696 98.6479 42.9022 99.274 41.9673C99.8922 41.0279 100.446 40.02 100.886 39.0094C101.331 38.0003 101.68 36.9953 101.937 36.066C101.999 35.8335 102.065 35.6063 102.117 35.3842C102.17 35.161 102.225 34.9499 102.268 34.7291C102.313 34.5116 102.359 34.3017 102.397 34.0984C102.432 33.8941 102.465 33.6977 102.496 33.5101C102.53 33.3229 102.548 33.1419 102.571 32.9718C102.592 32.8012 102.615 32.6408 102.63 32.49C102.656 32.1882 102.681 31.9288 102.695 31.7184L102.041 31.6748C101.986 32.4629 101.886 33.2466 101.745 34.0219C101.593 34.8036 101.414 35.5378 101.191 36.2818C100.747 37.7639 100.14 39.2251 99.3476 40.6004C98.5569 41.9756 97.5791 43.2597 96.4538 44.3861C95.3295 45.5141 94.0631 46.4836 92.7247 47.28L93.0696 47.8415Z" fill="#3B5A4F"/>
<path d="M89.65 42.0561C89.6749 42.0344 90.1156 41.7954 90.7566 41.3209C91.3996 40.8495 92.2361 40.1357 93.0252 39.1654C93.4179 38.6789 93.799 38.1293 94.1481 37.5255C94.4917 36.9179 94.8069 36.2586 95.0703 35.5588C95.3318 34.8594 95.5536 34.1216 95.7189 33.3793C95.8795 32.6658 95.9791 31.9553 96.0242 31.2741L95.37 31.2305C95.3325 31.7468 95.2672 32.2617 95.1754 32.7738C95.1194 33.0296 95.0749 33.2788 95.0042 33.5506C94.9876 33.6171 94.9727 33.6845 94.9552 33.7504L94.9014 33.9473L94.8482 34.1443L94.7897 34.3382C94.48 35.3728 94.0724 36.3413 93.5631 37.2244C92.5469 38.9922 91.1159 40.4183 89.3088 41.4925L89.65 42.0561Z" fill="#3B5A4F"/>
<path d="M87.6617 38.677C87.6827 38.6611 87.9308 38.522 88.3124 38.2525C88.4111 38.1878 88.5079 38.107 88.6213 38.0259C88.7271 37.9387 88.8472 37.8494 88.9639 37.7449C89.2029 37.5402 89.4584 37.2993 89.7161 37.0146C89.9736 36.7293 90.2357 36.4022 90.4893 36.0183C90.5203 35.9695 90.5516 35.9203 90.5831 35.8707C90.5989 35.8458 90.6156 35.8217 90.6311 35.7962C90.6463 35.7703 90.6614 35.7443 90.6767 35.7182C90.7078 35.6663 90.7392 35.6141 90.7708 35.5614C90.8006 35.5067 90.8307 35.4517 90.8611 35.3962C90.8766 35.3687 90.8922 35.3411 90.9078 35.3133C90.9223 35.2844 90.9369 35.2554 90.9515 35.2262C90.9813 35.1684 91.0115 35.11 91.0418 35.0513C91.0702 34.9904 91.099 34.9292 91.1278 34.8675C91.1425 34.8368 91.1573 34.8059 91.1721 34.7749C91.1858 34.7428 91.1996 34.7107 91.2134 34.6784C91.3296 34.4247 91.4323 34.1454 91.5364 33.8547C91.6378 33.5616 91.7298 33.2475 91.818 32.9184C91.8383 32.8344 91.8587 32.7501 91.8792 32.6653L91.9101 32.539L91.9327 32.4247C91.9489 32.3485 91.9651 32.2719 91.9813 32.1951C91.997 32.1182 92.0064 32.0403 92.0204 31.9627C92.0772 31.6521 92.1054 31.335 92.1328 31.0143L91.4787 30.9707C91.4516 31.3281 91.4063 31.6859 91.3434 32.0441C91.3013 32.2247 91.2754 32.3907 91.2187 32.6063C91.206 32.6572 91.1949 32.7093 91.1815 32.7593L91.1405 32.9081L91.1006 33.0572L91.0565 33.2018C90.8251 33.9749 90.5343 34.6553 90.191 35.251C89.8468 35.8476 89.4515 36.3632 88.9835 36.8327C88.515 37.301 87.9709 37.7267 87.3233 38.1116L87.6617 38.677Z" fill="#3B5A4F"/>
<path d="M99.5335 31.4978C99.5344 31.4798 99.5439 31.2835 99.5602 30.9446C99.567 30.775 99.5651 30.5695 99.5684 30.3328C99.5716 30.2144 99.5653 30.0883 99.5618 29.9549C99.5576 29.8216 99.5531 29.6809 99.5484 29.5336C99.5145 28.9449 99.4493 28.2499 99.3185 27.4921C99.1889 26.7343 98.9904 25.915 98.7136 25.0832C98.4386 24.2509 98.0823 23.4076 97.6583 22.5992C97.2349 21.7905 96.7435 21.0176 96.2164 20.3157C95.6899 19.6132 95.1283 18.9822 94.5799 18.4388C94.0314 17.8949 93.4904 17.4463 93.0214 17.0791L92.6228 17.6033C93.1416 18.0084 93.6419 18.4381 94.1109 18.9008C94.5778 19.3654 95.019 19.8559 95.4312 20.3702C95.8388 20.8883 96.2152 21.4307 96.5606 21.9925L96.8128 22.4181L97.0489 22.8529C97.1302 22.9965 97.1983 23.1469 97.2724 23.2944L97.3817 23.5163C97.4173 23.5908 97.4493 23.6669 97.4832 23.742C97.5488 23.8934 97.6207 24.0421 97.6812 24.1957L97.8648 24.6555C97.9763 24.9661 98.0918 25.2756 98.1852 25.5924C98.3806 26.223 98.5428 26.8648 98.6557 27.5158C98.6889 27.6777 98.7116 27.8414 98.7355 28.0048C98.7592 28.1683 98.7866 28.3313 98.8015 28.4959C98.8186 28.6602 98.8385 28.8243 98.8536 28.9887L98.8877 29.4833C98.9215 30.1433 98.9205 30.8051 98.8787 31.465L99.5335 31.4978Z" fill="#3B5A4F"/>
<path d="M102.697 31.6944C102.697 31.6775 102.71 31.4118 102.732 30.9529C102.734 30.7231 102.739 30.445 102.737 30.1255C102.733 29.9658 102.728 29.7956 102.722 29.616C102.719 29.5263 102.718 29.4341 102.712 29.3398C102.705 29.2455 102.699 29.149 102.692 29.0503C102.64 28.2614 102.534 27.336 102.328 26.3462C102.125 25.3565 101.829 24.3014 101.429 23.2582C101.031 22.2145 100.533 21.1826 99.9686 20.2268C99.4051 19.2702 98.7753 18.3905 98.1426 17.6285C97.5098 16.8661 96.8778 16.2186 96.3202 15.7026C96.1814 15.573 96.0436 15.4556 95.9158 15.3417C95.7872 15.2287 95.6671 15.1205 95.549 15.0269C95.4322 14.9317 95.3236 14.8432 95.2238 14.7619C95.1241 14.6805 95.0331 14.6068 94.9486 14.5449L94.55 15.0691C95.1691 15.5516 95.7658 16.0652 96.3264 16.6183C96.8851 17.1731 97.4129 17.7599 97.9059 18.376C98.3942 18.996 98.8455 19.6452 99.2591 20.3185L99.5611 20.8285C99.6572 21.0011 99.7503 21.1755 99.8445 21.3492C99.941 21.5217 100.024 21.7012 100.113 21.8781L100.243 22.1443C100.286 22.2334 100.325 22.3245 100.366 22.4145C100.445 22.5958 100.529 22.7746 100.603 22.9583L100.823 23.5094C100.958 23.8812 101.095 24.2527 101.208 24.6321C101.443 25.3877 101.636 26.1572 101.772 26.937C101.79 27.0344 101.811 27.1313 101.825 27.2292L101.869 27.5228C101.897 27.7186 101.929 27.914 101.948 28.111C101.969 28.3077 101.992 28.5044 102.01 28.7013L102.051 29.2933C102.093 30.0833 102.092 30.8753 102.042 31.6639L102.697 31.6944Z" fill="#3B5A4F"/>
<path d="M96.0246 31.2667C96.0211 31.2334 96.0688 30.7425 96.0433 29.941C96.0421 29.7404 96.0213 29.5215 96.0066 29.2851C96.0039 29.2258 95.9971 29.166 95.9899 29.105C95.9832 29.0441 95.9764 28.9821 95.9695 28.9191C95.9629 28.8562 95.9561 28.7921 95.9492 28.7272C95.9423 28.6622 95.9302 28.597 95.9209 28.5305C95.8997 28.3978 95.8842 28.2604 95.8581 28.1213C95.832 27.9822 95.8054 27.8398 95.7781 27.6943C95.7453 27.5499 95.7116 27.4025 95.6774 27.2523C95.6622 27.1767 95.6394 27.1023 95.6193 27.0265C95.5989 26.9508 95.5784 26.8744 95.5576 26.7975C95.3847 26.1836 95.1557 25.5424 94.8649 24.9032C94.5745 24.264 94.2226 23.6272 93.8163 23.0201C93.0058 21.8028 91.9642 20.7226 90.8833 19.8916L90.4846 20.4158C90.8918 20.7347 91.2846 21.0708 91.6516 21.433C92.0165 21.7969 92.3611 22.18 92.6834 22.581C93.0011 22.9857 93.2943 23.4088 93.5639 23.8463L93.7608 24.1778L93.9444 24.5168C94.0087 24.6282 94.0603 24.7461 94.1183 24.8607L94.204 25.0334C94.2317 25.0914 94.2561 25.1509 94.2826 25.2094C95.1303 27.0836 95.5069 29.1663 95.37 31.2315L96.0246 31.2667Z" fill="#3B5A4F"/>
<path d="M92.1331 31.0084C92.1306 30.982 92.1552 30.7134 92.1517 30.2474C92.1498 30.1892 92.1477 30.128 92.1455 30.0637C92.1428 29.9995 92.1453 29.9319 92.1375 29.8621C92.1247 29.7225 92.1225 29.57 92.0997 29.4088C92.0704 29.0844 92.0091 28.7196 91.9199 28.3221C91.742 27.528 91.4189 26.602 90.8659 25.6687C90.8317 25.6103 90.7972 25.5515 90.7625 25.4923C90.7249 25.4349 90.687 25.3771 90.6489 25.3189C90.5774 25.1997 90.4915 25.0878 90.4111 24.9703C90.3722 24.9105 90.3273 24.8545 90.2831 24.7976C90.2397 24.74 90.196 24.6822 90.1521 24.6241C90.1055 24.5679 90.0586 24.5116 90.0115 24.4549C89.9636 24.3988 89.9206 24.3382 89.8684 24.2847C89.7666 24.1755 89.6721 24.0581 89.5623 23.9522C89.5095 23.8973 89.4565 23.8421 89.4033 23.7866C89.3474 23.7337 89.2911 23.6806 89.2347 23.6272L89.1509 23.5458C89.1227 23.5188 89.0919 23.4944 89.0626 23.4682C89.0038 23.4161 88.9448 23.3637 88.8855 23.3111C88.8265 23.2583 88.7617 23.2111 88.7004 23.1597C88.6373 23.1102 88.5791 23.0548 88.512 23.0088L88.1134 23.533C88.3966 23.7563 88.6703 23.9886 88.924 24.2391C89.1756 24.4915 89.4132 24.7554 89.6358 25.0306C89.8537 25.3095 90.0545 25.6002 90.2402 25.9C90.2843 25.9763 90.3294 26.052 90.3756 26.1271L90.501 26.3598C90.5464 26.4355 90.5797 26.5173 90.62 26.5956L90.6794 26.7136C90.6986 26.7532 90.7145 26.7944 90.7326 26.8345C91.3128 28.1192 91.5722 29.541 91.4787 30.9696L92.1331 31.0084Z" fill="#3B5A4F"/>
<path d="M93.013 17.0732C92.9986 17.0624 92.8422 16.9451 92.572 16.7423C92.4331 16.6463 92.265 16.5301 92.0712 16.3963C91.9748 16.3286 91.8667 16.2648 91.7553 16.1927C91.643 16.1221 91.5257 16.0455 91.4006 15.9694C90.8995 15.6678 90.2947 15.3307 89.6052 15.0033C88.9158 14.676 88.1406 14.3608 87.3089 14.0999C86.4775 13.8388 85.5878 13.6416 84.6869 13.5214C83.7857 13.4022 82.8726 13.3744 81.9988 13.4176C81.1246 13.4631 80.2911 13.5895 79.539 13.7538C78.7866 13.9184 78.1161 14.1237 77.5553 14.3204L77.772 14.9436C79.0126 14.5065 80.3012 14.2155 81.6055 14.1071C82.9092 13.9977 84.2264 14.0706 85.5116 14.3237C86.7973 14.5758 88.0492 15.003 89.2429 15.5614C89.84 15.8407 90.424 16.151 90.9907 16.493L91.0976 16.5558L91.2018 16.622L91.4103 16.7542L91.6188 16.8863C91.6883 16.9304 91.7547 16.9792 91.8228 17.0254C91.9577 17.1196 92.0947 17.211 92.228 17.3074L92.6228 17.6039L93.013 17.0732Z" fill="#3B5A4F"/>
<path d="M94.9284 14.5291C94.9142 14.5203 94.7062 14.357 94.3371 14.0901C94.2436 14.0253 94.1402 13.9538 94.0276 13.8759C93.9713 13.837 93.9126 13.7967 93.8518 13.7547C93.7913 13.7123 93.7277 13.6697 93.6607 13.6281C93.3951 13.4605 93.0904 13.26 92.7662 13.0749C92.114 12.6916 91.3234 12.2674 90.4195 11.8687C89.5158 11.4712 88.5011 11.0942 87.419 10.8122C86.3383 10.5293 85.1969 10.3288 84.0723 10.2521C83.5108 10.2065 82.9541 10.2017 82.4134 10.2066C81.8732 10.2229 81.3481 10.2519 80.8496 10.3093C79.8511 10.4168 78.9568 10.5979 78.2198 10.7867C78.1276 10.8104 78.0376 10.8334 77.9498 10.8559C77.8622 10.8789 77.7784 10.9047 77.6961 10.9281C77.5322 10.9762 77.3766 11.0197 77.2334 11.0647C77.0909 11.1111 76.9584 11.1543 76.8367 11.194C76.7148 11.2333 76.6045 11.2705 76.5075 11.3067L76.7242 11.9299C78.1933 11.4119 79.7504 11.0573 81.3415 10.925C82.9314 10.7909 84.5498 10.8807 86.1096 11.1879C87.671 11.4932 89.1699 12.0071 90.5704 12.6617C91.2713 12.9888 91.9496 13.3503 92.6011 13.7427L92.7242 13.8153L92.8482 13.8932L93.0962 14.0502L93.3438 14.2076C93.4267 14.2596 93.5058 14.3176 93.587 14.3724C93.7479 14.4841 93.9102 14.5939 94.0694 14.7081L94.5401 15.0613L94.9284 14.5291Z" fill="#3B5A4F"/>
<path d="M90.8765 19.8846C90.8631 19.8746 90.7583 19.7958 90.5766 19.6593C90.4862 19.5903 90.3698 19.5158 90.2394 19.4238C90.173 19.3794 90.1056 19.327 90.0279 19.2803C89.9513 19.2318 89.8703 19.1806 89.7852 19.1268C89.6213 19.0175 89.4138 18.9023 89.2014 18.7753C88.9848 18.6566 88.7538 18.5248 88.5054 18.4016C88.0101 18.1495 87.4536 17.8984 86.852 17.6799C86.2504 17.4621 85.6043 17.2722 84.9319 17.1444C84.7634 17.1163 84.5944 17.0798 84.4231 17.0591C84.3376 17.0468 84.2518 17.0345 84.1658 17.0222C84.0796 17.0131 83.9932 17.0041 83.9065 16.995L83.7765 16.9807L83.6459 16.9716C83.5588 16.9654 83.4715 16.9591 83.384 16.9529C83.2965 16.9483 83.2088 16.9471 83.121 16.9436C83.0332 16.9406 82.9453 16.9359 82.8572 16.9381C81.449 16.9239 80.0138 17.1993 78.7179 17.6612L78.9346 18.2844C79.9206 17.9375 80.9101 17.7171 81.895 17.635C82.88 17.5529 83.8618 17.6062 84.8412 17.7986C85.8202 17.9909 86.7971 18.3208 87.761 18.7714C88.2428 18.9967 88.7218 19.2501 89.194 19.5356L89.2828 19.5876L89.3649 19.6402L89.5294 19.7448L89.6944 19.8487C89.7494 19.8832 89.8012 19.9223 89.8549 19.9587C89.9609 20.0333 90.0694 20.1046 90.1744 20.1806L90.4847 20.4139L90.8765 19.8846Z" fill="#3B5A4F"/>
<path d="M88.507 23.0053C88.4964 22.9973 88.4369 22.9527 88.3328 22.8747C88.3067 22.8553 88.279 22.8323 88.2466 22.8097C88.2138 22.7874 88.1782 22.7633 88.1399 22.7373C88.1018 22.7108 88.061 22.6826 88.0175 22.6524C87.9745 22.6216 87.9287 22.589 87.8771 22.5587C87.8266 22.5268 87.7735 22.4933 87.7177 22.4581C87.6616 22.4224 87.6081 22.3853 87.5329 22.3434C87.4623 22.3018 87.3887 22.2585 87.3122 22.2135C87.236 22.1674 87.1568 22.128 87.0752 22.0819C86.7489 21.9038 86.3813 21.718 85.9835 21.5514C85.5856 21.3842 85.1581 21.2346 84.7107 21.1198C84.263 21.0059 83.7961 20.9173 83.3085 20.8863C82.8206 20.8487 82.3107 20.8633 81.7645 20.9355C81.6962 20.9462 81.6273 20.9562 81.558 20.9654C81.4882 20.9782 81.4181 20.991 81.3477 21.0039C81.2773 21.0145 81.2058 21.0313 81.1338 21.0477C81.0618 21.065 80.9898 21.0752 80.9163 21.0969C80.8428 21.1155 80.769 21.1342 80.6948 21.1529C80.62 21.1747 80.5448 21.1967 80.4693 21.2187C80.3938 21.2383 80.3171 21.2653 80.24 21.2907C80.1629 21.3169 80.0856 21.3377 80.007 21.3691L80.2237 21.9922C80.9272 21.7454 81.585 21.6034 82.2154 21.5504C82.8468 21.4985 83.4568 21.5299 84.0969 21.6551C84.7356 21.781 85.4076 22.0029 86.1164 22.3338C86.4703 22.4991 86.8326 22.6895 87.2 22.9122L87.2691 22.9522L87.3266 22.9898L87.4423 23.0639L87.559 23.1364C87.5981 23.1603 87.6336 23.1886 87.6714 23.2141C87.7454 23.2669 87.8221 23.3162 87.8957 23.3692C87.9673 23.4246 88.0394 23.479 88.1124 23.5324L88.507 23.0053Z" fill="#3B5A4F"/>
<path d="M77.5453 14.3232C77.5369 14.3263 77.4868 14.3445 77.3992 14.3762C77.3555 14.3922 77.3023 14.4114 77.2403 14.4339C77.178 14.4557 77.1075 14.4824 77.0296 14.5144C76.7165 14.6384 76.2713 14.816 75.7442 15.07C75.2161 15.3216 74.6019 15.6401 73.9475 16.0318C73.2929 16.4228 72.599 16.8866 71.9031 17.407C71.2068 17.9269 70.5084 18.5027 69.8335 19.1047C69.1577 19.706 68.5077 20.3358 67.8963 20.9539C67.2851 21.572 66.7133 22.1806 66.1969 22.7455C65.6824 23.3121 65.2232 23.8348 64.8375 24.2827L65.3327 24.7153C65.772 24.2044 66.2187 23.7008 66.6704 23.2024C67.125 22.7067 67.5825 22.2148 68.0523 21.7338C68.9903 20.7721 69.9567 19.8424 70.9773 18.9832C71.9984 18.1256 73.0689 17.3312 74.2038 16.6477C75.339 15.9669 76.5297 15.3769 77.7719 14.9427L77.5453 14.3232Z" fill="#3B5A4F"/>
<path d="M76.484 11.3154C76.4762 11.3183 76.4108 11.342 76.2943 11.3842C76.1779 11.4265 76.0093 11.486 75.8017 11.5708C75.6974 11.6124 75.5822 11.6585 75.4568 11.7086C75.3314 11.7589 75.1997 11.8188 75.0569 11.88C74.7701 12.0012 74.4564 12.1521 74.1122 12.3167C73.9428 12.4026 73.7661 12.4921 73.5829 12.5851C73.4016 12.6806 73.2166 12.7828 73.0247 12.8868C72.8331 12.9914 72.6407 13.1069 72.4411 13.2216C72.2422 13.3374 72.0446 13.4632 71.8398 13.5883C71.028 14.0963 70.1927 14.6904 69.3819 15.3292C68.571 15.9679 67.7834 16.6509 67.0568 17.3321C66.3286 18.0127 65.655 18.6885 65.0548 19.3124C63.8493 20.5687 62.9172 21.64 62.4432 22.1911L62.9385 22.6237C63.3943 22.0936 63.8604 21.5679 64.3337 21.0459C64.8097 20.5265 65.2937 20.0064 65.787 19.5013C66.776 18.4874 67.8148 17.4856 68.939 16.5388C70.0634 15.5938 71.2664 14.6982 72.5658 13.915C73.2158 13.5231 73.8832 13.1599 74.5736 12.8264C75.2634 12.4923 75.9777 12.193 76.7128 11.9341L76.484 11.3154Z" fill="#3B5A4F"/>
<path d="M78.7097 17.665C78.6788 17.6811 78.2094 17.8267 77.4566 18.173C77.0804 18.3456 76.6335 18.5701 76.1376 18.8479C75.6436 19.1251 75.105 19.464 74.5394 19.8593C73.4069 20.6466 72.179 21.6923 70.9661 22.8775C70.3603 23.468 69.7517 24.1001 69.1708 24.7242C68.5884 25.3512 68.0258 25.9842 67.4939 26.6031L67.9892 27.0358C68.4098 26.5467 68.8344 26.068 69.2621 25.5961C69.6926 25.1269 70.1202 24.6667 70.5635 24.213C71.4443 23.3099 72.3291 22.4608 73.234 21.6993C74.1393 20.9392 75.0615 20.2573 76.0129 19.6848C76.4873 19.3991 76.9743 19.1351 77.4619 18.8995C77.9498 18.663 78.4415 18.4578 78.9344 18.2852L78.7097 17.665Z" fill="#3B5A4F"/>
<path d="M80.0011 21.3711C79.9882 21.3758 79.916 21.4018 79.7897 21.4474C79.7264 21.4704 79.649 21.5042 79.5584 21.5393C79.5131 21.558 79.4646 21.5744 79.4125 21.5981C79.3603 21.6209 79.305 21.6452 79.2464 21.6708C78.7803 21.8739 78.0886 22.2129 77.252 22.7569C76.4114 23.3021 75.4052 24.0719 74.2503 25.1534C74.1059 25.2892 73.9593 25.4262 73.81 25.5724C73.6612 25.7145 73.5094 25.8663 73.3558 26.0184C73.2021 26.1714 73.0458 26.3313 72.8874 26.4926C72.7288 26.6573 72.5666 26.823 72.4087 26.992C71.771 27.6643 71.1141 28.3941 70.44 29.1764L70.9353 29.609C71.3351 29.1441 71.7353 28.6931 72.1361 28.2507L72.4373 27.9236C72.5375 27.8143 72.6379 27.7059 72.7388 27.6003L73.0407 27.2807L73.3482 26.9624C74.1653 26.1245 74.9598 25.3647 75.7362 24.7117C76.5131 24.0598 77.2707 23.5026 78.0184 23.0532C78.3901 22.8295 78.7713 22.6232 79.1402 22.4447C79.51 22.265 79.8715 22.115 80.2227 21.9924L80.0011 21.3711Z" fill="#3B5A4F"/>
<path d="M64.8306 24.291C64.819 24.3046 64.693 24.452 64.4754 24.7068C64.2578 24.9615 63.9515 25.3259 63.581 25.7745C62.8386 26.6706 61.8466 27.9094 60.7795 29.2689C58.6457 31.9878 56.1625 35.1573 54.6853 36.9948L55.1955 37.4094C56.8921 35.2914 58.5639 33.1561 60.2373 31.0242C61.9109 28.8911 63.5744 26.7585 65.3327 24.7157L64.8306 24.291Z" fill="#3B5A4F"/>
<path d="M62.4288 22.208C62.4194 22.2191 62.2707 22.3933 62.014 22.6939C61.7579 22.9948 61.3986 23.4236 60.9704 23.9438C60.1132 24.9836 58.9944 26.3927 57.8521 27.8507C56.712 29.3019 55.5201 30.8191 54.5053 32.1108C53.4914 33.3966 52.6522 34.4497 52.2186 34.9903L52.7288 35.4049C54.4095 33.3069 56.0743 31.1806 57.7477 29.0487C59.4157 26.9232 61.1073 24.7525 62.9312 22.6323L62.4288 22.208Z" fill="#3B5A4F"/>
<path d="M67.4874 26.6113C67.4741 26.626 67.3718 26.7448 67.1955 26.9528C67.0184 27.1593 66.7682 27.4572 66.4584 27.8288C65.839 28.5742 64.9877 29.6257 64.0095 30.8669C62.047 33.3584 59.5674 36.542 57.4222 39.2187L57.9324 39.6333C59.6454 37.4948 61.3238 35.3509 62.9961 33.2207C64.6745 31.0807 66.3056 28.992 67.9893 27.0364L67.4874 26.6113Z" fill="#3B5A4F"/>
<path d="M70.4338 29.1846C70.42 29.2008 70.3427 29.2911 70.2075 29.4491C70.0723 29.6075 69.8792 29.8342 69.6339 30.1287C69.1425 30.7168 68.444 31.5681 67.5689 32.6714C67.1271 33.2317 66.6432 33.8456 66.1228 34.5056C65.5939 35.1795 65.0281 35.9007 64.4308 36.6617C63.2335 38.1865 61.9004 39.8829 60.4575 41.6849L60.9677 42.0995C62.6987 39.9385 64.3842 37.7854 66.0549 35.6571C67.7386 33.5099 69.3335 31.47 70.9342 29.6112L70.4338 29.1846Z" fill="#3B5A4F"/>
<path d="M54.6788 37.002C54.6565 37.0296 54.1934 37.6044 53.465 38.5083C53.0999 38.9593 52.6659 39.4911 52.1851 40.0745C51.7052 40.6569 51.1682 41.2834 50.5927 41.9226C50.0172 42.562 49.4025 43.2137 48.77 43.848C48.1374 44.4825 47.4866 45.0992 46.8449 45.6746C46.2033 46.2502 45.571 46.7845 44.9786 47.258C44.386 47.7306 43.8358 48.1449 43.3583 48.4826L43.7358 49.0225C44.2962 48.6271 44.8397 48.2093 45.3757 47.7837C45.9096 47.3569 46.4315 46.9152 46.9455 46.4649C47.4601 46.015 47.9609 45.5498 48.4547 45.0776C48.9488 44.6056 49.4308 44.1212 49.9039 43.6285C50.3775 43.1363 50.8413 42.6347 51.2944 42.1239C51.748 41.6135 52.194 41.0963 52.6283 40.5698C53.4945 39.5216 54.3469 38.4673 55.1957 37.4082L54.6788 37.002Z" fill="#3B5A4F"/>
<path d="M52.2056 35.0059C52.1883 35.0274 51.6578 35.6852 50.8447 36.6934C50.6404 36.9439 50.4185 37.216 50.1823 37.5055C50.064 37.6497 49.9421 37.7983 49.8171 37.9506C49.6965 38.0956 49.5729 38.2442 49.4468 38.3958C48.9402 38.9988 48.3814 39.6374 47.7945 40.2726C47.2073 40.9076 46.5916 41.5386 45.9776 42.1332C45.3638 42.728 44.7516 43.2862 44.1771 43.7833C43.8903 44.0326 43.6116 44.2646 43.3492 44.4816C43.217 44.5888 43.089 44.6924 42.9658 44.7923C42.843 44.8887 42.725 44.9813 42.6122 45.0698C42.5558 45.114 42.5008 45.1571 42.4472 45.1991C42.3931 45.2398 42.3403 45.2795 42.289 45.3181C42.1864 45.3952 42.0897 45.4679 41.9993 45.5359C41.8179 45.6701 41.6602 45.7806 41.5337 45.8727L41.9111 46.4126C42.4163 46.0565 42.9099 45.6767 43.4017 45.2865C43.8965 44.891 44.3811 44.4808 44.8592 44.062C45.8137 43.222 46.7355 42.3379 47.6225 41.4128C48.0669 40.9512 48.5028 40.4797 48.9299 39.9983C49.3575 39.5174 49.7786 39.0292 50.1899 38.5307L50.5051 38.1487L50.8235 37.7602L51.4583 36.9805L52.7223 35.4123L52.2056 35.0059Z" fill="#3B5A4F"/>
<path d="M57.4156 39.2266C57.3892 39.2593 57.0019 39.7406 56.3685 40.5275C56.0488 40.9199 55.667 41.3886 55.2376 41.9157C55.1288 42.0479 55.0171 42.1839 54.9026 42.3231C54.7831 42.4667 54.6608 42.6137 54.5357 42.7639C54.283 43.0626 54.0186 43.3734 53.7398 43.691C52.6275 44.9627 51.3061 46.3563 49.8737 47.6888C49.1581 48.3554 48.416 49.0073 47.6661 49.6256C47.4774 49.7789 47.2895 49.9314 47.1028 50.083C46.9109 50.2334 46.7201 50.3829 46.5308 50.5312C46.3378 50.6766 46.1464 50.8209 45.9567 50.9639C45.7658 51.1058 45.5719 51.2423 45.3827 51.3793L45.7602 51.9191C46.3817 51.4805 46.9801 51.0208 47.5648 50.5562C48.1417 50.0949 48.7046 49.6186 49.2581 49.1336C49.8123 48.649 50.3504 48.1494 50.8801 47.6428C51.4099 47.1363 51.9258 46.6181 52.4311 46.0919C52.937 45.5661 53.4312 45.0314 53.913 44.4884C54.3952 43.9457 54.8685 43.3968 55.3283 42.8396L55.9902 42.0345L56.6412 41.235L57.9325 39.6328L57.4156 39.2266Z" fill="#3B5A4F"/>
<path d="M60.4508 41.6924C60.421 41.7294 60.1182 42.1059 59.5902 42.7624C59.3238 43.0907 59.0004 43.4889 58.6263 43.9498C58.4377 44.1801 58.2363 44.426 58.0228 44.6867C57.9074 44.8258 57.7887 44.9687 57.6669 45.1156C57.5435 45.2649 57.4149 45.4172 57.282 45.5726C56.224 46.8177 54.9078 48.2758 53.3127 49.8205C52.5154 50.5926 51.6487 51.3858 50.7131 52.182C50.4776 52.3796 50.2404 52.5798 49.9974 52.7783C49.7524 52.9764 49.5118 53.1746 49.2487 53.3781C49.1193 53.4793 48.9893 53.5809 48.8588 53.6829C48.7252 53.7835 48.591 53.8845 48.4564 53.9859C48.1895 54.1896 47.908 54.3887 47.6281 54.5904L48.0055 55.1303L48.5171 54.762C48.6862 54.6384 48.8508 54.5129 49.0175 54.3881L49.2664 54.2002L49.5098 54.0102C49.6704 53.8837 49.8374 53.7555 49.9925 53.6299C50.617 53.1305 51.2254 52.616 51.8227 52.0925C52.4206 51.5694 53.0001 51.0317 53.5695 50.4871C54.1391 49.9425 54.6924 49.3867 55.2333 48.8234C55.7749 48.2605 56.3028 47.6893 56.8163 47.1106C57.3304 46.5322 57.8338 45.948 58.3217 45.3569L58.6677 44.9375L58.9999 44.5322L59.66 43.7214L60.9666 42.1003L60.4508 41.6924Z" fill="#3B5A4F"/>
<path d="M43.3497 48.4893C43.3361 48.5006 43.1789 48.6107 42.9053 48.7976C42.8369 48.8443 42.7614 48.8961 42.6791 48.9524C42.5956 49.0069 42.5053 49.0659 42.4087 49.1292C42.3119 49.1921 42.2086 49.2593 42.0995 49.3303C41.9889 49.3989 41.8723 49.4712 41.7501 49.5471C41.689 49.5849 41.6265 49.6237 41.5627 49.6633C41.498 49.7014 41.432 49.7402 41.3645 49.7798C41.2296 49.8586 41.0895 49.9405 40.9447 50.0251C40.7979 50.1061 40.6464 50.1898 40.4906 50.2758C40.3356 50.3635 40.171 50.4433 40.0054 50.5306C39.3391 50.872 38.595 51.215 37.7996 51.5233C37.0046 51.8322 36.1583 52.1054 35.2972 52.3231C34.4353 52.5375 33.5609 52.7052 32.7121 52.8045C31.8637 52.9064 31.043 52.9542 30.2907 52.9521C29.5382 52.9522 28.8546 52.9098 28.2761 52.8531L28.2122 53.5103C29.5837 53.6459 30.9694 53.6468 32.3414 53.51C33.7135 53.3732 35.071 53.1022 36.3903 52.7039C37.7108 52.3089 38.9914 51.786 40.2179 51.163C41.4448 50.5397 42.6167 49.8157 43.7357 49.0228L43.3497 48.4893Z" fill="#3B5A4F"/>
<path d="M41.5182 45.8838C41.5087 45.8926 41.3473 46.0042 41.0684 46.1952C40.7895 46.3862 40.3894 46.6463 39.9001 46.9448C39.4093 47.2384 38.8271 47.5637 38.1828 47.8781C37.5385 48.1928 36.8318 48.4946 36.096 48.7523C35.3603 49.01 34.5966 49.2252 33.8407 49.3848C33.0866 49.5465 32.3466 49.6454 31.6646 49.7038C30.2992 49.8144 29.1663 49.7358 28.585 49.676L28.5211 50.3332C29.6894 50.4486 30.8628 50.4492 32.0277 50.3334C33.1911 50.2177 34.3523 49.9866 35.4808 49.646C37.7412 48.9718 39.8877 47.8493 41.9031 46.4183L41.5182 45.8838Z" fill="#3B5A4F"/>
<path d="M45.3732 51.3857C45.3639 51.3924 45.3226 51.4218 45.252 51.4722C45.1802 51.5216 45.0786 51.5915 44.9496 51.6802C44.6932 51.8587 44.3209 52.1063 43.8501 52.4039C43.6129 52.5508 43.3549 52.7143 43.0669 52.8798C42.9234 52.963 42.7772 53.0521 42.6213 53.1382C42.4654 53.2243 42.3045 53.3132 42.1391 53.4045C41.472 53.7627 40.7143 54.1393 39.8781 54.4977C38.206 55.2145 36.2127 55.8422 34.1317 56.1783C33.0915 56.3528 32.0281 56.4496 30.9825 56.4844C29.9366 56.5118 28.9077 56.477 27.9332 56.3781L27.8693 57.0353C29.4653 57.1933 31.0859 57.1945 32.6869 57.0348C33.4873 56.9553 34.2828 56.8361 35.0683 56.6795C35.4609 56.6009 35.8511 56.5134 36.2384 56.417C36.4327 56.3714 36.6249 56.3147 36.8181 56.2635C37.0112 56.2113 37.2042 56.1588 37.3944 56.0984C38.9259 55.6402 40.4037 55.0357 41.8018 54.3253C43.2007 53.6145 44.5193 52.7982 45.7602 51.9189L45.3732 51.3857Z" fill="#3B5A4F"/>
<path d="M47.6175 54.5986C47.606 54.6069 47.568 54.6342 47.5048 54.6795C47.44 54.7241 47.3495 54.7865 47.2343 54.8658C47.1189 54.9449 46.9788 55.041 46.8152 55.1533C46.6477 55.263 46.4561 55.3885 46.2417 55.5289C46.1352 55.5995 46.02 55.6719 45.8982 55.7471C45.7766 55.8224 45.6495 55.9013 45.5167 55.9836C45.3851 56.0667 45.2428 56.1494 45.0958 56.2358C44.9486 56.322 44.7958 56.4113 44.6378 56.5038C43.9944 56.8644 43.2547 57.2661 42.3985 57.6666C41.5431 58.0667 40.5793 58.4727 39.5092 58.8453C38.4399 59.2176 37.2632 59.5569 36.0058 59.822C34.7456 60.0881 33.3895 60.2834 31.9676 60.3703C31.2568 60.4128 30.53 60.4317 29.7923 60.4187C29.0547 60.4044 28.3066 60.3614 27.5531 60.2878L27.4892 60.945C29.3341 61.1277 31.2148 61.1294 33.0695 60.9443C33.9969 60.8521 34.9175 60.7141 35.8244 60.5333C36.2778 60.4427 36.7279 60.3418 37.174 60.2308C37.3977 60.1779 37.6198 60.1133 37.8425 60.054C38.0652 59.9937 38.2877 59.9329 38.507 59.8636C40.2722 59.3355 41.9685 58.6406 43.5569 57.8335C45.1466 57.0258 46.6276 56.1074 48.0036 55.1324L47.6175 54.5986Z" fill="#3B5A4F"/>
<path d="M28.2657 52.852C28.257 52.8511 28.2051 52.8456 28.1145 52.836C28.024 52.826 27.8943 52.8145 27.7311 52.7918C27.4035 52.7561 26.9413 52.6714 26.375 52.5796C26.2328 52.5593 26.087 52.5235 25.9344 52.492C25.7818 52.4595 25.6235 52.4257 25.4598 52.3907C25.1307 52.3282 24.7881 52.2287 24.4262 52.135C24.0624 52.0475 23.6915 51.9219 23.3056 51.8008C23.2092 51.7703 23.1121 51.7395 23.0141 51.7085C22.9167 51.6762 22.8206 51.6376 22.7228 51.602C22.5276 51.5293 22.3298 51.4557 22.13 51.3813C21.9284 51.3117 21.7335 51.2187 21.5334 51.1348C21.3342 51.0486 21.1334 50.9618 20.9316 50.8745C20.7344 50.7772 20.5361 50.6794 20.3374 50.5814C20.238 50.5324 20.1384 50.4833 20.0388 50.4342C19.9885 50.4106 19.9398 50.3839 19.8916 50.3563L19.7461 50.2749C19.552 50.1665 19.3579 50.058 19.1642 49.9498L19.0193 49.8683L18.8786 49.7799C18.7849 49.721 18.6914 49.6622 18.5982 49.6036C18.5048 49.5449 18.4117 49.4865 18.3189 49.4281L18.1799 49.3408L18.1106 49.2972L18.0436 49.2503C17.8653 49.125 17.6883 49.0007 17.513 48.8776C17.4254 48.816 17.3382 48.7547 17.2515 48.6939C17.1656 48.6318 17.0842 48.5646 17.0012 48.5008C16.8361 48.3718 16.673 48.2444 16.5125 48.119C16.3491 47.9973 16.2015 47.8609 16.0517 47.7333C15.9029 47.6046 15.7568 47.4782 15.614 47.3547C15.5415 47.2943 15.4741 47.2296 15.4077 47.1655C15.341 47.1018 15.2751 47.0389 15.21 46.9767C15.08 46.8525 14.9535 46.7317 14.8307 46.6145C14.7055 46.5 14.5965 46.3765 14.4862 46.2628C14.377 46.148 14.2719 46.0375 14.1712 45.9316L13.6934 46.3838L14.05 46.7587L14.2284 46.9461C14.2879 47.0086 14.3523 47.0661 14.414 47.1264L14.7883 47.4839L14.9755 47.6626C15.0377 47.7224 15.0998 47.7822 15.1662 47.8375L15.9495 48.5147L16.7656 49.1523C17.8731 49.977 19.0581 50.6972 20.2995 51.298C21.5407 51.8995 22.8372 52.3816 24.163 52.7482L24.6618 52.8798C24.8281 52.9236 24.9938 52.9696 25.1625 53.0023C25.4987 53.0731 25.8342 53.1482 26.171 53.215L27.1869 53.3832C27.5266 53.4351 27.8693 53.476 28.212 53.5104L28.2657 52.852Z" fill="#3B5A4F"/>
<path d="M28.5674 49.6745C28.5616 49.6739 28.5128 49.6688 28.426 49.6595C28.3826 49.655 28.3296 49.6495 28.2677 49.643C28.2058 49.635 28.1351 49.6258 28.0561 49.6156C27.9766 49.6046 27.8905 49.5955 27.7935 49.5803C27.6958 49.564 27.5901 49.5463 27.4771 49.5273C27.3641 49.5086 27.2438 49.4887 27.1168 49.4677C27.0533 49.4573 26.9881 49.4467 26.9213 49.4358C26.8879 49.4303 26.8541 49.4247 26.8199 49.4191C26.7863 49.4118 26.7523 49.4045 26.718 49.397C26.4429 49.3379 26.144 49.2737 25.8261 49.2055C25.6699 49.164 25.5091 49.1213 25.3442 49.0775C25.2616 49.0559 25.1781 49.034 25.0936 49.0118C25.0095 48.9888 24.9225 48.9703 24.8389 48.941C24.1611 48.73 23.4326 48.4912 22.7219 48.175C22.0005 47.8805 21.304 47.4992 20.6318 47.1205C20.4686 47.0175 20.3064 46.9152 20.1459 46.814C20.0654 46.7637 19.9853 46.7137 19.9058 46.664C19.8253 46.6157 19.7518 46.5572 19.6751 46.505C19.5232 46.3983 19.3733 46.2932 19.2261 46.1898C19.1892 46.1641 19.1524 46.1385 19.1159 46.113C19.0794 46.0875 19.0454 46.0583 19.0103 46.0315C18.9406 45.9768 18.8716 45.9226 18.8033 45.869C18.6664 45.7624 18.5324 45.6581 18.402 45.5565C18.2735 45.452 18.1539 45.3424 18.0347 45.2409C17.9161 45.1386 17.8012 45.0396 17.6907 44.9442C17.5812 44.8474 17.4821 44.746 17.3838 44.6539C17.2863 44.5608 17.1932 44.4721 17.1053 44.3882C17.0612 44.3464 17.0183 44.3057 16.9768 44.2662C16.9352 44.2268 16.8984 44.1844 16.8609 44.1458C16.7123 43.9893 16.5846 43.8549 16.4812 43.7461L16.0034 44.1982L16.3133 44.5242L16.468 44.6874C16.5195 44.742 16.5754 44.791 16.6289 44.8431L16.9526 45.1519L17.1142 45.3067C17.1677 45.3587 17.2213 45.4107 17.2786 45.4578L17.9523 46.0408L18.652 46.5871C19.6003 47.2928 20.6097 47.9062 21.6707 48.4201C22.7316 48.9343 23.8438 49.3491 24.9928 49.6676L25.4257 49.7817C25.57 49.8197 25.7132 49.8612 25.8611 49.8889C26.1549 49.9501 26.4474 50.0156 26.7418 50.0753L27.6347 50.2229C27.9304 50.2689 28.219 50.3029 28.512 50.3326L28.5674 49.6745Z" fill="#3B5A4F"/>
<path d="M27.9212 56.3774C27.8974 56.374 27.7098 56.3574 27.3861 56.3186C27.2257 56.2967 27.0264 56.2747 26.8048 56.24C26.5847 56.2037 26.3344 56.1625 26.0573 56.1168C25.9188 56.0936 25.7735 56.0694 25.6219 56.044C25.4705 56.0148 25.3131 55.9796 25.1496 55.9454C24.9863 55.9105 24.817 55.8744 24.6421 55.837C24.5547 55.8181 24.4659 55.799 24.3759 55.7796C24.2856 55.7615 24.1951 55.734 24.1027 55.711C23.9183 55.6625 23.7288 55.6126 23.5346 55.5616C23.4375 55.5358 23.3393 55.5098 23.2399 55.4834C23.1404 55.4575 23.0399 55.4308 22.9395 55.3974C22.7381 55.3339 22.5324 55.2689 22.3229 55.2028C22.2182 55.1695 22.1125 55.1358 22.0059 55.1019C21.9526 55.0848 21.8991 55.0677 21.8453 55.0506C21.7921 55.031 21.7388 55.0114 21.6852 54.9917C20.8268 54.6816 19.9185 54.3226 19.0122 53.8719C18.7854 53.7598 18.5562 53.6478 18.3272 53.5318C18.1027 53.4067 17.8766 53.2808 17.6495 53.1542C17.5361 53.0905 17.4225 53.0267 17.3086 52.9628C17.1943 52.8996 17.0857 52.826 16.9739 52.7577C16.7519 52.6181 16.5292 52.478 16.3061 52.3377C14.5381 51.1858 12.9263 49.7687 11.6087 48.3574L11.1309 48.8095L11.5391 49.2386L11.7436 49.4527C11.8119 49.524 11.8857 49.5909 11.9566 49.6601L12.3867 50.0714L12.6022 50.2766C12.6739 50.3451 12.7456 50.4136 12.8219 50.4779L13.7263 51.2593L14.671 51.9977C15.9544 52.954 17.3334 53.7924 18.7739 54.4896C20.2143 55.1878 21.7144 55.7448 23.2353 56.165L23.8068 56.3158C23.9974 56.3658 24.1878 56.4177 24.3795 56.4556C24.7624 56.5371 25.1455 56.6222 25.5289 56.6977L26.6807 56.8885C27.0695 56.9478 27.4718 56.996 27.8693 57.0358L27.9212 56.3774Z" fill="#3B5A4F"/>
<path d="M27.539 60.2862C27.5081 60.2829 27.3355 60.2646 27.0336 60.2325C26.8835 60.2131 26.7011 60.1896 26.4883 60.1621C26.4355 60.1549 26.3788 60.1482 26.324 60.1397C26.2698 60.131 26.2137 60.122 26.1559 60.1127C26.0403 60.0938 25.9177 60.0738 25.788 60.0527C25.529 60.0093 25.2423 59.9614 24.9296 59.9091C24.6163 59.8485 24.2761 59.7736 23.9119 59.6962C23.7297 59.6558 23.5416 59.6188 23.3473 59.5707C23.1532 59.5201 22.953 59.4678 22.747 59.4141C22.5413 59.3594 22.3297 59.3031 22.1125 59.2453C22.0039 59.2179 21.8944 59.183 21.7834 59.1482C21.6725 59.1134 21.5602 59.0782 21.4466 59.0425C21.2197 58.9703 20.9873 58.8963 20.7497 58.8206C20.6904 58.8013 20.6307 58.782 20.5708 58.7625C20.5112 58.7407 20.4513 58.7188 20.391 58.6967C20.2706 58.6522 20.149 58.6073 20.0261 58.562C19.7808 58.47 19.5305 58.3762 19.2754 58.2806C19.0217 58.1797 18.7659 58.0659 18.5047 57.9546C18.3744 57.8981 18.2429 57.8411 18.1103 57.7836C17.9778 57.7257 17.8437 57.6692 17.7119 57.6024C17.4471 57.4722 17.1781 57.3399 16.9049 57.2055C16.7689 57.1369 16.6305 57.0711 16.4942 56.9981C16.3588 56.9231 16.2224 56.8476 16.085 56.7715C15.8107 56.6186 15.5326 56.4632 15.2525 56.3031C14.9788 56.1319 14.7017 55.9586 14.4211 55.783C14.2814 55.6942 14.1399 55.6062 14 55.5144C13.8628 55.4189 13.7248 55.3228 13.5861 55.2261C13.31 55.031 13.0271 54.8374 12.7505 54.6314C12.4788 54.4196 12.2043 54.2056 11.9271 53.9895C11.6463 53.7763 11.3851 53.5404 11.114 53.3088C10.8464 53.0743 10.568 52.8436 10.3119 52.592C10.0518 52.3431 9.78957 52.0921 9.52531 51.8391C9.27059 51.5797 9.02039 51.3138 8.7665 51.0469L8.2887 51.499C9.51286 52.8119 10.8657 54.0519 12.3473 55.152C13.8256 56.2543 15.4195 57.2236 17.0806 58.0278C18.7417 58.8332 20.4673 59.4733 22.2043 59.953L22.8564 60.1251C23.074 60.1818 23.2917 60.2405 23.509 60.2843C23.9437 60.3777 24.3795 60.4737 24.8145 60.559C25.2482 60.633 25.6824 60.705 26.1168 60.775C26.1717 60.7835 26.224 60.7929 26.2811 60.8006L26.4529 60.8234L26.7964 60.868C27.0252 60.8987 27.2565 60.9195 27.4865 60.9446L27.539 60.2862Z" fill="#3B5A4F"/>
<path d="M14.1643 45.9243C14.1582 45.9179 14.1221 45.88 14.059 45.8137C14.0275 45.7805 13.9892 45.7403 13.9445 45.6933C13.902 45.6442 13.8535 45.5882 13.7992 45.5255C13.6908 45.4002 13.5595 45.2485 13.4081 45.0738C13.3332 44.9858 13.2503 44.8945 13.168 44.7935C13.0872 44.6911 13.002 44.5832 12.9128 44.4701C12.8235 44.357 12.7302 44.2388 12.6331 44.1159C12.5846 44.0544 12.535 43.9917 12.4847 43.928C12.4366 43.8625 12.3878 43.7959 12.3381 43.7281C12.2392 43.5923 12.1371 43.4521 12.0321 43.3078C11.9316 43.1604 11.8284 43.0089 11.7227 42.8538C11.3068 42.2288 10.881 41.5256 10.4857 40.7655C10.0887 40.0064 9.72804 39.1883 9.41962 38.3502C9.11102 37.512 8.85772 36.6528 8.66415 35.8145C8.26972 34.1383 8.13974 32.5474 8.09063 31.376L7.43552 31.4015C7.46085 32.0928 7.518 32.7808 7.5947 33.4679L7.65967 33.9837C7.67999 34.1558 7.71235 34.3263 7.73822 34.4977C7.78792 34.8409 7.86058 35.1802 7.9256 35.5208C8.21531 36.8768 8.62123 38.2105 9.16376 39.4868C9.29327 39.8086 9.44358 40.1209 9.58769 40.4361C9.66213 40.5925 9.74217 40.7462 9.81923 40.9013L9.93586 41.1335L10.0597 41.3617L10.3088 41.8174L10.5724 42.2647C10.6584 42.4149 10.7515 42.5607 10.8446 42.7065C10.9381 42.8519 11.0279 42.9999 11.1247 43.1431C11.32 43.4283 11.5106 43.7169 11.718 43.9932L11.8708 44.2025L11.9472 44.3072L12.027 44.4089L12.3473 44.8146L12.6677 45.2203C12.7778 45.3528 12.8926 45.4817 13.0048 45.6125C13.232 45.8718 13.4507 46.1387 13.6937 46.3839L14.1643 45.9243Z" fill="#3B5A4F"/>
<path d="M16.4687 43.7334C16.4646 43.7291 16.4298 43.6927 16.3679 43.6279C16.3376 43.5947 16.2976 43.5578 16.2564 43.5082C16.2144 43.4595 16.1664 43.4037 16.1127 43.3414C16.0049 43.2171 15.8746 43.0666 15.7248 42.8937C15.6878 42.8499 15.6472 42.8074 15.6097 42.7589C15.5718 42.7107 15.5329 42.6611 15.4929 42.6102C15.4127 42.5085 15.3283 42.4014 15.24 42.2895C15.1527 42.1775 15.0566 42.0618 14.9658 41.9398C14.8766 41.8175 14.7842 41.6908 14.6889 41.5601C14.6401 41.4955 14.5938 41.4281 14.5478 41.3592C14.5011 41.2907 14.4538 41.2213 14.406 41.1509C14.3581 41.0806 14.3097 41.0094 14.2607 40.9375C14.2143 40.8641 14.1674 40.7899 14.12 40.715C13.7383 40.1171 13.3621 39.4521 13.027 38.7501C12.6916 38.0483 12.3958 37.3104 12.1592 36.5746C11.9212 35.8392 11.7403 35.107 11.6098 34.4241C11.5931 34.3388 11.5765 34.2544 11.5601 34.1711C11.5467 34.087 11.5334 34.0039 11.5204 33.9219C11.5072 33.8399 11.4943 33.7591 11.4815 33.6794C11.4682 33.5998 11.4554 33.5212 11.4469 33.443C11.4273 33.2871 11.4083 33.1362 11.39 32.991C11.3797 32.9195 11.3736 32.8444 11.3665 32.7722C11.3595 32.6998 11.3526 32.6289 11.3459 32.5597C11.3155 32.2825 11.3039 32.0324 11.2859 31.8127C11.2721 31.5933 11.2659 31.4053 11.2577 31.2529L10.6026 31.2784L10.6241 31.7338C10.6326 31.8856 10.6457 32.0378 10.656 32.1898C10.6653 32.3418 10.6803 32.494 10.6956 32.6463L10.7177 32.8747L10.7287 32.9888L10.7429 33.0996L10.7987 33.543C10.8156 33.6911 10.8443 33.8367 10.8662 33.9838C10.9081 34.2784 10.9714 34.5678 11.0262 34.8593C11.2744 36.0176 11.618 37.1511 12.0802 38.2377C12.1898 38.5118 12.3188 38.7777 12.4409 39.0466C12.504 39.1802 12.5732 39.311 12.6386 39.4436L12.7379 39.6419C12.7721 39.7075 12.8086 39.7719 12.8438 39.837L13.0565 40.227L13.2827 40.6103C13.3209 40.6739 13.3567 40.7389 13.3965 40.8016L13.5163 40.9898C13.5969 41.1147 13.6736 41.2419 13.7568 41.3655C13.926 41.611 14.0887 41.8605 14.2691 42.0995L14.4011 42.2806C14.4446 42.3412 14.4886 42.4017 14.537 42.4607L14.8193 42.8175L15.1008 43.1751C15.1969 43.2919 15.2979 43.4034 15.396 43.5181C15.5951 43.7441 15.7851 43.9802 15.9969 44.1918L16.4687 43.7334Z" fill="#3B5A4F"/>
<path d="M11.6004 48.3491C11.5922 48.3405 11.5562 48.3024 11.4945 48.2373C11.433 48.1721 11.3437 48.0813 11.2404 47.9589C11.1354 47.8378 11.0081 47.6911 10.8607 47.5212C10.7872 47.436 10.7086 47.3451 10.6253 47.2487C10.5837 47.2004 10.5409 47.1508 10.497 47.0998C10.4553 47.0474 10.4125 46.9936 10.3687 46.9385C10.1942 46.7174 10.0027 46.4748 9.79617 46.2132C9.69187 46.0845 9.58894 45.9421 9.48238 45.7958C9.37599 45.6494 9.26502 45.4994 9.15369 45.3428C8.71373 44.7115 8.24785 43.9906 7.79263 43.19C7.33998 42.388 6.903 41.5043 6.50947 40.5637C6.11594 39.6233 5.76866 38.625 5.48741 37.602C5.20551 36.5791 4.9897 35.5322 4.84112 34.4988C4.80852 34.2402 4.77604 33.9827 4.7438 33.7268C4.71489 33.4731 4.69374 33.2268 4.66912 32.9792C4.64725 32.7319 4.63187 32.485 4.61369 32.2412C4.59766 31.9969 4.5889 31.7535 4.57686 31.5137L3.92175 31.5392L3.94965 32.1261C3.96061 32.3214 3.97658 32.5155 3.99017 32.7103C4.00281 32.9054 4.02134 33.0988 4.04059 33.292L4.06884 33.5822L4.08321 33.7274L4.10168 33.8764L4.17678 34.4722C4.20079 34.6709 4.23727 34.8688 4.26743 35.0671C4.32583 35.464 4.40862 35.8583 4.48502 36.2532C4.82038 37.828 5.29497 39.3829 5.92588 40.8691C6.07756 41.2435 6.25099 41.6073 6.41948 41.9736C6.50607 42.1554 6.59851 42.3341 6.68821 42.5143L6.82415 42.7838L6.96737 43.0489L7.25672 43.5772L7.56151 44.0952C7.66164 44.269 7.76879 44.4375 7.87613 44.606C7.98395 44.7741 8.08848 44.9449 8.19987 45.11C8.42408 45.439 8.64507 45.7713 8.88252 46.0887L9.05809 46.3291L9.14606 46.4491L9.23623 46.5646L9.59842 47.0243L9.96179 47.4832C10.0868 47.6338 10.2171 47.7811 10.3449 47.93C10.6034 48.2258 10.8531 48.5274 11.1308 48.8098L11.6004 48.3491Z" fill="#3B5A4F"/>
<path d="M8.75685 51.0368C8.73718 51.0141 8.61727 50.8934 8.41982 50.6755C8.22809 50.4543 7.95423 50.1382 7.60617 49.7364C7.56338 49.6858 7.51731 49.6348 7.47416 49.5806C7.43101 49.5264 7.38685 49.4709 7.34162 49.414C7.25132 49.3001 7.1568 49.1808 7.05816 49.0563C6.95989 48.9315 6.8575 48.8015 6.75117 48.6665C6.69813 48.5988 6.64413 48.5298 6.58912 48.4597C6.53435 48.3885 6.47946 48.3113 6.42326 48.2353C6.31145 48.0819 6.19583 47.9233 6.07651 47.7597C5.95624 47.5972 5.84098 47.4203 5.71832 47.2429C5.59788 47.0632 5.4692 46.8833 5.34786 46.6882C5.22514 46.4947 5.09921 46.2961 4.97024 46.0927C4.46663 45.2688 3.94776 44.3388 3.45429 43.3001C2.96033 42.2622 2.49391 41.1149 2.09329 39.8748C1.69135 38.6355 1.35569 37.3035 1.1167 35.9096C1.08869 35.7353 1.0605 35.5602 1.03219 35.3842C1.00412 35.2082 0.975514 35.0313 0.954595 34.8536C0.932186 34.6759 0.909717 34.4974 0.887069 34.3181C0.876341 34.2289 0.865614 34.1394 0.854826 34.0498C0.846363 33.9638 0.83784 33.8776 0.829318 33.7912C0.81269 33.6183 0.796002 33.4448 0.779196 33.2705C0.766024 33.0949 0.752793 32.9186 0.739503 32.7416C0.710955 32.3885 0.697069 32.0272 0.679844 31.665L0.0247345 31.6906L0.0563218 32.3541C0.0687779 32.5746 0.0863595 32.7931 0.101855 33.0127C0.116397 33.2328 0.137019 33.4501 0.158534 33.6673L0.190359 33.9933L0.20669 34.1565L0.227609 34.3277L0.313908 35.0122C0.341919 35.2403 0.382983 35.4687 0.417967 35.6968C0.485969 36.1531 0.580016 36.6085 0.669057 37.0635C1.05502 38.8807 1.60547 40.6808 2.33437 42.3996C2.51054 42.8323 2.70954 43.2531 2.90514 43.676C3.00515 43.8861 3.1113 44.0925 3.21506 44.3004L3.37228 44.6114L3.53707 44.9171L3.87088 45.5261L4.22138 46.1225C4.28062 46.2212 4.33778 46.3219 4.39917 46.4188L4.58297 46.7099C4.70658 46.9029 4.82744 47.099 4.95492 47.2885C5.21132 47.666 5.46586 48.0467 5.7365 48.4097L5.93747 48.6845L6.03819 48.8216L6.13993 48.9524L6.54853 49.472L6.95947 49.9898C7.10078 50.1604 7.24852 50.3283 7.39341 50.4972C7.68669 50.8334 7.97062 51.1735 8.28661 51.4971L8.75685 51.0368Z" fill="#3B5A4F"/>
<path d="M8.09023 31.3666C8.08773 31.3489 8.08314 31.1565 8.07616 30.8241C8.07032 30.6578 8.07283 30.4566 8.07354 30.2248C8.0714 29.9929 8.08314 29.7307 8.09094 29.442C8.11627 28.8654 8.16234 28.184 8.25705 27.4375C8.35127 26.6911 8.49556 25.8802 8.69826 25.0469C8.90173 24.2139 9.16634 23.3597 9.48603 22.5257C9.80506 21.6915 10.179 20.8781 10.5838 20.1199C11.3916 18.6007 12.3269 17.3138 13.0672 16.4098L12.5609 15.9902C10.8154 18.124 9.41362 20.5687 8.54604 23.207C8.32487 23.8645 8.1428 24.5349 7.98802 25.2108C7.83491 25.8872 7.70772 26.5698 7.62023 27.2575C7.53072 27.9449 7.47088 28.6356 7.43858 29.3274C7.4108 30.0193 7.41086 30.7116 7.43566 31.4025L8.09023 31.3666Z" fill="#3B5A4F"/>
<path d="M11.2568 31.2354C11.2542 31.2229 11.2511 31.0316 11.2434 30.7011C11.2387 30.5357 11.244 30.337 11.2431 30.108C11.243 29.9936 11.2496 29.8727 11.2526 29.7446C11.2566 29.6166 11.2588 29.4815 11.2688 29.3417C11.3205 28.2186 11.5054 26.7239 11.9292 25.228C12.1393 24.4799 12.4038 23.7308 12.7081 23.02C13.0119 22.3091 13.3554 21.6367 13.7064 21.0345C14.409 19.8297 15.1325 18.9061 15.5146 18.4381L15.0083 18.0186C13.4818 19.8867 12.2926 21.9711 11.5536 24.2135C10.8112 26.4541 10.5044 28.8431 10.6021 31.2698L11.2568 31.2354Z" fill="#3B5A4F"/>
<path d="M4.57634 31.5013C4.5739 31.478 4.56866 31.2929 4.5621 30.9716C4.56037 30.8913 4.55852 30.8025 4.55644 30.7056C4.55483 30.6087 4.55644 30.5031 4.55638 30.3902C4.55727 30.1641 4.55632 29.9074 4.5674 29.6217C4.59941 28.4824 4.71247 26.8846 5.08872 25.0734C5.2752 24.1687 5.52551 23.2127 5.8483 22.2444C6.1696 21.2757 6.56688 20.2964 7.02818 19.3436C7.48876 18.3904 8.01281 17.4638 8.57655 16.5924C9.13994 15.7206 9.74242 14.904 10.3516 14.1588L9.84535 13.7393C9.34597 14.3446 8.87491 14.9812 8.42476 15.635C8.31402 15.8002 8.1987 15.9613 8.09249 16.1303L7.77 16.6337L7.46039 17.1471C7.35591 17.3173 7.26109 17.4946 7.16144 17.6682C6.77083 18.3682 6.40686 19.0868 6.08151 19.825C5.75682 20.5634 5.46574 21.3182 5.21042 22.0848C4.95319 22.851 4.74054 23.6316 4.56073 24.4171C4.38259 25.203 4.23598 25.9953 4.13442 26.7896C4.03078 27.5838 3.96206 28.3791 3.92541 29.1721C3.89322 29.9648 3.8934 30.7543 3.92177 31.5387L4.57634 31.5013Z" fill="#3B5A4F"/>
<path d="M0.679207 31.6521C0.676882 31.6226 0.67128 31.4555 0.66532 31.1624C0.662698 31.0157 0.656857 30.8384 0.655844 30.6299C0.656678 30.4208 0.657572 30.1818 0.658645 29.9142C0.663771 29.6458 0.673962 29.3476 0.684392 29.0229C0.69351 28.8598 0.702927 28.6898 0.71282 28.5133C0.722714 28.3368 0.733144 28.1537 0.750487 27.9632C0.766698 27.773 0.783385 27.5763 0.800669 27.3734C0.823197 27.17 0.846381 26.9604 0.870221 26.7447C0.89257 26.5292 0.926005 26.307 0.957414 26.0792C0.973625 25.9654 0.990014 25.85 1.00658 25.7332C1.02589 25.6164 1.0455 25.4981 1.06529 25.3785C1.22412 24.4216 1.44678 23.3743 1.7608 22.2644C2.07435 21.1548 2.4798 19.9832 2.99212 18.7872C4.01143 16.3934 5.48948 13.9205 7.33991 11.6637L6.83361 11.2441C6.26766 11.931 5.72949 12.6565 5.21491 13.4045C5.08791 13.5935 4.95691 13.7779 4.83461 13.9716L4.46492 14.549L4.109 15.1388C3.98944 15.3344 3.8793 15.5383 3.76493 15.7382C3.31502 16.5441 2.89539 17.3735 2.5192 18.2267C2.14367 19.0801 1.8067 19.9534 1.5115 20.8404C1.21428 21.727 0.967725 22.6295 0.760142 23.5366C0.554228 24.4438 0.385981 25.3576 0.26881 26.27C0.149493 27.1825 0.0708822 28.0936 0.0292227 28.999C-0.00778816 29.9032 -0.00766914 30.8006 0.0245738 31.6885L0.679207 31.6521Z" fill="#3B5A4F"/>
<path d="M13.0737 16.4002C13.0792 16.3934 13.1121 16.3526 13.1697 16.2813C13.229 16.2115 13.3138 16.1117 13.4211 15.9854C13.4749 15.9223 13.5343 15.8526 13.599 15.7767C13.6655 15.7023 13.7375 15.6218 13.8146 15.5356C13.892 15.4499 13.9729 15.3568 14.0616 15.2613C14.1509 15.1663 14.2451 15.0662 14.3437 14.9612C14.3932 14.9089 14.4438 14.8554 14.4954 14.8007C14.5486 14.7477 14.603 14.6936 14.6584 14.6385C14.7692 14.5281 14.8843 14.4136 15.0032 14.2951C15.063 14.2362 15.1223 14.1749 15.1852 14.1154C15.249 14.0569 15.3137 13.9976 15.3794 13.9375C15.5108 13.8171 15.6457 13.6935 15.7839 13.5669C15.852 13.5024 15.9248 13.4418 15.9983 13.3804C16.0716 13.3187 16.1457 13.2564 16.2205 13.1935C16.2953 13.1306 16.3708 13.067 16.447 13.0029C16.5232 12.9386 16.5995 12.8732 16.6809 12.8129C17.0027 12.567 17.3287 12.3042 17.6826 12.0652C17.7699 12.0038 17.8576 11.9421 17.9458 11.8801L18.0783 11.7869L18.2151 11.699C18.3981 11.582 18.5825 11.464 18.7679 11.3454C18.8594 11.2843 18.9563 11.2315 19.0516 11.1755C19.1472 11.1201 19.243 11.0647 19.3389 11.0091C19.4348 10.9535 19.5308 10.8979 19.6269 10.8422C19.7241 10.7885 19.8236 10.7387 19.9218 10.6868C20.7026 10.2607 21.5218 9.90921 22.3185 9.59881C22.5194 9.52533 22.7183 9.45258 22.9146 9.38079C23.0122 9.34291 23.1122 9.31434 23.2103 9.2824C23.3086 9.25113 23.4062 9.22009 23.5031 9.18924C23.8884 9.05886 24.271 8.96426 24.634 8.86341C24.8148 8.81035 24.9959 8.77571 25.1702 8.73393C25.345 8.69389 25.5151 8.65499 25.68 8.61724C26.0125 8.55469 26.3239 8.49616 26.6101 8.44232L26.5023 7.79102C25.1474 8.01942 23.8087 8.36158 22.5112 8.82589C21.2137 9.28967 19.9579 9.87583 18.7691 10.5775C17.5802 11.279 16.458 12.0944 15.4215 13.0064C15.1679 13.2404 14.9103 13.4703 14.6603 13.7081L14.2936 14.0731L14.1102 14.2557C14.0486 14.3161 13.9882 14.3777 13.93 14.4409C13.4529 14.9371 12.9991 15.4564 12.5609 15.9888L13.0737 16.4002Z" fill="#3B5A4F"/>
<path d="M15.5261 18.422C15.5302 18.4175 15.5609 18.3774 15.6187 18.3079C15.6774 18.2389 15.7618 18.1396 15.8688 18.0138C16.0825 17.7629 16.3988 17.4108 16.7943 16.9994C16.8936 16.9007 16.9972 16.7977 17.1047 16.6909C17.1583 16.6374 17.2129 16.5829 17.2684 16.5274C17.2962 16.4997 17.3242 16.4718 17.3524 16.4437C17.3817 16.417 17.4112 16.3901 17.441 16.3631C17.6807 16.1486 17.9247 15.9078 18.2003 15.6866C18.7348 15.2207 19.3499 14.7723 19.9949 14.3415C20.1581 14.2369 20.3222 14.1317 20.4867 14.0263C20.6555 13.9284 20.8248 13.8303 20.994 13.7322C21.1608 13.63 21.3365 13.544 21.5087 13.4534C21.682 13.3647 21.8506 13.2685 22.0275 13.1914C22.2021 13.1096 22.3754 13.0284 22.547 12.948C22.7222 12.875 22.8957 12.8029 23.0667 12.7317C23.1526 12.6968 23.2364 12.6587 23.3221 12.6268C23.4082 12.5956 23.4936 12.5646 23.5782 12.5338C23.7479 12.4733 23.9124 12.4085 24.0769 12.3534C24.2425 12.3009 24.4045 12.2495 24.5623 12.1994C24.6413 12.1745 24.7186 12.1485 24.7959 12.1252C24.874 12.1042 24.9508 12.0834 25.0265 12.063C25.1778 12.0216 25.3242 11.9817 25.4651 11.9431C25.5351 11.9225 25.6054 11.9066 25.6742 11.8914C25.743 11.8758 25.8103 11.8605 25.876 11.8456C26.1391 11.7857 26.3761 11.7272 26.5896 11.6924C26.8014 11.6526 26.9835 11.6184 27.1308 11.5908L27.0231 10.9395C24.6561 11.3367 22.4032 12.1308 20.3768 13.3282C19.3631 13.9258 18.4046 14.6212 17.5112 15.4057C17.293 15.6085 17.0708 15.8064 16.854 16.0114L16.5364 16.3282L16.3773 16.4864C16.324 16.5385 16.2711 16.5915 16.2194 16.648C15.7968 17.0874 15.3981 17.5439 15.0141 18.0094L15.5261 18.422Z" fill="#3B5A4F"/>
<path d="M10.3591 14.1484C10.3666 14.1392 10.3993 14.0985 10.4555 14.029C10.5131 13.9611 10.5945 13.8648 10.6979 13.7427C10.9035 13.4973 11.2033 13.1557 11.5851 12.7439C11.6811 12.6417 11.7819 12.5346 11.8871 12.4228C11.9903 12.3106 12.1103 12.197 12.2281 12.0775C12.4687 11.841 12.718 11.5797 13.0057 11.3239C13.1474 11.1942 13.2931 11.0608 13.4424 10.9242C13.4798 10.8901 13.5174 10.8558 13.5552 10.8213C13.5944 10.7882 13.6338 10.7548 13.6735 10.7213C13.753 10.6543 13.8333 10.5866 13.9145 10.5181C14.0773 10.3816 14.2425 10.241 14.4135 10.1008C14.589 9.9654 14.7676 9.82745 14.9493 9.68729C15.0403 9.61742 15.1321 9.54701 15.2245 9.47605C15.3183 9.40666 15.4155 9.34021 15.5119 9.27154C15.7058 9.13539 15.9024 8.99733 16.1014 8.85765C16.3044 8.72343 16.513 8.59215 16.7224 8.45768C16.8273 8.39081 16.9328 8.32364 17.0387 8.25617C17.1473 8.19296 17.2565 8.12945 17.366 8.06564C18.2357 7.54316 19.1787 7.08041 20.1441 6.66172C20.3871 6.56099 20.6306 6.46015 20.8741 6.35924C21.121 6.26872 21.3681 6.1782 21.6148 6.0878C21.8605 5.99385 22.1107 5.91798 22.3592 5.83832C22.4835 5.79888 22.6077 5.75951 22.7316 5.72019C22.7937 5.70086 22.8554 5.68039 22.9175 5.6622L23.1044 5.61088C23.3534 5.54305 23.6013 5.47558 23.8477 5.40847C24.0946 5.34412 24.3417 5.29237 24.5861 5.23498C24.7085 5.20719 24.8303 5.17946 24.9516 5.15191C25.0731 5.12562 25.1945 5.10509 25.3151 5.08168C25.5566 5.03672 25.7957 4.99218 26.0321 4.94818L25.9243 4.29688C24.3797 4.55703 22.8386 4.94967 21.3363 5.4871C19.8341 6.02375 18.3721 6.70578 16.9896 7.52215C15.6068 8.33805 14.3037 9.28637 13.1084 10.3382C12.8157 10.6066 12.5193 10.8722 12.2322 11.1457L11.8112 11.5641L11.6011 11.7738L11.4963 11.8788L11.3961 11.9847C10.859 12.5436 10.3439 13.132 9.84537 13.7381L10.3591 14.1484Z" fill="#3B5A4F"/>
<path d="M7.34874 11.6518C7.36758 11.6284 7.47217 11.4968 7.66152 11.2758C7.75598 11.1648 7.87065 11.0301 8.00457 10.8728C8.14129 10.7196 8.29761 10.5444 8.47266 10.3483C8.64758 10.1516 8.84753 9.94508 9.06322 9.71446C9.16835 9.60016 9.29262 9.47957 9.41587 9.35525C9.54061 9.23105 9.67 9.10217 9.80397 8.96879C10.0675 8.69927 10.3732 8.42819 10.6898 8.13657C11.0027 7.8419 11.3596 7.55196 11.7266 7.2421C11.8195 7.16563 11.9107 7.08567 12.0084 7.00992C12.1061 6.93416 12.2049 6.85757 12.3048 6.78013C12.5053 6.62622 12.7104 6.46888 12.9196 6.30831C13.1336 6.15302 13.3554 5.99839 13.5804 5.83992C13.6932 5.7611 13.8072 5.6815 13.9221 5.60125C14.0376 5.52171 14.1584 5.44704 14.2783 5.36894C14.5196 5.21515 14.7651 5.0586 15.0147 4.89952C15.2708 4.75054 15.531 4.59909 15.7953 4.4453C15.8615 4.40724 15.928 4.369 15.9948 4.33059L16.0952 4.27308L16.1978 4.21881C16.3352 4.14672 16.4735 4.07403 16.6128 4.00085C16.8924 3.85679 17.1729 3.70342 17.4669 3.57028C19.7922 2.44224 22.5166 1.55875 25.3913 1.07415L25.2836 0.422852C23.5288 0.718187 21.7633 1.16666 20.0342 1.78518C18.3053 2.40256 16.6147 3.19072 15.0174 4.13412C13.4198 5.07673 11.9161 6.17223 10.5447 7.37884C10.2087 7.68535 9.86929 7.99058 9.54085 8.30357L9.0597 8.78109L8.82006 9.02084L8.7005 9.14095L8.5875 9.26017C7.98383 9.88872 7.40059 10.5534 6.83542 11.241L7.34874 11.6518Z" fill="#3B5A4F"/>
<path d="M26.6204 8.44111C26.6375 8.43697 26.8269 8.41044 27.1535 8.36224C27.2351 8.35029 27.3254 8.33702 27.4238 8.32262C27.4729 8.31541 27.5241 8.30791 27.5772 8.3001C27.6305 8.29332 27.6859 8.28852 27.743 8.28234C27.9718 8.25863 28.2309 8.23173 28.5159 8.2022C28.5871 8.1935 28.6602 8.18935 28.7349 8.18551C28.8096 8.18125 28.8858 8.17693 28.9635 8.17255C29.1189 8.16372 29.2804 8.15448 29.4473 8.14499C29.614 8.13179 29.7867 8.13533 29.964 8.13245C30.1415 8.13071 30.3238 8.12897 30.5104 8.12717C30.6038 8.12417 30.6981 8.13089 30.7935 8.13377C30.8888 8.13743 30.9852 8.14109 31.0826 8.14482C31.1799 8.14854 31.2783 8.15226 31.3774 8.15604C31.4766 8.16036 31.5768 8.16144 31.6773 8.17231C31.8784 8.18966 32.0828 8.2073 32.29 8.22519C32.3935 8.2354 32.4982 8.24026 32.6024 8.25497C32.7067 8.26907 32.8117 8.28324 32.9172 8.29747C33.128 8.32712 33.3417 8.35191 33.5557 8.38624C33.7689 8.42544 33.9837 8.46494 34.1997 8.50468L34.3618 8.53446L34.4431 8.54934L34.5236 8.56807C34.631 8.59316 34.7386 8.61825 34.8464 8.64341C34.9541 8.66856 35.0621 8.69371 35.1701 8.71892C35.278 8.74437 35.3866 8.76742 35.4928 8.7999C35.7064 8.8604 35.9201 8.92091 36.1333 8.98124L36.2931 9.02644L36.4507 9.07848C36.5555 9.11348 36.6601 9.14835 36.7646 9.18317C36.869 9.21799 36.9732 9.25268 37.077 9.28732C37.1289 9.30497 37.1811 9.32117 37.2324 9.3399L37.385 9.39855C37.5882 9.47659 37.7898 9.55402 37.9896 9.63074C39.5802 10.2672 40.9583 11.0536 41.9433 11.6783L42.2931 11.1198C41.1334 10.3829 39.9166 9.73098 38.6491 9.19182C37.382 8.65235 36.0642 8.22657 34.7162 7.93526C33.3683 7.64328 31.9911 7.48637 30.613 7.46626C29.2352 7.44525 27.8554 7.56315 26.5025 7.79173L26.6204 8.44111Z" fill="#3B5A4F"/>
<path d="M27.1489 11.5873C27.1608 11.5856 27.3489 11.5581 27.6737 11.5106C27.7549 11.4986 27.8446 11.4853 27.9422 11.4708C28.0398 11.4566 28.1431 11.4495 28.2548 11.4371C28.3662 11.4255 28.4848 11.4132 28.6099 11.4002C28.7351 11.3873 28.8669 11.3703 29.0043 11.366C30.1046 11.2833 31.5834 11.2956 33.1005 11.5458C33.2896 11.5806 33.4797 11.6156 33.6703 11.6506C33.7179 11.6595 33.7658 11.6672 33.8133 11.677L33.9552 11.7107L34.2393 11.7773L34.5235 11.8429C34.571 11.8529 34.618 11.8653 34.6647 11.8795L34.8049 11.9197C34.992 11.9724 35.1784 12.025 35.3634 12.0771C35.5466 12.1382 35.7286 12.199 35.9086 12.2591C35.9986 12.2896 36.0888 12.3172 36.1773 12.3492C36.2653 12.3833 36.3529 12.4171 36.4398 12.4508C36.6135 12.5185 36.7858 12.5819 36.9539 12.649C37.1206 12.7217 37.2842 12.7931 37.4444 12.8631C37.5247 12.8978 37.604 12.932 37.6824 12.9659C37.7597 13.0035 37.8361 13.0407 37.9114 13.0773C38.0623 13.1506 38.2091 13.2219 38.3513 13.2911C38.3869 13.3082 38.4222 13.3253 38.4573 13.3422C38.4917 13.3608 38.5259 13.3793 38.5598 13.3976C38.6275 13.4342 38.6941 13.4702 38.7594 13.5055C38.8902 13.5757 39.0159 13.6432 39.136 13.7078C39.1661 13.7239 39.1957 13.7399 39.2251 13.7556C39.2539 13.7727 39.2824 13.7896 39.3105 13.8063C39.3667 13.8396 39.4216 13.8721 39.4748 13.9038C39.5816 13.9667 39.6822 14.0262 39.7762 14.0816C39.9658 14.1891 40.1237 14.2942 40.2524 14.3771L40.6022 13.8186C38.5495 12.512 36.3467 11.5503 34.057 11.0566C32.9126 10.8084 31.7477 10.675 30.5741 10.6572L29.6925 10.6652L28.8089 10.7153L27.9246 10.8069L27.0323 10.9376L27.1489 11.5873Z" fill="#3B5A4F"/>
<path d="M26.0439 4.94738C26.0671 4.94227 26.2491 4.91628 26.5647 4.86958C26.7226 4.84659 26.9138 4.8188 27.1353 4.78656C27.3609 4.76273 27.6172 4.73566 27.9012 4.70564C28.0433 4.69142 28.1921 4.67503 28.3479 4.6611C28.5046 4.65192 28.6677 4.64237 28.8371 4.63247C29.0065 4.62299 29.182 4.6132 29.3633 4.60306C29.4086 4.60072 29.4543 4.59838 29.5003 4.59597C29.5466 4.59537 29.5932 4.59483 29.6401 4.59423C29.7341 4.59315 29.8294 4.59213 29.926 4.59105C30.1193 4.58937 30.3179 4.58763 30.5215 4.58583C30.6232 4.58343 30.7265 4.58727 30.8309 4.59147C30.9353 4.59531 31.0409 4.59921 31.1476 4.60312C31.3611 4.6117 31.5791 4.62041 31.8013 4.62929C32.0233 4.64814 32.2493 4.66735 32.4791 4.68685C32.9394 4.71801 33.4107 4.79268 33.8947 4.85643C33.9551 4.86526 34.016 4.87198 34.0764 4.8826C34.1368 4.89353 34.1974 4.90452 34.2582 4.9155C34.3796 4.93771 34.5017 4.96004 34.6245 4.98249C34.7471 5.00518 34.8704 5.02805 34.9943 5.05098C35.0561 5.06293 35.1185 5.07319 35.1803 5.0867C35.2418 5.10093 35.3036 5.11515 35.3654 5.12938C35.6126 5.18712 35.8618 5.24529 36.1128 5.30388C36.2388 5.33137 36.3625 5.36775 36.487 5.40268C36.6115 5.43786 36.7364 5.4731 36.8616 5.50845C36.9867 5.54405 37.112 5.57976 37.2377 5.61554L37.3319 5.64249L37.4248 5.67317L37.6108 5.73475C37.8589 5.81765 38.1078 5.90079 38.3571 5.98411C40.3317 6.6976 42.2231 7.65372 43.8191 8.68253L44.1688 8.12403C42.8627 7.29403 41.476 6.54963 40.0163 5.9287C38.5574 5.30754 37.0253 4.81159 35.452 4.4719C33.8793 4.13118 32.2674 3.94798 30.6632 3.9248C30.2629 3.92679 29.8624 3.93057 29.4622 3.93639L28.2678 4.00458L27.0837 4.12734C26.6966 4.18256 26.3105 4.23803 25.9243 4.29806L26.0439 4.94738Z" fill="#3B5A4F"/>
<path d="M25.4048 1.07216C25.4344 1.06604 25.5987 1.04227 25.8867 0.999349C26.0307 0.97834 26.2054 0.952889 26.4096 0.923115C26.5127 0.909369 26.6189 0.89064 26.74 0.878395C26.8602 0.865549 26.9878 0.851862 27.1226 0.837395C27.3924 0.809963 27.6909 0.77959 28.0166 0.746454C28.3461 0.727306 28.7031 0.706596 29.0862 0.684386C29.182 0.679584 29.2795 0.67466 29.3785 0.669678C29.4783 0.668297 29.5796 0.666857 29.6827 0.665357C29.8887 0.663316 30.1011 0.661214 30.3196 0.659053C30.4288 0.658453 30.5396 0.657854 30.6519 0.657194C30.7643 0.657134 30.879 0.663496 30.9947 0.666738C31.2264 0.675502 31.464 0.684565 31.7074 0.69381C31.8291 0.699512 31.9522 0.702574 32.0768 0.711218C32.2014 0.721483 32.3275 0.731808 32.455 0.742313C32.7098 0.764643 32.9703 0.787513 33.2362 0.810803C33.3692 0.820708 33.5027 0.841897 33.638 0.858585C33.7731 0.876593 33.9096 0.894781 34.0473 0.91315C34.185 0.932058 34.3239 0.951147 34.4642 0.970356C34.5342 0.980381 34.6046 0.990465 34.6753 1.00061C34.7455 1.01316 34.8161 1.02576 34.887 1.03843C35.1704 1.09053 35.4587 1.1436 35.7517 1.1975C35.8248 1.21167 35.8986 1.22439 35.9719 1.24006C36.0449 1.25675 36.1183 1.2735 36.1919 1.29024C36.339 1.32434 36.4873 1.35867 36.6368 1.39325C37.2377 1.52369 37.8394 1.70575 38.4615 1.88271C39.6913 2.26863 40.9513 2.74855 42.2056 3.32794C43.4582 3.90954 44.6935 4.59656 45.9 5.35993L46.2497 4.80143C44.7811 3.86824 43.2065 3.02132 41.5339 2.30993C39.8625 1.59824 38.0928 1.02444 36.2701 0.631021C34.4483 0.23628 32.5763 0.0237225 30.7217 -0.00292969C30.2594 -0.00202927 29.7969 0.00253289 29.3348 0.0102764C28.8763 0.0335671 28.4177 0.059439 27.9597 0.0886724C27.5066 0.132913 27.0537 0.179854 26.6011 0.229437C26.1617 0.291085 25.7246 0.354295 25.2864 0.422786L25.4048 1.07216Z" fill="#3B5A4F"/>
<path d="M41.952 11.6843C41.9668 11.6939 42.1281 11.7975 42.4066 11.9765C42.6831 12.1588 43.0718 12.4255 43.5395 12.7622C44.0047 13.1024 44.5492 13.5125 45.1332 13.9866C45.7166 14.4615 46.341 14.9978 46.9748 15.5775C48.2444 16.7349 49.5455 18.0708 50.7032 19.3528C51.2816 19.994 51.8255 20.6224 52.3242 21.1995C52.5737 21.4883 52.8118 21.764 53.0358 22.0233C53.257 22.2825 53.4821 22.5244 53.6449 22.7477L54.1621 22.342L53.9912 22.1229C53.9622 22.0842 53.9353 22.057 53.9073 22.0238L53.8242 21.9284L53.492 21.5455L52.8282 20.7769C52.385 20.2638 51.9397 19.7503 51.4867 19.2414C50.5785 18.2235 49.6424 17.2317 48.6674 16.2746C47.6927 15.3179 46.6781 14.3993 45.6184 13.533C45.0871 13.1016 44.5463 12.6815 43.9932 12.2774C43.4379 11.876 42.8757 11.4859 42.293 11.1201L41.952 11.6843Z" fill="#3B5A4F"/>
<path d="M40.2681 14.3886C40.2784 14.3952 40.4409 14.4995 40.7214 14.6794C40.8625 14.7757 41.0332 14.8922 41.2294 15.0261C41.3265 15.0953 41.4298 15.169 41.5389 15.2468C41.6484 15.3239 41.763 15.4062 41.8813 15.4953C42.836 16.1919 44.0821 17.2124 45.3297 18.3911C45.9541 18.9792 46.5803 19.6043 47.1798 20.2315C47.3291 20.3894 47.4775 20.5462 47.6243 20.7015C47.77 20.8589 47.9142 21.0146 48.0565 21.1683C48.3367 21.4735 48.6082 21.7776 48.8702 22.0742C49.3936 22.6675 49.8769 23.2301 50.292 23.7106C50.5015 23.9526 50.6913 24.172 50.8578 24.3643C50.9422 24.4612 51.0206 24.5514 51.0927 24.6341C51.114 24.6671 51.127 24.6875 51.1443 24.7091L51.6615 24.3034C51.6389 24.2744 51.6172 24.2447 51.5965 24.214L51.5887 24.2025L51.5683 24.179L51.5258 24.1302L51.4409 24.0326L51.1033 23.6437L50.4376 22.8729C49.9975 22.3633 49.563 21.8622 49.129 21.3747C48.9115 21.1308 48.6963 20.8919 48.4767 20.654L48.1461 20.2965L47.813 19.9431C47.367 19.4749 46.9181 19.0121 46.4596 18.5648C45.5449 17.6668 44.6027 16.8144 43.6286 16.0177C43.1404 15.6213 42.6457 15.2366 42.142 14.8686C41.638 14.5043 41.1218 14.1453 40.6101 13.8252L40.2681 14.3886Z" fill="#3B5A4F"/>
<path d="M43.8291 8.68992C43.8487 8.70252 44.0022 8.80127 44.2683 8.97247C44.4035 9.05741 44.5581 9.16359 44.7374 9.28653C44.8273 9.348 44.9232 9.41361 45.025 9.48324C45.1253 9.55449 45.2313 9.62983 45.3427 9.70901C46.2342 10.3418 47.436 11.2638 48.7215 12.4018C50.0105 13.5364 51.3801 14.8845 52.6838 16.2928C53.0093 16.6425 53.3387 17.0052 53.6544 17.3609C53.9714 17.7175 54.2806 18.0714 54.5823 18.4192C54.8795 18.7631 55.1741 19.1039 55.4641 19.4395C55.6066 19.6041 55.748 19.7673 55.8881 19.9291C55.9577 20.0091 56.027 20.0887 56.0959 20.1679L56.1088 20.1827L56.1249 20.2018L56.1677 20.2545L56.2525 20.3602C56.3082 20.4311 56.3638 20.5018 56.4192 20.5722L56.9365 20.1665C56.8418 20.0444 56.7456 19.9234 56.6481 19.8035L56.6115 19.7587L56.5903 19.7341L56.5497 19.6876L56.4687 19.5945L56.1427 19.2188L55.4814 18.4532C55.0352 17.9366 54.5784 17.4095 54.1045 16.8771C53.8678 16.6116 53.6245 16.3417 53.3804 16.0772L53.0151 15.6822L52.6447 15.2893C52.1474 14.7671 51.6432 14.2477 51.121 13.7381C50.0805 12.7168 48.9862 11.7251 47.8323 10.7819C47.2537 10.3118 46.6622 9.85247 46.0547 9.40875C45.443 8.96647 44.8302 8.54099 44.1689 8.125L43.8291 8.68992Z" fill="#3B5A4F"/>
<path d="M45.9108 5.36809C45.9355 5.38394 46.073 5.47242 46.3135 5.62711C46.5609 5.78276 46.8801 6.003 47.2919 6.28639C48.1081 6.85677 49.245 7.69974 50.5492 8.80443C51.8551 9.90707 53.3147 11.2767 54.8096 12.8411C54.9947 13.037 55.1821 13.2354 55.3719 13.4362C55.5584 13.6383 55.7473 13.843 55.9383 14.0499C56.324 14.4726 56.7018 14.8981 57.0726 15.3217C57.4302 15.7341 57.7948 16.1545 58.1655 16.582C58.3417 16.7858 58.5194 16.9913 58.6983 17.1984C58.7858 17.299 58.8735 17.4 58.9616 17.5013L59.0273 17.5768L59.0438 17.5957L59.0826 17.6423L59.1665 17.7442C59.278 17.8806 59.388 18.0187 59.4962 18.1585L60.0134 17.7527C59.8768 17.5764 59.7372 17.402 59.5949 17.2302L59.5415 17.166L59.5197 17.1409L59.4803 17.0957L59.4015 17.0052L59.0825 16.6374L58.4241 15.8751C57.9745 15.3547 57.5049 14.8128 57.0079 14.2544L56.6293 13.8325C56.5024 13.6924 56.3697 13.5457 56.2424 13.4087L55.857 12.9921L55.4651 12.5763C54.9381 12.0228 54.4019 11.4707 53.8428 10.9247C53.2843 10.3789 52.7138 9.8366 52.1205 9.30367C51.527 8.77105 50.919 8.24485 50.2891 7.73107C49.658 7.21808 49.0104 6.71517 48.3427 6.2275C48.0057 5.98601 47.671 5.74308 47.3246 5.50951L47.0664 5.33321L46.9362 5.24509L46.7994 5.15655L46.2516 4.80371L45.9108 5.36809Z" fill="#3B5A4F"/>
</svg>
