<svg width="108" height="62" viewBox="0 0 108 62" fill="none" xmlns="http://www.w3.org/2000/svg">
<path d="M53.8769 22.5489C53.9221 22.6041 55.753 24.8421 57.9471 27.524C59.0466 28.8633 60.2413 30.3101 61.353 31.6474C62.4648 32.9846 63.4947 34.2113 64.2592 35.1146L64.7632 34.6881C61.2572 30.5405 57.8195 26.3341 54.3807 22.1221L53.8769 22.5489Z" fill="#3B5A4F"/>
<path d="M51.415 24.581C51.4327 24.6027 51.973 25.264 52.8012 26.2777C53.6351 27.2957 54.7589 28.6676 55.9362 30.1048C57.117 31.541 58.3572 33.0399 59.4192 34.3137C60.4807 35.5877 61.3651 36.6365 61.8223 37.1766L62.3263 36.7501C60.5606 34.6624 58.8193 32.5654 57.0867 30.4634L54.4953 27.3071L51.919 24.1543L51.415 24.581Z" fill="#3B5A4F"/>
<path d="M56.6158 20.303C56.6686 20.3677 58.1685 22.2018 60.1947 24.6795C62.2185 27.1477 64.7782 30.2458 66.963 32.8266L67.467 32.4001C65.729 30.3451 64.0014 28.2646 62.28 26.1763L59.7019 23.0361L57.1196 19.876L56.6158 20.303Z" fill="#3B5A4F"/>
<path d="M59.6532 17.8127C59.7123 17.885 60.8547 19.2826 62.7012 21.5416C63.62 22.6633 64.7145 23.9958 65.9398 25.4768C67.1649 26.9569 68.5213 28.587 69.9616 30.2895L70.4656 29.863C68.7445 27.8282 67.0257 25.7584 65.3118 23.6792L62.7427 20.5499L60.1582 17.3872L59.6532 17.8127Z" fill="#3B5A4F"/>
<path d="M64.2661 35.122C64.2892 35.1492 64.7694 35.7137 65.5247 36.6015C66.284 37.4862 67.3189 38.6935 68.483 39.982C68.628 40.1435 68.7758 40.3056 68.9262 40.4679C69.0754 40.6311 69.2271 40.7945 69.3818 40.9572C69.6885 41.2846 70.0065 41.6092 70.338 41.9262L70.5932 42.16L70.8505 42.3823C71.022 42.5303 71.1955 42.6752 71.3686 42.8191C71.7156 43.106 72.0664 43.3819 72.415 43.6469C73.1151 44.1728 73.8113 44.6484 74.4733 45.0474C75.1348 45.4471 75.7581 45.7749 76.299 46.0298L76.5809 45.4327C75.3816 44.8666 74.2428 44.1684 73.1646 43.3807C72.6252 42.987 72.0998 42.5718 71.5862 42.1407C71.4577 42.0331 71.3296 41.9249 71.2031 41.8145L71.013 41.6499L70.8349 41.4862C70.5973 41.2652 70.3624 41.0262 70.1298 40.7857C69.2018 39.8155 68.3031 38.7984 67.4122 37.7777C66.5215 36.7556 65.6401 35.7236 64.7633 34.6875L64.2661 35.122Z" fill="#3B5A4F"/>
<path d="M61.8362 37.1925C61.8453 37.2033 61.9894 37.3735 62.2383 37.6674C62.4887 37.9609 62.8446 38.3778 63.2753 38.8826C63.7071 39.3871 64.2186 39.9785 64.7807 40.6218C65.3449 41.2654 65.9598 41.9592 66.6207 42.677C66.9492 43.0351 67.2979 43.4027 67.6684 43.7801C67.763 43.8756 67.8668 43.9762 67.9657 44.0736L68.0408 44.1471C68.0666 44.1721 68.0886 44.1946 68.1202 44.2233L68.2977 44.3868L68.4757 44.5491L68.6202 44.6742C68.7161 44.7568 68.8118 44.8393 68.9071 44.9214C69.292 45.2485 69.6819 45.5664 70.0698 45.8708C70.4611 46.1732 70.8458 46.465 71.2299 46.7339C71.9917 47.276 72.7311 47.737 73.3732 48.103C74.0158 48.4689 74.56 48.7417 74.9365 48.9168L75.2184 48.3197C73.8086 47.6543 72.4962 46.8456 71.2863 45.962C70.6808 45.5202 70.0992 45.0601 69.5377 44.589C69.3972 44.4713 69.2573 44.3532 69.1204 44.2336L68.9135 44.0547L68.6681 43.8304C68.3509 43.5352 68.0941 43.2721 67.8356 43.0053C67.3283 42.4768 66.8543 41.9584 66.387 41.439C65.9219 40.9199 65.4636 40.4013 65.0115 39.8818C64.1063 38.843 63.2168 37.8016 62.3334 36.7578L61.8362 37.1925Z" fill="#3B5A4F"/>
<path d="M66.9698 32.8349C66.9966 32.8664 67.3899 33.3294 68.0333 34.0866C68.6775 34.8393 69.5749 35.8873 70.6097 37.0495C70.8682 37.3412 71.1352 37.6359 71.4076 37.9346C71.6796 38.2314 71.9584 38.5316 72.2324 38.8151C72.3003 38.8849 72.3685 38.955 72.4369 39.0253C72.4721 39.0622 72.5032 39.0919 72.5354 39.1235L72.6316 39.2178L72.7278 39.3127C72.7581 39.342 72.7813 39.3615 72.8082 39.3866L72.8861 39.4587L72.9055 39.4769L72.9153 39.4862L72.9299 39.4988L72.9884 39.5493C73.2996 39.8216 73.6164 40.0843 73.9353 40.3424C74.2547 40.5987 74.5777 40.8444 74.9013 41.0817C75.226 41.3152 75.5515 41.5397 75.8769 41.7495C76.5285 42.1664 77.178 42.5312 77.811 42.8274L78.0929 42.2303C77.1283 41.7749 76.183 41.2001 75.2515 40.5194C74.7857 40.1794 74.3232 39.8144 73.863 39.4281C73.7479 39.3318 73.6329 39.2346 73.5182 39.1345L73.3475 38.9869L73.2442 38.8906L73.1908 38.8422L73.1214 38.7736L72.9822 38.637C72.9378 38.5949 72.8831 38.5364 72.8332 38.4857L72.6802 38.3285C72.6299 38.2778 72.5766 38.221 72.5235 38.1645L72.3644 37.9958C72.2591 37.8853 72.1509 37.7673 72.0429 37.6498C71.8277 37.4181 71.6096 37.1749 71.392 36.9344C70.9561 36.4476 70.5187 35.9529 70.0819 35.4509C69.208 34.448 68.3361 33.4272 67.4671 32.4004L66.9698 32.8349Z" fill="#3B5A4F"/>
<path d="M69.9683 30.2972C69.9979 30.3321 70.2988 30.6863 70.8233 31.3041C71.3473 31.9178 72.0976 32.7964 73.0153 33.8404C73.4731 34.3616 73.9759 34.9264 74.49 35.483C74.7478 35.7635 75.0034 36.0317 75.2346 36.2679L75.2569 36.291L75.2754 36.3091L75.3109 36.3436L75.3821 36.4135L75.4508 36.4816C75.4595 36.4885 75.4679 36.4957 75.4761 36.5034C75.4842 36.511 75.4921 36.519 75.4997 36.5274C75.5331 36.5564 75.5667 36.5855 75.6004 36.6148C75.6732 36.6776 75.7465 36.7408 75.8203 36.8044C76.9987 37.8067 78.2402 38.6924 79.4877 39.275L79.7695 38.6778C79.0653 38.3451 78.3345 37.9071 77.5658 37.3454C77.1818 37.065 76.7891 36.7557 76.3882 36.4191C76.2881 36.3353 76.1875 36.2506 76.086 36.1617L75.9364 36.0326C75.9304 36.0246 75.9236 36.0175 75.9161 36.0111C75.9116 36.0071 75.9101 36.0069 75.9027 36.0003L75.8545 35.9521L75.7571 35.8565L75.7326 35.8328L75.7017 35.8012L75.6376 35.7349L75.5089 35.6028L75.4429 35.5349L75.3713 35.4587L75.2278 35.3064L75.0825 35.1518L74.9312 34.9874C74.7318 34.7728 74.5222 34.5391 74.315 34.31L73.6827 33.5994L73.0435 32.8703C72.1884 31.8889 71.327 30.8806 70.4669 29.8643L69.9683 30.2972Z" fill="#3B5A4F"/>
<path d="M76.3088 46.0352C76.3253 46.0426 76.5013 46.1293 76.8126 46.2638C76.9666 46.3351 77.159 46.4069 77.3782 46.4957C77.4881 46.5392 77.6047 46.5872 77.7293 46.6348C77.8553 46.6786 77.9881 46.7249 78.1272 46.7733C78.6822 46.972 79.3549 47.1607 80.1062 47.3253C80.295 47.3622 80.4882 47.4 80.6853 47.4385C80.8834 47.4708 81.0865 47.4979 81.2924 47.5285C81.4979 47.5632 81.7095 47.5752 81.9227 47.5977C82.0295 47.6076 82.137 47.6176 82.245 47.6276C82.3535 47.6326 82.4626 47.6374 82.5722 47.6424C83.4492 47.6851 84.3666 47.6512 85.2744 47.5344C86.1819 47.4147 87.0772 47.2109 87.9182 46.9535C88.0234 46.9214 88.1281 46.8894 88.2321 46.8575C88.3364 46.8266 88.437 46.7864 88.5387 46.7516C88.7407 46.6782 88.9425 46.6114 89.1367 46.5353C89.5253 46.384 89.8985 46.2288 90.2502 46.0682C90.9547 45.749 91.5762 45.4168 92.0915 45.1131L91.7552 44.5449C91.185 44.8819 90.5949 45.1866 89.9902 45.461C89.8402 45.5323 89.6866 45.5956 89.5339 45.6612C89.4574 45.6935 89.3815 45.7272 89.3045 45.7586L89.0726 45.8504L88.8407 45.9423C88.7632 45.9721 88.6849 45.9983 88.607 46.0265L88.1392 46.193C87.5093 46.3939 86.8736 46.5803 86.2248 46.7029C85.9027 46.7764 85.5752 46.8174 85.2496 46.8701C85.0865 46.8943 84.9219 46.9063 84.7583 46.9251C84.5944 46.9425 84.4306 46.962 84.2658 46.9675L83.7724 46.9948C83.6078 47 83.4429 46.9975 83.2783 46.9994L83.0312 47.0008C82.9488 46.9998 82.8666 46.994 82.7843 46.991L82.2906 46.9689L81.7985 46.9226L81.5524 46.8992L81.3077 46.8635L80.8185 46.7919L80.3328 46.6968C80.252 46.6806 80.1708 46.6661 80.0902 46.6485L79.8497 46.5892L79.369 46.4702L78.8939 46.329L78.6563 46.2583L78.422 46.1766L77.9533 46.0137L77.4918 45.83L77.2611 45.738C77.184 45.7077 77.1092 45.6721 77.0331 45.6393L76.8057 45.5392L76.5808 45.4334L76.3088 46.0352Z" fill="#3B5A4F"/>
<path d="M74.9591 48.9271C74.9666 48.9307 75.0295 48.9603 75.1417 49.0131C75.254 49.0655 75.4186 49.1365 75.6258 49.2281C75.8338 49.3181 76.0905 49.4169 76.3833 49.5345C76.4567 49.5633 76.5319 49.5942 76.6107 49.6238C76.6904 49.6517 76.7724 49.6805 76.8567 49.71C77.0254 49.7685 77.2029 49.8302 77.3886 49.8946C77.4807 49.9281 77.5785 49.9552 77.677 49.9852C77.7758 50.0146 77.8764 50.0446 77.979 50.0752C78.1843 50.1359 78.3959 50.201 78.6205 50.253C78.8439 50.3078 79.0733 50.366 79.3101 50.4204C79.5495 50.4674 79.7947 50.5155 80.0451 50.5646C81.0512 50.7419 82.161 50.8519 83.2986 50.8508C84.4359 50.8519 85.5974 50.7413 86.7001 50.5365C87.8051 50.3361 88.8446 50.0316 89.7694 49.701C89.8851 49.6596 89.9996 49.6187 90.1127 49.5782C90.2269 49.5382 90.3302 49.4939 90.4373 49.4526C90.5432 49.4106 90.6475 49.3692 90.7504 49.3284C90.8533 49.2871 90.9538 49.2425 91.0531 49.2006C91.1524 49.1581 91.25 49.1163 91.3458 49.0753C91.4417 49.0342 91.535 48.9894 91.6269 48.9477C91.8104 48.8628 91.9874 48.7837 92.1541 48.6991C92.3211 48.6156 92.4812 48.5394 92.6307 48.4605C92.78 48.3812 92.9208 48.3064 93.0524 48.2366C93.3141 48.0927 93.5372 47.964 93.7174 47.8592L93.3811 47.291C92.7069 47.6896 92.0149 48.0466 91.3122 48.3656C91.1373 48.4482 90.96 48.5219 90.7833 48.5978L90.5178 48.7102L90.2508 48.8161L89.9837 48.9218C89.8939 48.9565 89.7998 48.9884 89.7081 49.0217L89.1539 49.2185C88.405 49.4594 87.6444 49.6798 86.8612 49.8299C86.4732 49.9169 86.076 49.97 85.6816 50.0318C85.5832 50.0487 85.4831 50.0565 85.3836 50.0679L85.0848 50.0996C84.8856 50.1203 84.6866 50.1433 84.4858 50.1512L83.8847 50.1839C83.6841 50.1909 83.4831 50.1886 83.2822 50.1906L82.9809 50.1915C82.8805 50.1909 82.7803 50.1842 82.68 50.1806L82.0781 50.1529C81.8782 50.1366 81.6786 50.1165 81.4789 50.0977L81.1795 50.0685L80.8823 50.0263L80.2882 49.939L79.7007 49.8248L79.4073 49.7661L79.1177 49.6955L78.5391 49.552L77.97 49.3836L77.6858 49.2986L77.4068 49.2024L76.8494 49.0079C76.6665 48.9379 76.4854 48.8642 76.3035 48.7919C76.1218 48.7195 75.9398 48.6476 75.762 48.5667L75.4938 48.4483L75.2291 48.3245L74.9591 48.9271Z" fill="#3B5A4F"/>
<path d="M77.8188 42.8307C77.8494 42.8463 78.3031 43.0657 79.066 43.3494C79.4477 43.4841 79.9044 43.6393 80.4233 43.7621C80.488 43.7782 80.5537 43.7945 80.6202 43.811C80.6534 43.8193 80.6869 43.8277 80.7205 43.8362C80.7542 43.8437 80.7884 43.8493 80.8227 43.8561C80.9596 43.883 81.0999 43.9105 81.2432 43.9385C81.3146 43.9549 81.3875 43.9625 81.4608 43.9734C81.5342 43.984 81.6082 43.9947 81.683 44.0055C81.7578 44.0165 81.8332 44.0276 81.9093 44.0387C81.9856 44.0457 82.0626 44.0527 82.1403 44.0598C83.3806 44.1957 84.7915 44.106 86.2081 43.7529C86.5626 43.6691 86.9161 43.5582 87.2683 43.444C87.4439 43.3816 87.6192 43.3192 87.7941 43.2571C87.9724 43.1843 88.1541 43.1177 88.3286 43.0421C89.0308 42.7465 89.6912 42.4175 90.2877 42.0643L89.9514 41.4961C89.4972 41.7645 89.0207 42.0108 88.5251 42.2357C88.4031 42.2943 88.2756 42.3461 88.1499 42.4003C88.0868 42.427 88.0245 42.4549 87.9607 42.4808L87.7679 42.5569L87.5753 42.6335C87.5118 42.6579 87.4507 42.6776 87.3884 42.7001L87.0168 42.8329C86.5197 42.9895 86.0229 43.138 85.524 43.2302C85.2752 43.289 85.0254 43.3168 84.7765 43.3592C84.6519 43.3781 84.5271 43.3855 84.4026 43.4003C84.2781 43.4138 84.1536 43.4299 84.029 43.4328L83.6554 43.454C83.5308 43.4579 83.4064 43.4548 83.2819 43.4567L83.0951 43.4586C83.0329 43.4581 82.9707 43.4528 82.9085 43.4504L82.5352 43.4346L82.1622 43.3986L81.9756 43.3819L81.7894 43.3537L81.4166 43.3001L81.0445 43.2263C80.9824 43.214 80.9202 43.2035 80.8581 43.1901L80.6725 43.1435L80.3007 43.0523L79.9301 42.9414L79.7444 42.887L79.5599 42.8218L79.1899 42.6939L78.8221 42.5468L78.6377 42.4739C78.5761 42.4501 78.5164 42.421 78.4555 42.3949L78.2736 42.3151L78.0928 42.2298L77.8188 42.8307Z" fill="#3B5A4F"/>
<path d="M79.4935 39.2779C79.5203 39.2898 79.7778 39.4183 80.2369 39.5942C80.2653 39.6059 80.2946 39.618 80.3246 39.6303C80.3545 39.6403 80.385 39.6505 80.4164 39.6609C80.4789 39.6825 80.5442 39.7051 80.6125 39.7287C80.7487 39.7828 80.895 39.8171 81.051 39.8661C81.0899 39.8783 81.1296 39.8905 81.1698 39.903C81.2099 39.9124 81.2505 39.9218 81.2919 39.9313C81.3743 39.951 81.4591 39.9721 81.5461 39.9951C81.6331 40.0156 81.7218 40.0279 81.8129 40.0474C81.8583 40.0568 81.9044 40.0663 81.951 40.076C81.9976 40.0862 82.0445 40.0888 82.0919 40.0963C82.1866 40.1103 82.2835 40.1247 82.3826 40.1393C82.4814 40.1466 82.582 40.1558 82.6847 40.1671C82.7103 40.1696 82.7361 40.1735 82.7621 40.1752C82.7879 40.1759 82.814 40.1766 82.8401 40.1773C82.8923 40.1795 82.945 40.1817 82.9983 40.1839C83.0515 40.1857 83.1052 40.1918 83.1594 40.1918C83.2136 40.1909 83.2683 40.19 83.3235 40.1891C83.7652 40.1875 84.2387 40.1495 84.7519 40.0545C85.2658 39.9595 85.8163 39.8079 86.4154 39.5789C86.7444 39.4513 87.0671 39.3131 87.382 39.1657C87.693 39.0149 87.9959 38.8547 88.2872 38.6844L87.9509 38.1162C87.6253 38.3085 87.2749 38.4901 86.9004 38.6599C86.8092 38.7045 86.711 38.7436 86.6151 38.785C86.5667 38.8054 86.5195 38.827 86.4704 38.847L86.321 38.9055L86.172 38.9651C86.1238 38.9837 86.0821 38.9962 86.037 39.0124C85.9484 39.0431 85.8601 39.0749 85.7722 39.1077C85.4222 39.2153 85.0797 39.3216 84.747 39.3803C84.5796 39.4225 84.4159 39.4358 84.2521 39.4668C84.2111 39.476 84.1707 39.4758 84.1301 39.4805L84.0086 39.4926C83.9277 39.5016 83.8467 39.5142 83.7666 39.514C83.6862 39.5174 83.6061 39.5222 83.5259 39.5286C83.4458 39.5311 83.3661 39.5272 83.2862 39.5291L83.1664 39.5317C83.1264 39.5317 83.0866 39.5269 83.0467 39.5253C82.9668 39.5208 82.8869 39.5179 82.8069 39.5164C82.7268 39.5078 82.6466 39.4985 82.5662 39.4918L82.4455 39.4825L82.3241 39.4627C82.2431 39.45 82.162 39.4398 82.0805 39.429C81.9986 39.4109 81.9166 39.3943 81.8343 39.379C81.7931 39.3709 81.7519 39.3648 81.7105 39.3561L81.5856 39.3235C81.5023 39.302 81.4186 39.2833 81.3345 39.2632C81.2499 39.2362 81.1651 39.2104 81.0799 39.1858L80.9518 39.1495L80.8225 39.1026C80.7361 39.0719 80.6493 39.0423 80.5621 39.0137L80.2982 38.907L80.1653 38.8555C80.1208 38.8389 80.0779 38.817 80.0339 38.7984L79.9024 38.741L79.7705 38.6785L79.4935 39.2779Z" fill="#3B5A4F"/>
<path d="M92.1008 45.1071C92.1157 45.0969 92.285 44.9972 92.5725 44.8173C92.6436 44.771 92.7221 44.7198 92.8077 44.6641C92.8935 44.6086 92.9861 44.5484 93.0825 44.4797C93.1796 44.412 93.2831 44.3399 93.3926 44.2636C93.4997 44.184 93.6127 44.1 93.731 44.0121C94.2004 43.6553 94.7375 43.2081 95.2868 42.6689C95.3568 42.6029 95.425 42.5335 95.493 42.4623C95.5614 42.3917 95.6306 42.3202 95.7005 42.2481C95.8378 42.1015 95.9747 41.9492 96.1132 41.7938C96.1805 41.7144 96.2484 41.6344 96.3168 41.5538C96.351 41.5135 96.3853 41.473 96.4197 41.4324C96.4528 41.3907 96.486 41.3489 96.5193 41.3069C96.5859 41.2229 96.6529 41.1383 96.7204 41.0533C96.7867 40.9674 96.8505 40.8788 96.9162 40.7909C97.4401 40.0864 97.9171 39.3031 98.3303 38.4878C98.7457 37.6733 99.0839 36.821 99.3596 35.987C99.6352 35.1519 99.8381 34.3336 99.9863 33.5724C100.129 32.8106 100.205 32.1093 100.249 31.5124L99.5903 31.4688C99.543 32.1283 99.459 32.7849 99.3404 33.4356C99.2124 34.0832 99.0545 34.7317 98.8621 35.3665C98.4791 36.637 97.9625 37.8651 97.2988 39.0074C96.6364 40.1499 95.8264 41.2043 94.8902 42.134C93.9545 43.0644 92.896 43.8714 91.7554 44.5444L92.1008 45.1071Z" fill="#3B5A4F"/>
<path d="M93.7392 47.8454C93.7463 47.8411 93.8062 47.8046 93.913 47.7397C94.0191 47.6733 94.1747 47.5847 94.3654 47.4579C94.4611 47.3955 94.5669 47.3265 94.682 47.2514C94.7973 47.1766 94.9185 47.0888 95.0497 46.9985C95.1151 46.9528 95.1826 46.9056 95.2521 46.857C95.3205 46.8064 95.3909 46.7544 95.4632 46.701C95.6072 46.593 95.7606 46.4825 95.915 46.3572C96.5398 45.8681 97.2464 45.249 97.9529 44.5095C98.6627 43.7735 99.3576 42.9061 99.9882 41.9712C100.611 41.0318 101.169 40.0239 101.612 39.0134C102.06 38.0042 102.411 36.9992 102.67 36.0699C102.733 35.8374 102.799 35.6102 102.851 35.3881C102.905 35.1649 102.96 34.9538 103.004 34.733C103.049 34.5156 103.095 34.3056 103.134 34.1023C103.169 33.898 103.202 33.7016 103.234 33.514C103.268 33.3268 103.286 33.1458 103.309 32.9757C103.33 32.8051 103.354 32.6447 103.368 32.4939C103.395 32.1921 103.419 31.9327 103.434 31.7224L102.775 31.6787C102.72 32.4668 102.619 33.2505 102.477 34.0259C102.323 34.8075 102.144 35.5417 101.919 36.2857C101.472 37.7678 100.861 39.229 100.062 40.6043C99.2659 41.9795 98.2812 43.2636 97.1477 44.39C96.0154 45.518 94.7398 46.4875 93.3918 47.284L93.7392 47.8454Z" fill="#3B5A4F"/>
<path d="M90.295 42.06C90.32 42.0383 90.7639 41.7993 91.4095 41.3248C92.0571 40.8534 92.8997 40.1396 93.6944 39.1693C94.09 38.6828 94.4738 38.1332 94.8254 37.5294C95.1715 36.9218 95.489 36.2625 95.7543 35.5627C96.0177 34.8633 96.241 34.1255 96.4076 33.3832C96.5693 32.6698 96.6696 31.9592 96.715 31.278L96.0562 31.2344C96.0184 31.7507 95.9525 32.2656 95.8602 32.7777C95.8037 33.0335 95.7589 33.2827 95.6876 33.5545C95.671 33.621 95.656 33.6884 95.6384 33.7543L95.5842 33.9512L95.5306 34.1482L95.4717 34.3421C95.1597 35.3768 94.7492 36.3452 94.2362 37.2283C93.2127 38.9961 91.7714 40.4222 89.9514 41.4964L90.295 42.06Z" fill="#3B5A4F"/>
<path d="M88.2924 38.6809C88.3135 38.665 88.5634 38.5259 88.9478 38.2564C89.0472 38.1917 89.1447 38.1109 89.2589 38.0298C89.3654 37.9426 89.4864 37.8533 89.6039 37.7488C89.8447 37.5441 90.102 37.3033 90.3616 37.0185C90.6209 36.7332 90.8849 36.4061 91.1404 36.0222C91.1716 35.9734 91.203 35.9242 91.2348 35.8746C91.2507 35.8497 91.2675 35.8256 91.2832 35.8001C91.2984 35.7742 91.3137 35.7482 91.329 35.7221C91.3604 35.6702 91.392 35.618 91.4238 35.5653C91.4539 35.5107 91.4842 35.4556 91.5147 35.4001C91.5304 35.3726 91.5461 35.345 91.5618 35.3172C91.5764 35.2883 91.5911 35.2593 91.6058 35.2301C91.6359 35.1723 91.6663 35.1139 91.6967 35.0552C91.7254 34.9944 91.7544 34.9331 91.7834 34.8714C91.7983 34.8407 91.8131 34.8098 91.828 34.7789C91.8418 34.7467 91.8557 34.7146 91.8696 34.6823C91.9866 34.4286 92.0901 34.1493 92.1949 33.8586C92.297 33.5655 92.3898 33.2514 92.4785 32.9223C92.499 32.8383 92.5196 32.754 92.5403 32.6693L92.5713 32.543L92.5941 32.4286C92.6104 32.3524 92.6267 32.2758 92.6431 32.199C92.6588 32.1221 92.6683 32.0442 92.6824 31.9666C92.7396 31.656 92.768 31.3389 92.7957 31.0183L92.1368 30.9746C92.1096 31.332 92.0639 31.6898 92.0006 32.048C91.9582 32.2286 91.9321 32.3946 91.8749 32.6102C91.8622 32.6611 91.851 32.7132 91.8375 32.7632L91.7962 32.912L91.756 33.0611L91.7116 33.2057C91.4785 33.9788 91.1857 34.6592 90.8399 35.2549C90.4931 35.8515 90.095 36.3671 89.6236 36.8366C89.1518 37.3049 88.6038 37.7306 87.9516 38.1155L88.2924 38.6809Z" fill="#3B5A4F"/>
<path d="M100.25 31.5022C100.25 31.4842 100.26 31.2879 100.276 30.949C100.283 30.7794 100.281 30.5738 100.285 30.3372C100.288 30.2188 100.282 30.0927 100.278 29.9593C100.274 29.826 100.269 29.6853 100.265 29.538C100.23 28.9493 100.165 28.2543 100.033 27.4965C99.9025 26.7387 99.7026 25.9194 99.4238 25.0876C99.1468 24.2553 98.7879 23.412 98.3608 22.6036C97.9344 21.7949 97.4395 21.022 96.9086 20.3201C96.3783 19.6176 95.8127 18.9865 95.2603 18.4432C94.7079 17.8993 94.163 17.4507 93.6906 17.0835L93.2891 17.6077C93.8117 18.0128 94.3155 18.4425 94.788 18.9052C95.2583 19.3698 95.7026 19.8602 96.1177 20.3746C96.5283 20.8927 96.9074 21.4351 97.2553 21.9969L97.5093 22.4225L97.7471 22.8573C97.8289 23.0009 97.8976 23.1513 97.9722 23.2987L98.0823 23.5207C98.1181 23.5952 98.1503 23.6713 98.1845 23.7464C98.2506 23.8978 98.323 24.0465 98.384 24.2001L98.5688 24.6599C98.6812 24.9705 98.7975 25.28 98.8915 25.5968C99.0884 26.2274 99.2517 26.8692 99.3654 27.5202C99.3988 27.6821 99.4217 27.8458 99.4458 28.0092C99.4697 28.1727 99.4973 28.3357 99.5123 28.5003C99.5295 28.6646 99.5496 28.8287 99.5648 28.9931L99.5992 29.4876C99.6331 30.1476 99.6322 30.8095 99.5901 31.4694L100.25 31.5022Z" fill="#3B5A4F"/>
<path d="M103.436 31.6988C103.436 31.6819 103.449 31.4162 103.471 30.9573C103.473 30.7275 103.478 30.4493 103.476 30.1299C103.472 29.9701 103.467 29.8 103.461 29.6204C103.458 29.5307 103.457 29.4385 103.451 29.3442C103.444 29.2499 103.438 29.1534 103.431 29.0547C103.379 28.2658 103.272 27.3404 103.064 26.3506C102.859 25.3609 102.562 24.3058 102.159 23.2626C101.758 22.2189 101.257 21.187 100.688 20.2312C100.12 19.2746 99.4859 18.3949 98.8486 17.6329C98.2113 16.8705 97.5747 16.223 97.0132 15.707C96.8733 15.5774 96.7346 15.46 96.6059 15.3461C96.4763 15.2331 96.3554 15.1249 96.2364 15.0313C96.1188 14.9361 96.0093 14.8476 95.9088 14.7663C95.8085 14.6849 95.7168 14.6111 95.6317 14.5493L95.2302 15.0735C95.8537 15.556 96.4548 16.0696 97.0194 16.6227C97.5821 17.1775 98.1137 17.7643 98.6103 18.3804C99.1021 19.0004 99.5567 19.6496 99.9732 20.3229L100.277 20.8329C100.374 21.0055 100.468 21.1799 100.563 21.3536C100.66 21.5261 100.744 21.7056 100.833 21.8825L100.964 22.1487C101.008 22.2378 101.047 22.3289 101.088 22.4189C101.167 22.6002 101.253 22.779 101.327 22.9627L101.548 23.5138C101.684 23.8856 101.822 24.2571 101.936 24.6365C102.172 25.3921 102.367 26.1616 102.505 26.9414C102.522 27.0388 102.543 27.1356 102.557 27.2336L102.601 27.5271C102.63 27.723 102.662 27.9184 102.681 28.1154C102.703 28.3121 102.725 28.5088 102.744 28.7057L102.786 29.2977C102.827 30.0877 102.827 30.8797 102.776 31.6683L103.436 31.6988Z" fill="#3B5A4F"/>
<path d="M96.7154 31.2701C96.712 31.2368 96.76 30.7459 96.7343 29.9444C96.7331 29.7438 96.7121 29.5249 96.6973 29.2885C96.6946 29.2292 96.6877 29.1694 96.6805 29.1085C96.6738 29.0475 96.6669 28.9855 96.66 28.9226C96.6533 28.8596 96.6464 28.7955 96.6395 28.7306C96.6326 28.6656 96.6204 28.6005 96.6111 28.5339C96.5896 28.4012 96.5741 28.2638 96.5478 28.1247C96.5215 27.9857 96.4947 27.8432 96.4672 27.6977C96.4341 27.5533 96.4002 27.406 96.3658 27.2557C96.3504 27.1801 96.3275 27.1057 96.3073 27.03C96.2867 26.9543 96.266 26.8778 96.2451 26.8009C96.071 26.187 95.8403 25.5458 95.5474 24.9067C95.2549 24.2674 94.9005 23.6307 94.4913 23.0235C93.6749 21.8062 92.6258 20.726 91.5372 19.895L91.1357 20.4192C91.5458 20.7381 91.9414 21.0743 92.311 21.4364C92.6785 21.8004 93.0256 22.1835 93.3502 22.5844C93.6702 22.9891 93.9655 23.4122 94.2371 23.8498L94.4354 24.1812L94.6203 24.5202C94.685 24.6316 94.7371 24.7495 94.7955 24.8642L94.8817 25.0369C94.9097 25.0948 94.9343 25.1543 94.9609 25.2129C95.8147 27.087 96.194 29.1698 96.0562 31.2349L96.7154 31.2701Z" fill="#3B5A4F"/>
<path d="M92.796 31.0128C92.7934 30.9864 92.8182 30.7178 92.8147 30.2518C92.8127 30.1936 92.8106 30.1324 92.8084 30.0681C92.8057 30.0039 92.8082 29.9363 92.8004 29.8665C92.7874 29.7269 92.7853 29.5744 92.7623 29.4132C92.7328 29.0887 92.671 28.724 92.5812 28.3265C92.4021 27.5324 92.0766 26.6064 91.5197 25.6731C91.4851 25.6147 91.4504 25.5559 91.4154 25.4967C91.3776 25.4393 91.3394 25.3815 91.3011 25.3233C91.229 25.2041 91.1425 25.0922 91.0615 24.9746C91.0224 24.9149 90.9772 24.8589 90.9326 24.8019C90.8889 24.7444 90.8449 24.6866 90.8006 24.6285C90.7537 24.5723 90.7065 24.516 90.659 24.4592C90.6108 24.4032 90.5676 24.3426 90.5149 24.2891C90.4124 24.1799 90.3172 24.0625 90.2066 23.9566C90.1535 23.9017 90.1001 23.8465 90.0465 23.791C89.9901 23.7381 89.9335 23.685 89.8766 23.6316L89.7923 23.5502C89.7639 23.5232 89.7328 23.4987 89.7033 23.4726C89.6442 23.4205 89.5847 23.3681 89.525 23.3155C89.4655 23.2627 89.4003 23.2155 89.3386 23.1641C89.275 23.1146 89.2163 23.0592 89.1488 23.0132L88.7473 23.5374C89.0325 23.7607 89.3082 23.993 89.5637 24.2435C89.8172 24.4959 90.0564 24.7597 90.2806 25.035C90.5001 25.3139 90.7024 25.6046 90.8894 25.9044C90.9338 25.9807 90.9792 26.0564 91.0258 26.1315L91.152 26.3642C91.1978 26.4399 91.2314 26.5217 91.2719 26.6L91.3318 26.718C91.3511 26.7576 91.3671 26.7988 91.3854 26.8389C91.9697 28.1236 92.231 29.5454 92.1369 30.974L92.796 31.0128Z" fill="#3B5A4F"/>
<path d="M93.6821 17.0771C93.6676 17.0663 93.5101 16.949 93.238 16.7462C93.0981 16.6502 92.9288 16.5341 92.7336 16.4002C92.6365 16.3325 92.5276 16.2687 92.4154 16.1966C92.3023 16.126 92.1841 16.0494 92.0582 15.9733C91.5535 15.6717 90.9443 15.3346 90.2498 15.0072C89.5555 14.6799 88.7747 14.3647 87.937 14.1038C87.0996 13.8427 86.2036 13.6455 85.2962 13.5254C84.3885 13.4061 83.4688 13.3783 82.5887 13.4215C81.7082 13.467 80.8687 13.5934 80.1113 13.7577C79.3534 13.9223 78.6781 14.1276 78.1133 14.3243L78.3315 14.9475C79.581 14.5104 80.8789 14.2194 82.1925 14.111C83.5056 14.0016 84.8323 14.0745 86.1268 14.3276C87.4217 14.5797 88.6826 15.0069 89.885 15.5653C90.4863 15.8446 91.0746 16.1549 91.6453 16.4969L91.7529 16.5597L91.8579 16.6259L92.0679 16.7581L92.278 16.8903C92.3479 16.9343 92.4148 16.9831 92.4834 17.0293C92.6193 17.1235 92.7572 17.2149 92.8915 17.3113L93.2892 17.6078L93.6821 17.0771Z" fill="#3B5A4F"/>
<path d="M95.6114 14.533C95.597 14.5242 95.3875 14.3609 95.0158 14.094C94.9216 14.0292 94.8174 13.9577 94.7041 13.8798C94.6473 13.8409 94.5882 13.8006 94.527 13.7586C94.4661 13.7162 94.402 13.6736 94.3345 13.632C94.067 13.4644 93.7601 13.2639 93.4336 13.0788C92.7767 12.6955 91.9804 12.2713 91.07 11.8726C90.1598 11.4751 89.1378 11.0982 88.0479 10.8161C86.9595 10.5332 85.8099 10.3327 84.6772 10.256C84.1116 10.2104 83.5509 10.2056 83.0063 10.2105C82.4623 10.2269 81.9333 10.2558 81.4312 10.3132C80.4255 10.4207 79.5248 10.6018 78.7826 10.7906C78.6897 10.8143 78.599 10.8373 78.5106 10.8598C78.4224 10.8828 78.338 10.9086 78.2551 10.932C78.09 10.9801 77.9333 11.0236 77.789 11.0686C77.6455 11.115 77.512 11.1582 77.3895 11.1979C77.2667 11.2372 77.1556 11.2744 77.0579 11.3107L77.2762 11.9339C78.7559 11.4158 80.3241 11.0612 81.9267 10.9289C83.5281 10.7948 85.1581 10.8846 86.7291 11.1919C88.3017 11.4972 89.8114 12.011 91.222 12.6656C91.9279 12.9927 92.6111 13.3542 93.2673 13.7466L93.3913 13.8192L93.5162 13.8971L93.7659 14.0541L94.0153 14.2115C94.0988 14.2635 94.1786 14.3215 94.2603 14.3763C94.4224 14.488 94.5858 14.5978 94.7462 14.7121L95.2203 15.0652L95.6114 14.533Z" fill="#3B5A4F"/>
<path d="M91.5303 19.8885C91.5168 19.8785 91.4112 19.7997 91.2282 19.6632C91.1372 19.5942 91.02 19.5197 90.8886 19.4277C90.8217 19.3833 90.7538 19.3309 90.6755 19.2842C90.5984 19.2357 90.5169 19.1845 90.4312 19.1307C90.266 19.0214 90.0571 18.9062 89.8431 18.7792C89.6249 18.6605 89.3923 18.5287 89.1421 18.4055C88.6432 18.1534 88.0828 17.9023 87.4768 17.6838C86.8709 17.466 86.2202 17.2761 85.5429 17.1483C85.3733 17.1202 85.203 17.0837 85.0304 17.063C84.9444 17.0507 84.8579 17.0384 84.7713 17.0261C84.6845 17.0171 84.5975 17.008 84.5102 16.9989L84.3792 16.9846L84.2477 16.9755C84.1599 16.9693 84.072 16.963 83.9839 16.9568C83.8958 16.9522 83.8074 16.951 83.719 16.9475C83.6306 16.9445 83.5421 16.9398 83.4533 16.942C82.035 16.9278 80.5895 17.2032 79.2842 17.6651L79.5025 18.2883C80.4955 17.9414 81.4922 17.7211 82.4841 17.6389C83.4763 17.5568 84.4652 17.6101 85.4516 17.8025C86.4377 17.9948 87.4216 18.3248 88.3924 18.7753C88.8777 19.0006 89.36 19.254 89.8356 19.5395L89.9251 19.5915L90.0078 19.6441L90.1735 19.7487L90.3396 19.8526C90.3951 19.8871 90.4473 19.9262 90.5013 19.9626C90.6081 20.0372 90.7174 20.1085 90.8231 20.1845L91.1357 20.4178L91.5303 19.8885Z" fill="#3B5A4F"/>
<path d="M89.1438 23.0092C89.133 23.0012 89.0731 22.9566 88.9683 22.8786C88.942 22.8592 88.9141 22.8362 88.8815 22.8136C88.8485 22.7913 88.8126 22.7672 88.774 22.7412C88.7356 22.7148 88.6945 22.6865 88.6507 22.6563C88.6074 22.6256 88.5613 22.5929 88.5093 22.5626C88.4585 22.5307 88.405 22.4972 88.3488 22.462C88.2923 22.4263 88.2384 22.3892 88.1626 22.3473C88.0915 22.3057 88.0174 22.2624 87.9404 22.2174C87.8636 22.1713 87.7838 22.1319 87.7016 22.0858C87.373 21.9077 87.0028 21.7219 86.6021 21.5553C86.2014 21.3881 85.7707 21.2385 85.3202 21.1237C84.8692 21.0098 84.3989 20.9212 83.9079 20.8902C83.4164 20.8526 82.9029 20.8672 82.3528 20.9394C82.2839 20.9501 82.2146 20.9601 82.1448 20.9693C82.0745 20.9821 82.0039 20.9949 81.933 21.0078C81.862 21.0184 81.7901 21.0352 81.7175 21.0516C81.645 21.0689 81.5725 21.0791 81.4984 21.1009C81.4244 21.1194 81.3501 21.1381 81.2754 21.1568C81.2 21.1786 81.1242 21.2006 81.0482 21.2226C80.9722 21.2422 80.8949 21.2692 80.8173 21.2946C80.7396 21.3209 80.6617 21.3416 80.5826 21.373L80.8008 21.9961C81.5094 21.7493 82.1719 21.6073 82.8069 21.5543C83.4429 21.5024 84.0572 21.5338 84.7019 21.659C85.3453 21.7849 86.022 22.0068 86.736 22.3377C87.0924 22.503 87.4573 22.6934 87.8274 22.9161L87.8969 22.9561L87.9549 22.9937L88.0714 23.0678L88.1889 23.1403C88.2283 23.1642 88.264 23.1925 88.3021 23.218C88.3766 23.2708 88.454 23.3201 88.5281 23.3731C88.6001 23.4285 88.6728 23.4829 88.7463 23.5363L89.1438 23.0092Z" fill="#3B5A4F"/>
<path d="M78.1032 14.3271C78.0947 14.3302 78.0443 14.3484 77.9561 14.3802C77.912 14.3961 77.8585 14.4153 77.796 14.4378C77.7333 14.4596 77.6623 14.4863 77.5838 14.5183C77.2685 14.6424 76.8201 14.8199 76.2892 15.074C75.7573 15.3255 75.1386 15.644 74.4795 16.0357C73.8202 16.4267 73.1213 16.8905 72.4205 17.4109C71.7192 17.9308 71.0157 18.5066 70.3359 19.1086C69.6552 19.7099 69.0006 20.3397 68.3848 20.9578C67.7692 21.576 67.1933 22.1845 66.6731 22.7494C66.155 23.316 65.6925 23.8387 65.304 24.2866L65.8028 24.7192C66.2453 24.2083 66.6951 23.7047 67.1501 23.2063C67.608 22.7106 68.0688 22.2187 68.5419 21.7377C69.4867 20.776 70.46 19.8463 71.488 18.9871C72.5164 18.1295 73.5946 17.3351 74.7377 16.6517C75.8811 15.9708 77.0803 15.3808 78.3315 14.9466L78.1032 14.3271Z" fill="#3B5A4F"/>
<path d="M77.0342 11.3193C77.0264 11.3222 76.9605 11.3459 76.8432 11.3881C76.7259 11.4304 76.5561 11.4899 76.3471 11.5747C76.242 11.6164 76.126 11.6624 75.9996 11.7125C75.8734 11.7628 75.7407 11.8227 75.5969 11.884C75.308 12.0051 74.9921 12.156 74.6454 12.3206C74.4748 12.4065 74.2968 12.4961 74.1123 12.589C73.9297 12.6845 73.7434 12.7867 73.55 12.8907C73.3571 12.9953 73.1634 13.1108 72.9623 13.2255C72.7619 13.3413 72.5629 13.4671 72.3567 13.5922C71.539 14.1002 70.6977 14.6943 69.8811 15.3331C69.0643 15.9718 68.271 16.6548 67.5392 17.336C66.8058 18.0166 66.1273 18.6924 65.5229 19.3163C64.3086 20.5726 63.3699 21.644 62.8925 22.195L63.3913 22.6276C63.8504 22.0975 64.3198 21.5718 64.7965 21.0498C65.276 20.5304 65.7635 20.0103 66.2603 19.5052C67.2564 18.4913 68.3027 17.4895 69.435 16.5428C70.5675 15.5977 71.7791 14.7021 73.0878 13.9189C73.7426 13.527 74.4147 13.1638 75.1102 12.8303C75.8049 12.4962 76.5243 12.1969 77.2647 11.938L77.0342 11.3193Z" fill="#3B5A4F"/>
<path d="M79.276 17.6699C79.2449 17.6859 78.7721 17.8316 78.0139 18.1779C77.635 18.3505 77.1848 18.575 76.6853 18.8528C76.1878 19.13 75.6454 19.4689 75.0757 19.8642C73.935 20.6515 72.6983 21.6972 71.4767 22.8824C70.8665 23.4729 70.2536 24.105 69.6685 24.7291C69.0819 25.3561 68.5152 25.9891 67.9795 26.608L68.4783 27.0406C68.9019 26.5515 69.3296 26.0729 69.7604 25.601C70.194 25.1318 70.6247 24.6716 71.0712 24.2178C71.9583 23.3148 72.8495 22.4656 73.7609 21.7042C74.6727 20.9441 75.6015 20.2621 76.5598 19.6897C77.0376 19.404 77.5281 19.1399 78.0192 18.9044C78.5107 18.6679 79.0058 18.4627 79.5023 18.2901L79.276 17.6699Z" fill="#3B5A4F"/>
<path d="M80.5767 21.3755C80.5637 21.3802 80.491 21.4062 80.3638 21.4518C80.3 21.4748 80.222 21.5086 80.1308 21.5437C80.0852 21.5624 80.0363 21.5788 79.9838 21.6025C79.9313 21.6253 79.8755 21.6496 79.8166 21.6752C79.3471 21.8783 78.6504 22.2173 77.8078 22.7613C76.9612 23.3065 75.9477 24.0762 74.7845 25.1578C74.639 25.2936 74.4914 25.4306 74.3411 25.5768C74.1912 25.7189 74.0383 25.8707 73.8836 26.0228C73.7287 26.1758 73.5713 26.3357 73.4118 26.497C73.2521 26.6617 73.0887 26.8274 72.9296 26.9964C72.2873 27.6687 71.6257 28.3985 70.9468 29.1808L71.4456 29.6134C71.8483 29.1485 72.2514 28.6975 72.6551 28.2551L72.9585 27.928C73.0594 27.8187 73.1606 27.7103 73.2621 27.6047L73.5662 27.2851L73.876 26.9668C74.6989 26.1289 75.4991 25.3691 76.2812 24.7161C77.0636 24.0642 77.8266 23.5069 78.5797 23.0576C78.9541 22.8339 79.338 22.6276 79.7096 22.4491C80.082 22.2694 80.4462 22.1194 80.7999 21.9968L80.5767 21.3755Z" fill="#3B5A4F"/>
<path d="M65.297 24.2954C65.2853 24.309 65.1584 24.4564 64.9392 24.7112C64.7201 24.9659 64.4116 25.3303 64.0384 25.7789C63.2907 26.675 62.2916 27.9137 61.2167 29.2733C59.0676 31.9922 56.5665 35.1617 55.0787 36.9992L55.5926 37.4138C57.3014 35.2958 58.9852 33.1605 60.6707 31.0286C62.3563 28.8955 64.0318 26.7629 65.8027 24.7201L65.297 24.2954Z" fill="#3B5A4F"/>
<path d="M62.8779 22.2114C62.8685 22.2225 62.7187 22.3967 62.4601 22.6973C62.2022 22.9982 61.8403 23.427 61.4091 23.9472C60.5457 24.987 59.4188 26.3961 58.2683 27.8541C57.12 29.3054 55.9196 30.8225 54.8975 32.1142C53.8762 33.4 53.031 34.4531 52.5943 34.9937L53.1082 35.4084C54.8009 33.3103 56.4777 31.184 58.1631 29.0522C59.8432 26.9266 61.5469 24.7559 63.384 22.6357L62.8779 22.2114Z" fill="#3B5A4F"/>
<path d="M67.9729 26.6152C67.9595 26.6299 67.8565 26.7487 67.6789 26.9567C67.5006 27.1632 67.2486 27.4611 66.9365 27.8327C66.3127 28.5781 65.4552 29.6296 64.47 30.8708C62.4933 33.3623 59.996 36.5459 57.8353 39.2226L58.3492 39.6372C60.0745 37.4987 61.765 35.3548 63.4493 33.2246C65.1398 31.0846 66.7826 28.9959 68.4784 27.0403L67.9729 26.6152Z" fill="#3B5A4F"/>
<path d="M70.9406 29.1885C70.9266 29.2047 70.8487 29.295 70.7126 29.453C70.5765 29.6114 70.3819 29.8381 70.1348 30.1326C69.6399 30.7207 68.9364 31.572 68.055 32.6753C67.61 33.2357 67.1227 33.8495 66.5986 34.5095C66.0659 35.1834 65.4959 35.9046 64.8944 36.6656C63.6884 38.1904 62.3458 39.8868 60.8925 41.6888L61.4064 42.1034C63.1498 39.9424 64.8474 37.7893 66.5301 35.661C68.226 33.5138 69.8324 31.4739 71.4445 29.6151L70.9406 29.1885Z" fill="#3B5A4F"/>
<path d="M55.0722 37.0059C55.0497 37.0335 54.5833 37.6083 53.8497 38.5122C53.4819 38.9632 53.0448 39.495 52.5605 40.0784C52.0772 40.6608 51.5363 41.2873 50.9566 41.9266C50.377 42.5659 49.758 43.2176 49.1208 43.8519C48.4837 44.4864 47.8282 45.1032 47.1819 45.6785C46.5357 46.2541 45.8988 46.7884 45.3022 47.2619C44.7053 47.7345 44.1512 48.1488 43.6703 48.4865L44.0504 49.0264C44.6149 48.631 45.1623 48.2132 45.7021 47.7876C46.2399 47.3608 46.7655 46.9191 47.2833 46.4688C47.8015 46.0189 48.3059 45.5537 48.8033 45.0815C49.3009 44.6095 49.7864 44.1251 50.2629 43.6324C50.7399 43.1402 51.207 42.6386 51.6634 42.1278C52.1203 41.6174 52.5695 41.1002 53.0069 40.5737C53.8794 39.5255 54.7378 38.4712 55.5928 37.4121L55.0722 37.0059Z" fill="#3B5A4F"/>
<path d="M52.5812 35.0098C52.5637 35.0313 52.0294 35.6891 51.2104 36.6973C51.0047 36.9478 50.7812 37.2199 50.5434 37.5094C50.4241 37.6536 50.3014 37.8022 50.1755 37.9545C50.054 38.0995 49.9295 38.2481 49.8025 38.3997C49.2923 39.0027 48.7295 39.6413 48.1383 40.2765C47.5469 40.9115 46.9268 41.5425 46.3084 42.1371C45.6902 42.7319 45.0736 43.2901 44.4949 43.7872C44.2061 44.0365 43.9254 44.2685 43.661 44.4855C43.5279 44.5927 43.399 44.6963 43.2749 44.7962C43.1512 44.8926 43.0323 44.9852 42.9187 45.0737C42.862 45.1179 42.8066 45.161 42.7526 45.203C42.6981 45.2437 42.6449 45.2834 42.5932 45.322C42.4899 45.3991 42.3925 45.4718 42.3015 45.5398C42.1187 45.674 41.96 45.7845 41.8325 45.8766L42.2126 46.4165C42.7214 46.0604 43.2186 45.6806 43.7139 45.2904C44.2123 44.8949 44.7003 44.4847 45.1819 44.0659C46.1433 43.2259 47.0717 42.3418 47.9651 41.4167C48.4127 40.9551 48.8518 40.4836 49.2819 40.0022C49.7126 39.5213 50.1367 39.0331 50.551 38.5346L50.8684 38.1526L51.1891 37.7641L51.8285 36.9844L53.1016 35.4162L52.5812 35.0098Z" fill="#3B5A4F"/>
<path d="M57.8287 39.2305C57.8021 39.2632 57.412 39.7445 56.774 40.5314C56.4521 40.9238 56.0675 41.3925 55.635 41.9196C55.5255 42.0518 55.4129 42.1878 55.2975 42.3271C55.1773 42.4706 55.054 42.6176 54.9281 42.7678C54.6735 43.0665 54.4072 43.3774 54.1264 43.6949C53.0061 44.9666 51.6752 46.3602 50.2325 47.6927C49.5118 48.3593 48.7643 49.0112 48.0091 49.6295C47.819 49.7828 47.6298 49.9353 47.4417 50.0869C47.2484 50.2373 47.0562 50.3868 46.8656 50.5351C46.6712 50.6805 46.4784 50.8248 46.2874 50.9678C46.0951 51.1097 45.8998 51.2462 45.7092 51.3832L46.0894 51.9231C46.7154 51.4844 47.3181 51.0247 47.907 50.5601C48.4881 50.0988 49.055 49.6226 49.6125 49.1375C50.1707 48.6529 50.7126 48.1533 51.2461 47.6468C51.7798 47.1402 52.2994 46.622 52.8083 46.0958C53.3178 45.57 53.8156 45.0353 54.3008 44.4923C54.7866 43.9497 55.2632 43.4007 55.7263 42.8435L56.3931 42.0384L57.0487 41.2389L58.3493 39.6367L57.8287 39.2305Z" fill="#3B5A4F"/>
<path d="M60.8857 41.6963C60.8557 41.7333 60.5507 42.1098 60.0189 42.7663C59.7506 43.0946 59.4249 43.4929 59.0481 43.9537C58.8581 44.184 58.6552 44.4299 58.4402 44.6906C58.324 44.8297 58.2045 44.9727 58.0818 45.1195C57.9575 45.2688 57.828 45.4211 57.6941 45.5765C56.6285 46.8216 55.3028 48.2797 53.6963 49.8244C52.8932 50.5965 52.0203 51.3897 51.078 52.1859C50.8407 52.3835 50.6019 52.5837 50.3571 52.7822C50.1103 52.9803 49.8681 53.1785 49.603 53.382C49.4727 53.4832 49.3417 53.5848 49.2103 53.6868C49.0757 53.7875 48.9406 53.8884 48.805 53.9898C48.5362 54.1935 48.2527 54.3926 47.9707 54.5943L48.3509 55.1342L48.8662 54.7659C49.0364 54.6423 49.2022 54.5168 49.3702 54.392L49.6208 54.2041L49.866 54.0141C50.0278 53.8876 50.1959 53.7594 50.3521 53.6338C50.9812 53.1344 51.594 52.6199 52.1955 52.0964C52.7978 51.5733 53.3814 51.0356 53.9548 50.491C54.5286 49.9464 55.0859 49.3906 55.6307 48.8273C56.1762 48.2644 56.7079 47.6932 57.2251 47.1145C57.7429 46.5361 58.2499 45.9519 58.7413 45.3608L59.0898 44.9414L59.4244 44.5361L60.0892 43.7253L61.4052 42.1042L60.8857 41.6963Z" fill="#3B5A4F"/>
<path d="M43.6616 48.4932C43.6479 48.5045 43.4895 48.6146 43.214 48.8015C43.1451 48.8482 43.069 48.9 42.9861 48.9563C42.9021 49.0108 42.8111 49.0699 42.7137 49.1331C42.6163 49.196 42.5123 49.2632 42.4024 49.3342C42.291 49.4028 42.1735 49.4752 42.0504 49.551C41.9889 49.5888 41.926 49.6276 41.8617 49.6672C41.7965 49.7053 41.73 49.7441 41.6621 49.7837C41.5262 49.8625 41.3851 49.9444 41.2393 50.029C41.0914 50.11 40.9389 50.1937 40.7819 50.2797C40.6258 50.3674 40.46 50.4472 40.2932 50.5345C39.6221 50.876 38.8726 51.2189 38.0715 51.5272C37.2708 51.8361 36.4184 52.1093 35.5511 52.327C34.683 52.5414 33.8024 52.7091 32.9474 52.8084C32.0929 52.9104 31.2663 52.9581 30.5086 52.956C29.7507 52.9561 29.0622 52.9137 28.4795 52.857L28.4151 53.5142C29.7965 53.6498 31.1922 53.6507 32.574 53.5139C33.956 53.3771 35.3233 53.1061 36.652 52.7078C37.9821 52.3128 39.2719 51.7899 40.5072 51.1669C41.7429 50.5436 42.9233 49.8196 44.0503 49.0268L43.6616 48.4932Z" fill="#3B5A4F"/>
<path d="M41.8169 45.8877C41.8073 45.8965 41.6447 46.0081 41.3639 46.1991C41.083 46.3901 40.68 46.6502 40.1872 46.9487C39.6928 47.2423 39.1064 47.5676 38.4574 47.882C37.8086 48.1967 37.0967 48.4985 36.3557 48.7562C35.6147 49.0139 34.8455 49.2291 34.0841 49.3887C33.3246 49.5505 32.5793 49.6493 31.8924 49.7077C30.5172 49.8183 29.3761 49.7397 28.7907 49.6799L28.7263 50.3371C29.903 50.4525 31.0848 50.4532 32.2581 50.3373C33.4299 50.2216 34.5994 49.9905 35.7361 49.6499C38.0128 48.9757 40.1747 47.8532 42.2046 46.4222L41.8169 45.8877Z" fill="#3B5A4F"/>
<path d="M45.6997 51.3896C45.6902 51.3963 45.6487 51.4257 45.5776 51.4761C45.5052 51.5255 45.4029 51.5954 45.273 51.6841C45.0147 51.8626 44.6398 52.1102 44.1656 52.4078C43.9266 52.5547 43.6668 52.7182 43.3768 52.8837C43.2322 52.9669 43.085 53.056 42.9279 53.1421C42.7709 53.2282 42.6089 53.3171 42.4423 53.4084C41.7704 53.7666 41.0073 54.1432 40.165 54.5016C38.4808 55.2184 36.4732 55.8461 34.3772 56.1822C33.3296 56.3567 32.2585 56.4535 31.2054 56.4883C30.152 56.5157 29.1157 56.4809 28.1342 56.382L28.0698 57.0392C29.6773 57.1972 31.3096 57.1984 32.922 57.0387C33.7283 56.9592 34.5294 56.84 35.3205 56.6834C35.716 56.6048 36.1091 56.5173 36.4991 56.4209C36.6948 56.3753 36.8883 56.3186 37.083 56.2674C37.2774 56.2152 37.4718 56.1627 37.6634 56.1023C39.206 55.6441 40.6943 55.0396 42.1025 54.3292C43.5115 53.6184 44.8396 52.8021 46.0894 51.9228L45.6997 51.3896Z" fill="#3B5A4F"/>
<path d="M47.9601 54.6025C47.9484 54.6108 47.9102 54.6381 47.8465 54.6834C47.7813 54.728 47.6902 54.7904 47.5741 54.8697C47.4579 54.9488 47.3168 55.0449 47.152 55.1572C46.9833 55.2669 46.7903 55.3924 46.5744 55.5328C46.4671 55.6034 46.3511 55.6758 46.2284 55.751C46.106 55.8263 45.9779 55.9052 45.8442 55.9876C45.7116 56.0706 45.5683 56.1533 45.4202 56.2397C45.2719 56.3259 45.1181 56.4152 44.9589 56.5077C44.3109 56.8683 43.5658 57.27 42.7035 57.6705C41.842 58.0706 40.8712 58.4766 39.7935 58.8492C38.7164 59.2215 37.5313 59.5608 36.2648 59.826C34.9956 60.092 33.6297 60.2873 32.1975 60.3742C31.4816 60.4167 30.7497 60.4356 30.0066 60.4226C29.2637 60.4083 28.5102 60.3653 27.7513 60.2917L27.687 60.9489C29.5451 61.1316 31.4394 61.1333 33.3074 60.9482C34.2415 60.856 35.1687 60.718 36.0821 60.5372C36.5388 60.4466 36.9922 60.3457 37.4414 60.2347C37.6667 60.1818 37.8904 60.1172 38.1147 60.0579C38.339 59.9976 38.5631 59.9368 38.784 59.8675C40.5619 59.3394 42.2704 58.6445 43.8703 57.8374C45.4714 57.0297 46.963 56.1113 48.349 55.1363L47.9601 54.6025Z" fill="#3B5A4F"/>
<path d="M28.469 52.8559C28.4602 52.855 28.408 52.8495 28.3168 52.8399C28.2256 52.8299 28.095 52.8184 27.9306 52.7957C27.6006 52.76 27.1351 52.6753 26.5647 52.5835C26.4215 52.5632 26.2747 52.5274 26.1209 52.4959C25.9673 52.4634 25.8078 52.4296 25.643 52.3946C25.3115 52.3321 24.9665 52.2326 24.6019 52.1389C24.2354 52.0515 23.8619 51.9258 23.4733 51.8047C23.3762 51.7742 23.2783 51.7434 23.1797 51.7124C23.0815 51.6801 22.9848 51.6415 22.8862 51.6059C22.6896 51.5332 22.4904 51.4596 22.2892 51.3852C22.0861 51.3156 21.8899 51.2226 21.6883 51.1387C21.4876 51.0525 21.2854 50.9657 21.0821 50.8784C20.8835 50.7811 20.6839 50.6833 20.4837 50.5853C20.3835 50.5363 20.2833 50.4872 20.183 50.4381C20.1323 50.4145 20.0833 50.3878 20.0347 50.3602L19.8881 50.2788C19.6927 50.1704 19.4972 50.0619 19.3021 49.9537L19.1561 49.8722L19.0144 49.7838C18.9201 49.7249 18.8259 49.6661 18.7319 49.6075C18.6379 49.5488 18.5442 49.4904 18.4507 49.432L18.3107 49.3447L18.2409 49.3011L18.1734 49.2542C17.9938 49.1289 17.8156 49.0046 17.639 48.8815C17.5507 48.8199 17.4629 48.7586 17.3756 48.6978C17.2891 48.6357 17.2071 48.5685 17.1234 48.5047C16.9572 48.3757 16.7929 48.2484 16.6313 48.123C16.4667 48.0012 16.3181 47.8648 16.1672 47.7372C16.0173 47.6085 15.8702 47.4821 15.7264 47.3586C15.6532 47.2982 15.5854 47.2335 15.5185 47.1694C15.4513 47.1057 15.3849 47.0428 15.3194 46.9806C15.1885 46.8564 15.061 46.7356 14.9374 46.6184C14.8112 46.5039 14.7015 46.3804 14.5904 46.2667C14.4804 46.1519 14.3745 46.0414 14.2732 45.9355L13.7919 46.3877L14.1511 46.7626L14.3307 46.95C14.3906 47.0125 14.4555 47.07 14.5177 47.1303L14.8947 47.4878L15.0832 47.6665C15.1458 47.7264 15.2084 47.7861 15.2753 47.8414L16.0643 48.5187L16.8862 49.1562C18.0017 49.9809 19.1952 50.7011 20.4455 51.3019C21.6957 51.9034 23.0015 52.3855 24.3368 52.7521L24.8392 52.8837C25.0067 52.9275 25.1736 52.9735 25.3436 53.0062C25.6821 53.077 26.02 53.1521 26.3592 53.2189L27.3825 53.3871C27.7246 53.439 28.0698 53.4799 28.4149 53.5143L28.469 52.8559Z" fill="#3B5A4F"/>
<path d="M28.7729 49.6784C28.7671 49.6778 28.718 49.6727 28.6305 49.6634C28.5867 49.6589 28.5334 49.6534 28.4711 49.6469C28.4087 49.6389 28.3375 49.6298 28.2579 49.6195C28.1779 49.6085 28.0911 49.5994 27.9935 49.5843C27.895 49.5679 27.7886 49.5502 27.6748 49.5312C27.561 49.5125 27.4398 49.4926 27.3119 49.4716C27.2479 49.4613 27.1822 49.4506 27.1149 49.4397C27.0813 49.4342 27.0473 49.4286 27.0129 49.423C26.979 49.4158 26.9447 49.4084 26.9102 49.4009C26.6331 49.3418 26.3321 49.2776 26.0118 49.2094C25.8546 49.1679 25.6926 49.1252 25.5265 49.0814C25.4433 49.0598 25.3592 49.0379 25.2741 49.0157C25.1894 48.9927 25.1018 48.9742 25.0176 48.9449C24.3349 48.7339 23.6012 48.4951 22.8854 48.1789C22.1587 47.8845 21.4573 47.5031 20.7802 47.1244C20.6158 47.0214 20.4525 46.9191 20.2908 46.8179C20.2098 46.7676 20.1291 46.7176 20.049 46.6679C19.9679 46.6196 19.8938 46.5611 19.8166 46.5089C19.6636 46.4023 19.5127 46.2971 19.3644 46.1937C19.3272 46.168 19.2902 46.1424 19.2534 46.1169C19.2166 46.0914 19.1824 46.0623 19.147 46.0354C19.0769 45.9807 19.0074 45.9265 18.9386 45.8729C18.8006 45.7663 18.6657 45.662 18.5343 45.5604C18.405 45.4559 18.2845 45.3463 18.1644 45.2448C18.0449 45.1425 17.9293 45.0435 17.8179 44.9481C17.7076 44.8513 17.6079 44.7499 17.5089 44.6578C17.4106 44.5647 17.3169 44.476 17.2283 44.3921C17.1839 44.3503 17.1407 44.3096 17.0989 44.2701C17.0571 44.2307 17.0199 44.1883 16.9821 44.1497C16.8325 43.9932 16.7039 43.8588 16.5998 43.75L16.1185 44.2021L16.4307 44.5281L16.5864 44.6914C16.6383 44.7459 16.6947 44.7949 16.7485 44.847L17.0746 45.1558L17.2373 45.3106C17.2912 45.3626 17.3451 45.4146 17.4029 45.4617L18.0814 46.0447L18.7862 46.591C19.7413 47.2967 20.758 47.9101 21.8266 48.424C22.8951 48.9382 24.0153 49.353 25.1725 49.6715L25.6086 49.7856C25.754 49.8236 25.8982 49.8651 26.0471 49.8928C26.343 49.954 26.6376 50.0195 26.9342 50.0792L27.8335 50.2268C28.1313 50.2728 28.422 50.3068 28.7171 50.3365L28.7729 49.6784Z" fill="#3B5A4F"/>
<path d="M28.122 56.3813C28.0981 56.3779 27.9091 56.3613 27.5831 56.3225C27.4216 56.3006 27.2208 56.2786 26.9976 56.2439C26.7759 56.2076 26.5238 56.1664 26.2447 56.1207C26.1052 56.0976 25.9589 56.0733 25.8062 56.0479C25.6537 56.0187 25.4952 55.9835 25.3306 55.9493C25.166 55.9144 24.9955 55.8783 24.8194 55.8409C24.7314 55.822 24.6419 55.8029 24.5512 55.7835C24.4603 55.7654 24.3692 55.7379 24.2761 55.7149C24.0904 55.6664 23.8995 55.6166 23.7039 55.5655C23.6061 55.5397 23.5072 55.5137 23.407 55.4873C23.3068 55.4614 23.2056 55.4347 23.1045 55.4014C22.9017 55.3378 22.6945 55.2728 22.4834 55.2067C22.378 55.1734 22.2716 55.1397 22.1642 55.1058C22.1105 55.0887 22.0566 55.0716 22.0024 55.0545C21.9489 55.0349 21.8952 55.0153 21.8412 54.9956C20.9766 54.6855 20.0618 54.3265 19.1489 53.8758C18.9205 53.7637 18.6897 53.6517 18.459 53.5357C18.2329 53.4106 18.0052 53.2847 17.7764 53.1581C17.6623 53.0944 17.5478 53.0306 17.4331 52.9667C17.318 52.9035 17.2086 52.8299 17.096 52.7616C16.8724 52.622 16.6481 52.4819 16.4234 52.3416C14.6427 51.1897 13.0193 49.7726 11.6922 48.3613L11.2109 48.8135L11.6221 49.2425L11.8281 49.4566C11.8968 49.5279 11.9712 49.5948 12.0426 49.664L12.4758 50.0754L12.6929 50.2805C12.765 50.349 12.8373 50.4175 12.9142 50.4818L13.825 51.2632L14.7765 52.0016C16.0691 52.9579 17.4581 53.7963 18.909 54.4935C20.3597 55.1917 21.8706 55.7487 23.4024 56.1689L23.978 56.3197C24.17 56.3697 24.3618 56.4216 24.5549 56.4595C24.9406 56.541 25.3264 56.6261 25.7126 56.7016L26.8726 56.8924C27.2642 56.9517 27.6694 57 28.0698 57.0397L28.122 56.3813Z" fill="#3B5A4F"/>
<path d="M27.7371 60.2902C27.706 60.2869 27.5322 60.2685 27.2281 60.2364C27.0768 60.217 26.8932 60.1935 26.6788 60.166C26.6257 60.1588 26.5686 60.1522 26.5134 60.1436C26.4587 60.1349 26.4023 60.1259 26.3441 60.1166C26.2276 60.0977 26.1041 60.0777 25.9735 60.0566C25.7127 60.0132 25.4239 59.9653 25.1089 59.913C24.7933 59.8524 24.4507 59.7775 24.0839 59.7001C23.9004 59.6597 23.7109 59.6227 23.5153 59.5746C23.3197 59.524 23.1181 59.4717 22.9106 59.418C22.7034 59.3633 22.4903 59.307 22.2716 59.2492C22.1622 59.2218 22.0519 59.1869 21.9401 59.1521C21.8284 59.1173 21.7153 59.0821 21.6009 59.0464C21.3723 58.9742 21.1383 58.9002 20.8989 58.8245C20.8392 58.8053 20.7791 58.7859 20.7187 58.7664C20.6587 58.7446 20.5984 58.7227 20.5377 58.7006C20.4164 58.6561 20.2939 58.6112 20.1702 58.5659C19.9231 58.4739 19.671 58.3801 19.414 58.2845C19.1585 58.1836 18.9009 58.0698 18.6378 57.9585C18.5065 57.902 18.3741 57.845 18.2405 57.7875C18.1072 57.7296 17.972 57.6731 17.8393 57.6063C17.5726 57.4761 17.3017 57.3438 17.0265 57.2094C16.8896 57.1408 16.7501 57.075 16.6128 57.002C16.4765 56.927 16.3391 56.8515 16.2007 56.7754C15.9244 56.6225 15.6443 56.4671 15.3622 56.307C15.0866 56.1358 14.8075 55.9625 14.5248 55.7869C14.3841 55.6981 14.2416 55.6101 14.1007 55.5183C13.9625 55.4228 13.8235 55.3267 13.6838 55.23C13.4058 55.0349 13.1208 54.8413 12.8422 54.6353C12.5686 54.4235 12.2921 54.2095 12.0129 53.9934C11.73 53.7802 11.467 53.5443 11.1939 53.3127C10.9244 53.0782 10.644 52.8475 10.3861 52.5959C10.1241 52.347 9.85999 52.096 9.59382 51.843C9.33727 51.5836 9.08527 51.3177 8.82955 51.0508L8.34831 51.5029C9.58128 52.8158 10.9439 54.0558 12.4361 55.1559C13.9251 56.2582 15.5304 57.2275 17.2035 58.0317C18.8765 58.8371 20.6146 59.4772 22.364 59.9569L23.0208 60.129C23.2399 60.1857 23.4592 60.2444 23.6781 60.2882C24.1159 60.3816 24.5548 60.4776 24.993 60.5629C25.4299 60.6369 25.8672 60.7089 26.3046 60.7789C26.36 60.7874 26.4126 60.7968 26.4701 60.8045L26.6431 60.8273L26.9892 60.8719C27.2196 60.9026 27.4526 60.9234 27.6843 60.9485L27.7371 60.2902Z" fill="#3B5A4F"/>
<path d="M14.2662 45.9282C14.26 45.9219 14.2237 45.8839 14.1602 45.8176C14.1284 45.7845 14.0898 45.7442 14.0448 45.6972C14.002 45.6481 13.9531 45.5921 13.8985 45.5294C13.7892 45.4041 13.657 45.2524 13.5046 45.0777C13.4291 44.9897 13.3456 44.8984 13.2627 44.7974C13.1813 44.695 13.0956 44.5871 13.0056 44.474C12.9157 44.3609 12.8217 44.2427 12.7239 44.1198C12.6751 44.0583 12.6252 43.9956 12.5745 43.9319C12.5261 43.8664 12.4769 43.7998 12.4269 43.732C12.3273 43.5962 12.2244 43.456 12.1186 43.3117C12.0174 43.1643 11.9134 43.0128 11.807 42.8577C11.3881 42.2327 10.9593 41.5295 10.5611 40.7694C10.1613 40.0103 9.79802 39.1922 9.48738 38.3541C9.17655 37.5159 8.92144 36.6567 8.72647 35.8184C8.3292 34.1422 8.19828 32.5513 8.14882 31.3799L7.489 31.4054C7.51451 32.0967 7.57208 32.7847 7.64933 33.4718L7.71476 33.9877C7.73523 34.1598 7.76783 34.3302 7.79388 34.5016C7.84394 34.8448 7.91712 35.1841 7.98261 35.5247C8.2744 36.8807 8.68325 38.2144 9.22968 39.4907C9.36012 39.8125 9.51151 40.1248 9.65665 40.44C9.73163 40.5965 9.81224 40.7501 9.88986 40.9052L10.0073 41.1374L10.132 41.3656L10.383 41.8213L10.6484 42.2686C10.735 42.4188 10.8289 42.5646 10.9226 42.7104C11.0168 42.8558 11.1072 43.0038 11.2048 43.147C11.4014 43.4322 11.5934 43.7208 11.8023 43.9971L11.9562 44.2064L12.0331 44.3111L12.1135 44.4128L12.4361 44.8185L12.7588 45.2242C12.8697 45.3568 12.9853 45.4856 13.0983 45.6164C13.3272 45.8757 13.5475 46.1426 13.7922 46.3878L14.2662 45.9282Z" fill="#3B5A4F"/>
<path d="M16.5872 43.7373C16.583 43.733 16.548 43.6966 16.4857 43.6318C16.4551 43.5986 16.4149 43.5617 16.3733 43.5121C16.3311 43.4634 16.2827 43.4076 16.2286 43.3453C16.1201 43.221 15.9888 43.0705 15.8379 42.8976C15.8006 42.8539 15.7598 42.8113 15.722 42.7628C15.6839 42.7146 15.6447 42.665 15.6043 42.6141C15.5235 42.5124 15.4385 42.4053 15.3496 42.2934C15.2618 42.1814 15.1649 42.0658 15.0734 41.9437C14.9836 41.8214 14.8905 41.6947 14.7946 41.564C14.7455 41.4994 14.6988 41.432 14.6524 41.3631C14.6054 41.2946 14.5578 41.2252 14.5096 41.1548C14.4614 41.0845 14.4127 41.0134 14.3633 40.9414C14.3166 40.868 14.2693 40.7938 14.2216 40.7189C13.8371 40.121 13.4582 39.456 13.1208 38.754C12.7829 38.0523 12.485 37.3143 12.2466 36.5785C12.007 35.8431 11.8248 35.1109 11.6934 34.428C11.6765 34.3427 11.6598 34.2583 11.6433 34.175C11.6298 34.0909 11.6164 34.0078 11.6033 33.9258C11.59 33.8438 11.577 33.763 11.5641 33.6833C11.5507 33.6037 11.5378 33.5251 11.5293 33.4469C11.5095 33.291 11.4903 33.1401 11.4719 32.9949C11.4616 32.9234 11.4554 32.8483 11.4483 32.7761C11.4412 32.7037 11.4343 32.6328 11.4276 32.5636C11.3969 32.2864 11.3852 32.0364 11.3671 31.8166C11.3532 31.5972 11.347 31.4092 11.3387 31.2568L10.6788 31.2823L10.7006 31.7377C10.7091 31.8895 10.7223 32.0417 10.7327 32.1937C10.742 32.3457 10.7572 32.4979 10.7725 32.6502L10.7948 32.8786L10.8059 32.9927L10.8202 33.1035L10.8764 33.5469C10.8934 33.695 10.9224 33.8406 10.9444 33.9877C10.9866 34.2823 11.0503 34.5717 11.1055 34.8632C11.3555 36.0215 11.7016 37.155 12.1672 38.2416C12.2775 38.5157 12.4074 38.7816 12.5304 39.0505C12.594 39.1841 12.6636 39.3149 12.7296 39.4475L12.8295 39.6458C12.864 39.7114 12.9008 39.7758 12.9362 39.841L13.1504 40.2309L13.3783 40.6142C13.4167 40.6779 13.4528 40.7428 13.4929 40.8055L13.6135 40.9937C13.6947 41.1186 13.772 41.2458 13.8558 41.3694C14.0262 41.6149 14.1901 41.8644 14.3717 42.1034L14.5047 42.2846C14.5485 42.3451 14.5929 42.4056 14.6416 42.4646L14.926 42.8214L15.2095 43.179C15.3062 43.2958 15.408 43.4073 15.5068 43.522C15.7073 43.748 15.8987 43.9841 16.112 44.1957L16.5872 43.7373Z" fill="#3B5A4F"/>
<path d="M11.6838 48.353C11.6756 48.3444 11.6393 48.3063 11.5772 48.2413C11.5152 48.176 11.4253 48.0852 11.3213 47.9628C11.2155 47.8417 11.0873 47.695 10.9388 47.5251C10.8648 47.4399 10.7856 47.349 10.7017 47.2526C10.6598 47.2043 10.6167 47.1547 10.5725 47.1037C10.5305 47.0513 10.4874 46.9975 10.4433 46.9424C10.2675 46.7213 10.0746 46.4787 9.86663 46.2171C9.76158 46.0884 9.65791 45.946 9.55058 45.7997C9.44343 45.6533 9.33166 45.5033 9.21953 45.3467C8.7764 44.7154 8.30717 43.9945 7.84868 43.194C7.39277 42.3919 6.95265 41.5082 6.55629 40.5676C6.15993 39.6272 5.81014 38.6289 5.52687 37.6059C5.24294 36.583 5.02558 35.5361 4.87594 34.5027C4.8431 34.2441 4.81039 33.9866 4.77791 33.7307C4.7488 33.477 4.72749 33.2307 4.7027 32.9831C4.68067 32.7358 4.66518 32.4889 4.64687 32.2451C4.63072 32.0009 4.6219 31.7574 4.60977 31.5176L3.94995 31.5431L3.97804 32.13C3.98909 32.3253 4.00518 32.5194 4.01886 32.7142C4.03159 32.9093 4.05026 33.1027 4.06965 33.296L4.0981 33.5861L4.11257 33.7313L4.13117 33.8803L4.20681 34.4762C4.231 34.6748 4.26774 34.8728 4.29811 35.071C4.35694 35.4679 4.44032 35.8623 4.51727 36.2571C4.85505 37.8319 5.33305 39.3868 5.9685 40.873C6.12127 41.2474 6.29595 41.6112 6.46564 41.9775C6.55286 42.1593 6.64597 42.338 6.73631 42.5182L6.87323 42.7877L7.01748 43.0528L7.30891 43.5811L7.61589 44.0991C7.71674 44.2729 7.82467 44.4414 7.93278 44.6099C8.04137 44.778 8.14666 44.9488 8.25885 45.1139C8.48467 45.4429 8.70725 45.7752 8.9464 46.0926L9.12324 46.333L9.21184 46.453L9.30267 46.5685L9.66745 47.0282L10.0334 47.4871C10.1593 47.6377 10.2906 47.785 10.4193 47.9339C10.6796 48.2297 10.9312 48.5313 11.2108 48.8137L11.6838 48.353Z" fill="#3B5A4F"/>
<path d="M8.82001 51.0407C8.8002 51.018 8.67942 50.8973 8.48055 50.6794C8.28744 50.4582 8.01161 50.1421 7.66105 49.7404C7.61795 49.6897 7.57155 49.6387 7.52809 49.5845C7.48463 49.5303 7.44015 49.4748 7.39459 49.4179C7.30365 49.304 7.20845 49.1847 7.1091 49.0602C7.01011 48.9354 6.90699 48.8054 6.7999 48.6704C6.74647 48.6027 6.69209 48.5337 6.63668 48.4636C6.58152 48.3924 6.52623 48.3152 6.46963 48.2392C6.35702 48.0858 6.24056 47.9272 6.12039 47.7636C5.99925 47.6011 5.88316 47.4242 5.75962 47.2468C5.63831 47.0671 5.50871 46.8872 5.38649 46.6921C5.26289 46.4986 5.13605 46.3 5.00616 46.0966C4.49892 45.2727 3.97632 44.3427 3.47929 43.304C2.98179 42.2661 2.51201 41.1188 2.10851 39.8787C1.70368 38.6394 1.3656 37.3074 1.12489 35.9136C1.09668 35.7392 1.06829 35.5641 1.03978 35.3881C1.0115 35.2121 0.98269 35.0352 0.96162 34.8575C0.93905 34.6798 0.916419 34.5013 0.893609 34.322C0.882804 34.2328 0.871999 34.1433 0.861134 34.0537C0.85261 33.9677 0.844026 33.8815 0.835442 33.7951C0.818694 33.6222 0.801887 33.4487 0.784959 33.2744C0.771693 33.0988 0.758367 32.9225 0.744981 32.7455C0.716227 32.3924 0.702241 32.0311 0.684893 31.6689L0.0250702 31.6945L0.0568847 32.358C0.0694305 32.5785 0.0871386 32.797 0.102746 33.0166C0.117392 33.2367 0.138162 33.454 0.159832 33.6712L0.191887 33.9972L0.208334 34.1604L0.229404 34.3316L0.316324 35.0161C0.344537 35.2442 0.385896 35.4726 0.421132 35.7007C0.489623 36.157 0.584347 36.6125 0.674028 37.0674C1.06277 38.8846 1.61718 40.6847 2.35132 42.4035C2.52876 42.8362 2.72919 43.257 2.9262 43.6799C3.02693 43.89 3.13384 44.0964 3.23834 44.3043L3.3967 44.6153L3.56267 44.921L3.89889 45.53L4.25191 46.1264C4.31158 46.2251 4.36914 46.3258 4.43097 46.4227L4.6161 46.7138C4.74059 46.9068 4.86233 47.1029 4.99073 47.2924C5.24897 47.6699 5.50534 48.0506 5.77793 48.4136L5.98034 48.6884L6.08179 48.8255L6.18426 48.9563L6.5958 49.4759L7.00969 49.9937C7.15202 50.1643 7.30083 50.3322 7.44676 50.5011C7.74215 50.8373 8.02812 51.1774 8.34639 51.501L8.82001 51.0407Z" fill="#3B5A4F"/>
<path d="M8.14844 31.3705C8.14592 31.3528 8.1413 31.1604 8.13428 30.828C8.1284 30.6617 8.13092 30.4605 8.13164 30.2287C8.12948 29.9968 8.1413 29.7346 8.14916 29.446C8.17468 28.8693 8.22108 28.1879 8.31646 27.4414C8.41137 26.695 8.55669 25.8841 8.76085 25.0509C8.96578 24.2179 9.2323 23.3636 9.55429 22.5296C9.87562 21.6954 10.2522 20.882 10.66 20.1238C11.4736 18.6046 12.4156 17.3177 13.1612 16.4137L12.6513 15.9941C10.8932 18.1279 9.48136 20.5726 8.60754 23.2109C8.38477 23.8684 8.20139 24.5388 8.0455 25.2147C7.89129 25.8911 7.76319 26.5738 7.67507 27.2614C7.58491 27.9488 7.52464 28.6395 7.4921 29.3313C7.46413 30.0232 7.46419 30.7155 7.48916 31.4064L8.14844 31.3705Z" fill="#3B5A4F"/>
<path d="M11.3378 31.2393C11.3351 31.2268 11.332 31.0355 11.3243 30.705C11.3196 30.5396 11.3249 30.341 11.324 30.1119C11.3239 29.9975 11.3306 29.8766 11.3336 29.7485C11.3376 29.6205 11.3398 29.4854 11.3498 29.3456C11.402 28.2225 11.5882 26.7278 12.0151 25.2319C12.2266 24.4838 12.493 23.7347 12.7996 23.024C13.1055 22.313 13.4515 21.6406 13.805 21.0384C14.5126 19.8336 15.2414 18.91 15.6262 18.442L15.1163 18.0225C13.5788 19.8906 12.3811 21.975 11.6368 24.2174C10.889 26.458 10.58 28.847 10.6784 31.2737L11.3378 31.2393Z" fill="#3B5A4F"/>
<path d="M4.60927 31.5052C4.6068 31.4819 4.60152 31.2968 4.59492 30.9755C4.59318 30.8952 4.59132 30.8064 4.58922 30.7095C4.5876 30.6126 4.58922 30.5071 4.58916 30.3941C4.59006 30.168 4.5891 29.9113 4.60026 29.6256C4.6325 28.4863 4.74637 26.8885 5.12532 25.0773C5.31315 24.1726 5.56526 23.2167 5.89037 22.2483C6.21398 21.2796 6.61412 20.3003 7.07874 19.3475C7.54263 18.3943 8.07045 17.4678 8.63825 16.5963C9.20569 15.7245 9.81251 14.9079 10.4261 14.1627L9.91618 13.7432C9.41321 14.3485 8.93875 14.9851 8.48536 15.639C8.37383 15.8041 8.25768 15.9652 8.15071 16.1342L7.8259 16.6376L7.51406 17.151C7.40883 17.3212 7.31333 17.4985 7.21296 17.6721C6.81954 18.3721 6.45295 19.0907 6.12526 19.8289C5.79823 20.5673 5.50506 21.3221 5.2479 22.0887C4.98882 22.8549 4.77464 23.6355 4.59354 24.421C4.41412 25.2069 4.26645 25.9992 4.16416 26.7935C4.05977 27.5877 3.99056 28.383 3.95364 29.176C3.92123 29.9687 3.92141 30.7582 3.94998 31.5426L4.60927 31.5052Z" fill="#3B5A4F"/>
<path d="M0.684087 31.6555C0.681746 31.626 0.676103 31.459 0.6701 31.1658C0.667459 31.0191 0.661576 30.8419 0.660556 30.6333C0.661396 30.4243 0.662297 30.1852 0.663377 29.9176C0.668539 29.6492 0.678804 29.351 0.689309 29.0263C0.698493 28.8632 0.707977 28.6932 0.717942 28.5167C0.727906 28.3402 0.738411 28.1571 0.755879 27.9666C0.772207 27.7764 0.789014 27.5797 0.806422 27.3768C0.829113 27.1734 0.852464 26.9638 0.876475 26.7481C0.898985 26.5326 0.932661 26.3104 0.964295 26.0826C0.980623 25.9688 0.99713 25.8534 1.01382 25.7366C1.03327 25.6198 1.05302 25.5015 1.07294 25.3819C1.23292 24.425 1.45718 23.3777 1.77347 22.2678C2.08927 21.1582 2.49764 19.9866 3.01364 18.7906C4.04029 16.3968 5.52897 13.9239 7.3927 11.6671L6.88277 11.2476C6.31275 11.9345 5.7707 12.6599 5.25242 13.408C5.1245 13.5969 4.99256 13.7813 4.86939 13.975L4.49704 14.5524L4.13855 15.1422C4.01814 15.3378 3.9072 15.5417 3.79201 15.7416C3.33886 16.5475 2.91621 17.3769 2.53732 18.2301C2.15908 19.0835 1.81969 19.9568 1.52237 20.8438C1.22301 21.7305 0.97468 22.6329 0.765604 23.54C0.558209 24.4473 0.388751 25.361 0.270737 26.2734C0.150562 27.1859 0.0713857 28.097 0.0294264 29.0024C-0.00785067 29.9066 -0.00773079 30.804 0.0247441 31.6919L0.684087 31.6555Z" fill="#3B5A4F"/>
<path d="M13.1678 16.4036C13.1733 16.3968 13.2065 16.356 13.2645 16.2847C13.3242 16.2149 13.4095 16.1152 13.5177 15.9889C13.5718 15.9258 13.6316 15.856 13.6968 15.7801C13.7638 15.7057 13.8363 15.6252 13.914 15.5391C13.992 15.4533 14.0734 15.3602 14.1628 15.2647C14.2527 15.1697 14.3476 15.0696 14.4469 14.9647C14.4968 14.9123 14.5477 14.8588 14.5997 14.8042C14.6533 14.7511 14.7081 14.6971 14.7639 14.6419C14.8755 14.5316 14.9914 14.417 15.1111 14.2985C15.1713 14.2397 15.2311 14.1784 15.2944 14.1188C15.3587 14.0603 15.4239 14.001 15.49 13.9409C15.6223 13.8205 15.7582 13.6969 15.8974 13.5703C15.966 13.5058 16.0393 13.4452 16.1134 13.3838C16.1872 13.3221 16.2618 13.2598 16.3371 13.1969C16.4125 13.134 16.4886 13.0704 16.5654 13.0063C16.642 12.942 16.7189 12.8767 16.8009 12.8163C17.1251 12.5705 17.4534 12.3077 17.8098 12.0686C17.8977 12.0072 17.9861 11.9455 18.0749 11.8835L18.2083 11.7903L18.3461 11.7025C18.5304 11.5854 18.7162 11.4674 18.9029 11.3488C18.9951 11.2877 19.0927 11.2349 19.1887 11.179C19.285 11.1236 19.3814 11.0681 19.478 11.0125C19.5746 10.9569 19.6713 10.9013 19.7681 10.8456C19.866 10.7919 19.9662 10.7421 20.0651 10.6902C20.8515 10.2641 21.6767 9.91263 22.479 9.60222C22.6814 9.52875 22.8817 9.456 23.0795 9.3842C23.1778 9.34633 23.2785 9.31775 23.3772 9.28582C23.4763 9.25455 23.5746 9.22351 23.6721 9.19266C24.0602 9.06228 24.4456 8.96767 24.8112 8.86683C24.9933 8.81376 25.1757 8.77913 25.3513 8.73735C25.5274 8.69731 25.6986 8.65841 25.8647 8.62065C26.1996 8.55811 26.5133 8.49958 26.8015 8.44573L26.693 7.79443C25.3283 8.02284 23.98 8.365 22.6732 8.82931C21.3663 9.29308 20.1015 9.87925 18.9041 10.5809C17.7067 11.2824 16.5764 12.0979 15.5324 13.0098C15.277 13.2439 15.0176 13.4737 14.7658 13.7115L14.3964 14.0766L14.2117 14.2592C14.1496 14.3195 14.0888 14.3811 14.0302 14.4443C13.5496 14.9405 13.0927 15.4598 12.6512 15.9922L13.1678 16.4036Z" fill="#3B5A4F"/>
<path d="M15.6378 18.4254C15.6419 18.4209 15.6728 18.3808 15.7311 18.3113C15.7902 18.2423 15.8752 18.143 15.9829 18.0172C16.1982 17.7663 16.5168 17.4143 16.9151 17.0028C17.0152 16.9041 17.1195 16.8011 17.2278 16.6944C17.2817 16.6408 17.3367 16.5863 17.3926 16.5308C17.4206 16.5032 17.4488 16.4752 17.4772 16.4472C17.5067 16.4204 17.5364 16.3936 17.5665 16.3665C17.8079 16.1521 18.0537 15.9112 18.3313 15.69C18.8696 15.2241 19.4891 14.7757 20.1388 14.3449C20.3031 14.2403 20.4684 14.1351 20.634 14.0297C20.8041 13.9318 20.9746 13.8337 21.145 13.7357C21.3131 13.6334 21.49 13.5475 21.6635 13.4568C21.838 13.3681 22.0078 13.2719 22.186 13.1948C22.3618 13.113 22.5364 13.0318 22.7092 12.9514C22.8857 12.8785 23.0604 12.8063 23.2327 12.7351C23.3192 12.7002 23.4035 12.6621 23.4899 12.6302C23.5766 12.599 23.6626 12.568 23.7478 12.5373C23.9187 12.4767 24.0844 12.4119 24.2501 12.3568C24.4169 12.3043 24.5801 12.2529 24.739 12.2028C24.8186 12.1779 24.8965 12.1519 24.9743 12.1287C25.0529 12.1076 25.1303 12.0868 25.2066 12.0664C25.3589 12.025 25.5064 11.9851 25.6483 11.9465C25.7188 11.9259 25.7896 11.91 25.859 11.8948C25.9282 11.8792 25.996 11.8639 26.0622 11.849C26.3271 11.7891 26.5659 11.7306 26.7809 11.6958C26.9942 11.6561 27.1776 11.6218 27.326 11.5942L27.2175 10.9429C24.8334 11.3401 22.5644 12.1342 20.5233 13.3316C19.5024 13.9292 18.537 14.6246 17.6372 15.4092C17.4174 15.6119 17.1936 15.8098 16.9753 16.0148L16.6554 16.3317L16.4951 16.4898C16.4415 16.5419 16.3881 16.5949 16.3361 16.6514C15.9104 17.0908 15.5089 17.5473 15.1221 18.0128L15.6378 18.4254Z" fill="#3B5A4F"/>
<path d="M10.4336 14.1523C10.4411 14.1431 10.4742 14.1024 10.5307 14.0329C10.5887 13.965 10.6707 13.8687 10.7748 13.7466C10.982 13.5012 11.2839 13.1596 11.6684 12.7478C11.7652 12.6456 11.8667 12.5385 11.9726 12.4267C12.0766 12.3145 12.1974 12.2009 12.3161 12.0814C12.5584 11.8449 12.8095 11.5836 13.0993 11.3278C13.242 11.1981 13.3887 11.0647 13.5391 10.9281C13.5767 10.894 13.6146 10.8598 13.6527 10.8252C13.6922 10.7921 13.7319 10.7587 13.7719 10.7252C13.8519 10.6582 13.9328 10.5905 14.0146 10.522C14.1786 10.3855 14.345 10.2449 14.5172 10.1047C14.6939 9.9693 14.8739 9.83136 15.0568 9.69119C15.1485 9.62132 15.2409 9.55091 15.334 9.47996C15.4285 9.41057 15.5264 9.34411 15.6235 9.27544C15.8188 9.1393 16.0169 9.00124 16.2173 8.86156C16.4217 8.72733 16.6318 8.59605 16.8427 8.46159C16.9484 8.39472 17.0546 8.32755 17.1613 8.26008C17.2707 8.19687 17.3806 8.13336 17.491 8.06955C18.3669 7.54707 19.3167 7.08432 20.289 6.66563C20.5338 6.5649 20.779 6.46405 21.0243 6.36315C21.273 6.27263 21.5218 6.18211 21.7703 6.0917C22.0178 5.99776 22.2698 5.92189 22.5201 5.84223C22.6453 5.80279 22.7703 5.76341 22.8952 5.72409C22.9577 5.70477 23.0198 5.6843 23.0824 5.66611L23.2706 5.61478C23.5214 5.54695 23.7711 5.47948 24.0193 5.41237C24.2679 5.34802 24.5168 5.29628 24.763 5.23889C24.8862 5.2111 25.0089 5.18337 25.1311 5.15581C25.2535 5.12952 25.3758 5.10899 25.4972 5.08558C25.7404 5.04062 25.9812 4.99608 26.2194 4.95208L26.1108 4.30078C24.5551 4.56094 23.0029 4.95358 21.4898 5.49101C19.9768 6.02765 18.5043 6.70969 17.1118 7.52606C15.7191 8.34195 14.4066 9.29027 13.2027 10.3421C12.9079 10.6105 12.6093 10.8761 12.3202 11.1496L11.8961 11.568L11.6846 11.7778L11.579 11.8827L11.4781 11.9886C10.9371 12.5475 10.4183 13.1359 9.9162 13.742L10.4336 14.1523Z" fill="#3B5A4F"/>
<path d="M7.4016 11.6557C7.42057 11.6323 7.52592 11.5007 7.71662 11.2797C7.81177 11.1687 7.92726 11.034 8.06214 10.8767C8.19985 10.7235 8.3573 10.5483 8.5336 10.3522C8.70978 10.1555 8.91117 9.94899 9.12841 9.71836C9.2343 9.60407 9.35946 9.48347 9.4836 9.35916C9.60923 9.23496 9.73955 9.10608 9.87449 8.9727C10.1399 8.70318 10.4478 8.43209 10.7667 8.14048C11.0818 7.8458 11.4413 7.55587 11.811 7.24601C11.9046 7.16953 11.9963 7.08958 12.0948 7.01382C12.1932 6.93807 12.2927 6.86147 12.3933 6.78404C12.5953 6.63013 12.8018 6.47279 13.0126 6.31222C13.2281 6.15693 13.4515 6.0023 13.6781 5.84382C13.7917 5.76501 13.9065 5.68541 14.0222 5.60515C14.1385 5.52562 14.2603 5.45094 14.381 5.37285C14.6241 5.21906 14.8713 5.0625 15.1227 4.90343C15.3806 4.75444 15.6427 4.60299 15.9089 4.4492C15.9756 4.41114 16.0426 4.37291 16.1099 4.33449L16.211 4.27699L16.3144 4.22272C16.4527 4.15063 16.592 4.07793 16.7323 4.00476C17.0139 3.86069 17.2964 3.70732 17.5925 3.57418C19.9346 2.44615 22.6785 1.56266 25.574 1.07806L25.4654 0.426758C23.6981 0.722093 21.9199 1.17056 20.1783 1.78909C18.4369 2.40647 16.7342 3.19463 15.1255 4.13802C13.5163 5.08063 12.0018 6.17614 10.6206 7.38275C10.2821 7.68925 9.94028 7.99449 9.60947 8.30747L9.12487 8.78499L8.8835 9.02474L8.76308 9.14486L8.64927 9.26407C8.04125 9.89262 7.45382 10.5573 6.88458 11.2449L7.4016 11.6557Z" fill="#3B5A4F"/>
<path d="M26.812 8.44502C26.8292 8.44087 27.0199 8.41434 27.3488 8.36614C27.4311 8.3542 27.522 8.34093 27.6211 8.32652C27.6706 8.31932 27.7222 8.31181 27.7756 8.30401C27.8292 8.29723 27.8851 8.29243 27.9426 8.28625C28.1731 8.26253 28.434 8.23564 28.7211 8.20611C28.7927 8.1974 28.8664 8.19326 28.9416 8.18942C29.0168 8.18516 29.0936 8.18083 29.1719 8.17645C29.3284 8.16763 29.491 8.15839 29.6591 8.1489C29.8271 8.13569 30.001 8.13924 30.1796 8.13636C30.3583 8.13462 30.5419 8.13287 30.73 8.13107C30.824 8.12807 30.919 8.13479 31.015 8.13767C31.1111 8.14134 31.2081 8.145 31.3062 8.14872C31.4042 8.15244 31.5033 8.15617 31.6032 8.15995C31.7031 8.16427 31.804 8.16535 31.9052 8.17621C32.1078 8.19356 32.3137 8.21121 32.5223 8.2291C32.6265 8.2393 32.732 8.24417 32.837 8.25887C32.942 8.27298 33.0477 8.28715 33.154 8.30137C33.3663 8.33103 33.5816 8.35581 33.7971 8.39015C34.0118 8.42935 34.2282 8.46885 34.4457 8.50859L34.6091 8.53836L34.6909 8.55325L34.772 8.57198C34.8801 8.59707 34.9885 8.62216 35.0971 8.64731C35.2056 8.67246 35.3143 8.69761 35.4231 8.72283C35.5318 8.74828 35.6412 8.77133 35.7482 8.8038C35.9633 8.86431 36.1785 8.92482 36.3933 8.98515L36.5542 9.03035L36.7129 9.08239C36.8185 9.11739 36.9239 9.15226 37.0291 9.18708C37.1342 9.22189 37.2392 9.25659 37.3438 9.29123C37.396 9.30887 37.4486 9.32508 37.5002 9.34381L37.6539 9.40246C37.8586 9.48049 38.0617 9.55793 38.2629 9.63464C39.8649 10.2711 41.253 11.0575 42.2451 11.6822L42.5973 11.1237C41.4294 10.3868 40.2038 9.73489 38.9271 9.19572C37.6509 8.65626 36.3237 8.23048 34.9659 7.93916C33.6084 7.64719 32.2212 7.49028 30.8332 7.47017C29.4455 7.44916 28.0558 7.56705 26.6932 7.79564L26.812 8.44502Z" fill="#3B5A4F"/>
<path d="M27.3442 11.5912C27.3562 11.5895 27.5457 11.562 27.8728 11.5145C27.9545 11.5025 28.0449 11.4892 28.1433 11.4747C28.2415 11.4605 28.3456 11.4534 28.4581 11.441C28.5703 11.4294 28.6897 11.4171 28.8158 11.4042C28.9418 11.3912 29.0745 11.3742 29.213 11.3699C30.3212 11.2872 31.8106 11.2995 33.3386 11.5497C33.5291 11.5845 33.7205 11.6195 33.9125 11.6545C33.9605 11.6634 34.0087 11.6711 34.0566 11.6809L34.1995 11.7146L34.4857 11.7812L34.7719 11.8469C34.8197 11.8568 34.8671 11.8692 34.9141 11.8834L35.0553 11.9236C35.2437 11.9763 35.4314 12.0289 35.6178 12.081C35.8024 12.1421 35.9856 12.2029 36.167 12.263C36.2575 12.2935 36.3484 12.3211 36.4376 12.3531C36.5262 12.3872 36.6144 12.421 36.7019 12.4547C36.8769 12.5224 37.0504 12.5858 37.2198 12.6529C37.3876 12.7256 37.5525 12.797 37.7138 12.867C37.7946 12.9017 37.8745 12.9359 37.9535 12.9698C38.0314 13.0074 38.1083 13.0446 38.1842 13.0812C38.3361 13.1545 38.484 13.2258 38.6272 13.295C38.663 13.3121 38.6986 13.3292 38.7339 13.3461C38.7686 13.3647 38.8031 13.3832 38.8372 13.4015C38.9054 13.4381 38.9725 13.4741 39.0383 13.5094C39.17 13.5796 39.2966 13.6471 39.4176 13.7117C39.4478 13.7278 39.4777 13.7438 39.5073 13.7595C39.5363 13.7766 39.565 13.7935 39.5933 13.8102C39.6499 13.8436 39.7052 13.876 39.7588 13.9077C39.8663 13.9706 39.9677 14.0301 40.0624 14.0855C40.2533 14.193 40.4124 14.2981 40.542 14.381L40.8943 13.8225C38.8268 12.5159 36.6082 11.5542 34.302 11.0605C33.1494 10.8123 31.9761 10.6789 30.794 10.6611L29.9061 10.6691L29.0162 10.7192L28.1255 10.8108L27.2268 10.9415L27.3442 11.5912Z" fill="#3B5A4F"/>
<path d="M26.2313 4.95128C26.2546 4.94618 26.4379 4.92019 26.7558 4.87349C26.9148 4.85049 27.1074 4.8227 27.3305 4.79047C27.5577 4.76664 27.8159 4.73956 28.1019 4.70955C28.2451 4.69532 28.3949 4.67893 28.5518 4.66501C28.7096 4.65582 28.874 4.64628 29.0446 4.63638C29.2152 4.62689 29.392 4.61711 29.5745 4.60696C29.6202 4.60462 29.6662 4.60228 29.7126 4.59988C29.7591 4.59928 29.8061 4.59874 29.8534 4.59814C29.948 4.59706 30.044 4.59604 30.1413 4.59496C30.336 4.59328 30.536 4.59154 30.7411 4.58974C30.8435 4.58733 30.9475 4.59118 31.0527 4.59538C31.1578 4.59922 31.2642 4.60312 31.3717 4.60702C31.5867 4.61561 31.8063 4.62431 32.0301 4.6332C32.2537 4.65204 32.4813 4.67125 32.7127 4.69076C33.1764 4.72192 33.6511 4.79659 34.1386 4.86034C34.1994 4.86916 34.2607 4.87589 34.3216 4.88651C34.3824 4.89744 34.4435 4.90842 34.5046 4.91941C34.627 4.94162 34.75 4.96395 34.8736 4.9864C34.9971 5.00909 35.1213 5.03196 35.2461 5.05489C35.3083 5.06683 35.3712 5.0771 35.4334 5.09061C35.4954 5.10483 35.5576 5.11906 35.6198 5.13328C35.8688 5.19103 36.1198 5.2492 36.3726 5.30778C36.4995 5.33528 36.6241 5.37165 36.7495 5.40659C36.8749 5.44176 37.0007 5.477 37.1267 5.51236C37.2527 5.54795 37.379 5.58367 37.5056 5.61945L37.6005 5.6464L37.6941 5.67707L37.8814 5.73866C38.1312 5.82156 38.3819 5.9047 38.633 5.98802C40.6218 6.7015 42.5269 7.65762 44.1344 8.68644L44.4866 8.12794C43.171 7.29794 41.7744 6.55353 40.3042 5.93261C38.8348 5.31145 37.2916 4.8155 35.7071 4.4758C34.1231 4.13509 32.4996 3.95188 30.8838 3.92871C30.4806 3.93069 30.0772 3.93447 29.6741 3.9403L28.4712 4.00849L27.2785 4.13125C26.8887 4.18647 26.4998 4.24194 26.1108 4.30196L26.2313 4.95128Z" fill="#3B5A4F"/>
<path d="M25.5875 1.07607C25.6174 1.06995 25.7829 1.04618 26.0729 1.00326C26.2179 0.982246 26.3939 0.956795 26.5996 0.927021C26.7034 0.913275 26.8104 0.894547 26.9324 0.882301C27.0534 0.869455 27.182 0.855768 27.3177 0.841302C27.5894 0.813869 27.8901 0.783496 28.2182 0.750361C28.55 0.731212 28.9096 0.710503 29.2954 0.688293C29.3919 0.68349 29.4901 0.678567 29.5898 0.673584C29.6903 0.672204 29.7924 0.670763 29.8962 0.669263C30.1037 0.667222 30.3176 0.66512 30.5377 0.662959C30.6477 0.662359 30.7593 0.66176 30.8724 0.6611C30.9856 0.66104 31.1011 0.667403 31.2177 0.670644C31.451 0.679408 31.6903 0.688471 31.9355 0.697716C32.0581 0.703418 32.182 0.70648 32.3075 0.715124C32.433 0.725389 32.5601 0.735714 32.6885 0.746219C32.9451 0.768549 33.2075 0.791419 33.4752 0.81471C33.6092 0.824614 33.7437 0.845803 33.88 0.862491C34.016 0.880499 34.1535 0.898687 34.2922 0.917056C34.4309 0.935965 34.5709 0.955053 34.7121 0.974262C34.7826 0.984287 34.8535 0.994371 34.9247 1.00452C34.9955 1.01706 35.0666 1.02967 35.138 1.04233C35.4234 1.09444 35.7137 1.1475 36.0089 1.20141C36.0825 1.21557 36.1569 1.2283 36.2307 1.24397C36.3042 1.26065 36.3781 1.2774 36.4522 1.29415C36.6005 1.32825 36.7498 1.36258 36.9004 1.39716C37.5056 1.5276 38.1116 1.70966 38.7382 1.88662C39.9768 2.27254 41.2459 2.75246 42.5093 3.33184C43.7708 3.91345 45.0151 4.60047 46.2302 5.36384L46.5824 4.80534C45.1033 3.87215 43.5173 3.02522 41.8326 2.31384C40.1493 1.60215 38.3668 1.02835 36.5311 0.634928C34.6961 0.240187 32.8107 0.0276288 30.9427 0.000976562C30.477 0.00187698 30.0112 0.00643914 29.5458 0.0141827C29.084 0.0374734 28.6221 0.0633452 28.1608 0.0925786C27.7045 0.136819 27.2483 0.183761 26.7925 0.233343C26.3499 0.294992 25.9097 0.358201 25.4683 0.426692L25.5875 1.07607Z" fill="#3B5A4F"/>
<path d="M42.2538 11.6882C42.2688 11.6978 42.4311 11.8014 42.7116 11.9804C42.9902 12.1627 43.3817 12.4294 43.8528 12.7661C44.3213 13.1063 44.8697 13.5164 45.4579 13.9905C46.0455 14.4654 46.6744 15.0017 47.3128 15.5814C48.5915 16.7388 49.9019 18.0747 51.068 19.3567C51.6506 19.998 52.1984 20.6263 52.7006 21.2034C52.9519 21.4922 53.1918 21.7679 53.4174 22.0272C53.6401 22.2864 53.8669 22.5284 54.0308 22.7517L54.5518 22.3459L54.3796 22.1268C54.3504 22.0881 54.3234 22.0609 54.2952 22.0277L54.2114 21.9323L53.8769 21.5494L53.2082 20.7808C52.7619 20.2677 52.3134 19.7542 51.8571 19.2453C50.9424 18.2274 49.9995 17.2356 49.0175 16.2785C48.0358 15.3218 47.0139 14.4032 45.9466 13.5369C45.4115 13.1055 44.8668 12.6854 44.3097 12.2814C43.7504 11.8799 43.1842 11.4898 42.5972 11.124L42.2538 11.6882Z" fill="#3B5A4F"/>
<path d="M40.5577 14.3915C40.5681 14.3981 40.7318 14.5024 41.0143 14.6824C41.1564 14.7787 41.3284 14.8952 41.526 15.029C41.6238 15.0982 41.7278 15.1719 41.8377 15.2497C41.948 15.3268 42.0635 15.4091 42.1825 15.4983C43.1441 16.1948 44.3992 17.2153 45.6557 18.3941C46.2847 18.9821 46.9154 19.6072 47.5192 20.2344C47.6696 20.3924 47.819 20.5492 47.9669 20.7044C48.1136 20.8618 48.2589 21.0176 48.4022 21.1712C48.6844 21.4765 48.9579 21.7806 49.2217 22.0772C49.7489 22.6704 50.2357 23.233 50.6538 23.7135C50.8647 23.9555 51.056 24.1749 51.2237 24.3672C51.3087 24.4642 51.3877 24.5543 51.4602 24.637C51.4817 24.67 51.4948 24.6904 51.5122 24.712L52.0332 24.3063C52.0104 24.2773 51.9885 24.2476 51.9676 24.217L51.9598 24.2054L51.9393 24.1819L51.8965 24.1331L51.8109 24.0356L51.471 23.6466L50.8005 22.8758C50.3572 22.3662 49.9195 21.8652 49.4824 21.3777C49.2634 21.1338 49.0466 20.8949 48.8254 20.6569L48.4924 20.2994L48.1569 19.9461C47.7078 19.4779 47.2556 19.015 46.7938 18.5678C45.8726 17.6698 44.9235 16.8173 43.9424 16.0206C43.4507 15.6243 42.9525 15.2395 42.4452 14.8715C41.9376 14.5073 41.4176 14.1483 40.9023 13.8281L40.5577 14.3915Z" fill="#3B5A4F"/>
<path d="M44.1444 8.69285C44.1642 8.70545 44.3187 8.8042 44.5868 8.9754C44.723 9.06034 44.8786 9.16652 45.0593 9.28946C45.1497 9.35093 45.2464 9.41654 45.3489 9.48617C45.4499 9.55742 45.5567 9.63276 45.6689 9.71194C46.5668 10.3447 47.7773 11.2668 49.072 12.4047C50.3703 13.5393 51.7498 14.8874 53.0628 16.2958C53.3906 16.6454 53.7225 17.0082 54.0404 17.3638C54.3597 17.7204 54.6711 18.0744 54.975 18.4221C55.2744 18.766 55.571 19.1068 55.8631 19.4424C56.0066 19.607 56.1491 19.7703 56.2901 19.932C56.3602 20.012 56.4301 20.0917 56.4995 20.1708L56.5125 20.1857L56.5287 20.2047L56.5717 20.2575L56.6571 20.3631C56.7133 20.434 56.7693 20.5047 56.8251 20.5752L57.3461 20.1695C57.2508 20.0474 57.1539 19.9263 57.0557 19.8065L57.0188 19.7616L56.9974 19.7371L56.9566 19.6905L56.8749 19.5974L56.5466 19.2217L55.8806 18.4561C55.4311 17.9395 54.971 17.4124 54.4937 16.8801C54.2553 16.6146 54.0103 16.3446 53.7644 16.0801L53.3965 15.6852L53.0234 15.2923C52.5225 14.77 52.0147 14.2507 51.4887 13.741C50.4408 12.7197 49.3386 11.7281 48.1765 10.7849C47.5937 10.3147 46.9979 9.8554 46.386 9.41168C45.7699 8.96939 45.1527 8.54392 44.4867 8.12793L44.1444 8.69285Z" fill="#3B5A4F"/>
<path d="M46.2411 5.37151C46.266 5.38735 46.4045 5.47583 46.6467 5.63053C46.8958 5.78618 47.2174 6.00642 47.6321 6.28981C48.4542 6.86019 49.5993 7.70316 50.9129 8.80784C52.2281 9.91049 53.6983 11.2801 55.2039 12.8445C55.3903 13.0404 55.5791 13.2388 55.7703 13.4396C55.9581 13.6417 56.1484 13.8464 56.3407 14.0533C56.7292 14.476 57.1098 14.9015 57.4832 15.3252C57.8434 15.7375 58.2105 16.1579 58.584 16.5854C58.7614 16.7892 58.9404 16.9948 59.1206 17.2019C59.2087 17.3025 59.297 17.4034 59.3858 17.5048L59.452 17.5802L59.4685 17.5991L59.5076 17.6457L59.5921 17.7476C59.7045 17.884 59.8152 18.0221 59.9242 18.1619L60.4452 17.7561C60.3076 17.5798 60.167 17.4055 60.0237 17.2337L59.9698 17.1694L59.9479 17.1443L59.9082 17.0991L59.8289 17.0086L59.5075 16.6408L58.8444 15.8785C58.3916 15.3581 57.9186 14.8162 57.4181 14.2578L57.0367 13.8359C56.9088 13.6958 56.7752 13.5491 56.647 13.4121L56.2589 12.9955L55.8641 12.5797C55.3334 12.0262 54.7933 11.4741 54.2302 10.9281C53.6676 10.3823 53.0931 9.84002 52.4955 9.30709C51.8977 8.77447 51.2854 8.24827 50.6509 7.73449C50.0152 7.22149 49.363 6.71859 48.6905 6.23092C48.3511 5.98943 48.0139 5.7465 47.6651 5.51293L47.4051 5.33663L47.2738 5.24851L47.1361 5.15997L46.5843 4.80713L46.2411 5.37151Z" fill="#3B5A4F"/>
</svg>
