<svg width="19" height="18" viewBox="0 0 19 18" fill="none" xmlns="http://www.w3.org/2000/svg">
<path d="M10.3995 0.336914C11.3839 0.339539 11.8835 0.344789 12.3149 0.357039L12.4846 0.363164C12.6806 0.370164 12.874 0.378914 13.1076 0.389414C14.0386 0.433164 14.6739 0.580164 15.2312 0.796289C15.8088 1.01854 16.2953 1.31954 16.7818 1.80516C17.2269 2.24243 17.5712 2.77158 17.7906 3.35566C18.0068 3.91304 18.1538 4.54829 18.1975 5.48016C18.208 5.71291 18.2167 5.90629 18.2237 6.10316L18.229 6.27291C18.2421 6.70341 18.2474 7.20304 18.2491 8.18741L18.25 8.84016V9.98641C18.2521 10.6246 18.2454 11.2629 18.2299 11.9009L18.2246 12.0707C18.2176 12.2675 18.2089 12.4609 18.1984 12.6937C18.1546 13.6255 18.0059 14.2599 17.7906 14.8182C17.5712 15.4022 17.2269 15.9314 16.7818 16.3687C16.3445 16.8138 15.8153 17.1581 15.2312 17.3775C14.6739 17.5937 14.0386 17.7407 13.1076 17.7844L12.4846 17.8107L12.3149 17.8159C11.8835 17.8282 11.3839 17.8343 10.3995 17.836L9.74675 17.8369H8.60138C7.96285 17.8392 7.32433 17.8325 6.686 17.8168L6.51625 17.8115C6.30854 17.8037 6.10087 17.7946 5.89325 17.7844C4.96225 17.7407 4.327 17.5937 3.76875 17.3775C3.18498 17.158 2.65614 16.8137 2.21913 16.3687C1.7737 15.9315 1.4291 15.4023 1.20938 14.8182C0.993252 14.2608 0.846252 13.6255 0.802502 12.6937L0.776252 12.0707L0.771877 11.9009C0.755747 11.2629 0.748455 10.6247 0.750002 9.98641V8.18741C0.74758 7.54919 0.753997 6.91096 0.769252 6.27291L0.775377 6.10316C0.782377 5.90629 0.791127 5.71291 0.801627 5.48016C0.845377 4.54829 0.992377 3.91391 1.2085 3.35566C1.42873 2.77134 1.77395 2.24217 2.22 1.80516C2.65676 1.36027 3.18529 1.01598 3.76875 0.796289C4.327 0.580164 4.96138 0.433164 5.89325 0.389414C6.126 0.378914 6.32025 0.370164 6.51625 0.363164L6.686 0.357914C7.32404 0.342368 7.96227 0.335659 8.6005 0.337789L10.3995 0.336914ZM9.5 4.71191C8.33968 4.71191 7.22688 5.17285 6.40641 5.99332C5.58594 6.81379 5.125 7.92659 5.125 9.08691C5.125 10.2472 5.58594 11.36 6.40641 12.1805C7.22688 13.001 8.33968 13.4619 9.5 13.4619C10.6603 13.4619 11.7731 13.001 12.5936 12.1805C13.4141 11.36 13.875 10.2472 13.875 9.08691C13.875 7.92659 13.4141 6.81379 12.5936 5.99332C11.7731 5.17285 10.6603 4.71191 9.5 4.71191ZM9.5 6.46191C9.84472 6.46186 10.1861 6.5297 10.5046 6.66156C10.8231 6.79343 11.1125 6.98674 11.3563 7.23045C11.6001 7.47416 11.7935 7.76351 11.9255 8.08196C12.0574 8.40042 12.1254 8.74176 12.1254 9.08648C12.1255 9.4312 12.0577 9.77255 11.9258 10.0911C11.7939 10.4096 11.6006 10.699 11.3569 10.9428C11.1132 11.1866 10.8238 11.38 10.5054 11.5119C10.1869 11.6439 9.8456 11.7119 9.50088 11.7119C8.80468 11.7119 8.137 11.4354 7.64472 10.9431C7.15244 10.4508 6.87588 9.78311 6.87588 9.08691C6.87588 8.39072 7.15244 7.72304 7.64472 7.23076C8.137 6.73847 8.80468 6.46191 9.50088 6.46191M14.0946 3.39941C13.8045 3.39941 13.5263 3.51465 13.3212 3.71977C13.1161 3.92488 13.0009 4.20308 13.0009 4.49316C13.0009 4.78324 13.1161 5.06144 13.3212 5.26656C13.5263 5.47168 13.8045 5.58691 14.0946 5.58691C14.3847 5.58691 14.6629 5.47168 14.868 5.26656C15.0731 5.06144 15.1884 4.78324 15.1884 4.49316C15.1884 4.20308 15.0731 3.92488 14.868 3.71977C14.6629 3.51465 14.3847 3.39941 14.0946 3.39941Z" fill="white"/>
</svg>
