<svg width="21" height="21" viewBox="0 0 21 21" fill="none" xmlns="http://www.w3.org/2000/svg">
<path d="M11.528 0.0830078C12.653 0.0860078 13.224 0.0920078 13.717 0.106008L13.911 0.113008C14.135 0.121008 14.356 0.131008 14.623 0.143008C15.687 0.193008 16.413 0.361008 17.05 0.608008C17.71 0.862008 18.266 1.20601 18.822 1.76101C19.3307 2.26074 19.7242 2.86548 19.975 3.53301C20.222 4.17001 20.39 4.89601 20.44 5.96101C20.452 6.22701 20.462 6.44801 20.47 6.67301L20.476 6.86701C20.491 7.35901 20.497 7.93001 20.499 9.05501L20.5 9.80101V11.111C20.5024 11.8404 20.4948 12.5698 20.477 13.299L20.471 13.493C20.463 13.718 20.453 13.939 20.441 14.205C20.391 15.27 20.221 15.995 19.975 16.633C19.7242 17.3005 19.3307 17.9053 18.822 18.405C18.3223 18.9137 17.7175 19.3072 17.05 19.558C16.413 19.805 15.687 19.973 14.623 20.023L13.911 20.053L13.717 20.059C13.224 20.073 12.653 20.08 11.528 20.082L10.782 20.083H9.473C8.74326 20.0856 8.01352 20.0779 7.284 20.06L7.09 20.054C6.85261 20.045 6.61527 20.0347 6.378 20.023C5.314 19.973 4.588 19.805 3.95 19.558C3.28283 19.3071 2.67844 18.9136 2.179 18.405C1.66995 17.9054 1.27611 17.3006 1.025 16.633C0.778001 15.996 0.61 15.27 0.56 14.205L0.53 13.493L0.525001 13.299C0.506567 12.5698 0.498232 11.8404 0.5 11.111V9.05501C0.497233 8.32561 0.504567 7.5962 0.522 6.86701L0.529 6.67301C0.537 6.44801 0.547 6.22701 0.559 5.96101C0.609 4.89601 0.777 4.17101 1.024 3.53301C1.27569 2.86521 1.67022 2.26044 2.18 1.76101C2.67915 1.25256 3.28319 0.859081 3.95 0.608008C4.588 0.361008 5.313 0.193008 6.378 0.143008C6.644 0.131008 6.866 0.121008 7.09 0.113008L7.284 0.107008C8.01319 0.0892405 8.7426 0.0815731 9.472 0.0840077L11.528 0.0830078ZM10.5 5.08301C9.17392 5.08301 7.90215 5.60979 6.96447 6.54747C6.02678 7.48515 5.5 8.75692 5.5 10.083C5.5 11.4091 6.02678 12.6809 6.96447 13.6185C7.90215 14.5562 9.17392 15.083 10.5 15.083C11.8261 15.083 13.0979 14.5562 14.0355 13.6185C14.9732 12.6809 15.5 11.4091 15.5 10.083C15.5 8.75692 14.9732 7.48515 14.0355 6.54747C13.0979 5.60979 11.8261 5.08301 10.5 5.08301ZM10.5 7.08301C10.894 7.08294 11.2841 7.16047 11.6481 7.31118C12.0121 7.46188 12.3428 7.6828 12.6215 7.96133C12.9001 8.23986 13.1211 8.57054 13.2719 8.93449C13.4228 9.29845 13.5004 9.68854 13.5005 10.0825C13.5006 10.4765 13.423 10.8666 13.2723 11.2306C13.1216 11.5946 12.9007 11.9254 12.6222 12.204C12.3436 12.4826 12.013 12.7036 11.649 12.8545C11.2851 13.0053 10.895 13.0829 10.501 13.083C9.70535 13.083 8.94229 12.7669 8.37968 12.2043C7.81707 11.6417 7.501 10.8787 7.501 10.083C7.501 9.28736 7.81707 8.52429 8.37968 7.96169C8.94229 7.39908 9.70535 7.08301 10.501 7.08301M15.751 3.58301C15.4195 3.58301 15.1015 3.7147 14.8671 3.94912C14.6327 4.18354 14.501 4.50149 14.501 4.83301C14.501 5.16453 14.6327 5.48247 14.8671 5.71689C15.1015 5.95131 15.4195 6.08301 15.751 6.08301C16.0825 6.08301 16.4005 5.95131 16.6349 5.71689C16.8693 5.48247 17.001 5.16453 17.001 4.83301C17.001 4.50149 16.8693 4.18354 16.6349 3.94912C16.4005 3.7147 16.0825 3.58301 15.751 3.58301Z" fill="white"/>
</svg>
