<svg width="70" height="82" viewBox="0 0 70 82" fill="none" xmlns="http://www.w3.org/2000/svg">
<path d="M51.0251 27.7565C58.9391 27.2918 63.1821 30.3077 63.3364 38.5836C63.9107 51.0439 64.6827 63.7397 63.0448 76.1217C62.3016 80.2816 57.6859 80.8216 54.2148 81.1543C42.0108 82.1874 29.7453 82.1085 17.5125 81.783C-1.16254 81.7877 0.743303 82.5201 0 63.6263C0.0495311 55.9552 0.109544 48.2839 0.192987 40.6129C0.177108 37.5308 0.472219 34.3872 1.78691 31.5616C3.90839 26.9231 9.79392 27.8351 13.9884 27.3258C13.4093 16.4073 16.787 1.10965 29.8218 0.0830278C45.634 -1.26804 51.9717 14.1235 51.0251 27.7565ZM32.3024 80.4984C38.8806 80.0049 51.192 80.9348 59.015 78.8548C63.3471 77.416 61.6913 68.3253 62.3366 64.4993C62.4107 54.2185 63.1449 43.6495 60.9798 33.55C60.0665 30.2573 56.6547 29.3857 53.6616 29.1082C45.5094 28.6942 37.3275 29.0585 29.1657 28.9685C21.5897 29.0649 13.8391 28.0343 6.37301 29.626C1.14069 31.4756 1.93405 38.5796 1.59947 43.1152C1.65074 50.7844 1.61987 58.4562 1.67259 66.1254C2.21354 69.8412 0.580415 78.8317 5.20766 79.8658C14.6087 80.3906 21.0527 80.1791 32.3024 80.4984ZM21.6152 27.3781C19.243 2.75503 46.3409 3.05402 42.6512 27.6032C43.8678 27.8449 48.6721 27.8892 49.5709 27.6702C50.1897 13.4062 43.857 -0.5947 28.7086 1.65939C17.2961 3.74115 15.0856 17.5798 15.3452 27.3781C17.4429 27.3781 19.4979 27.3781 21.6152 27.3781ZM23.0487 27.45C29.0648 27.4831 35.054 27.516 41.0813 27.5492C41.6398 21.5217 41.8062 13.3735 34.9226 11.0597C25.8119 7.94097 21.8962 20.373 23.0487 27.45Z" fill="#3B5A4F"/>
<path d="M65.4573 12.184C63.6597 15.9155 60.8205 19.314 57.9963 22.3451C57.0408 22.877 56.6664 21.5526 57.3525 20.9743C59.4941 18.007 61.6388 15.0419 63.7857 12.0783C64.1667 11.248 65.4084 11.0434 65.4573 12.184Z" fill="#3B5A4F"/>
<path d="M59.8282 9.28112C58.5955 12.9921 57.0682 16.6564 55.7298 20.3386C55.5977 20.7292 55.3459 21.2314 54.8528 21.0826C53.4826 20.2938 57.0283 13.0115 57.4074 11.3652C57.6849 10.4124 59.1048 6.65586 59.8282 9.28112Z" fill="#3B5A4F"/>
<path d="M58.7114 24.9695C57.8258 24.612 57.9684 23.8612 58.7622 23.4763C60.5599 22.8066 68.2653 17.144 69.2251 18.2502C69.7304 19.5739 60.2283 24.1968 58.7114 24.9695Z" fill="#3B5A4F"/>
<path d="M27.6132 63.4778C27.5304 61.7313 27.4296 59.9853 27.3761 58.2379C27.3606 57.7348 27.1762 57.4536 26.7801 57.1368C24.6677 55.4472 23.4577 53.2606 23.9065 50.5033C24.542 46.5983 29.0577 43.0792 33.4169 44.7715C38.3151 46.4573 39.9962 54.364 35.1744 57.0927C34.2843 57.6032 34.3173 57.6052 34.3516 58.6458C34.3894 62.303 34.742 65.9789 34.534 69.6291C34.0552 71.8945 30.8088 71.2631 29.1052 71.0504C26.6603 70.1629 28.0514 65.5887 27.6979 63.4779C27.6696 63.4779 27.6414 63.4779 27.6132 63.4778ZM32.8172 69.3125C33.3823 66.6984 31.5778 56.727 33.8526 56.0949C35.163 55.3805 36.3953 54.259 36.5119 52.6798C37.3056 45.6315 28.4176 43.7781 25.5381 49.778C24.6253 52.1649 26.3762 55.1698 28.3605 56.4745C28.9767 56.7875 29.1396 57.0077 29.055 57.7066C28.9306 61.4198 29.3397 65.1711 29.5796 68.8838C29.8391 70.0062 31.9172 69.4113 32.8172 69.3125Z" fill="#3B5A4F"/>
<path d="M58.4667 46.1803C58.2599 42.8646 58.5014 39.4929 57.9073 36.2178C57.4846 33.5626 54.5136 33.5921 52.4758 32.9699C51.8838 32.797 52.0923 32.2403 52.5465 32.0141C60.3048 30.9003 60.2852 37.9851 60.1656 43.7134C59.8849 45.6231 60.6775 55.1167 59.1245 55.4213C57.782 55.2529 58.6753 47.6997 58.4167 46.1815C58.4334 46.1811 58.4501 46.1807 58.4667 46.1803Z" fill="#3B5A4F"/>
<path d="M5.7719 75.0039C6.09859 76.8662 4.74421 77.4898 4.47483 75.364C4.4018 73.1484 2.72786 64.0807 4.24183 63.0293C5.65286 63.3257 5.31066 73.0673 5.7505 75.0041C5.75763 75.004 5.76477 75.0039 5.7719 75.0039Z" fill="#3B5A4F"/>
<path d="M58.0949 66.1833C58.4788 64.4142 57.9265 59.5843 59.2185 58.6396C60.7216 59.2147 59.1706 65.992 59.3261 67.735C59.2609 68.2463 59.1583 69.2998 58.524 69.2199C57.5307 68.8898 58.191 67.0401 58.0118 66.1832C58.0395 66.1833 58.0672 66.1832 58.0949 66.1833Z" fill="#3B5A4F"/>
</svg>
