<svg width="70" height="83" viewBox="0 0 70 83" fill="none" xmlns="http://www.w3.org/2000/svg">
<path d="M51.0251 27.796C58.9391 27.3313 63.1821 30.3473 63.3364 38.6231C63.9107 51.0834 64.6827 63.7792 63.0448 76.1613C62.3016 80.3211 57.6859 80.8611 54.2148 81.1938C42.0108 82.227 29.7453 82.1481 17.5125 81.8225C-1.16254 81.8272 0.743303 82.5596 0 63.6659C0.0495311 55.9948 0.109544 48.3235 0.192987 40.6525C0.177108 37.5703 0.472219 34.4267 1.78691 31.6012C3.90839 26.9627 9.79392 27.8747 13.9884 27.3653C13.4093 16.4469 16.787 1.1492 29.8218 0.122579C45.634 -1.22849 51.9717 14.1631 51.0251 27.796ZM32.3024 80.538C38.8806 80.0444 51.192 80.9744 59.015 78.8943C63.3471 77.4555 61.6913 68.3649 62.3366 64.5388C62.4107 54.258 63.1449 43.689 60.9798 33.5896C60.0665 30.2969 56.6547 29.4253 53.6616 29.1478C45.5094 28.7337 37.3275 29.0981 29.1657 29.0081C21.5897 29.1045 13.8391 28.0739 6.37301 29.6656C1.14069 31.5152 1.93405 38.6191 1.59947 43.1548C1.65074 50.8239 1.61987 58.4957 1.67259 66.1649C2.21354 69.8808 0.580415 78.8713 5.20766 79.9053C14.6087 80.4302 21.0527 80.2187 32.3024 80.538ZM21.6152 27.4176C19.243 2.79458 46.3409 3.09357 42.6512 27.6427C43.8678 27.8845 48.6721 27.9288 49.5709 27.7098C50.1897 13.4457 43.857 -0.55515 28.7086 1.69894C17.2961 3.7807 15.0856 17.6193 15.3452 27.4176C17.4429 27.4176 19.4979 27.4176 21.6152 27.4176ZM23.0487 27.4895C29.0648 27.5226 35.054 27.5556 41.0813 27.5887C41.6398 21.5612 41.8062 13.413 34.9226 11.0993C25.8119 7.98052 21.8962 20.4126 23.0487 27.4895Z" fill="#3B5A4F"/>
<path d="M65.4573 12.2235C63.6597 15.955 60.8205 19.3535 57.9963 22.3847C57.0408 22.9165 56.6664 21.5922 57.3525 21.0138C59.4941 18.0465 61.6388 15.0814 63.7857 12.1179C64.1667 11.2875 65.4084 11.083 65.4573 12.2235Z" fill="#3B5A4F"/>
<path d="M59.8282 9.32067C58.5955 13.0317 57.0682 16.696 55.7298 20.3781C55.5977 20.7688 55.3459 21.271 54.8528 21.1222C53.4826 20.3334 57.0283 13.0511 57.4074 11.4047C57.6849 10.452 59.1048 6.69541 59.8282 9.32067Z" fill="#3B5A4F"/>
<path d="M58.7114 25.009C57.8258 24.6515 57.9684 23.9007 58.7622 23.5159C60.5599 22.8461 68.2653 17.1836 69.2251 18.2898C69.7304 19.6134 60.2283 24.2364 58.7114 25.009Z" fill="#3B5A4F"/>
<path d="M27.6132 63.5174C27.5304 61.7709 27.4296 60.0249 27.3761 58.2774C27.3606 57.7743 27.1762 57.4932 26.7801 57.1764C24.6677 55.4868 23.4577 53.3001 23.9065 50.5429C24.542 46.6379 29.0577 43.1187 33.4169 44.8111C38.3151 46.4968 39.9962 54.4036 35.1744 57.1323C34.2843 57.6427 34.3173 57.6448 34.3516 58.6854C34.3894 62.3425 34.742 66.0185 34.534 69.6686C34.0552 71.9341 30.8088 71.3027 29.1052 71.0899C26.6603 70.2024 28.0514 65.6282 27.6979 63.5174C27.6696 63.5174 27.6414 63.5174 27.6132 63.5174ZM32.8172 69.352C33.3823 66.738 31.5778 56.7666 33.8526 56.1345C35.163 55.4201 36.3953 54.2985 36.5119 52.7194C37.3056 45.671 28.4176 43.8176 25.5381 49.8175C24.6253 52.2045 26.3762 55.2093 28.3605 56.514C28.9767 56.827 29.1396 57.0473 29.055 57.7462C28.9306 61.4593 29.3397 65.2107 29.5796 68.9233C29.8391 70.0458 31.9172 69.4508 32.8172 69.352Z" fill="#3B5A4F"/>
<path d="M58.4667 46.2199C58.2599 42.9042 58.5014 39.5324 57.9073 36.2574C57.4846 33.6022 54.5136 33.6317 52.4758 33.0095C51.8838 32.8366 52.0923 32.2799 52.5465 32.0537C60.3048 30.9399 60.2852 38.0246 60.1656 43.753C59.8849 45.6626 60.6775 55.1562 59.1245 55.4608C57.782 55.2925 58.6753 47.7393 58.4167 46.2211C58.4334 46.2207 58.4501 46.2202 58.4667 46.2199Z" fill="#3B5A4F"/>
<path d="M5.7719 75.0434C6.09859 76.9058 4.74421 77.5293 4.47483 75.4035C4.4018 73.1879 2.72786 64.1203 4.24183 63.0688C5.65286 63.3652 5.31066 73.1068 5.7505 75.0436C5.75763 75.0436 5.76477 75.0435 5.7719 75.0434Z" fill="#3B5A4F"/>
<path d="M58.0949 66.2228C58.4788 64.4538 57.9265 59.6238 59.2185 58.6792C60.7216 59.2543 59.1706 66.0316 59.3261 67.7745C59.2609 68.2859 59.1583 69.3394 58.524 69.2594C57.5307 68.9294 58.191 67.0796 58.0118 66.2228C58.0395 66.2228 58.0672 66.2228 58.0949 66.2228Z" fill="#3B5A4F"/>
</svg>
