<svg width="27" height="27" viewBox="0 0 27 27" fill="none" xmlns="http://www.w3.org/2000/svg">
<path d="M16.9003 11.8834C16.9003 11.4641 16.5603 11.124 16.1409 11.124H7.78782C7.36847 11.124 7.02844 11.4641 7.02844 11.8834C7.02844 12.3027 7.36847 12.6428 7.78782 12.6428H16.1409C16.5603 12.6428 16.9003 12.3027 16.9003 11.8834Z" fill="#1F1F1F"/>
<path d="M7.78611 14.959C7.36676 14.959 7.02673 15.299 7.02673 15.7184C7.02673 16.1377 7.36676 16.4777 7.78611 16.4777H12.215C12.6343 16.4777 12.9743 16.1377 12.9743 15.7184C12.9743 15.299 12.6343 14.959 12.215 14.959H7.78611Z" fill="#1F1F1F"/>
<path d="M21.9037 11.9249C21.4844 11.9249 21.1444 12.265 21.1444 12.6843V18.826C21.1444 19.9752 20.2095 20.91 19.0603 20.91H13.9809C13.8164 20.91 13.6561 20.9632 13.5244 21.0628L9.13863 24.361C9.02726 24.4445 8.92263 24.4099 8.87032 24.3812C8.81716 24.3542 8.72941 24.2876 8.73279 24.1517L8.81716 21.6964C8.82391 21.4905 8.74713 21.2906 8.60454 21.1429C8.46194 20.9944 8.26451 20.9109 8.05863 20.9109H4.53091C3.38173 20.9109 2.44685 19.9768 2.44685 18.8268V8.78619C2.44685 7.63278 3.38173 6.69453 4.53091 6.69453H13.8881C14.3074 6.69453 14.6475 6.3545 14.6475 5.93516C14.6475 5.51581 14.3074 5.17578 13.8881 5.17578H4.53091C2.54473 5.17578 0.928101 6.79578 0.928101 8.78703V18.8268C0.928101 20.813 2.54473 22.4305 4.53091 22.4305H7.27226L7.21488 24.1028C7.19463 24.7896 7.55998 25.414 8.17001 25.7304C8.43073 25.8662 8.71169 25.9329 8.99013 25.9329C9.36391 25.9329 9.73432 25.8122 10.0499 25.5768L14.234 22.4305H19.0594C21.0456 22.4305 22.6623 20.8138 22.6623 18.8268V12.6852C22.6631 12.265 22.3231 11.9249 21.9037 11.9249Z" fill="#1F1F1F"/>
<path d="M26.0086 4.69177C25.871 4.2699 25.5327 3.95434 25.1032 3.84802L23.1626 3.36455L22.1028 1.66862C21.6329 0.914305 20.4061 0.915992 19.9369 1.66862L18.8772 3.36455L16.9366 3.84802C16.5071 3.95434 16.1679 4.2699 16.0312 4.69177C15.8945 5.11365 15.9823 5.56843 16.2675 5.90846L17.5534 7.43902L17.4133 9.43365C17.3821 9.87577 17.5778 10.2951 17.9364 10.5558C18.1592 10.7178 18.4207 10.8014 18.6857 10.8014C18.8468 10.8014 19.0097 10.7701 19.1658 10.7069L21.0203 9.95762L22.874 10.7069C23.2849 10.8739 23.7439 10.8166 24.1034 10.5567C24.462 10.296 24.6577 9.87662 24.6273 9.43365L24.4873 7.43902L25.7732 5.90762C26.0575 5.56843 26.1461 5.11365 26.0086 4.69177ZM23.1263 6.69737C22.9998 6.8484 22.9365 7.04246 22.9508 7.2399L23.0858 9.15521L21.3055 8.43549C21.2144 8.39837 21.1173 8.37981 21.0212 8.37981C20.925 8.37981 20.8279 8.39837 20.7368 8.43549L18.9573 9.15521L19.0915 7.2399C19.105 7.0433 19.0417 6.8484 18.916 6.69737L17.6816 5.22755L19.5446 4.76265C19.7353 4.71455 19.9007 4.59559 20.0044 4.42852L21.022 2.80093L22.0396 4.42852C22.1442 4.59559 22.3087 4.7154 22.4994 4.76265L24.3624 5.22755L23.1263 6.69737Z" fill="#1F1F1F"/>
</svg>
