<svg width="24" height="24" viewBox="0 0 24 24" fill="none" xmlns="http://www.w3.org/2000/svg">
<g clip-path="url(#clip0_2094_295)">
<path d="M15.0225 10.5632C15.0225 10.1904 14.7203 9.88818 14.3475 9.88818H6.9225C6.54975 9.88818 6.2475 10.1904 6.2475 10.5632C6.2475 10.9359 6.54975 11.2382 6.9225 11.2382H14.3475C14.7203 11.2382 15.0225 10.9359 15.0225 10.5632Z" fill="#3B5A4F"/>
<path d="M6.92098 13.2969C6.54823 13.2969 6.24599 13.5991 6.24599 13.9719C6.24599 14.3446 6.54823 14.6469 6.92098 14.6469H10.8577C11.2305 14.6469 11.5327 14.3446 11.5327 13.9719C11.5327 13.5991 11.2305 13.2969 10.8577 13.2969H6.92098Z" fill="#3B5A4F"/>
<path d="M19.47 10.5998C19.0972 10.5998 18.795 10.9021 18.795 11.2748V16.7341C18.795 17.7556 17.964 18.5866 16.9425 18.5866H12.4275C12.2812 18.5866 12.1387 18.6338 12.0217 18.7223L8.12323 21.6541C8.02423 21.7283 7.93123 21.6976 7.88473 21.6721C7.83748 21.6481 7.75948 21.5888 7.76248 21.4681L7.83748 19.2856C7.84348 19.1026 7.77523 18.9248 7.64848 18.7936C7.52173 18.6616 7.34623 18.5873 7.16323 18.5873H4.02748C3.00598 18.5873 2.17498 17.7571 2.17498 16.7348V7.80984C2.17498 6.78459 3.00598 5.95059 4.02748 5.95059H12.345C12.7177 5.95059 13.02 5.64834 13.02 5.27559C13.02 4.90284 12.7177 4.60059 12.345 4.60059H4.02748C2.26198 4.60059 0.824978 6.04059 0.824978 7.81059V16.7348C0.824978 18.5003 2.26198 19.9381 4.02748 19.9381H6.46423L6.41323 21.4246C6.39523 22.0351 6.71998 22.5901 7.26223 22.8713C7.49398 22.9921 7.74373 23.0513 7.99123 23.0513C8.32348 23.0513 8.65273 22.9441 8.93323 22.7348L12.6525 19.9381H16.9417C18.7072 19.9381 20.1442 18.5011 20.1442 16.7348V11.2756C20.145 10.9021 19.8427 10.5998 19.47 10.5998Z" fill="#3B5A4F"/>
<path d="M23.1187 4.17052C22.9965 3.79552 22.6957 3.51502 22.314 3.42052L20.589 2.99077L19.647 1.48327C19.2292 0.81277 18.1387 0.81427 17.7217 1.48327L16.7797 2.99077L15.0547 3.42052C14.673 3.51502 14.3715 3.79552 14.25 4.17052C14.1285 4.54552 14.2065 4.94977 14.46 5.25202L15.603 6.61252L15.4785 8.38552C15.4507 8.77852 15.6247 9.15127 15.9435 9.38302C16.1415 9.52702 16.374 9.60127 16.6095 9.60127C16.7527 9.60127 16.8975 9.57352 17.0362 9.51727L18.6847 8.85127L20.3325 9.51727C20.6977 9.66577 21.1057 9.61477 21.4252 9.38377C21.744 9.15202 21.918 8.77927 21.891 8.38552L21.7665 6.61252L22.9095 5.25127C23.1622 4.94977 23.241 4.54552 23.1187 4.17052ZM20.5567 5.95327C20.4442 6.08752 20.388 6.26002 20.4007 6.43552L20.5207 8.13802L18.9382 7.49827C18.8572 7.46527 18.771 7.44877 18.6855 7.44877C18.6 7.44877 18.5137 7.46527 18.4327 7.49827L16.851 8.13802L16.9702 6.43552C16.9822 6.26077 16.926 6.08752 16.8142 5.95327L15.717 4.64677L17.373 4.23352C17.5425 4.19077 17.6895 4.08502 17.7817 3.93652L18.6862 2.48977L19.5907 3.93652C19.6837 4.08502 19.83 4.19152 19.9995 4.23352L21.6555 4.64677L20.5567 5.95327Z" fill="#3B5A4F"/>
</g>
<defs>
<clipPath id="clip0_2094_295">
<rect width="24" height="24" fill="white"/>
</clipPath>
</defs>
</svg>
