<svg width="12" height="13" viewBox="0 0 12 13" fill="none" xmlns="http://www.w3.org/2000/svg">
<path d="M0.621767 7.28974C0.4454 5.39135 1.2562 3.67177 2.60099 2.57928C3.1252 2.15306 3.90905 2.51804 3.90905 3.19166C3.90905 3.43906 3.79147 3.66687 3.60041 3.82119C2.64754 4.5977 2.07434 5.82246 2.21397 7.17461C2.39523 8.93583 3.80617 10.3615 5.56494 10.5574C7.86016 10.8146 9.80999 9.01666 9.80999 6.77289C9.80999 5.58241 9.25884 4.51686 8.39905 3.81874C8.20799 3.66442 8.09286 3.43661 8.09286 3.19166C8.09286 2.52539 8.86447 2.14816 9.38377 2.56458C10.6134 3.55664 11.4022 5.07291 11.4022 6.77289C11.4022 9.88135 8.76159 12.3872 5.60413 12.1594C2.99292 11.9757 0.864271 9.89605 0.621767 7.28974ZM5.99851 0.173828C5.55759 0.173828 5.20241 0.531461 5.20241 0.969928V4.63689C5.20241 5.07781 5.56004 5.43299 5.99851 5.43299C6.43697 5.43299 6.79461 5.07536 6.79461 4.63689V0.969928C6.79461 0.531461 6.43942 0.173828 5.99851 0.173828Z" fill="white"/>
</svg>
