<svg width="14" height="14" viewBox="0 0 14 14" fill="none" xmlns="http://www.w3.org/2000/svg">
<path d="M10.8893 2.49056C11.0846 2.2955 11.4012 2.29536 11.5964 2.49056C14.1348 5.02897 14.1348 9.14486 11.5964 11.6833C9.05795 14.2217 4.94205 14.2217 2.40365 11.6833C-0.134762 9.14486 -0.134762 5.02897 2.40365 2.49056C2.59884 2.29536 2.9154 2.2955 3.11068 2.49056C3.30594 2.68582 3.30594 3.00233 3.11068 3.19759C0.962794 5.34547 0.962793 8.82835 3.11068 10.9762C5.25856 13.1241 8.74144 13.1241 10.8893 10.9762C13.0372 8.82835 13.0372 5.34547 10.8893 3.19759C10.6941 3.00233 10.6941 2.68582 10.8893 2.49056ZM6.5 7.08691V1.08691C6.5 0.810772 6.72386 0.586914 7 0.586914C7.27614 0.586914 7.5 0.810772 7.5 1.08691V7.08691C7.5 7.36306 7.27614 7.58691 7 7.58691C6.72386 7.58691 6.5 7.36306 6.5 7.08691Z" fill="white"/>
</svg>
