<svg width="91" height="69" viewBox="0 0 91 69" fill="none" xmlns="http://www.w3.org/2000/svg">
<path d="M59.4543 65.3924C55.0729 65.3924 50.6919 65.3924 46.3104 65.3924C46.4617 65.5437 46.6132 65.6952 46.7644 65.8464C46.7644 59.9375 46.7644 54.0286 46.7644 48.12C46.6132 48.2712 46.4617 48.4225 46.3104 48.574C50.6919 48.574 55.0729 48.574 59.4543 48.574C59.3031 48.4225 59.1516 48.2712 59.0003 48.12C59.0003 54.0289 59.0003 59.9378 59.0003 65.8464C59.0003 66.4319 59.9083 66.4319 59.9083 65.8464C59.9083 59.9375 59.9083 54.0286 59.9083 48.12C59.9083 47.8725 59.7018 47.666 59.4543 47.666C55.0729 47.666 50.6919 47.666 46.3104 47.666C46.063 47.666 45.8565 47.8725 45.8565 48.12C45.8565 54.0289 45.8565 59.9378 45.8565 65.8464C45.8565 66.0939 46.063 66.3004 46.3104 66.3004C50.6919 66.3004 55.0729 66.3004 59.4543 66.3004C60.0396 66.3004 60.0396 65.3924 59.4543 65.3924Z" fill="#3B5A4F"/>
<path d="M90.2315 49.6965C90.2315 51.4159 88.8377 52.8094 87.1185 52.8094H18.646C16.9268 52.8094 15.533 51.4159 15.533 49.6965V3.65396C15.533 1.93484 16.9268 0.541016 18.646 0.541016H87.1185C88.8377 0.541016 90.2315 1.93484 90.2315 3.65396V49.6965Z" fill="white"/>
<path d="M89.7775 49.6964C89.6242 52.5406 87.0801 52.3553 85.0687 52.3553C82.6901 52.3553 80.3116 52.3553 77.9327 52.3553C70.1877 52.3553 62.4422 52.3553 54.6972 52.3553C42.6911 52.3553 30.6847 52.3553 18.6784 52.3553C15.7234 52.3553 15.987 49.4209 15.987 47.4109C15.987 44.4217 15.987 41.4325 15.987 38.4433C15.987 30.2272 15.987 22.0114 15.987 13.7953C15.987 10.9874 15.987 8.17979 15.987 5.37166C15.987 3.40505 16.0282 0.994856 18.7746 0.994856C23.0367 0.994856 27.2986 0.994856 31.5608 0.994856C47.3182 0.994856 63.0754 0.994856 78.8332 0.994856C81.0633 0.994856 83.2935 0.994856 85.5239 0.994856C87.4086 0.994856 89.7778 1.05245 89.7778 3.70182C89.7778 8.93961 89.7778 14.1774 89.7778 19.4152C89.7775 29.5089 89.7775 39.6026 89.7775 49.6964C89.7775 50.2818 90.6854 50.2818 90.6854 49.6964C90.6854 36.7631 90.6854 23.8299 90.6854 10.8966C90.6854 8.661 90.6854 6.42565 90.6854 4.19003C90.6854 1.93834 89.3528 0.0869141 86.9336 0.0869141C82.5508 0.0869141 78.1678 0.0869141 73.785 0.0869141C58.0506 0.0869141 42.316 0.0869141 26.5816 0.0869141C24.4121 0.0869141 22.2427 0.0869141 20.0732 0.0869141C18.2213 0.0869141 16.1865 0.171742 15.3722 2.24756C14.803 3.69845 15.0788 5.61628 15.0788 7.1367C15.0788 10.4222 15.0788 13.7073 15.0788 16.9928C15.0788 25.1479 15.0788 33.3028 15.0788 41.4582C15.0788 43.9089 15.0788 46.3598 15.0788 48.8105C15.0788 51.059 16.0788 53.2638 18.709 53.2638C30.8775 53.2638 43.046 53.2638 55.2147 53.2638C62.9089 53.2638 70.6028 53.2638 78.297 53.2638C80.6166 53.2638 82.9368 53.2638 85.2567 53.2638C86.9118 53.2638 88.4498 53.4039 89.75 52.1034C90.3858 51.4676 90.6382 50.5669 90.6852 49.6969C90.7168 49.1111 89.8089 49.1142 89.7775 49.6964Z" fill="#3B5A4F"/>
<path d="M28.8029 68.3757C41.7235 68.3757 54.644 68.3757 67.5645 68.3757C70.6967 68.3757 73.8291 68.3757 76.9615 68.3757C77.547 68.3757 77.547 67.4678 76.9615 67.4678C64.041 67.4678 51.1204 67.4678 38.1999 67.4678C35.0677 67.4678 31.9353 67.4678 28.8029 67.4678C28.2177 67.4678 28.2177 68.3757 28.8029 68.3757Z" fill="#3B5A4F"/>
<path d="M46.6314 28.2065C49.4851 25.843 52.3387 23.4795 55.1922 21.116C55.6436 20.7422 54.9977 20.1035 54.5502 20.474C51.6966 22.8375 48.8428 25.201 45.9893 27.5645C45.5379 27.9383 46.1841 28.577 46.6314 28.2065Z" fill="#3B5A4F"/>
<path d="M44.2105 35.5188C50.2058 30.6445 56.201 25.7698 62.1963 20.895C62.6508 20.5256 62.0044 19.8872 61.5543 20.2529C55.559 25.1275 49.5635 30.0022 43.5685 34.8768C43.114 35.2464 43.7607 35.8848 44.2105 35.5188Z" fill="#3B5A4F"/>
<path d="M50.1586 5.72728C51.9745 5.72728 53.7904 5.72728 55.6063 5.72728C56.1917 5.72728 56.1917 4.81934 55.6063 4.81934C53.7904 4.81934 51.9745 4.81934 50.1586 4.81934C49.5731 4.81934 49.5731 5.72728 50.1586 5.72728Z" fill="#3B5A4F"/>
<path d="M28.803 66.3005C41.7235 66.3005 54.644 66.3005 67.5646 66.3005C70.6967 66.3005 73.8291 66.3005 76.9615 66.3005C77.547 66.3005 77.547 65.3926 76.9615 65.3926C64.041 65.3926 51.1205 65.3926 38.1999 65.3926C35.0678 65.3926 31.9354 65.3926 28.803 65.3926C28.2177 65.3926 28.2177 66.3005 28.803 66.3005Z" fill="#3B5A4F"/>
<path d="M35.3721 64.8472C35.3721 66.4976 33.8133 67.8354 31.8911 67.8354H11.8743C9.95206 67.8354 8.39325 66.4976 8.39325 64.8472V33.5546C8.39325 31.9042 9.95206 30.5664 11.8743 30.5664H31.8911C33.8133 30.5664 35.3721 31.9042 35.3721 33.5546V64.8472Z" fill="white" stroke="#3B5A4F" stroke-width="1.33" stroke-miterlimit="10"/>
<path d="M15.7865 64.8089C15.7865 66.5281 14.3927 67.9219 12.6735 67.9219H4.11294C2.39382 67.9219 1 66.5281 1 64.8089V40.943C1 39.2236 2.39382 37.8301 4.11294 37.8301H12.6735C14.3927 37.8301 15.7865 39.2236 15.7865 40.943V64.8089Z" fill="white" stroke="#3B5A4F" stroke-width="1.33" stroke-miterlimit="10"/>
<path d="M18.4509 48.8407L22.3784 45.5879" stroke="#3B5A4F" stroke-width="0.665" stroke-miterlimit="10"/>
<path d="M17.757 52.8129L26.0081 46.1045" stroke="#3B5A4F" stroke-width="0.665" stroke-miterlimit="10"/>
<path d="M4.96148 52.5164L8.88898 49.2637" stroke="#3B5A4F" stroke-width="0.665" stroke-miterlimit="10"/>
<path d="M4.26753 56.4879L12.5187 49.7793" stroke="#3B5A4F" stroke-width="0.665" stroke-miterlimit="10"/>
<path d="M20.273 32.869C21.3462 32.869 22.4191 32.869 23.4923 32.869C23.7851 32.869 23.7851 32.415 23.4923 32.415C22.4191 32.415 21.3462 32.415 20.273 32.415C19.9801 32.415 19.9801 32.869 20.273 32.869Z" fill="#3B5A4F"/>
<path d="M6.78362 40.0028C7.85681 40.0028 8.92974 40.0028 10.0029 40.0028C10.2958 40.0028 10.2958 39.5488 10.0029 39.5488C8.92974 39.5488 7.85681 39.5488 6.78362 39.5488C6.49075 39.5488 6.49075 40.0028 6.78362 40.0028Z" fill="#3B5A4F"/>
</svg>
