<svg width="91" height="69" viewBox="0 0 91 69" fill="none" xmlns="http://www.w3.org/2000/svg">
<path d="M59.4543 65.3885C55.0729 65.3885 50.6919 65.3885 46.3104 65.3885C46.4617 65.5398 46.6132 65.6912 46.7644 65.8425C46.7644 59.9336 46.7644 54.0247 46.7644 48.1161C46.6132 48.2673 46.4617 48.4186 46.3104 48.5701C50.6919 48.5701 55.0729 48.5701 59.4543 48.5701C59.3031 48.4186 59.1516 48.2673 59.0003 48.1161C59.0003 54.025 59.0003 59.9339 59.0003 65.8425C59.0003 66.428 59.9083 66.428 59.9083 65.8425C59.9083 59.9336 59.9083 54.0247 59.9083 48.1161C59.9083 47.8686 59.7018 47.6621 59.4543 47.6621C55.0729 47.6621 50.6919 47.6621 46.3104 47.6621C46.063 47.6621 45.8565 47.8686 45.8565 48.1161C45.8565 54.025 45.8565 59.9339 45.8565 65.8425C45.8565 66.09 46.063 66.2965 46.3104 66.2965C50.6919 66.2965 55.0729 66.2965 59.4543 66.2965C60.0396 66.2965 60.0396 65.3885 59.4543 65.3885Z" fill="#3B5A4F"/>
<path d="M90.2315 49.6926C90.2315 51.412 88.8377 52.8055 87.1185 52.8055H18.646C16.9268 52.8055 15.533 51.412 15.533 49.6926V3.65005C15.533 1.93093 16.9268 0.537109 18.646 0.537109H87.1185C88.8377 0.537109 90.2315 1.93093 90.2315 3.65005V49.6926Z" fill="white"/>
<path d="M89.7775 49.6925C89.6242 52.5366 87.0801 52.3514 85.0687 52.3514C82.6901 52.3514 80.3116 52.3514 77.9327 52.3514C70.1877 52.3514 62.4422 52.3514 54.6972 52.3514C42.6911 52.3514 30.6847 52.3514 18.6784 52.3514C15.7234 52.3514 15.987 49.417 15.987 47.407C15.987 44.4178 15.987 41.4286 15.987 38.4394C15.987 30.2233 15.987 22.0075 15.987 13.7914C15.987 10.9835 15.987 8.17589 15.987 5.36775C15.987 3.40115 16.0282 0.99095 18.7746 0.99095C23.0367 0.99095 27.2986 0.99095 31.5608 0.99095C47.3182 0.99095 63.0754 0.99095 78.8332 0.99095C81.0633 0.99095 83.2935 0.99095 85.5239 0.99095C87.4086 0.99095 89.7778 1.04854 89.7778 3.69792C89.7778 8.93571 89.7778 14.1735 89.7778 19.4113C89.7775 29.505 89.7775 39.5987 89.7775 49.6925C89.7775 50.2779 90.6854 50.2779 90.6854 49.6925C90.6854 36.7592 90.6854 23.826 90.6854 10.8927C90.6854 8.65709 90.6854 6.42174 90.6854 4.18613C90.6854 1.93443 89.3528 0.0830078 86.9336 0.0830078C82.5508 0.0830078 78.1678 0.0830078 73.785 0.0830078C58.0506 0.0830078 42.316 0.0830078 26.5816 0.0830078C24.4121 0.0830078 22.2427 0.0830078 20.0732 0.0830078C18.2213 0.0830078 16.1865 0.167836 15.3722 2.24365C14.803 3.69454 15.0788 5.61238 15.0788 7.13279C15.0788 10.4182 15.0788 13.7034 15.0788 16.9889C15.0788 25.144 15.0788 33.2989 15.0788 41.4543C15.0788 43.905 15.0788 46.3559 15.0788 48.8066C15.0788 51.0551 16.0788 53.2599 18.709 53.2599C30.8775 53.2599 43.046 53.2599 55.2147 53.2599C62.9089 53.2599 70.6028 53.2599 78.297 53.2599C80.6166 53.2599 82.9368 53.2599 85.2567 53.2599C86.9118 53.2599 88.4498 53.4 89.75 52.0995C90.3858 51.4637 90.6382 50.563 90.6852 49.693C90.7168 49.1072 89.8089 49.1103 89.7775 49.6925Z" fill="#3B5A4F"/>
<path d="M28.8029 68.3718C41.7235 68.3718 54.644 68.3718 67.5645 68.3718C70.6967 68.3718 73.8291 68.3718 76.9615 68.3718C77.547 68.3718 77.547 67.4639 76.9615 67.4639C64.041 67.4639 51.1204 67.4639 38.1999 67.4639C35.0677 67.4639 31.9353 67.4639 28.8029 67.4639C28.2177 67.4639 28.2177 68.3718 28.8029 68.3718Z" fill="#3B5A4F"/>
<path d="M46.6314 28.2026C49.4851 25.8391 52.3387 23.4756 55.1922 21.1121C55.6436 20.7383 54.9977 20.0996 54.5502 20.4701C51.6966 22.8336 48.8428 25.1971 45.9893 27.5606C45.5379 27.9344 46.1841 28.5731 46.6314 28.2026Z" fill="#3B5A4F"/>
<path d="M44.2105 35.5149C50.2058 30.6406 56.201 25.7659 62.1963 20.8911C62.6508 20.5217 62.0044 19.8833 61.5543 20.249C55.559 25.1236 49.5635 29.9982 43.5685 34.8729C43.114 35.2425 43.7607 35.8809 44.2105 35.5149Z" fill="#3B5A4F"/>
<path d="M50.1586 5.72337C51.9745 5.72337 53.7904 5.72337 55.6063 5.72337C56.1917 5.72337 56.1917 4.81543 55.6063 4.81543C53.7904 4.81543 51.9745 4.81543 50.1586 4.81543C49.5731 4.81543 49.5731 5.72337 50.1586 5.72337Z" fill="#3B5A4F"/>
<path d="M28.803 66.2966C41.7235 66.2966 54.644 66.2966 67.5646 66.2966C70.6967 66.2966 73.8291 66.2966 76.9615 66.2966C77.547 66.2966 77.547 65.3887 76.9615 65.3887C64.041 65.3887 51.1205 65.3887 38.1999 65.3887C35.0678 65.3887 31.9354 65.3887 28.803 65.3887C28.2177 65.3887 28.2177 66.2966 28.803 66.2966Z" fill="#3B5A4F"/>
<path d="M35.3721 64.8433C35.3721 66.4937 33.8133 67.8315 31.8911 67.8315H11.8743C9.95206 67.8315 8.39325 66.4937 8.39325 64.8433V33.5507C8.39325 31.9003 9.95206 30.5625 11.8743 30.5625H31.8911C33.8133 30.5625 35.3721 31.9003 35.3721 33.5507V64.8433Z" fill="white" stroke="#3B5A4F" stroke-width="1.33" stroke-miterlimit="10"/>
<path d="M15.7865 64.805C15.7865 66.5241 14.3927 67.918 12.6735 67.918H4.11294C2.39382 67.918 1 66.5241 1 64.805V40.9391C1 39.2197 2.39382 37.8262 4.11294 37.8262H12.6735C14.3927 37.8262 15.7865 39.2197 15.7865 40.9391V64.805Z" fill="white" stroke="#3B5A4F" stroke-width="1.33" stroke-miterlimit="10"/>
<path d="M18.4509 48.8368L22.3784 45.584" stroke="#3B5A4F" stroke-width="0.665" stroke-miterlimit="10"/>
<path d="M17.757 52.809L26.0081 46.1006" stroke="#3B5A4F" stroke-width="0.665" stroke-miterlimit="10"/>
<path d="M4.96148 52.5125L8.88898 49.2598" stroke="#3B5A4F" stroke-width="0.665" stroke-miterlimit="10"/>
<path d="M4.26753 56.484L12.5187 49.7754" stroke="#3B5A4F" stroke-width="0.665" stroke-miterlimit="10"/>
<path d="M20.273 32.8651C21.3462 32.8651 22.4191 32.8651 23.4923 32.8651C23.7851 32.8651 23.7851 32.4111 23.4923 32.4111C22.4191 32.4111 21.3462 32.4111 20.273 32.4111C19.9801 32.4111 19.9801 32.8651 20.273 32.8651Z" fill="#3B5A4F"/>
<path d="M6.78362 39.9989C7.85681 39.9989 8.92974 39.9989 10.0029 39.9989C10.2958 39.9989 10.2958 39.5449 10.0029 39.5449C8.92974 39.5449 7.85681 39.5449 6.78362 39.5449C6.49075 39.5449 6.49075 39.9989 6.78362 39.9989Z" fill="#3B5A4F"/>
</svg>
