<svg width="18" height="18" viewBox="0 0 18 18" fill="none" xmlns="http://www.w3.org/2000/svg">
<g clip-path="url(#clip0_4001_114)">
<path d="M9 -0.00415039C5.20358 -0.00415039 2.115 3.08447 2.115 6.88085C2.115 10.6772 5.20362 13.7658 9 13.7658C12.7964 13.7658 15.885 10.6772 15.885 6.88085C15.885 3.08447 12.7964 -0.00415039 9 -0.00415039ZM12.2308 11.3277L9 9.79878L5.76918 11.3277L6.22487 7.78257L3.77244 5.18238L7.28487 4.52028L9 1.38428L10.7151 4.52021L14.2276 5.18231L11.7751 7.78254L12.2308 11.3277Z" fill="#3B5A4F"/>
<path d="M10.0293 5.46419L9 3.58228L7.97073 5.46419L5.86283 5.86152L7.33462 7.42197L7.06114 9.54948L9 8.63194L10.9389 9.54948L10.6654 7.42197L12.1372 5.86152L10.0293 5.46419Z" fill="#3B5A4F"/>
<path d="M4.19045 15.586C4.65609 15.5183 5.10202 15.3608 5.50772 15.1204V14.0152C5.04545 13.7885 4.60448 13.5156 4.19045 13.1991V15.586Z" fill="#3B5A4F"/>
<path d="M12.4923 15.1204C12.898 15.3608 13.3439 15.5183 13.8096 15.586V13.1991C13.3955 13.5156 12.9546 13.7884 12.4923 14.0152V15.1204Z" fill="#3B5A4F"/>
<path d="M6.56241 14.4407V17.9958C7.34319 17.8831 8.06112 17.5205 8.62341 16.9468L9 16.5626L9.3766 16.9468C9.93889 17.5204 10.6568 17.8831 11.4376 17.9958V14.4407C10.6602 14.6904 9.84013 14.8205 9 14.8205C8.15987 14.8205 7.33985 14.6904 6.56241 14.4407Z" fill="#3B5A4F"/>
</g>
<defs>
<clipPath id="clip0_4001_114">
<rect width="18" height="18" fill="white" transform="translate(0 -0.00415039)"/>
</clipPath>
</defs>
</svg>
