<svg width="13" height="18" viewBox="0 0 13 18" fill="none" xmlns="http://www.w3.org/2000/svg">
<path d="M6.5 0.5C2.91449 0.5 -0.00250053 3.41703 -0.00250053 7.0025C-0.00250053 10.588 2.91453 13.505 6.5 13.505C10.0855 13.505 13.0025 10.588 13.0025 7.0025C13.0025 3.41703 10.0855 0.5 6.5 0.5ZM9.55133 11.2023L6.5 9.75833L3.44867 11.2023L3.87904 7.85413L1.56286 5.39839L4.88015 4.77308L6.5 1.81129L8.11981 4.77301L11.4371 5.39832L9.12095 7.85409L9.55133 11.2023Z" fill="#3B5A4F"/>
<path d="M7.47209 5.66457L6.5 3.88721L5.52791 5.66457L3.53712 6.03983L4.92713 7.51359L4.66885 9.52291L6.5 8.65634L8.33115 9.52291L8.07286 7.51359L9.46288 6.03983L7.47209 5.66457Z" fill="#3B5A4F"/>
<path d="M1.95765 15.224C2.39742 15.1601 2.81857 15.0113 3.20173 14.7842V13.7405C2.76515 13.5263 2.34868 13.2687 1.95765 12.9697V15.224Z" fill="#3B5A4F"/>
<path d="M9.79827 14.7842C10.1814 15.0113 10.6026 15.1601 11.0424 15.224V12.9697C10.6513 13.2687 10.2349 13.5263 9.79827 13.7405V14.7842Z" fill="#3B5A4F"/>
<path d="M4.19783 14.1423V17.5C4.93523 17.3935 5.61328 17.051 6.14433 16.5093L6.5 16.1464L6.85567 16.5093C7.38672 17.051 8.06476 17.3935 8.80217 17.5V14.1423C8.06792 14.3782 7.29345 14.5011 6.5 14.5011C5.70654 14.5011 4.93208 14.3782 4.19783 14.1423Z" fill="#3B5A4F"/>
</svg>
