<svg width="316" height="144" viewBox="0 0 316 144" fill="none" xmlns="http://www.w3.org/2000/svg">
<path d="M30.0753 15.4817L30.0703 26.4446L30.0689 29.4069C12.9786 36.0972 0.85582 52.6914 0.847053 72.1517C0.837746 91.617 12.9455 108.219 30.03 114.926L30.0282 117.889L30.0232 128.852C30.0191 136.924 36.561 143.473 44.6329 143.477L55.5968 143.482L260.851 143.575L271.811 143.581C279.884 143.585 286.431 137.04 286.435 128.969L286.439 118.077C286.44 118.052 286.446 118.03 286.444 118.007L286.445 115.041C303.531 108.349 315.654 91.759 315.664 72.2954C315.672 52.8351 303.564 36.2344 286.487 29.5267L286.488 26.5624C286.487 26.5399 286.481 26.515 286.483 26.4908L286.489 15.5993C286.491 7.52657 279.949 0.978479 271.877 0.974393L260.917 0.970027L55.662 0.875874L44.6991 0.870849C36.6275 0.867457 30.0785 7.40934 30.0753 15.4817ZM40.2468 72.1712C40.2441 77.7159 35.7468 82.2083 30.2028 82.2053C24.659 82.203 20.1661 77.7067 20.1682 72.1622C20.171 66.6175 24.6687 62.1264 30.2123 62.1281C35.7559 62.1321 40.2492 66.6274 40.2468 72.1712Z" fill="#262626"/>
<path d="M220.967 138.594C221.671 138.595 222.24 139.165 222.239 139.865C222.239 140.567 221.67 141.137 220.966 141.137C220.265 141.137 219.694 140.566 219.695 139.864C219.695 139.163 220.266 138.594 220.967 138.594Z" fill="#EEE6D6"/>
<path d="M220.97 133.765C221.673 133.765 222.242 134.336 222.242 135.038C222.242 135.74 221.672 136.31 220.969 136.31C220.268 136.31 219.697 135.739 219.697 135.037C219.698 134.334 220.268 133.764 220.97 133.765Z" fill="#EEE6D6"/>
<path d="M220.972 128.935C221.676 128.935 222.246 129.504 222.245 130.206C222.244 130.911 221.675 131.48 220.97 131.48C220.269 131.479 219.699 130.909 219.699 130.206C219.7 129.503 220.271 128.935 220.972 128.935Z" fill="#EEE6D6"/>
<path d="M220.975 124.106C221.678 124.106 222.247 124.675 222.247 125.377C222.247 126.08 221.677 126.652 220.974 126.651C220.272 126.651 219.701 126.079 219.703 125.376C219.702 124.674 220.273 124.105 220.975 124.106Z" fill="#EEE6D6"/>
<path d="M220.977 119.276C221.68 119.276 222.249 119.846 222.248 120.55C222.248 121.252 221.679 121.821 220.975 121.821C220.274 121.821 219.704 121.251 219.704 120.549C219.704 119.845 220.275 119.276 220.977 119.276Z" fill="#EEE6D6"/>
<path d="M220.979 114.448C221.682 114.448 222.252 115.018 222.251 115.721C222.251 116.423 221.681 116.992 220.978 116.991C220.276 116.992 219.706 116.422 219.707 115.72C219.707 115.017 220.278 114.448 220.979 114.448Z" fill="#EEE6D6"/>
<path d="M220.982 109.617C221.685 109.618 222.254 110.187 222.254 110.891C222.254 111.594 221.685 112.161 220.98 112.161C220.279 112.161 219.709 111.593 219.709 110.89C219.709 110.186 220.28 109.617 220.982 109.617Z" fill="#EEE6D6"/>
<path d="M220.983 104.789C221.687 104.788 222.256 105.359 222.256 106.06C222.256 106.763 221.685 107.333 220.983 107.332C220.281 107.331 219.71 106.763 219.711 106.059C219.711 105.358 220.282 104.788 220.983 104.789Z" fill="#EEE6D6"/>
<path d="M220.985 99.9568C221.688 99.9573 222.258 100.528 222.258 101.229C222.258 101.933 221.688 102.502 220.984 102.501C220.283 102.501 219.713 101.933 219.713 101.228C219.713 100.526 220.284 99.9572 220.985 99.9568Z" fill="#EEE6D6"/>
<path d="M220.988 95.13C221.692 95.1292 222.26 95.7013 222.261 96.4023C222.26 97.1035 221.69 97.6737 220.987 97.6732C220.286 97.6729 219.715 97.1033 219.716 96.4004C219.715 95.6994 220.286 95.129 220.988 95.13Z" fill="#EEE6D6"/>
<path d="M220.99 90.2983C221.693 90.2985 222.262 90.8689 222.262 91.5732C222.262 92.2738 221.693 92.842 220.988 92.8421C220.287 92.8418 219.717 92.2733 219.717 91.5713C219.718 90.8677 220.288 90.298 220.99 90.2983Z" fill="#EEE6D6"/>
<path d="M220.992 85.4702C221.696 85.4704 222.265 86.0399 222.265 86.7435C222.264 87.446 221.695 88.0142 220.991 88.014C220.29 88.0137 219.719 87.4447 219.72 86.7416C219.72 86.0389 220.291 85.4692 220.992 85.4702Z" fill="#EEE6D6"/>
<path d="M220.994 80.6405C221.697 80.6407 222.267 81.2102 222.265 81.9134C222.265 82.613 221.696 83.1845 220.992 83.1843C220.291 83.1841 219.721 82.6125 219.721 81.9129C219.723 81.2088 220.293 80.64 220.994 80.6405Z" fill="#EEE6D6"/>
<path d="M220.996 75.8103C221.7 75.8112 222.269 76.3823 222.269 77.0843C222.269 77.7872 221.7 78.3547 220.996 78.3545C220.295 78.3542 219.723 77.7855 219.725 77.0837C219.725 76.3811 220.295 75.81 220.996 75.8103Z" fill="#EEE6D6"/>
<path d="M220.999 70.9824C221.702 70.9833 222.272 71.5512 222.271 72.2534C222.271 72.956 221.701 73.5262 220.998 73.526C220.297 73.5257 219.727 72.9541 219.726 72.2524C219.726 71.5505 220.297 70.9821 220.999 70.9824Z" fill="#EEE6D6"/>
<path d="M221.001 66.1524C221.705 66.1526 222.273 66.7231 222.273 67.4253C222.273 68.1303 221.703 68.6988 221 68.6983C220.298 68.6985 219.728 68.1293 219.728 67.4241C219.728 66.7228 220.3 66.1521 221.001 66.1524Z" fill="#EEE6D6"/>
<path d="M221.002 61.3224C221.706 61.3226 222.275 61.8951 222.275 62.5957C222.275 63.297 221.705 63.8685 221.001 63.8676C220.3 63.8666 219.729 63.296 219.73 62.5945C219.731 61.8946 220.302 61.3218 221.002 61.3224Z" fill="#EEE6D6"/>
<path d="M221.005 56.4919C221.709 56.4928 222.278 57.0623 222.279 57.765C222.278 58.4672 221.708 59.038 221.005 59.0378C220.303 59.0375 219.733 58.4662 219.733 57.7626C219.733 57.0613 220.304 56.4916 221.005 56.4919Z" fill="#EEE6D6"/>
<path d="M221.007 51.6647C221.711 51.6642 222.28 52.2367 222.279 52.9382C222.279 53.6395 221.71 54.2101 221.006 54.2092C220.304 54.2084 219.734 53.6376 219.735 52.9363C219.735 52.235 220.306 51.6644 221.007 51.6647Z" fill="#EEE6D6"/>
<path d="M221.009 46.836C221.714 46.836 222.282 47.4064 222.283 48.1091C222.281 48.8108 221.712 49.3791 221.009 49.3796C220.307 49.3793 219.737 48.8094 219.737 48.1081C219.738 47.4052 220.308 46.8357 221.009 46.836Z" fill="#EEE6D6"/>
<path d="M221.012 42.0058C221.716 42.006 222.285 42.5755 222.285 43.2791C222.285 43.9811 221.715 44.5489 221.011 44.5496C220.309 44.5494 219.74 43.9799 219.74 43.2772C219.74 42.5746 220.311 42.0055 221.012 42.0058Z" fill="#EEE6D6"/>
<path d="M221.014 37.179C221.718 37.1792 222.287 37.748 222.287 38.4516C222.287 39.1512 221.716 39.7216 221.013 39.7212C220.312 39.7216 219.741 39.1503 219.742 38.4504C219.742 37.7461 220.312 37.1783 221.014 37.179Z" fill="#EEE6D6"/>
<path d="M221.016 32.3504C221.719 32.3506 222.288 32.918 222.289 33.6211C222.288 34.3233 221.719 34.8908 221.015 34.8906C220.314 34.8903 219.744 34.3228 219.744 33.6201C219.744 32.9165 220.315 32.3491 221.016 32.3504Z" fill="#EEE6D6"/>
<path d="M221.019 27.519C221.723 27.5199 222.292 28.088 222.291 28.7909C222.291 29.4935 221.722 30.0621 221.018 30.0619C220.317 30.0616 219.747 29.4923 219.747 28.7897C219.747 28.0868 220.317 27.519 221.019 27.519Z" fill="#EEE6D6"/>
<path d="M221.02 22.6894C221.724 22.6896 222.293 23.2591 222.293 23.9617C222.293 24.6637 221.723 25.2355 221.02 25.2353C220.318 25.235 219.748 24.6627 219.748 23.9608C219.749 23.2579 220.319 22.6881 221.02 22.6894Z" fill="#EEE6D6"/>
<path d="M221.023 17.8584C221.726 17.8586 222.295 18.4298 222.295 19.1317C222.295 19.8346 221.725 20.4041 221.022 20.4036C220.321 20.4033 219.75 19.8337 219.75 19.1315C219.751 18.4292 220.322 17.8581 221.023 17.8584Z" fill="#EEE6D6"/>
<path d="M221.025 13.0299C221.728 13.0303 222.298 13.6019 222.297 14.3041C222.297 15.0037 221.728 15.5753 221.024 15.5744C220.323 15.5741 219.752 15.0035 219.752 14.3032C219.753 13.6007 220.324 13.0293 221.025 13.0299Z" fill="#EEE6D6"/>
<path d="M221.027 8.19967C221.731 8.20057 222.3 8.77102 222.3 9.47531C222.299 10.1759 221.729 10.746 221.026 10.7456C220.325 10.7455 219.755 10.1747 219.755 9.47409C219.755 8.7698 220.326 8.19938 221.027 8.19967Z" fill="#EEE6D6"/>
<path d="M221.03 3.37262C221.733 3.37213 222.302 3.94023 222.302 4.64548C222.301 5.34769 221.732 5.91734 221.028 5.916C220.327 5.91641 219.757 5.34692 219.757 4.64357C219.757 3.93902 220.328 3.37259 221.03 3.37262Z" fill="#EEE6D6"/>
<path d="M236.421 113.93L275.107 113.949L275.148 30.578L236.461 30.5592L236.421 113.93Z" fill="#EEE6D6"/>
<path d="M240.935 106.251L270.635 106.278L270.638 103.735L240.937 103.708L240.935 106.251Z" fill="#262626"/>
<path d="M240.931 102.018L270.633 102.046L270.635 99.5023L240.934 99.4746L240.931 102.018Z" fill="#262626"/>
<path d="M240.942 66.3094L270.643 66.3145L270.643 63.7708L240.942 63.7657L240.942 66.3094Z" fill="#262626"/>
<path d="M240.95 62.6905L270.651 62.7021L270.653 58.9426L240.952 58.9309L240.95 62.6905Z" fill="#262626"/>
<path d="M240.96 57.4977L270.66 57.5254L270.663 54.9818L240.962 54.9541L240.96 57.4977Z" fill="#262626"/>
<path d="M240.907 94.2011L270.611 94.209L270.612 89.4147L240.908 89.4068L240.907 94.2011Z" fill="#262626"/>
<path d="M240.922 79.8645L270.621 79.8828L270.624 75.0896L240.925 75.0713L240.922 79.8645Z" fill="#262626"/>
<path d="M240.928 73.1223L270.628 73.1406L270.631 68.3474L240.931 68.3292L240.928 73.1223Z" fill="#262626"/>
<path d="M240.933 97.7171L270.633 97.71L270.633 96.4378L240.932 96.4449L240.933 97.7171Z" fill="#262626"/>
<path d="M240.908 47.2359L270.61 47.2598L270.612 44.7153L240.91 44.6914L240.908 47.2359Z" fill="#262626"/>
<path d="M240.941 43.026L270.641 43.0283L270.641 40.4854L240.942 40.4831L240.941 43.026Z" fill="#262626"/>
<path d="M240.927 38.7012L270.629 38.7129L270.629 37.4407L240.927 37.4291L240.927 38.7012Z" fill="#262626"/>
<path d="M240.97 36.1149L270.671 36.168L270.672 35.4127L240.971 35.3596L240.97 36.1149Z" fill="#262626"/>
<path d="M240.931 87.5135L270.633 87.5186L270.633 84.9749L240.931 84.9698L240.931 87.5135Z" fill="#262626"/>
<path d="M240.905 83.1955L270.607 83.21L270.608 81.9378L240.906 81.9233L240.905 83.1955Z" fill="#262626"/>
<path d="M240.955 52.6917L270.656 52.6846L270.656 51.4132L240.955 51.4203L240.955 52.6917Z" fill="#262626"/>
<path d="M240.884 109.138L270.585 109.193L270.588 107.921L240.886 107.865L240.884 109.138Z" fill="#262626"/>
<path d="M240.922 50.2021L270.625 50.2607L270.628 48.9885L240.924 48.9299L240.922 50.2021Z" fill="#262626"/>
<path d="M283.286 72.2827L291.672 69.562L291.675 60.746L296.855 67.88L305.242 65.1611L300.055 72.2904L305.235 79.4247L296.852 76.6979L291.664 83.8265L291.67 75.0109L283.286 72.2827Z" fill="#EEE6D6"/>
<path d="M23.8419 59.6468C30.7566 56.2014 39.1543 59.0127 42.6009 65.9286C46.046 72.8426 43.2342 81.2412 36.3212 84.6868C29.4041 88.1323 21.0076 85.3197 17.5599 78.4074C14.1138 71.4906 16.9258 63.0927 23.8419 59.6468Z" stroke="#EEE6D6" stroke-width="3" stroke-miterlimit="10" stroke-linecap="round" stroke-linejoin="round"/>
</svg>
