<svg width="24" height="24" viewBox="0 0 24 24" fill="none" xmlns="http://www.w3.org/2000/svg">
<path d="M13.5907 16.2187C13.5415 16.2213 13.6396 16.2187 13.5907 16.2187V16.2187ZM13.5907 16.2187C12.898 16.2187 12.1721 15.9656 11.654 15.4974C10.5104 14.4637 10.4191 12.6905 11.4505 11.5446C12.1767 10.7378 15.6682 8.63267 16.721 8.00666C17.0552 7.80786 17.4775 7.83608 17.7823 8.07763C18.0871 8.31903 18.2112 8.72361 18.0942 9.09444C18.0776 9.14708 17.6821 10.3991 17.1947 11.7675C16.2812 14.3322 15.878 14.9891 15.6041 15.2934C15.1038 15.8492 14.4813 16.2187 13.5907 16.2187ZM14.2105 14.039L14.2104 14.0391C14.2105 14.0391 14.2105 14.039 14.2105 14.039C14.2105 14.039 14.2105 14.039 14.2105 14.039ZM15.4914 10.9605C14.1868 11.7859 13.0812 12.5356 12.8441 12.7991C12.5029 13.1781 12.533 13.7645 12.9112 14.1063C13.0937 14.2713 13.3295 14.355 13.5745 14.3425C13.8187 14.3299 14.0436 14.2231 14.2082 14.0416C14.2478 13.9924 14.5743 13.5413 15.4432 11.0967C15.4593 11.0512 15.4754 11.0058 15.4914 10.9605ZM4.20899 10.4698C4.68435 10.6753 5.23607 10.4567 5.44161 9.9815C8.98911 1.85526 21.0885 3.66805 22.128 12.4341C22.1844 12.9504 22.6605 13.3201 23.1655 13.2596C23.68 13.201 24.0495 12.7365 23.991 12.222C23.6996 9.66228 22.4658 7.29697 20.517 5.56185L21.2651 4.6108C21.5852 4.20384 21.5148 3.61443 21.1079 3.29432C20.7008 2.97426 20.1116 3.04467 19.7914 3.45154L19.0125 4.44182C17.6128 3.57956 16.0313 3.05132 14.3877 2.90264V1.875H15.3721C16.6146 1.82892 16.6137 0.0456562 15.3721 0H11.6221C10.3795 0.046078 10.3804 1.82934 11.6221 1.875H12.5127V2.8987C8.66309 3.2309 5.27446 5.64472 3.72074 9.23722C3.51515 9.71243 3.73377 10.2643 4.20899 10.4698ZM0.934498 14.1093H7.45011C8.69267 14.0633 8.69173 12.28 7.45011 12.2344H0.934498C-0.308062 12.2804 -0.307124 14.0637 0.934498 14.1093ZM4.63762 19.7343H0.934498C-0.308062 19.7804 -0.307124 21.5637 0.934498 21.6093H4.63762C5.88018 21.5633 5.87924 19.78 4.63762 19.7343ZM16.203 21.7035C13.8682 22.4828 10.8662 22.1712 8.8107 20.8591C8.37045 20.5865 7.79262 20.7226 7.52019 21.1628C7.2477 21.6031 7.38369 22.1809 7.82394 22.4533C10.3436 24.056 13.9369 24.4373 16.791 23.4839C17.2826 23.3215 17.5496 22.7913 17.3872 22.2996C17.2248 21.8081 16.6947 21.541 16.203 21.7035ZM23.3117 17.6718H21.1407L22.8561 14.9062H19.5286L17.3685 18.7578C17.0155 19.387 17.4737 20.1562 18.199 20.1562H20.0823C20.0823 20.1562 18.794 23.7301 18.7938 23.7656C18.7931 23.913 18.9211 24.0006 19.0849 24C19.2001 23.9995 19.3216 23.9533 19.4019 23.8734L23.8274 18.8104C24.2116 18.3662 23.9014 17.6718 23.3117 17.6718ZM6.04386 15.9843H0.934498C-0.308062 16.0304 -0.307124 17.8137 0.934498 17.8593H6.04386C7.28642 17.8133 7.28549 16.03 6.04386 15.9843Z" fill="#3B5A4F"/>
</svg>
