<svg width="26" height="26" viewBox="0 0 26 26" fill="none" xmlns="http://www.w3.org/2000/svg">
<path d="M14.7233 17.5703C14.67 17.573 14.7762 17.5703 14.7233 17.5703V17.5703ZM14.7233 17.5703C13.9728 17.5703 13.1864 17.2961 12.6252 16.7888C11.3863 15.669 11.2873 13.748 12.4047 12.5067C13.1914 11.6326 16.9739 9.35206 18.1144 8.67388C18.4765 8.45852 18.934 8.48908 19.2641 8.75076C19.5943 9.01228 19.7288 9.45057 19.6021 9.8523C19.5841 9.90933 19.1556 11.2656 18.6276 12.7481C17.6379 15.5266 17.2011 16.2382 16.9045 16.5678C16.3624 17.17 15.6881 17.5703 14.7233 17.5703ZM15.3947 15.2089L15.3946 15.2091C15.3947 15.209 15.3947 15.209 15.3947 15.2089C15.3947 15.209 15.3947 15.209 15.3947 15.2089ZM16.7824 11.8739C15.369 12.7681 14.1713 13.5802 13.9144 13.8656C13.5448 14.2763 13.5774 14.9116 13.9872 15.2819C14.1848 15.4606 14.4403 15.5513 14.7057 15.5377C14.9703 15.5241 15.2139 15.4084 15.3922 15.2117C15.4351 15.1585 15.7889 14.6697 16.7302 12.0214C16.7476 11.9721 16.765 11.923 16.7824 11.8739ZM4.55974 11.3423C5.07471 11.5649 5.67241 11.3281 5.89508 10.8133C9.7382 2.00987 22.8459 3.97373 23.972 13.4703C24.0331 14.0296 24.5488 14.4301 25.096 14.3645C25.6534 14.301 26.0537 13.7978 25.9902 13.2405C25.6745 10.4675 24.3379 7.90505 22.2268 6.02534L23.0372 4.99504C23.384 4.55415 23.3077 3.91563 22.8669 3.56885C22.4259 3.22211 21.7875 3.29839 21.4407 3.73917L20.5968 4.81197C19.0805 3.87785 17.3673 3.3056 15.5867 3.14452V2.03125H16.6531C17.9992 1.98133 17.9982 0.0494608 16.6531 0H12.5906C11.2445 0.0499179 11.2455 1.98179 12.5906 2.03125H13.5554V3.14026C9.38502 3.50014 5.714 6.11512 4.0308 10.007C3.80808 10.5218 4.04492 11.1196 4.55974 11.3423ZM1.01237 15.2851H8.07095C9.41706 15.2352 9.41604 13.3033 8.07095 13.2539H1.01237C-0.333734 13.3038 -0.332718 15.2357 1.01237 15.2851ZM5.02408 21.3789H1.01237C-0.333734 21.4288 -0.332718 23.3606 1.01237 23.4101H5.02408C6.37019 23.3602 6.36917 21.4283 5.02408 21.3789ZM17.5532 23.5121C15.0239 24.3563 11.7717 24.0188 9.54493 22.5973C9.06799 22.3021 8.44201 22.4494 8.14687 22.9264C7.85168 23.4034 7.999 24.0293 8.47593 24.3244C11.2056 26.0606 15.0984 26.4738 18.1903 25.4408C18.7229 25.2649 19.0121 24.6906 18.8362 24.1579C18.6602 23.6254 18.086 23.3361 17.5532 23.5121ZM25.2544 19.1445H22.9024L24.7608 16.1484H21.156L18.8159 20.3209C18.4335 21.0026 18.9299 21.8359 19.7156 21.8359H21.7559C21.7559 21.8359 20.3602 25.7076 20.36 25.746C20.3592 25.9058 20.4978 26.0007 20.6753 25.9999C20.8001 25.9994 20.9318 25.9494 21.0187 25.8629L25.813 20.378C26.2293 19.8968 25.8932 19.1445 25.2544 19.1445ZM6.54752 17.3164H1.01237C-0.333734 17.3663 -0.332718 19.2982 1.01237 19.3476H6.54752C7.89363 19.2977 7.89261 17.3658 6.54752 17.3164Z" fill="#3B5A4F"/>
</svg>
