<svg width="79" height="78" viewBox="0 0 79 78" fill="none" xmlns="http://www.w3.org/2000/svg">
<path fill-rule="evenodd" clip-rule="evenodd" d="M46.3001 13.1846C46.6036 13.1412 46.9244 13.1022 47.2714 13.0761C47.4057 13.0631 47.5272 13.0544 47.64 13.0415L46.3001 13.1846Z" fill="#3B5A4F"/>
<path fill-rule="evenodd" clip-rule="evenodd" d="M47.6398 13.0415C47.527 13.0546 47.4057 13.0633 47.2713 13.0762C46.9245 13.1022 46.6035 13.1413 46.3 13.1846C46.2481 12.9158 46.1744 12.5343 46.0745 12.0617C45.784 10.7002 45.2465 8.62752 44.2752 6.66346C42.5192 3.09924 38.452 1.13076 34.6538 2.3838C31.766 3.33777 28.5487 6.83675 29.6198 12.0182C30.461 16.0984 32.7287 18.0321 33.0668 18.4223C33.7216 19.1724 33.9385 19.9139 34.1594 21.1192C34.2592 21.6743 34.2895 22.173 34.2939 22.3377C34.255 22.0818 34.0989 21.219 33.6652 20.1047C33.2577 19.0641 32.6072 18.6565 32.1085 18.1925C31.0462 17.1953 29.3769 15.2614 28.5705 11.9964C27.7987 8.90483 28.5271 4.9245 31.8268 2.29694C36.1106 -1.11103 43.0135 0.389125 45.7061 6.2817C46.6469 8.34133 47.1282 10.3878 47.4144 11.8447C47.5054 12.3131 47.5792 12.7163 47.6398 13.0415Z" fill="#3B5A4F"/>
<path fill-rule="evenodd" clip-rule="evenodd" d="M15.2322 38.3208C15.797 37.0143 17.0835 34.3627 19.9138 32.053C21.8878 30.4418 23.9565 29.3753 25.3702 28.6629C26.8003 27.9422 30.7235 26.5188 33.1849 25.2443C34.0347 24.8042 34.1866 23.9698 34.1992 23.9221C34.1 25.0341 33.3811 25.4505 32.7827 25.8593C32.3483 26.1564 30.8094 27.2079 27.1194 29.2098C26.3117 29.6481 26.3149 29.6515 25.4978 30.0714C21.8269 31.9563 20.1597 33.282 19.7027 33.6274C17.4699 35.3158 16.2298 36.8063 15.2322 38.3208Z" fill="#3B5A4F"/>
<path fill-rule="evenodd" clip-rule="evenodd" d="M35.4126 72.9988C34.9529 72.86 34.9572 72.8513 34.515 72.6736C32.6202 71.906 31.2197 70.9131 30.2874 70.111C29.9275 69.803 29.6413 69.5213 29.4158 69.2915C29.1253 68.988 28.9475 68.7755 28.8782 68.6931C27.0962 66.6076 26.3591 64.6867 26.125 64.3615C25.7131 63.7805 25.1017 63.7197 25.08 63.7197C18.303 62.6878 8.33039 60.9621 0.933228 57.1725C0.252409 56.8212 -0.163839 55.9889 0.0616694 55.178C1.79176 48.8735 4.84416 45.704 6.23599 44.3338C6.75627 43.8178 8.39092 42.335 10.3464 41.0775C12.4754 39.7074 14.2748 38.8792 14.9599 38.5584L14.9772 38.5975C13.5549 39.5254 10.082 41.832 7.34151 44.9279C7.26352 45.0103 5.64175 46.7446 4.08092 49.3375C2.48103 52.0041 1.74813 54.4713 1.44464 55.5509C1.40128 55.7069 1.4837 55.8587 1.59645 55.9193C10.5155 60.6932 24.6767 62.653 25.5178 62.9088C26.7319 63.2774 27.07 64.3571 27.1437 64.5132C27.5514 65.4194 28.3621 67.0886 29.8797 68.8621C30.0228 69.0311 30.1745 69.2004 30.335 69.3736C30.491 69.5428 30.6603 69.7162 30.8335 69.8896C32.6983 71.7413 34.5931 72.6258 35.4126 72.9988Z" fill="#3B5A4F"/>
<path fill-rule="evenodd" clip-rule="evenodd" d="M59.6549 77.2964L59.5813 77.3113C58.4288 72.4992 56.109 61.8039 56.8364 50.5282C57.0288 47.5451 57.5184 41.8408 59.3962 34.3993C59.486 34.0438 59.3377 34.7823 59.0327 36.989C58.3224 42.1308 57.8337 48.4471 57.953 57.9053C58.0821 68.1265 59.4411 75.9922 59.6549 77.2964Z" fill="#3B5A4F"/>
<path fill-rule="evenodd" clip-rule="evenodd" d="M78.243 12.6253C75.2035 18.8387 71.8301 22.9275 69.8442 25.104C69.7186 25.2428 68.6909 26.3138 67.7196 27.2113C66.1586 28.6509 63.8909 30.5847 60.691 32.6833C60.6302 32.7223 60.5913 32.7483 60.574 32.757C60.769 32.5879 63.917 30.2813 67.377 26.5697C67.5938 26.3356 68.5997 25.2559 70.0306 23.5735C73.8766 19.0598 76.2051 14.7933 77.61 11.8187C77.6317 11.7754 77.7746 11.5152 77.8744 11.0772C78.1866 9.64633 77.4062 8.10712 75.8538 7.88162C75.6977 7.86001 75.3637 7.81651 74.9216 7.89893L50.0984 12.5601C48.8192 12.7986 48.7151 12.9287 47.6398 13.0414C47.5271 13.0545 47.4057 13.0632 47.2714 13.0761C46.9245 13.1021 46.6036 13.1412 46.3001 13.1845C43.9587 13.5183 42.7403 14.2641 41.2227 14.9839C39.4276 15.8337 37.8407 16.354 35.3692 16.8093C39.3149 15.6039 40.4942 14.5806 42.5105 13.4186C43.6377 12.7683 44.6437 12.3476 46.0746 12.0614C46.4258 11.9963 46.7987 11.9356 47.2063 11.8793C47.215 11.8793 47.2842 11.8662 47.4143 11.8446C49.9291 11.3763 74.5139 6.74562 74.9605 6.69354C76.9595 6.45501 78.8108 7.76457 78.9843 9.80245C79.0884 11.034 78.6548 11.7841 78.243 12.6253Z" fill="#3B5A4F"/>
<path fill-rule="evenodd" clip-rule="evenodd" d="M30.3352 69.3739C30.3352 69.439 30.331 69.504 30.3265 69.5734C30.3178 69.7469 30.3048 69.929 30.2875 70.1111C30.1574 71.8498 29.8885 74.0265 29.3292 76.5152C29.3119 76.5977 29.2989 76.6844 29.2728 76.7668C29.2512 76.8492 29.2121 76.9272 29.1861 77.0096C29.2901 76.0513 29.6197 73.2373 29.4246 69.5691C29.4203 69.4649 29.4159 69.3696 29.4159 69.2916C29.4159 69.0401 29.4289 68.9057 29.4289 68.8624H29.8799C30.023 69.0314 30.1747 69.2005 30.3352 69.3739Z" fill="#3B5A4F"/>
<path fill-rule="evenodd" clip-rule="evenodd" d="M28.6443 59.6875L29.247 59.5444C29.2166 59.4056 29.1603 59.1628 29.0821 58.8332C28.8133 57.7406 28.2714 55.6854 27.3347 53.1835C25.0758 47.1565 22.5044 43.6098 21.4466 42.1528L21.4075 42.1789C22.782 44.8628 23.2807 45.9599 23.7186 46.8877C26.3245 52.3683 27.339 55.6853 28.0329 58.4603C28.1239 58.8375 28.215 59.2061 28.3017 59.566L28.6443 59.6875Z" fill="#3B5A4F"/>
<path fill-rule="evenodd" clip-rule="evenodd" d="M13.3037 52.017C14.2847 52.8818 16.1689 54.0697 20.9351 55.9056C25.3339 57.6004 28.9352 58.7232 29.6062 59.0387C30.5297 59.4728 30.8292 59.9009 31.8408 60.8255C33.0154 61.8993 34.0344 62.7839 35.4698 63.6908C36.6396 64.4299 37.7023 64.9528 39.1048 65.3278C37.1064 65.0422 34.1428 64.1532 30.1575 60.5453C29.5457 59.9912 29.0089 59.8127 28.6128 59.675C22.3143 57.4892 14.8606 54.9881 12.3001 52.2968L11.6757 51.5934C12.4076 51.3534 12.4118 51.369 13.1325 51.0971C13.4786 50.9664 15.2143 50.4446 17.2545 49.3151C18.9037 48.4024 19.8074 47.9011 21.6263 46.3584C21.3029 46.7161 20.1128 48.0903 18.1603 49.519C17.5022 50.0005 16.2823 50.7334 14.8957 51.3678C14.1595 51.7049 13.6662 51.8941 13.3037 52.017Z" fill="#3B5A4F"/>
<path fill-rule="evenodd" clip-rule="evenodd" d="M64.368 17.3774C64.3377 17.3992 64.3116 17.4208 64.2813 17.4468C64.2422 17.4816 64.2032 17.5119 64.1598 17.5466C63.5354 18.0497 62.6509 18.6609 60.8645 20.5384C60.7647 20.6469 60.7128 20.5254 59.0869 20.9893C53.6496 22.5372 50.7575 25.7459 49.6779 26.8731C49.2486 27.3197 48.7326 27.2678 48.169 27.142C45.5805 26.5784 45.2813 24.1416 45.1382 23.1052L45.1816 23.0964C45.6542 24.5534 46.3436 26.1055 48.3078 26.2921C48.7674 26.3354 48.8889 26.3311 48.9799 26.227C49.3961 25.75 51.1348 23.6861 54.0833 21.9735C56.8193 20.3865 59.2994 19.8228 60.3053 19.6016C60.8084 19.0856 61.4109 18.4787 62.1742 17.8153C62.5861 17.4597 63.0457 17.0868 63.5573 16.7052C63.5616 16.7009 63.5703 16.6922 63.592 16.6834C63.7698 16.5577 64.6154 15.9983 65.4738 15.5475C67.0346 14.7236 68.7258 14.0948 70.8199 13.7524C71.4962 13.6398 68.1576 14.2252 64.368 17.3774Z" fill="#3B5A4F"/>
<path fill-rule="evenodd" clip-rule="evenodd" d="M64.368 17.3774C64.3376 17.3992 64.3116 17.4208 64.2812 17.4468C64.2422 17.4816 64.2031 17.5119 64.1598 17.5465C63.4616 17.6463 62.8069 17.733 62.1738 17.8154C58.9045 18.236 56.1383 18.4788 50.9178 18.7173C49.7645 18.7737 49.2354 19.5107 48.8928 19.8447C45.6192 23.0143 40.3554 23.5997 39.9956 23.6473C39.9783 23.6473 39.9696 23.6516 39.9609 23.6516C40.0909 23.5909 42.5884 22.9795 45.3201 21.3275C47.4621 20.0354 48.3595 18.8474 48.5591 18.6479C49.6691 17.5596 51.0176 17.642 51.3037 17.629C54.8506 17.4686 60.188 17.113 63.5918 16.6837C63.8259 16.6534 64.0514 16.623 64.2639 16.5927L64.368 17.3774Z" fill="#3B5A4F"/>
<path d="M44.2335 72.1599C44.6562 72.1599 44.9988 71.8173 44.9988 71.3946C44.9988 70.9719 44.6562 70.6293 44.2335 70.6293C43.8108 70.6293 43.4682 70.9719 43.4682 71.3946C43.4682 71.8173 43.8108 72.1599 44.2335 72.1599Z" fill="#DE0007"/>
<path d="M45.4852 68.0443C45.5696 67.359 45.0825 66.7351 44.3973 66.6508C43.712 66.5664 43.0881 67.0535 43.0037 67.7387C42.9194 68.424 43.4065 69.0479 44.0917 69.1323C44.777 69.2166 45.4009 68.7295 45.4852 68.0443Z" fill="#DE0007"/>
<path d="M43.9273 65.1786C44.5459 65.1786 45.0474 64.6771 45.0474 64.0585C45.0474 63.4399 44.5459 62.9385 43.9273 62.9385C43.3087 62.9385 42.8073 63.4399 42.8073 64.0585C42.8073 64.6771 43.3087 65.1786 43.9273 65.1786Z" fill="#DE0007"/>
<path d="M43.5414 60.5278C44.16 60.5278 44.6614 60.0264 44.6614 59.4078C44.6614 58.7892 44.16 58.2877 43.5414 58.2877C42.9228 58.2877 42.4213 58.7892 42.4213 59.4078C42.4213 60.0264 42.9228 60.5278 43.5414 60.5278Z" fill="#DE0007"/>
<path d="M40.8593 33.288C41.282 33.288 41.6246 32.9454 41.6246 32.5227C41.6246 32.1 41.282 31.7574 40.8593 31.7574C40.4367 31.7574 40.094 32.1 40.094 32.5227C40.094 32.9454 40.4367 33.288 40.8593 33.288Z" fill="#DE0007"/>
<path d="M41.9417 36.1378C41.9986 35.4497 41.487 34.8457 40.7989 34.7887C40.1109 34.7318 39.5069 35.2434 39.4499 35.9315C39.393 36.6196 39.9046 37.2235 40.5927 37.2805C41.2807 37.3375 41.8847 36.8258 41.9417 36.1378Z" fill="#DE0007"/>
<path d="M40.7168 41.0137C41.3354 41.0137 41.8369 40.5123 41.8369 39.8937C41.8369 39.2751 41.3354 38.7736 40.7168 38.7736C40.0982 38.7736 39.5968 39.2751 39.5968 39.8937C39.5968 40.5123 40.0982 41.0137 40.7168 41.0137Z" fill="#DE0007"/>
<path d="M41.2524 45.654C41.871 45.654 42.3725 45.1525 42.3725 44.5339C42.3725 43.9153 41.871 43.4139 41.2524 43.4139C40.6338 43.4139 40.1324 43.9153 40.1324 44.5339C40.1324 45.1525 40.6338 45.654 41.2524 45.654Z" fill="#DE0007"/>
<path d="M44.5827 54.7079C44.6694 53.6602 43.8904 52.7406 42.8427 52.6538C41.795 52.5671 40.8753 53.3461 40.7886 54.3938C40.7019 55.4416 41.4809 56.3612 42.5286 56.4479C43.5763 56.5347 44.496 55.7556 44.5827 54.7079Z" fill="#DE0007"/>
<path d="M41.9551 50.8021C42.7274 50.8021 43.3534 50.176 43.3534 49.4037C43.3534 48.6314 42.7274 48.0054 41.9551 48.0054C41.1828 48.0054 40.5568 48.6314 40.5568 49.4037C40.5568 50.176 41.1828 50.8021 41.9551 50.8021Z" fill="#DE0007"/>
</svg>
