<svg width="101" height="77" viewBox="0 0 101 77" fill="none" xmlns="http://www.w3.org/2000/svg">
<path fill-rule="evenodd" clip-rule="evenodd" d="M46.3001 12.6846C46.6036 12.6412 46.9244 12.6022 47.2714 12.5761C47.4057 12.5631 47.5272 12.5544 47.64 12.5415L46.3001 12.6846Z" fill="#3B5A4F"/>
<path fill-rule="evenodd" clip-rule="evenodd" d="M47.6398 12.5415C47.527 12.5546 47.4057 12.5633 47.2713 12.5762C46.9245 12.6022 46.6035 12.6413 46.3 12.6846C46.2481 12.4158 46.1744 12.0343 46.0745 11.5617C45.784 10.2002 45.2465 8.12752 44.2752 6.16346C42.5192 2.59924 38.452 0.630759 34.6538 1.8838C31.766 2.83777 28.5487 6.33675 29.6198 11.5182C30.461 15.5984 32.7287 17.5321 33.0668 17.9223C33.7216 18.6724 33.9385 19.4139 34.1594 20.6192C34.2592 21.1743 34.2895 21.673 34.2939 21.8377C34.255 21.5818 34.0989 20.719 33.6652 19.6047C33.2577 18.5641 32.6072 18.1565 32.1085 17.6925C31.0462 16.6953 29.3769 14.7614 28.5705 11.4964C27.7987 8.40483 28.5271 4.4245 31.8268 1.79694C36.1106 -1.61103 43.0135 -0.110875 45.7061 5.7817C46.6469 7.84133 47.1282 9.8878 47.4144 11.3447C47.5054 11.8131 47.5792 12.2163 47.6398 12.5415Z" fill="#3B5A4F"/>
<path fill-rule="evenodd" clip-rule="evenodd" d="M15.2322 37.8208C15.797 36.5143 17.0835 33.8627 19.9138 31.553C21.8878 29.9418 23.9565 28.8753 25.3702 28.1629C26.8003 27.4422 30.7235 26.0188 33.1849 24.7443C34.0347 24.3042 34.1866 23.4698 34.1992 23.4221C34.1 24.5341 33.3811 24.9505 32.7827 25.3593C32.3483 25.6564 30.8094 26.7079 27.1194 28.7098C26.3117 29.1481 26.3149 29.1515 25.4978 29.5714C21.8269 31.4563 20.1597 32.782 19.7027 33.1274C17.4699 34.8158 16.2298 36.3063 15.2322 37.8208Z" fill="#3B5A4F"/>
<path fill-rule="evenodd" clip-rule="evenodd" d="M35.4126 72.4988C34.9529 72.36 34.9572 72.3513 34.515 72.1736C32.6202 71.406 31.2197 70.4131 30.2874 69.611C29.9275 69.303 29.6413 69.0213 29.4158 68.7915C29.1253 68.488 28.9475 68.2755 28.8782 68.1931C27.0962 66.1076 26.3591 64.1867 26.125 63.8615C25.7131 63.2805 25.1017 63.2197 25.08 63.2197C18.303 62.1878 8.33039 60.4621 0.933228 56.6725C0.252409 56.3212 -0.163839 55.4889 0.0616694 54.678C1.79176 48.3735 4.84416 45.204 6.23599 43.8338C6.75627 43.3178 8.39092 41.835 10.3464 40.5775C12.4754 39.2074 14.2748 38.3792 14.9599 38.0584L14.9772 38.0975C13.5549 39.0254 10.082 41.332 7.34151 44.4279C7.26352 44.5103 5.64175 46.2446 4.08092 48.8375C2.48103 51.5041 1.74813 53.9713 1.44464 55.0509C1.40128 55.2069 1.4837 55.3587 1.59645 55.4193C10.5155 60.1932 24.6767 62.153 25.5178 62.4088C26.7319 62.7774 27.07 63.8571 27.1437 64.0132C27.5514 64.9194 28.3621 66.5886 29.8797 68.3621C30.0228 68.5311 30.1745 68.7004 30.335 68.8736C30.491 69.0428 30.6603 69.2162 30.8335 69.3896C32.6983 71.2413 34.5931 72.1258 35.4126 72.4988Z" fill="#3B5A4F"/>
<path fill-rule="evenodd" clip-rule="evenodd" d="M59.6549 76.7964L59.5813 76.8113C58.4288 71.9992 56.109 61.3039 56.8364 50.0282C57.0288 47.0451 57.5184 41.3408 59.3962 33.8993C59.486 33.5438 59.3377 34.2823 59.0327 36.489C58.3224 41.6308 57.8337 47.9471 57.953 57.4053C58.0821 67.6265 59.4411 75.4922 59.6549 76.7964Z" fill="#3B5A4F"/>
<path fill-rule="evenodd" clip-rule="evenodd" d="M78.243 12.1253C75.2035 18.3387 71.8301 22.4275 69.8442 24.604C69.7186 24.7428 68.6909 25.8138 67.7196 26.7113C66.1586 28.1509 63.8909 30.0847 60.691 32.1833C60.6302 32.2223 60.5913 32.2483 60.574 32.257C60.769 32.0879 63.917 29.7813 67.377 26.0697C67.5938 25.8356 68.5997 24.7559 70.0306 23.0735C73.8766 18.5598 76.2051 14.2933 77.61 11.3187C77.6317 11.2754 77.7746 11.0152 77.8744 10.5772C78.1866 9.14633 77.4062 7.60712 75.8538 7.38162C75.6977 7.36001 75.3637 7.31651 74.9216 7.39893L50.0984 12.0601C48.8192 12.2986 48.7151 12.4287 47.6398 12.5414C47.5271 12.5545 47.4057 12.5632 47.2714 12.5761C46.9245 12.6021 46.6036 12.6412 46.3001 12.6845C43.9587 13.0183 42.7403 13.7641 41.2227 14.4839C39.4276 15.3337 37.8407 15.854 35.3692 16.3093C39.3149 15.1039 40.4942 14.0806 42.5105 12.9186C43.6377 12.2683 44.6437 11.8476 46.0746 11.5614C46.4258 11.4963 46.7987 11.4356 47.2063 11.3793C47.215 11.3793 47.2842 11.3662 47.4143 11.3446C49.9291 10.8763 74.5139 6.24562 74.9605 6.19354C76.9595 5.95501 78.8108 7.26457 78.9843 9.30245C79.0884 10.534 78.6548 11.2841 78.243 12.1253Z" fill="#3B5A4F"/>
<path fill-rule="evenodd" clip-rule="evenodd" d="M30.3352 68.8739C30.3352 68.939 30.331 69.004 30.3265 69.0734C30.3178 69.2469 30.3048 69.429 30.2875 69.6111C30.1574 71.3498 29.8885 73.5265 29.3292 76.0152C29.3119 76.0977 29.2989 76.1844 29.2728 76.2668C29.2512 76.3492 29.2121 76.4272 29.1861 76.5096C29.2901 75.5513 29.6197 72.7373 29.4246 69.0691C29.4203 68.9649 29.4159 68.8696 29.4159 68.7916C29.4159 68.5401 29.4289 68.4057 29.4289 68.3624H29.8799C30.023 68.5314 30.1747 68.7005 30.3352 68.8739Z" fill="#3B5A4F"/>
<path fill-rule="evenodd" clip-rule="evenodd" d="M28.6443 59.1875L29.247 59.0444C29.2166 58.9056 29.1603 58.6628 29.0821 58.3332C28.8133 57.2406 28.2714 55.1854 27.3347 52.6835C25.0758 46.6565 22.5044 43.1098 21.4466 41.6528L21.4075 41.6789C22.782 44.3628 23.2807 45.4599 23.7186 46.3877C26.3245 51.8683 27.339 55.1853 28.0329 57.9603C28.1239 58.3375 28.215 58.7061 28.3017 59.066L28.6443 59.1875Z" fill="#3B5A4F"/>
<path fill-rule="evenodd" clip-rule="evenodd" d="M13.3037 51.517C14.2847 52.3818 16.1689 53.5697 20.9351 55.4056C25.3339 57.1004 28.9352 58.2232 29.6062 58.5387C30.5297 58.9728 30.8292 59.4009 31.8408 60.3255C33.0154 61.3993 34.0344 62.2839 35.4698 63.1908C36.6396 63.9299 37.7023 64.4528 39.1048 64.8278C37.1064 64.5422 34.1428 63.6532 30.1575 60.0453C29.5457 59.4912 29.0089 59.3127 28.6128 59.175C22.3143 56.9892 14.8606 54.4881 12.3001 51.7968L11.6757 51.0934C12.4076 50.8534 12.4118 50.869 13.1325 50.5971C13.4786 50.4664 15.2143 49.9446 17.2545 48.8151C18.9037 47.9024 19.8074 47.4011 21.6263 45.8584C21.3029 46.2161 20.1128 47.5903 18.1603 49.019C17.5022 49.5005 16.2823 50.2334 14.8957 50.8678C14.1595 51.2049 13.6662 51.3941 13.3037 51.517Z" fill="#3B5A4F"/>
<path fill-rule="evenodd" clip-rule="evenodd" d="M64.368 16.8774C64.3377 16.8992 64.3116 16.9208 64.2813 16.9468C64.2422 16.9816 64.2032 17.0119 64.1598 17.0466C63.5354 17.5497 62.6509 18.1609 60.8645 20.0384C60.7647 20.1469 60.7128 20.0254 59.0869 20.4893C53.6496 22.0372 50.7575 25.2459 49.6779 26.3731C49.2486 26.8197 48.7326 26.7678 48.169 26.642C45.5805 26.0784 45.2813 23.6416 45.1382 22.6052L45.1816 22.5964C45.6542 24.0534 46.3436 25.6055 48.3078 25.7921C48.7674 25.8354 48.8889 25.8311 48.9799 25.727C49.3961 25.25 51.1348 23.1861 54.0833 21.4735C56.8193 19.8865 59.2994 19.3228 60.3053 19.1016C60.8084 18.5856 61.4109 17.9787 62.1742 17.3153C62.5861 16.9597 63.0457 16.5868 63.5573 16.2052C63.5616 16.2009 63.5703 16.1922 63.592 16.1834C63.7698 16.0577 64.6154 15.4983 65.4738 15.0475C67.0346 14.2236 68.7258 13.5948 70.8199 13.2524C71.4962 13.1398 68.1576 13.7252 64.368 16.8774Z" fill="#3B5A4F"/>
<path fill-rule="evenodd" clip-rule="evenodd" d="M64.368 16.8774C64.3376 16.8992 64.3116 16.9208 64.2812 16.9468C64.2422 16.9816 64.2031 17.0119 64.1598 17.0465C63.4616 17.1463 62.8069 17.233 62.1738 17.3154C58.9045 17.736 56.1383 17.9788 50.9178 18.2173C49.7645 18.2737 49.2354 19.0107 48.8928 19.3447C45.6192 22.5143 40.3554 23.0997 39.9956 23.1473C39.9783 23.1473 39.9696 23.1516 39.9609 23.1516C40.0909 23.0909 42.5884 22.4795 45.3201 20.8275C47.4621 19.5354 48.3595 18.3474 48.5591 18.1479C49.6691 17.0596 51.0176 17.142 51.3037 17.129C54.8506 16.9686 60.188 16.613 63.5918 16.1837C63.8259 16.1534 64.0514 16.123 64.2639 16.0927L64.368 16.8774Z" fill="#3B5A4F"/>
<path d="M44.2335 71.6599C44.6562 71.6599 44.9988 71.3173 44.9988 70.8946C44.9988 70.4719 44.6562 70.1293 44.2335 70.1293C43.8108 70.1293 43.4682 70.4719 43.4682 70.8946C43.4682 71.3173 43.8108 71.6599 44.2335 71.6599Z" fill="#DE0007"/>
<path d="M45.4852 67.5443C45.5696 66.859 45.0825 66.2351 44.3973 66.1508C43.712 66.0664 43.0881 66.5535 43.0037 67.2387C42.9194 67.924 43.4065 68.5479 44.0917 68.6323C44.777 68.7166 45.4009 68.2295 45.4852 67.5443Z" fill="#DE0007"/>
<path d="M43.9273 64.6786C44.5459 64.6786 45.0474 64.1771 45.0474 63.5585C45.0474 62.9399 44.5459 62.4385 43.9273 62.4385C43.3087 62.4385 42.8073 62.9399 42.8073 63.5585C42.8073 64.1771 43.3087 64.6786 43.9273 64.6786Z" fill="#DE0007"/>
<path d="M43.5414 60.0278C44.16 60.0278 44.6614 59.5264 44.6614 58.9078C44.6614 58.2892 44.16 57.7877 43.5414 57.7877C42.9228 57.7877 42.4213 58.2892 42.4213 58.9078C42.4213 59.5264 42.9228 60.0278 43.5414 60.0278Z" fill="#DE0007"/>
<path d="M40.8593 32.788C41.282 32.788 41.6246 32.4454 41.6246 32.0227C41.6246 31.6 41.282 31.2574 40.8593 31.2574C40.4367 31.2574 40.094 31.6 40.094 32.0227C40.094 32.4454 40.4367 32.788 40.8593 32.788Z" fill="#DE0007"/>
<path d="M41.9417 35.6378C41.9986 34.9497 41.487 34.3457 40.7989 34.2887C40.1109 34.2318 39.5069 34.7434 39.4499 35.4315C39.393 36.1196 39.9046 36.7235 40.5927 36.7805C41.2807 36.8375 41.8847 36.3258 41.9417 35.6378Z" fill="#DE0007"/>
<path d="M40.7168 40.5137C41.3354 40.5137 41.8369 40.0123 41.8369 39.3937C41.8369 38.7751 41.3354 38.2736 40.7168 38.2736C40.0982 38.2736 39.5968 38.7751 39.5968 39.3937C39.5968 40.0123 40.0982 40.5137 40.7168 40.5137Z" fill="#DE0007"/>
<path d="M41.2524 45.154C41.871 45.154 42.3725 44.6525 42.3725 44.0339C42.3725 43.4153 41.871 42.9139 41.2524 42.9139C40.6338 42.9139 40.1324 43.4153 40.1324 44.0339C40.1324 44.6525 40.6338 45.154 41.2524 45.154Z" fill="#DE0007"/>
<path d="M44.5827 54.2079C44.6694 53.1602 43.8904 52.2406 42.8427 52.1538C41.795 52.0671 40.8753 52.8461 40.7886 53.8938C40.7019 54.9416 41.4809 55.8612 42.5286 55.9479C43.5763 56.0347 44.496 55.2556 44.5827 54.2079Z" fill="#DE0007"/>
<path d="M41.9551 50.3021C42.7274 50.3021 43.3534 49.676 43.3534 48.9037C43.3534 48.1314 42.7274 47.5054 41.9551 47.5054C41.1828 47.5054 40.5568 48.1314 40.5568 48.9037C40.5568 49.676 41.1828 50.3021 41.9551 50.3021Z" fill="#DE0007"/>
</svg>
