<svg width="101" height="75" viewBox="0 0 101 75" fill="none" xmlns="http://www.w3.org/2000/svg">
<path d="M100.899 64.9074C100.249 64.2389 99.8828 63.3718 99.5755 62.5055C99.2575 61.6087 98.9588 60.7012 98.681 59.7914C98.0733 57.8019 97.6129 55.7678 97.2576 53.719C96.9035 51.6773 96.6714 49.6136 96.5724 47.5437C96.4716 45.4395 96.4258 43.3096 95.6105 41.3334L89.935 23.6259C89.3814 21.6001 88.6438 19.6301 88.0254 17.6242C87.4175 15.6524 86.9187 13.6167 86.8587 11.5449C86.8173 10.1179 87.2533 8.45795 86.1701 7.2948C85.561 6.64078 84.6457 6.38439 83.7831 6.52035C82.9002 6.65955 82.116 7.28755 81.5257 7.92228C80.274 9.26821 79.8048 11.2769 79.7178 13.0598C79.628 14.8982 79.9939 16.7005 80.4056 18.4802C80.8547 20.4221 81.2062 22.3815 81.3027 24.3753C81.352 25.394 81.3439 26.4197 81.2343 27.4342C81.1703 28.0262 81.0719 28.6135 80.974 29.201C80.6514 28.8887 80.2505 28.6775 79.8015 28.5702C79.8341 28.3242 79.8269 28.0652 79.7845 27.7993C79.6424 26.9087 79.3645 26.0144 79.1047 25.1528C78.7884 24.1038 78.4496 23.062 78.0708 22.0338C77.8913 21.5466 77.6722 21.0701 77.5142 20.576C77.3727 20.1331 77.2555 19.6825 77.1361 19.2335C76.8967 18.3333 76.6577 17.4295 76.2918 16.5706C75.9336 15.73 75.4621 15.082 74.7474 14.5094C73.3745 13.4099 71.6983 12.802 70.1697 11.9642C68.6103 11.1094 67.0804 10.0805 65.2639 9.92296C64.0984 9.82177 62.9533 10.1634 62.286 11.1695C61.7331 12.003 61.6304 13.0932 61.59 14.0653C61.5456 15.1354 61.6306 16.206 61.594 17.2761C61.5904 17.3799 61.6247 17.4595 61.6795 17.5157C59.0331 18.1583 58.3867 21.0195 57.7044 23.2994C57.6777 23.3888 57.6854 23.4672 57.715 23.5324C56.9108 23.6131 56.113 23.8153 55.4401 24.245C54.1509 25.0683 54.0289 26.6174 54.2282 28.0153C54.4054 29.2585 54.8772 30.4216 55.1376 31.6442C55.2061 31.9658 55.27 32.3675 55.1287 32.6799C54.9605 33.0517 54.5105 33.1483 54.148 33.2108C54.106 33.2181 54.0698 33.2306 54.0387 33.2473C52.8972 32.0653 51.3142 30.6769 49.998 29.7121L52.4696 24.9559C53.0036 23.7907 53.9626 22.025 52.6193 21.0116C51.2842 20.0044 49.2344 20.7106 48.0896 21.6726C47.9134 21.8207 47.7459 21.9782 47.5846 22.1422L46.8894 22.9395C46.5283 23.4013 46.2015 23.8943 45.8905 24.3938C45.8905 24.3938 44.9956 21.2022 44.5273 20.2056C44.2685 19.6549 43.9072 19.1529 43.4919 18.6986C42.8027 17.945 41.8251 17.2665 40.7666 17.2648C39.5957 17.2629 38.9086 18.2714 38.6115 19.289C38.0366 21.2587 38.6279 23.2633 39.0529 25.1959C39.4074 26.8073 39.4624 28.7209 39.8724 30.3223C39.1903 30.6404 39.7086 30.4115 37.8821 31.2749C37.7147 29.8189 37.4051 27.4908 37.239 26.0354C37.0893 24.7236 36.9044 23.4104 36.5217 22.1434C36.1492 20.9098 35.561 19.6222 34.4497 18.8896C34.2457 18.7552 34.0212 18.6494 33.789 18.5703C33.8135 17.8373 33.7927 17.1024 33.6942 16.3595C33.5363 15.1688 33.3185 13.9825 32.9007 12.8528C32.5336 11.8601 31.917 10.8404 30.8707 10.4693C30.2715 10.2566 29.6301 10.3446 29.0415 10.5507C29.125 10.1762 29.1792 9.79601 29.1858 9.41085C29.2005 8.54173 28.9005 7.74846 28.3979 7.04972C27.4528 5.73548 25.9148 5.09773 24.3275 5.37263C22.3685 5.71196 20.8389 7.22588 19.4482 8.5336C17.8386 10.047 16.2118 11.6801 15.0441 13.5691C14.6477 14.2104 14.2288 14.9889 14.257 15.7669C14.282 16.4563 14.7157 16.9315 15.3277 17.1604C14.8504 17.764 14.37 18.3671 13.8593 18.9399C13.1716 19.7111 12.4148 20.4185 11.6501 21.1119C11.4337 21.3082 11.2155 21.5031 10.997 21.6976C11.1637 20.3202 11.817 19.0279 12.35 17.7583C12.689 16.9511 12.9916 16.1279 13.1629 15.2673C13.3027 14.5647 13.3133 13.8683 13.2645 13.1559C13.162 11.6563 12.8303 10.1392 12.1508 8.79083C11.5567 7.61203 10.5071 6.48677 9.15778 6.23069C6.65499 5.75565 5.77586 9.41007 5.33361 11.1554C5.24884 11.4898 5.16199 11.8237 5.07518 12.1575L2.3269 22.0559C1.16249 26.1738 1.21212 30.4425 0.639066 34.6545C0.495438 35.7104 0.259063 36.7502 0.132899 37.8083C0.0122095 38.8201 -0.0186016 39.8409 0.00986343 40.8589C0.0670542 42.8949 0.392891 44.9122 0.733793 46.9163C1.37301 50.6753 2.09 54.4064 2.44602 58.2078C2.80048 61.9934 2.85006 65.8515 2.18541 69.6067C2.10632 70.0536 2.80934 70.091 2.88734 69.6504C3.58541 65.7068 3.48474 61.6661 3.0989 57.6947C2.70482 53.6372 1.88668 49.6575 1.23287 45.6396C0.906304 43.6328 0.656166 41.6132 0.710333 39.5763C0.766586 37.4627 1.28349 35.4026 1.50975 33.3056C1.73732 31.1972 1.84393 29.0776 2.08385 26.9704C2.20391 25.9154 2.36204 24.8642 2.58668 23.8264C2.82639 22.7187 3.17699 21.6312 3.48542 20.5408C4.1153 18.3131 4.74518 16.0854 5.37516 13.8577C5.47792 13.4943 5.57134 13.1285 5.66205 12.762L5.86871 11.9174C5.99196 11.4123 6.11781 10.9078 6.26211 10.4079C6.57257 9.33218 6.95205 8.07633 7.80189 7.29365C7.89938 7.20388 8.00093 7.13261 8.10525 7.07615L8.86734 6.91469C9.493 6.95468 10.1295 7.35506 10.5871 7.79559C11.4612 8.63703 11.9236 9.85414 12.2183 11.0051C12.5007 12.1077 12.6366 13.2654 12.5804 14.4032C12.5346 15.3288 12.2298 16.2344 11.8706 17.1085L9.80716 18.1974C9.61176 18.2634 9.46584 18.4305 9.51187 18.6496C9.5504 18.833 9.76738 19.0113 9.96408 18.9449C10.3286 18.8217 10.6774 18.6714 11.0008 18.4608C11.1447 18.3671 11.2855 18.2673 11.4189 18.159C11.3693 18.2724 11.3203 18.3851 11.2724 18.4971C10.7472 19.7226 10.2409 21.0054 10.2561 22.3574C9.49253 23.042 8.74113 23.74 8.05724 24.5044C8.05661 24.5052 8.05593 24.5059 8.05531 24.5066C8.11615 24.7094 8.22339 24.8873 8.32218 24.9334C8.39251 24.9699 8.46565 24.9979 8.54073 25.0191C8.91192 24.6069 9.29943 24.2092 9.70195 23.8266C10.0505 23.4952 10.4057 23.171 10.7631 22.849C10.84 22.8242 10.9045 22.7725 10.9373 22.6925C12.0703 21.6761 13.2192 20.6772 14.2486 19.5526C14.9608 18.7747 15.6006 17.9276 16.2613 17.1063C16.9447 16.2565 17.62 15.4003 18.2745 14.5281C19.1565 13.3523 19.9264 12.1011 20.7996 10.9203C21.2094 10.3663 21.6588 9.84513 22.1663 9.37822C22.6001 8.97918 23.2025 8.46087 23.795 8.33653C24.2387 8.24337 24.0943 7.55526 23.6505 7.64842C22.8265 7.8214 22.0378 8.51712 21.4504 9.08752C20.7753 9.7432 20.21 10.5102 19.6793 11.2842C18.4763 13.0387 17.2488 14.7514 15.9193 16.4142C15.8757 16.4687 15.8323 16.5236 15.7887 16.5783C15.7663 16.5663 15.7413 16.5562 15.7138 16.5481C15.5498 16.5007 15.428 16.4548 15.2947 16.3707C15.1939 16.3069 15.1062 16.2141 15.0609 16.1379C14.9333 15.9229 14.9361 15.7101 14.9897 15.3982C15.1249 14.6131 15.7017 13.8019 16.1764 13.1476C17.4687 11.3662 19.0781 9.7956 20.7104 8.32809C22.2175 6.97313 24.1766 5.38018 26.3269 6.23992C27.1231 6.55815 27.7889 7.26607 28.175 8.01596C28.5635 8.7706 28.5336 9.63878 28.3476 10.4447C28.1516 11.2937 27.8048 12.1029 27.5142 12.9217C27.1779 13.8694 26.9573 14.8598 26.7225 15.8366C26.4391 17.0164 26.3194 18.2022 26.1872 19.4043C26.0943 20.2496 25.9068 21.4722 26.5324 22.1684C26.8352 22.5054 27.3573 22.0342 27.0536 21.6964C26.6547 21.2525 26.8069 20.3467 26.8529 19.8112C26.9161 19.0781 26.9855 18.3341 27.0852 17.6053C27.3556 15.63 27.9869 13.7172 28.6534 11.8483C28.7104 11.6885 28.7655 11.5274 28.8175 11.365C28.8671 11.3657 28.9195 11.3558 28.9736 11.3316C29.4812 11.1047 30.0443 10.9605 30.5928 11.1186C31.0583 11.2528 31.4058 11.6041 31.6826 11.986C32.359 12.9196 32.6146 14.1733 32.8175 15.2839C33.0261 16.4258 33.1204 17.5491 33.0882 18.6907C33.0394 18.7898 33.031 18.9057 33.0762 18.9989C33.0632 19.2699 33.0434 19.5421 33.0158 19.8161C32.8292 21.6754 32.4656 23.5246 32.6075 25.4013C32.6603 26.1005 32.7802 26.7863 32.9823 27.4583C33.1118 27.8891 33.801 27.7482 33.6704 27.3138C33.1101 25.4509 33.2659 23.5411 33.5034 21.6395C33.6006 20.8608 33.6949 20.0889 33.7499 19.3169C34.7391 19.7728 35.3012 20.8116 35.6776 21.8183C36.1494 23.0805 36.3437 24.4487 36.5044 25.78C36.6994 27.3959 36.8938 29.011 37.0959 30.6268C37.319 32.4105 37.4652 34.2855 36.9471 36.0329C36.9271 36.0984 36.9061 36.1637 36.8842 36.2286C36.742 36.6601 37.4096 36.8816 37.5513 36.4512C38.1118 34.7499 38.1812 33.6642 37.9991 31.9055C37.9991 31.9055 40.8925 30.4169 42.0741 29.6871C42.7595 29.2637 44.1347 28.2847 44.6456 27.6625C45.1742 27.0189 45.5727 26.2808 46.0007 25.5694C46.8368 24.1798 47.752 22.6148 49.1738 21.749C49.8621 21.3298 50.8341 21.1411 51.6235 21.3119C52.4753 21.4962 52.7148 22.237 52.5263 23.0074C52.3471 23.7392 51.9375 24.402 51.6598 25.0978C51.6598 25.0978 49.9079 28.6356 49.1576 29.7122C47.9107 31.5018 43.403 36.2698 43.403 36.2698C43.2196 36.4857 43.0375 36.7021 42.8558 36.9179C41.5356 38.4857 40.1203 39.9742 38.8778 41.6057C37.6276 43.2472 36.5134 44.9866 35.3642 46.6988C34.2719 48.3263 33.1199 49.8803 31.8432 51.3674C30.224 53.2535 28.5104 55.1493 27.2523 57.3085C27.2031 57.3929 27.1633 57.4824 27.1326 57.5751C27.0918 57.6981 27.0815 57.829 27.1025 57.9569C27.595 60.9583 28.0116 63.9717 28.3518 66.9941C28.4067 67.4823 29.1539 67.3222 29.0993 66.8372C28.7642 63.86 28.3547 60.8916 27.8718 57.9349C27.847 57.7827 27.8776 57.6272 27.9568 57.4949C29.745 54.5061 32.355 52.1163 34.4017 49.315C36.4746 46.478 38.2308 43.4186 40.4826 40.712C41.0347 40.0484 41.6343 39.4269 42.1988 38.7739C42.7542 38.1314 43.2953 37.4766 43.8446 36.8289C44.1985 36.4116 44.5585 35.9961 44.9286 35.5896C45.0328 35.6581 45.1333 35.7351 45.23 35.8173C45.4506 36.0049 45.6522 36.2175 45.8374 36.407C46.3639 36.946 46.8392 37.5331 47.3271 38.1065C47.8637 38.7368 48.4566 39.3128 48.9821 39.9536C49.6377 40.7532 50.2385 41.596 50.897 42.3933C52.2243 44.0005 53.6038 45.5612 54.8976 47.1973C55.2429 47.634 55.582 48.0754 55.9161 48.5207L58.2129 51.1453C58.8985 51.9925 59.6062 52.793 60.4286 53.5115C62.1688 55.0318 64.0608 56.394 66.0316 57.5985C67.0105 58.1968 68.0475 58.7274 68.9401 59.4551C69.7395 60.1068 70.4303 60.8844 71.0348 61.7179C72.3501 63.531 73.3809 65.5551 74.4836 67.4997C75.8652 69.9363 77.2469 72.3729 78.6286 74.8095C78.871 75.237 79.5312 74.8526 79.2881 74.4239C78.0396 72.2222 76.7911 70.0205 75.5427 67.8187C74.4098 65.8208 73.3453 63.7563 72.0577 61.8518C71.4677 60.9791 70.8125 60.1406 70.0469 59.4142C69.2266 58.6359 68.2772 58.0405 67.3068 57.4695C65.28 56.2768 63.3405 54.9521 61.5304 53.4486C60.5637 52.6457 59.703 51.7776 58.912 50.8017L53.6875 44.5972C52.8022 43.5305 51.8674 42.5012 51.0057 41.4157C50.148 40.3354 49.3522 39.2088 48.3789 38.2256C47.742 37.5822 47.2001 36.8468 46.5889 36.1793C46.3631 35.9328 46.1127 35.6589 45.8384 35.41C45.7034 35.2875 45.5622 35.1716 45.4156 35.0676L49.447 30.2272C49.4553 30.2329 49.4634 30.2388 49.4716 30.2445L50.0388 30.6528C52.1365 32.2049 54.026 34.0979 55.6412 36.1404C55.7138 36.1477 55.7869 36.1377 55.8574 36.1025C56.0308 36.0013 56.1385 35.8672 56.1958 35.7167C55.6861 35.0728 55.1512 34.4432 54.5917 33.834C55.1413 33.6923 55.6031 33.4005 55.82 32.8354C56.0748 32.1717 55.8017 31.3421 55.621 30.6989C55.3405 29.7002 55.0038 28.7104 54.89 27.6743C54.8071 26.9199 54.8023 26.053 55.2307 25.3951C55.8238 24.4845 57.1449 24.2708 58.1379 24.2079C59.3813 24.1291 60.6448 24.287 61.8526 24.5794C63.1307 24.8888 64.3614 25.4587 65.4189 26.2412C66.6333 27.14 67.4184 28.4558 68.0712 29.79C69.013 31.715 70.2027 33.4799 71.3832 35.2633C72.1663 36.4462 73.0978 37.6992 73.3895 39.1202C73.4688 39.5065 73.4668 39.9552 73.1739 40.2521C72.75 40.6819 71.9391 40.6211 71.3981 40.5812C69.5586 40.4457 68.1274 38.9046 67.0061 37.5905L65.9863 36.2373C65.224 35.1036 64.5904 33.8744 64.003 32.6547C63.715 32.0564 62.8401 31.4614 62.2686 31.2221C61.5002 31.0814 60.7021 31.2067 59.9272 31.1655C59.3565 31.135 58.7807 30.9441 58.2418 30.6733C58.139 30.902 58.1112 31.1528 58.1672 31.3873C58.3951 31.4905 58.6285 31.5832 58.8673 31.6638C59.6705 31.9348 60.4957 31.8702 61.3285 31.8627C61.3925 31.8622 61.4562 31.8626 61.5198 31.8637C60.7932 32.4104 59.9766 32.7986 59.107 33.0268C59.1165 33.2692 59.1833 33.5029 59.2973 33.7037C60.4666 33.3947 61.5496 32.8211 62.4681 31.9936C62.9416 32.1386 63.148 32.5273 63.3774 32.9632C63.4994 33.1952 63.6065 33.4347 63.7077 33.6765C63.9076 34.1543 64.1846 34.5873 64.4446 35.0319C64.7678 35.5848 65.1027 36.1277 65.4579 36.6544C64.7632 37.7958 63.7985 38.8452 62.6604 39.5926C62.7099 39.8145 62.8586 40.0104 63.0883 40.1252C63.0952 40.1289 63.1022 40.1321 63.1091 40.1357C64.2205 39.3918 65.1765 38.3864 65.8956 37.2793C66.519 38.1355 67.2098 38.9388 68.0124 39.6565C68.6887 40.2613 69.4578 40.7528 70.2895 41.0375L71.1329 41.2483C71.6357 41.3278 72.1561 41.3284 72.6885 41.2304C73.1997 41.1363 73.6834 40.8574 73.9379 40.3939C74.1829 39.948 74.1577 39.4166 74.0675 38.9333C74.01 38.6244 73.9189 38.3223 73.8052 38.026C76.9258 39.3346 79.459 41.8088 81.1209 44.7301C81.6006 45.5733 82.0087 46.4546 82.3426 47.3653C82.4545 47.6704 82.9469 47.5386 82.8336 47.2299C81.6093 43.8911 79.4157 40.8827 76.4535 38.8836C75.7676 38.4208 75.0432 38.0232 74.2892 37.6858C74.3158 37.6746 74.3419 37.6631 74.3672 37.6515C74.9351 37.3895 75.5505 36.8883 75.7246 36.2638C75.9279 35.5345 75.7907 34.641 75.6388 33.9182C75.6342 33.8966 75.5896 33.7095 75.585 33.6881L75.7235 33.6327C76.2713 33.4722 76.8124 33.2975 77.2315 32.8844C77.4652 32.6539 77.1051 32.2939 76.8714 32.5243C76.4859 32.9045 75.9596 33.0377 75.4525 33.182C75.2574 32.5103 75.0047 31.8536 74.7645 31.1988C74.3922 30.1833 74.0588 29.1617 73.6426 28.1613C73.3099 27.3619 72.9567 26.5712 72.5997 25.7823C73.3261 26.7471 73.8503 27.8891 74.7038 28.7507C75.7692 29.826 77.5793 30.9196 79.0202 29.8801C79.2727 29.698 79.4591 29.4821 79.5889 29.2422C79.9207 29.319 80.2191 29.4558 80.4599 29.6777L80.7586 30.618C80.5416 32.4229 80.669 34.1704 81.575 35.8042C81.7949 36.2007 82.4022 35.8461 82.1821 35.4493C81.674 34.5329 81.4006 33.5491 81.3536 32.5031C81.3105 31.5411 81.4555 30.5803 81.6097 29.6338C81.7679 28.6634 81.936 27.6943 82.0018 26.712C82.0733 25.644 82.0345 24.5623 81.9506 23.4963C81.7888 21.4397 81.3573 19.4178 80.8771 17.4154C80.4443 15.6104 80.2431 13.6636 80.5493 11.8231C80.8451 10.0455 81.7542 7.98687 83.5618 7.30819C84.3996 6.99372 85.39 7.29495 85.8794 8.05678C86.2754 8.67295 86.2295 9.50256 86.2012 10.2021C86.1672 11.0379 86.1525 11.8459 86.2334 12.681C86.3337 13.7163 86.529 14.7408 86.7738 15.7509C87.2686 17.7928 87.9944 19.7698 88.6399 21.7665C88.9627 22.7652 89.2907 23.776 89.5058 24.8043L95.2831 42.5024C95.5909 43.5183 95.7067 44.5783 95.7755 45.6335C95.8884 47.3664 95.9412 49.0951 96.1378 50.8223C96.3412 52.6085 96.6363 54.3845 97.0138 56.1419C97.383 57.8605 97.8419 59.561 98.4045 61.2263C98.8958 62.6807 99.3023 64.2724 100.402 65.4047C100.718 65.7303 101.215 65.2326 100.899 64.9074ZM45.1108 25.6854C44.6746 26.4132 44.2912 27.1727 43.6679 27.7231C42.9443 28.3622 40.6587 29.7855 40.6587 29.7855L39.6497 24.6464C39.237 22.8264 38.6569 20.7636 39.4719 18.9634C39.8822 18.0571 40.7046 17.7575 41.6082 18.1564C42.5308 18.5639 43.2579 19.369 43.7548 20.2413L45.4247 25.1599C45.3195 25.3361 45.2148 25.5118 45.1108 25.6854ZM73.3573 29.3215C73.6363 30.0341 73.8581 30.7647 74.1212 31.4823C74.5869 32.7523 75.0961 34.0399 75.0929 35.4113C75.0918 35.8372 75.0892 36.1909 74.7752 36.5046C74.5775 36.7021 74.3444 36.8755 74.0972 37.0046C74.0037 37.0535 73.901 37.0821 73.7986 37.1068C73.7744 37.1596 73.5468 37.2822 73.2769 36.9226C72.9224 36.2942 72.5074 35.6951 72.1313 35.1228C70.9593 33.3396 69.7335 31.5872 68.7893 29.6676C68.1117 28.2898 67.3596 26.9592 66.1746 25.9509C64.1855 24.2587 61.4774 23.5381 58.9082 23.4889C58.7346 23.4856 58.5582 23.4863 58.3807 23.491C58.3812 23.4893 58.3819 23.488 58.3823 23.4863C58.7685 22.1961 59.0804 20.8246 59.8091 19.6741C60.5465 18.5099 61.772 18.0723 63.1045 18.047C64.6655 18.0174 66.2859 18.3773 67.6343 19.1748C68.2849 19.5594 68.8485 20.066 69.3274 20.6487C69.8783 21.3187 70.2193 22.1022 70.5514 22.8943C71.1454 24.3117 71.8028 25.7014 72.4266 27.1058C72.7519 27.838 73.0652 28.5753 73.3573 29.3215ZM77.4016 29.5723C76.5818 29.4342 75.8524 28.8784 75.2668 28.3187C74.6148 27.6956 74.1731 26.8821 73.6873 26.1313C73.1736 25.3371 72.6025 24.5914 71.8254 24.0385C71.8187 24.0337 71.8121 24.0299 71.8055 24.0258C71.5418 23.4355 71.2827 22.8433 71.0378 22.2448C70.7278 21.4869 70.3366 20.7917 69.8247 20.1514C68.9338 19.037 67.6855 18.2719 66.3424 17.8266C65.0747 17.4065 63.614 17.2181 62.2698 17.4054C62.2854 17.3674 62.2954 17.3244 62.297 17.2761C62.3361 16.1358 62.2437 14.9954 62.3029 13.8551C62.3536 12.8819 62.5079 11.758 63.2857 11.082C64.3026 10.1983 66.0457 10.6577 67.1239 11.132C67.9883 11.5124 68.8005 12.0046 69.6232 12.4652C70.3712 12.8838 71.1475 13.2449 71.9154 13.6248C72.7242 14.0247 73.5356 14.4512 74.2502 15.0067C74.5753 15.2595 74.8718 15.5467 75.1341 15.8642C75.4269 16.2185 75.6092 16.728 75.7726 17.1511C76.1102 18.0259 76.3286 18.9431 76.5721 19.847C76.8375 20.8322 77.2312 21.7612 77.5742 22.7207C77.9425 23.7513 78.2662 24.7972 78.5782 25.8458C78.7017 26.2608 78.792 26.6837 78.9054 27.1018C79.0181 27.5171 79.1283 27.9324 79.1261 28.3655C79.1217 29.2479 78.1807 29.7037 77.4016 29.5723Z" fill="#3B5A4F"/>
<path d="M40.4771 14.6513C44.2348 13.8937 47.9856 11.8212 49.8906 8.37807C50.607 7.08317 51.045 5.58371 50.9253 4.09461C50.8684 3.38622 50.6945 2.70389 50.3973 2.05821C50.1766 1.57843 49.8694 0.950218 49.2452 1.00313C48.5278 1.06392 48.0042 1.86965 47.6491 2.40767C46.9078 3.53073 46.3481 4.7772 45.8181 6.0099C45.9922 5.96423 46.1664 5.91856 46.3406 5.87289C45.4707 5.25193 44.5637 4.67126 43.6288 4.15362C42.98 3.79442 40.7243 2.45521 40.3606 3.82028C40.2786 4.12813 40.3693 4.47221 40.4751 4.76228C40.6555 5.25656 40.9151 5.71842 41.1822 6.17C41.8043 7.22175 42.5244 8.21912 43.3423 9.1276C44.953 10.9166 46.9575 12.3122 49.1671 13.2593C51.7625 14.3717 54.5597 14.9037 57.3643 15.1276C57.7645 15.1595 58.1652 15.1846 58.5661 15.2047C59.0574 15.2292 59.0561 14.4654 58.5661 14.4409C55.8304 14.304 53.0856 13.9037 50.5002 12.9702C48.3455 12.1922 46.3414 11.0104 44.687 9.41923C43.8806 8.64369 43.1589 7.78427 42.527 6.86129C42.1904 6.36978 41.8754 5.86231 41.587 5.34102C41.3867 4.9789 41.2183 4.66558 41.124 4.27718C41.117 4.24809 41.1117 4.21858 41.1047 4.18955C41.0843 4.10436 41.1007 4.17437 41.1004 4.17088C41.0963 4.1128 41.096 4.05723 41.0983 3.99915C41.092 4.16239 41.1154 3.91465 41.0998 4.00134C41.0896 4.05786 41.0987 4.01338 41.1106 3.988C41.1318 3.94274 41.0457 4.05739 41.0951 4.00994C41.1457 3.96125 41.0198 4.04743 41.072 4.02506C41.0831 4.02027 41.105 4.00953 41.1136 4.00118C41.136 3.97944 41.034 4.01537 41.0925 4.01239C41.1153 4.0112 41.1393 3.99952 41.1623 3.99623C41.1682 3.9954 41.0663 3.9943 41.1472 4.00051C41.1676 4.00207 41.1888 3.99853 41.2094 3.99931C41.249 4.00087 41.4053 4.01891 41.2899 4.00098C41.9254 4.09956 42.3822 4.35434 42.9454 4.65192C43.9766 5.19672 44.9208 5.8622 45.8982 6.49213C45.9176 6.50465 45.9362 6.51888 45.955 6.53233C46.1089 6.64212 46.4011 6.57315 46.4776 6.39532C46.9344 5.33284 47.4182 4.27411 48.0072 3.27721C48.2045 2.94324 48.4121 2.6089 48.658 2.30799C48.745 2.20158 48.8367 2.09841 48.9358 2.00311C48.9804 1.96026 49.0261 1.91829 49.0744 1.8796C49.1262 1.83821 49.0049 1.92679 49.091 1.86819C49.1167 1.85072 49.1423 1.83331 49.1692 1.81762C49.1912 1.80474 49.3274 1.734 49.2281 1.78373C49.2467 1.7744 49.3998 1.72774 49.2682 1.76392C49.2749 1.7621 49.3216 1.76611 49.3245 1.76178C49.3282 1.76189 49.3319 1.76194 49.3356 1.76204C49.3771 1.76538 49.365 1.76356 49.2994 1.75652C49.3084 1.74823 49.3327 1.77315 49.3416 1.76752C49.3794 1.78107 49.3694 1.77654 49.3118 1.75396C49.3253 1.76074 49.3386 1.7682 49.3514 1.77628C49.3841 1.80657 49.3077 1.71945 49.3776 1.80172C49.3919 1.81871 49.4076 1.83461 49.4219 1.85182C49.3659 1.78451 49.4092 1.83753 49.4214 1.85729C49.5058 1.99388 49.5853 2.13324 49.6575 2.27676C49.9164 2.79116 50.0949 3.41838 50.1511 3.97856C50.4461 6.91843 48.5098 9.66207 46.2364 11.3482C44.4749 12.6548 42.4164 13.4826 40.274 13.9145C39.7925 14.0118 39.9963 14.7482 40.4771 14.6513Z" fill="#DE0007" stroke="#DE0007"/>
</svg>
