<svg width="101" height="75" viewBox="0 0 101 75" fill="none" xmlns="http://www.w3.org/2000/svg">
<path d="M100.899 64.9095C100.249 64.241 99.8828 63.3739 99.5755 62.5076C99.2575 61.6108 98.9588 60.7033 98.681 59.7934C98.0733 57.804 97.6129 55.7699 97.2576 53.721C96.9035 51.6794 96.6714 49.6157 96.5724 47.5458C96.4716 45.4415 96.4258 43.3117 95.6105 41.3355L89.935 23.628C89.3814 21.6021 88.6438 19.6322 88.0254 17.6262C87.4175 15.6545 86.9187 13.6188 86.8587 11.547C86.8173 10.12 87.2533 8.46003 86.1701 7.29687C85.561 6.64285 84.6457 6.38646 83.7831 6.52243C82.9002 6.66162 82.116 7.28962 81.5257 7.92435C80.274 9.27029 79.8048 11.2789 79.7178 13.0619C79.628 14.9003 79.9939 16.7026 80.4056 18.4823C80.8547 20.4241 81.2062 22.3835 81.3027 24.3774C81.352 25.3961 81.3439 26.4218 81.2343 27.4362C81.1703 28.0283 81.0719 28.6156 80.974 29.2031C80.6514 28.8908 80.2505 28.6796 79.8015 28.5723C79.8341 28.3263 79.8269 28.0673 79.7845 27.8014C79.6424 26.9108 79.3645 26.0165 79.1047 25.1549C78.7884 24.1059 78.4496 23.064 78.0708 22.0359C77.8913 21.5487 77.6722 21.0722 77.5142 20.5781C77.3727 20.1352 77.2555 19.6846 77.1361 19.2356C76.8967 18.3354 76.6577 17.4316 76.2918 16.5727C75.9336 15.7321 75.4621 15.084 74.7474 14.5115C73.3745 13.4119 71.6983 12.8041 70.1697 11.9663C68.6103 11.1115 67.0804 10.0825 65.2639 9.92504C64.0984 9.82385 62.9533 10.1655 62.286 11.1716C61.7331 12.0051 61.6304 13.0953 61.59 14.0674C61.5456 15.1375 61.6306 16.208 61.594 17.2781C61.5904 17.3819 61.6247 17.4616 61.6795 17.5178C59.0331 18.1603 58.3867 21.0216 57.7044 23.3015C57.6777 23.3909 57.6854 23.4693 57.715 23.5344C56.9108 23.6151 56.113 23.8174 55.4401 24.2471C54.1509 25.0703 54.0289 26.6195 54.2282 28.0174C54.4054 29.2606 54.8772 30.4236 55.1376 31.6462C55.2061 31.9678 55.27 32.3696 55.1287 32.682C54.9605 33.0537 54.5105 33.1504 54.148 33.2129C54.106 33.2201 54.0698 33.2327 54.0387 33.2494C52.8972 32.0674 51.3142 30.679 49.998 29.7142L52.4696 24.9579C53.0036 23.7928 53.9626 22.027 52.6193 21.0137C51.2842 20.0065 49.2344 20.7127 48.0896 21.6747C47.9134 21.8228 47.7459 21.9802 47.5846 22.1443L46.8894 22.9416C46.5283 23.4034 46.2015 23.8964 45.8905 24.3959C45.8905 24.3959 44.9956 21.2043 44.5273 20.2077C44.2685 19.6569 43.9072 19.1549 43.4919 18.7007C42.8027 17.9471 41.8251 17.2685 40.7666 17.2669C39.5957 17.265 38.9086 18.2735 38.6115 19.2911C38.0366 21.2608 38.6279 23.2654 39.0529 25.198C39.4074 26.8094 39.4624 28.7229 39.8724 30.3244C39.1903 30.6424 39.7086 30.4136 37.8821 31.277C37.7147 29.821 37.4051 27.4929 37.239 26.0374C37.0893 24.7257 36.9044 23.4125 36.5217 22.1455C36.1492 20.9118 35.561 19.6243 34.4497 18.8917C34.2457 18.7573 34.0212 18.6515 33.789 18.5724C33.8135 17.8394 33.7927 17.1045 33.6942 16.3616C33.5363 15.1709 33.3185 13.9846 32.9007 12.8548C32.5336 11.8622 31.917 10.8425 30.8707 10.4713C30.2715 10.2587 29.6301 10.3466 29.0415 10.5527C29.125 10.1782 29.1792 9.79809 29.1858 9.41293C29.2005 8.5438 28.9005 7.75054 28.3979 7.05179C27.4528 5.73755 25.9148 5.0998 24.3275 5.3747C22.3685 5.71404 20.8389 7.22795 19.4482 8.53567C17.8386 10.0491 16.2118 11.6821 15.0441 13.5712C14.6477 14.2125 14.2288 14.991 14.257 15.769C14.282 16.4584 14.7157 16.9335 15.3277 17.1624C14.8504 17.7661 14.37 18.3692 13.8593 18.942C13.1716 19.7131 12.4148 20.4205 11.6501 21.114C11.4337 21.3103 11.2155 21.5052 10.997 21.6996C11.1637 20.3223 11.817 19.0299 12.35 17.7604C12.689 16.9532 12.9916 16.13 13.1629 15.2694C13.3027 14.5668 13.3133 13.8704 13.2645 13.158C13.162 11.6584 12.8303 10.1412 12.1508 8.7929C11.5567 7.61411 10.5071 6.48885 9.15778 6.23277C6.65499 5.75773 5.77586 9.41214 5.33361 11.1575C5.24884 11.4919 5.16199 11.8257 5.07518 12.1596L2.3269 22.058C1.16249 26.1758 1.21212 30.4445 0.639066 34.6566C0.495438 35.7125 0.259063 36.7523 0.132899 37.8104C0.0122095 38.8222 -0.0186016 39.843 0.00986343 40.861C0.0670542 42.8969 0.392891 44.9143 0.733793 46.9184C1.37301 50.6774 2.09 54.4085 2.44602 58.2099C2.80048 61.9955 2.85006 65.8536 2.18541 69.6088C2.10632 70.0557 2.80934 70.0931 2.88734 69.6524C3.58541 65.7089 3.48474 61.6682 3.0989 57.6968C2.70482 53.6392 1.88668 49.6596 1.23287 45.6417C0.906304 43.6349 0.656166 41.6153 0.710333 39.5784C0.766586 37.4648 1.28349 35.4047 1.50975 33.3077C1.73732 31.1992 1.84393 29.0796 2.08385 26.9724C2.20391 25.9175 2.36204 24.8663 2.58668 23.8285C2.82639 22.7207 3.17699 21.6333 3.48542 20.5429C4.1153 18.3152 4.74518 16.0875 5.37516 13.8598C5.47792 13.4964 5.57134 13.1305 5.66205 12.764L5.86871 11.9195C5.99196 11.4143 6.11781 10.9098 6.26211 10.41C6.57257 9.33426 6.95205 8.07841 7.80189 7.29573C7.89938 7.20595 8.00093 7.13468 8.10525 7.07822L8.86734 6.91677C9.493 6.95675 10.1295 7.35714 10.5871 7.79767C11.4612 8.63911 11.9236 9.85622 12.2183 11.0072C12.5007 12.1098 12.6366 13.2674 12.5804 14.4052C12.5346 15.3308 12.2298 16.2364 11.8706 17.1106L9.80716 18.1994C9.61176 18.2654 9.46584 18.4325 9.51187 18.6516C9.5504 18.8351 9.76738 19.0134 9.96408 18.9469C10.3286 18.8238 10.6774 18.6735 11.0008 18.4629C11.1447 18.3692 11.2855 18.2693 11.4189 18.1611C11.3693 18.2745 11.3203 18.3872 11.2724 18.4992C10.7472 19.7247 10.2409 21.0075 10.2561 22.3595C9.49253 23.0441 8.74113 23.742 8.05724 24.5065C8.05661 24.5072 8.05593 24.508 8.05531 24.5087C8.11615 24.7115 8.22339 24.8894 8.32218 24.9355C8.39251 24.972 8.46565 25 8.54073 25.0211C8.91192 24.609 9.29943 24.2113 9.70195 23.8287C10.0505 23.4973 10.4057 23.1731 10.7631 22.8511C10.84 22.8263 10.9045 22.7745 10.9373 22.6946C12.0703 21.6782 13.2192 20.6793 14.2486 19.5547C14.9608 18.7768 15.6006 17.9296 16.2613 17.1083C16.9447 16.2585 17.62 15.4024 18.2745 14.5302C19.1565 13.3543 19.9264 12.1031 20.7996 10.9224C21.2094 10.3684 21.6588 9.8472 22.1663 9.38029C22.6001 8.98126 23.2025 8.46295 23.795 8.33861C24.2387 8.24544 24.0943 7.55733 23.6505 7.65049C22.8265 7.82347 22.0378 8.5192 21.4504 9.08959C20.7753 9.74528 20.21 10.5123 19.6793 11.2862C18.4763 13.0408 17.2488 14.7535 15.9193 16.4163C15.8757 16.4708 15.8323 16.5256 15.7887 16.5804C15.7663 16.5684 15.7413 16.5583 15.7138 16.5501C15.5498 16.5027 15.428 16.4569 15.2947 16.3728C15.1939 16.309 15.1062 16.2162 15.0609 16.1399C14.9333 15.925 14.9361 15.7122 14.9897 15.4003C15.1249 14.6151 15.7017 13.8039 16.1764 13.1497C17.4687 11.3683 19.0781 9.79767 20.7104 8.33016C22.2175 6.97521 24.1766 5.38226 26.3269 6.242C27.1231 6.56022 27.7889 7.26815 28.175 8.01804C28.5635 8.77267 28.5336 9.64085 28.3476 10.4467C28.1516 11.2957 27.8048 12.105 27.5142 12.9238C27.1779 13.8715 26.9573 14.8618 26.7225 15.8387C26.4391 17.0185 26.3194 18.2042 26.1872 19.4063C26.0943 20.2516 25.9068 21.4743 26.5324 22.1705C26.8352 22.5075 27.3573 22.0363 27.0536 21.6984C26.6547 21.2546 26.8069 20.3488 26.8529 19.8132C26.9161 19.0801 26.9855 18.3362 27.0852 17.6074C27.3556 15.6321 27.9869 13.7193 28.6534 11.8503C28.7104 11.6906 28.7655 11.5294 28.8175 11.3671C28.8671 11.3678 28.9195 11.3579 28.9736 11.3336C29.4812 11.1068 30.0443 10.9625 30.5928 11.1207C31.0583 11.2549 31.4058 11.6061 31.6826 11.9881C32.359 12.9216 32.6146 14.1753 32.8175 15.2859C33.0261 16.4278 33.1204 17.5512 33.0882 18.6928C33.0394 18.7919 33.031 18.9077 33.0762 19.0009C33.0632 19.272 33.0434 19.5442 33.0158 19.8181C32.8292 21.6774 32.4656 23.5267 32.6075 25.4033C32.6603 26.1025 32.7802 26.7884 32.9823 27.4604C33.1118 27.8912 33.801 27.7503 33.6704 27.3159C33.1101 25.453 33.2659 23.5432 33.5034 21.6416C33.6006 20.8628 33.6949 20.091 33.7499 19.319C34.7391 19.7749 35.3012 20.8137 35.6776 21.8204C36.1494 23.0825 36.3437 24.4508 36.5044 25.7821C36.6994 27.398 36.8938 29.0131 37.0959 30.6288C37.319 32.4125 37.4652 34.2875 36.9471 36.0349C36.9271 36.1005 36.9061 36.1658 36.8842 36.2307C36.742 36.6622 37.4096 36.8836 37.5513 36.4533C38.1118 34.7519 38.1812 33.6663 37.9991 31.9076C37.9991 31.9076 40.8925 30.419 42.0741 29.6891C42.7595 29.2658 44.1347 28.2867 44.6456 27.6646C45.1742 27.0209 45.5727 26.2829 46.0007 25.5715C46.8368 24.1818 47.752 22.6169 49.1738 21.751C49.8621 21.3318 50.8341 21.1432 51.6235 21.314C52.4753 21.4983 52.7148 22.2391 52.5263 23.0094C52.3471 23.7413 51.9375 24.4041 51.6598 25.0999C51.6598 25.0999 49.9079 28.6376 49.1576 29.7143C47.9107 31.5039 43.403 36.2718 43.403 36.2718C43.2196 36.4878 43.0375 36.7042 42.8558 36.92C41.5356 38.4878 40.1203 39.9763 38.8778 41.6077C37.6276 43.2493 36.5134 44.9887 35.3642 46.7008C34.2719 48.3283 33.1199 49.8823 31.8432 51.3695C30.224 53.2556 28.5104 55.1513 27.2523 57.3106C27.2031 57.395 27.1633 57.4845 27.1326 57.5772C27.0918 57.7002 27.0815 57.8311 27.1025 57.9589C27.595 60.9603 28.0116 63.9738 28.3518 66.9962C28.4067 67.4844 29.1539 67.3243 29.0993 66.8393C28.7642 63.8621 28.3547 60.8937 27.8718 57.9369C27.847 57.7848 27.8776 57.6293 27.9568 57.497C29.745 54.5082 32.355 52.1184 34.4017 49.3171C36.4746 46.48 38.2308 43.4206 40.4826 40.7141C41.0347 40.0504 41.6343 39.429 42.1988 38.776C42.7542 38.1335 43.2953 37.4786 43.8446 36.8309C44.1985 36.4137 44.5585 35.9981 44.9286 35.5917C45.0328 35.6602 45.1333 35.7372 45.23 35.8194C45.4506 36.007 45.6522 36.2196 45.8374 36.4091C46.3639 36.9481 46.8392 37.5352 47.3271 38.1086C47.8637 38.7389 48.4566 39.3148 48.9821 39.9557C49.6377 40.7553 50.2385 41.5981 50.897 42.3954C52.2243 44.0025 53.6038 45.5633 54.8976 47.1994C55.2429 47.6361 55.582 48.0775 55.9161 48.5228L58.2129 51.1474C58.8985 51.9945 59.6062 52.795 60.4286 53.5136C62.1688 55.0338 64.0608 56.396 66.0316 57.6006C67.0105 58.1989 68.0475 58.7295 68.9401 59.4572C69.7395 60.1089 70.4303 60.8865 71.0348 61.7199C72.3501 63.533 73.3809 65.5572 74.4836 67.5018C75.8652 69.9383 77.2469 72.375 78.6286 74.8115C78.871 75.2391 79.5312 74.8546 79.2881 74.426C78.0396 72.2243 76.7911 70.0225 75.5427 67.8208C74.4098 65.8229 73.3453 63.7584 72.0577 61.8539C71.4677 60.9812 70.8125 60.1427 70.0469 59.4163C69.2266 58.6379 68.2772 58.0426 67.3068 57.4716C65.28 56.2789 63.3405 54.9542 61.5304 53.4507C60.5637 52.6478 59.703 51.7796 58.912 50.8037L53.6875 44.5993C52.8022 43.5326 51.8674 42.5032 51.0057 41.4178C50.148 40.3375 49.3522 39.2108 48.3789 38.2277C47.742 37.5843 47.2001 36.8489 46.5889 36.1814C46.3631 35.9349 46.1127 35.6609 45.8384 35.4121C45.7034 35.2895 45.5622 35.1737 45.4156 35.0697L49.447 30.2292C49.4553 30.235 49.4634 30.2409 49.4716 30.2466L50.0388 30.6549C52.1365 32.2069 54.026 34.1 55.6412 36.1425C55.7138 36.1497 55.7869 36.1397 55.8574 36.1046C56.0308 36.0034 56.1385 35.8693 56.1958 35.7188C55.6861 35.0749 55.1512 34.4453 54.5917 33.8361C55.1413 33.6944 55.6031 33.4026 55.82 32.8375C56.0748 32.1738 55.8017 31.3442 55.621 30.7009C55.3405 29.7023 55.0038 28.7125 54.89 27.6764C54.8071 26.9219 54.8023 26.0551 55.2307 25.3972C55.8238 24.4866 57.1449 24.2729 58.1379 24.21C59.3813 24.1312 60.6448 24.2891 61.8526 24.5814C63.1307 24.8909 64.3614 25.4608 65.4189 26.2433C66.6333 27.1421 67.4184 28.4578 68.0712 29.7921C69.013 31.717 70.2027 33.482 71.3832 35.2654C72.1663 36.4483 73.0978 37.7013 73.3895 39.1223C73.4688 39.5086 73.4668 39.9573 73.1739 40.2541C72.75 40.684 71.9391 40.6231 71.3981 40.5833C69.5586 40.4478 68.1274 38.9066 67.0061 37.5926L65.9863 36.2394C65.224 35.1057 64.5904 33.8765 64.003 32.6567C63.715 32.0585 62.8401 31.4635 62.2686 31.2242C61.5002 31.0835 60.7021 31.2087 59.9272 31.1676C59.3565 31.1371 58.7807 30.9461 58.2418 30.6754C58.139 30.9041 58.1112 31.1549 58.1672 31.3894C58.3951 31.4926 58.6285 31.5852 58.8673 31.6658C59.6705 31.9368 60.4957 31.8722 61.3285 31.8648C61.3925 31.8643 61.4562 31.8647 61.5198 31.8658C60.7932 32.4124 59.9766 32.8007 59.107 33.0289C59.1165 33.2712 59.1833 33.505 59.2973 33.7058C60.4666 33.3968 61.5496 32.8232 62.4681 31.9956C62.9416 32.1407 63.148 32.5294 63.3774 32.9653C63.4994 33.1973 63.6065 33.4368 63.7077 33.6786C63.9076 34.1564 64.1846 34.5894 64.4446 35.034C64.7678 35.5869 65.1027 36.1297 65.4579 36.6565C64.7632 37.7979 63.7985 38.8473 62.6604 39.5947C62.7099 39.8166 62.8586 40.0124 63.0883 40.1272C63.0952 40.131 63.1022 40.1342 63.1091 40.1378C64.2205 39.3939 65.1765 38.3885 65.8956 37.2814C66.519 38.1376 67.2098 38.9408 68.0124 39.6586C68.6887 40.2634 69.4578 40.7549 70.2895 41.0396L71.1329 41.2504C71.6357 41.3299 72.1561 41.3304 72.6885 41.2325C73.1997 41.1384 73.6834 40.8595 73.9379 40.3959C74.1829 39.95 74.1577 39.4187 74.0675 38.9354C74.01 38.6265 73.9189 38.3244 73.8052 38.0281C76.9258 39.3367 79.459 41.8109 81.1209 44.7322C81.6006 45.5754 82.0087 46.4566 82.3426 47.3674C82.4545 47.6725 82.9469 47.5406 82.8336 47.232C81.6093 43.8932 79.4157 40.8847 76.4535 38.8857C75.7676 38.4228 75.0432 38.0253 74.2892 37.6879C74.3158 37.6766 74.3419 37.6652 74.3672 37.6535C74.9351 37.3916 75.5505 36.8904 75.7246 36.2659C75.9279 35.5366 75.7907 34.643 75.6388 33.9202C75.6342 33.8987 75.5896 33.7116 75.585 33.6901L75.7235 33.6348C76.2713 33.4742 76.8124 33.2996 77.2315 32.8864C77.4652 32.656 77.1051 32.296 76.8714 32.5264C76.4859 32.9066 75.9596 33.0398 75.4525 33.1841C75.2574 32.5124 75.0047 31.8557 74.7645 31.2009C74.3922 30.1854 74.0588 29.1638 73.6426 28.1634C73.3099 27.364 72.9567 26.5733 72.5997 25.7844C73.3261 26.7492 73.8503 27.8911 74.7038 28.7528C75.7692 29.8281 77.5793 30.9216 79.0202 29.8822C79.2727 29.7001 79.4591 29.4842 79.5889 29.2443C79.9207 29.3211 80.2191 29.4579 80.4599 29.6797L80.7586 30.62C80.5416 32.425 80.669 34.1725 81.575 35.8062C81.7949 36.2028 82.4022 35.8482 82.1821 35.4514C81.674 34.535 81.4006 33.5511 81.3536 32.5051C81.3105 31.5432 81.4555 30.5824 81.6097 29.6359C81.7679 28.6654 81.936 27.6964 82.0018 26.7141C82.0733 25.6461 82.0345 24.5644 81.9506 23.4984C81.7888 21.4417 81.3573 19.4198 80.8771 17.4174C80.4443 15.6125 80.2431 13.6657 80.5493 11.8252C80.8451 10.0476 81.7542 7.98895 83.5618 7.31027C84.3996 6.9958 85.39 7.29703 85.8794 8.05886C86.2754 8.67503 86.2295 9.50463 86.2012 10.2042C86.1672 11.04 86.1525 11.848 86.2334 12.6831C86.3337 13.7184 86.529 14.7429 86.7738 15.753C87.2686 17.7949 87.9944 19.7718 88.6399 21.7686C88.9627 22.7672 89.2907 23.7781 89.5058 24.8064L95.2831 42.5045C95.5909 43.5204 95.7067 44.5803 95.7755 45.6356C95.8884 47.3685 95.9412 49.0972 96.1378 50.8244C96.3412 52.6106 96.6363 54.3865 97.0138 56.144C97.383 57.8626 97.8419 59.5631 98.4045 61.2284C98.8958 62.6827 99.3023 64.2745 100.402 65.4068C100.718 65.7323 101.215 65.2347 100.899 64.9095ZM45.1108 25.6875C44.6746 26.4153 44.2912 27.1748 43.6679 27.7252C42.9443 28.3643 40.6587 29.7876 40.6587 29.7876L39.6497 24.6485C39.237 22.8284 38.6569 20.7657 39.4719 18.9654C39.8822 18.0592 40.7046 17.7595 41.6082 18.1585C42.5308 18.5659 43.2579 19.3711 43.7548 20.2434L45.4247 25.1619C45.3195 25.3382 45.2148 25.5138 45.1108 25.6875ZM73.3573 29.3236C73.6363 30.0362 73.8581 30.7667 74.1212 31.4844C74.5869 32.7543 75.0961 34.0419 75.0929 35.4134C75.0918 35.8393 75.0892 36.193 74.7752 36.5067C74.5775 36.7041 74.3444 36.8776 74.0972 37.0067C74.0037 37.0556 73.901 37.0841 73.7986 37.1089C73.7744 37.1617 73.5468 37.2843 73.2769 36.9247C72.9224 36.2962 72.5074 35.6971 72.1313 35.1249C70.9593 33.3417 69.7335 31.5892 68.7893 29.6697C68.1117 28.2918 67.3596 26.9613 66.1746 25.953C64.1855 24.2608 61.4774 23.5402 58.9082 23.491C58.7346 23.4877 58.5582 23.4883 58.3807 23.493C58.3812 23.4914 58.3819 23.4901 58.3823 23.4883C58.7685 22.1982 59.0804 20.8267 59.8091 19.6762C60.5465 18.5119 61.772 18.0744 63.1045 18.0491C64.6655 18.0195 66.2859 18.3794 67.6343 19.1768C68.2849 19.5615 68.8485 20.0681 69.3274 20.6508C69.8783 21.3208 70.2193 22.1042 70.5514 22.8964C71.1454 24.3138 71.8028 25.7035 72.4266 27.1078C72.7519 27.8401 73.0652 28.5774 73.3573 29.3236ZM77.4016 29.5744C76.5818 29.4362 75.8524 28.8804 75.2668 28.3207C74.6148 27.6977 74.1731 26.8841 73.6873 26.1334C73.1736 25.3392 72.6025 24.5935 71.8254 24.0406C71.8187 24.0358 71.8121 24.0319 71.8055 24.0278C71.5418 23.4376 71.2827 22.8453 71.0378 22.2468C70.7278 21.489 70.3366 20.7938 69.8247 20.1535C68.9338 19.0391 67.6855 18.2739 66.3424 17.8287C65.0747 17.4086 63.614 17.2202 62.2698 17.4075C62.2854 17.3695 62.2954 17.3265 62.297 17.2782C62.3361 16.1379 62.2437 14.9974 62.3029 13.8572C62.3536 12.8839 62.5079 11.7601 63.2857 11.0841C64.3026 10.2004 66.0457 10.6598 67.1239 11.1341C67.9883 11.5145 68.8005 12.0066 69.6232 12.4673C70.3712 12.8859 71.1475 13.247 71.9154 13.6269C72.7242 14.0268 73.5356 14.4533 74.2502 15.0088C74.5753 15.2616 74.8718 15.5488 75.1341 15.8663C75.4269 16.2206 75.6092 16.73 75.7726 17.1532C76.1102 18.028 76.3286 18.9452 76.5721 19.8491C76.8375 20.8343 77.2312 21.7633 77.5742 22.7228C77.9425 23.7533 78.2662 24.7993 78.5782 25.8479C78.7017 26.2629 78.792 26.6858 78.9054 27.1039C79.0181 27.5192 79.1283 27.9345 79.1261 28.3675C79.1217 29.25 78.1807 29.7058 77.4016 29.5744Z" fill="#3B5A4F"/>
<path d="M40.4771 14.6533C44.2348 13.8958 47.9856 11.8233 49.8906 8.38015C50.607 7.08525 51.045 5.58578 50.9253 4.09669C50.8684 3.38829 50.6945 2.70597 50.3973 2.06029C50.1766 1.5805 49.8694 0.952293 49.2452 1.00521C48.5278 1.066 48.0042 1.87172 47.6491 2.40974C46.9078 3.53281 46.3481 4.77927 45.8181 6.01197C45.9922 5.9663 46.1664 5.92064 46.3406 5.87497C45.4707 5.254 44.5637 4.67334 43.6288 4.1557C42.98 3.7965 40.7243 2.45729 40.3606 3.82236C40.2786 4.13021 40.3693 4.47429 40.4751 4.76436C40.6555 5.25864 40.9151 5.72049 41.1822 6.17207C41.8043 7.22382 42.5244 8.22119 43.3423 9.12967C44.953 10.9186 46.9575 12.3143 49.1671 13.2614C51.7625 14.3738 54.5597 14.9058 57.3643 15.1296C57.7645 15.1616 58.1652 15.1867 58.5661 15.2067C59.0574 15.2313 59.0561 14.4674 58.5661 14.4429C55.8304 14.3061 53.0856 13.9057 50.5002 12.9722C48.3455 12.1942 46.3414 11.0124 44.687 9.42131C43.8806 8.64577 43.1589 7.78634 42.527 6.86337C42.1904 6.37185 41.8754 5.86438 41.587 5.3431C41.3867 4.98098 41.2183 4.66765 41.124 4.27926C41.117 4.25017 41.1117 4.22066 41.1047 4.19162C41.0843 4.10643 41.1007 4.17645 41.1004 4.17296C41.0963 4.11488 41.096 4.05931 41.0983 4.00123C41.092 4.16446 41.1154 3.91672 41.0998 4.00342C41.0896 4.05993 41.0987 4.01546 41.1106 3.99007C41.1318 3.94482 41.0457 4.05946 41.0951 4.01202C41.1457 3.96333 41.0198 4.0495 41.072 4.02714C41.0831 4.02234 41.105 4.0116 41.1136 4.00326C41.136 3.98152 41.034 4.01744 41.0925 4.01447C41.1153 4.01327 41.1393 4.00159 41.1623 3.99831C41.1682 3.99747 41.0663 3.99638 41.1472 4.00258C41.1676 4.00415 41.1888 4.0006 41.2094 4.00139C41.249 4.00295 41.4053 4.02099 41.2899 4.00305C41.9254 4.10164 42.3822 4.35642 42.9454 4.654C43.9766 5.19879 44.9208 5.86428 45.8982 6.49421C45.9176 6.50672 45.9362 6.52095 45.955 6.5344C46.1089 6.6442 46.4011 6.57523 46.4776 6.3974C46.9344 5.33491 47.4182 4.27618 48.0072 3.27928C48.2045 2.94531 48.4121 2.61098 48.658 2.31006C48.745 2.20366 48.8367 2.10049 48.9358 2.00519C48.9804 1.96233 49.0261 1.92036 49.0744 1.88168C49.1262 1.84029 49.0049 1.92886 49.091 1.87026C49.1167 1.8528 49.1423 1.83539 49.1692 1.81969C49.1912 1.80682 49.3274 1.73607 49.2281 1.78581C49.2467 1.77647 49.3998 1.72981 49.2682 1.766C49.2749 1.76417 49.3216 1.76819 49.3245 1.76386C49.3282 1.76396 49.3319 1.76401 49.3356 1.76412C49.3771 1.76745 49.365 1.76563 49.2994 1.75859C49.3084 1.7503 49.3327 1.77522 49.3416 1.76959C49.3794 1.78315 49.3694 1.77861 49.3118 1.75604C49.3253 1.76281 49.3386 1.77027 49.3514 1.77835C49.3841 1.80864 49.3077 1.72153 49.3776 1.80379C49.3919 1.82079 49.4076 1.83669 49.4219 1.85389C49.3659 1.78659 49.4092 1.83961 49.4214 1.85937C49.5058 1.99596 49.5853 2.13531 49.6575 2.27883C49.9164 2.79324 50.0949 3.42046 50.1511 3.98064C50.4461 6.92051 48.5098 9.66415 46.2364 11.3503C44.4749 12.6569 42.4164 13.4847 40.274 13.9166C39.7925 14.0139 39.9963 14.7503 40.4771 14.6533Z" fill="#DE0007" stroke="#DE0007"/>
</svg>
