<svg width="101" height="87" viewBox="0 0 101 87" fill="none" xmlns="http://www.w3.org/2000/svg">
<path d="M50.9793 59.4173C53.2344 53.5212 55.5484 47.4648 57.7491 41.4547C60.0569 41.9507 62.3777 42.3829 64.6823 42.7191C64.6953 42.739 64.7078 42.7569 64.7201 42.7761C60.1169 47.9644 55.354 53.9639 50.9793 59.4173ZM50.5223 59.9882C50.5192 59.9845 50.5161 59.9808 50.5136 59.9777C50.5198 59.9777 50.5248 59.9771 50.531 59.9771C50.5279 59.9808 50.5248 59.9845 50.5223 59.9882ZM35.3796 42.6238L35.4037 42.5804C37.3555 42.2981 39.8868 41.8269 42.4132 41.3284C44.89 47.3669 47.4863 53.4475 50.0189 59.3758C45.3507 53.702 40.5655 47.7719 35.3796 42.6238ZM37.47 38.8881C38.2224 37.5271 38.9958 36.179 39.8032 34.8521C40.5902 36.8435 41.3952 38.846 42.2181 40.8566C39.9648 41.3971 37.7134 41.9445 35.4619 42.477L37.47 38.8881ZM55.149 35.0899C56.0754 35.1054 57.0017 35.1264 57.928 35.1437C56.9782 35.5233 56.0413 35.9277 55.1106 36.3456C53.492 37.0744 51.9378 37.9327 50.3718 38.768C47.0622 37.4305 43.7463 36.1072 40.4199 34.8081C45.3309 34.6942 50.2406 34.9636 55.149 35.0899ZM51.5261 39.129C54.123 37.9556 56.6611 36.6763 59.076 35.1568C59.3206 35.1599 59.5658 35.1642 59.8104 35.1648C59.8395 35.2112 59.8692 35.2577 59.899 35.3041C59.1757 37.0162 58.4562 38.7426 57.7423 40.4838C55.6698 39.9884 53.5886 39.5414 51.5261 39.129ZM50.5638 58.5126C50.622 54.094 50.7805 42.1674 50.8102 39.7996C52.9682 40.3575 55.1664 40.8919 57.3794 41.3736C55.0549 47.0641 52.7812 52.8531 50.5638 58.5126ZM49.8684 39.8144L50.4926 58.6705C47.9836 52.9243 45.4064 47.0331 42.7828 41.2553C45.4058 40.7346 47.9823 40.1952 49.8684 39.8144ZM39.8218 34.8211C39.9568 34.8168 40.0924 34.8162 40.228 34.8125C42.9773 36.3413 46.4201 37.7432 49.4647 39.1946C47.1619 39.6918 44.8621 40.2225 42.5649 40.773C41.654 38.7723 40.7382 36.7878 39.8174 34.828C39.8187 34.8261 39.8199 34.8236 39.8218 34.8211ZM64.3963 42.2838C62.325 41.6454 60.208 41.0776 58.0779 40.5624C58.712 38.8218 59.3287 37.0905 59.9374 35.3654C61.2761 37.4738 62.9795 40.1222 64.3963 42.2838ZM66.8669 42.2975C65.9133 40.8683 64.9647 39.4348 63.9789 38.0268L61.0489 33.784C60.8879 33.5375 60.6098 33.3784 60.2946 33.3852C58.5732 33.4254 56.8525 33.5165 55.1311 33.5864C49.9706 33.8391 44.812 34.2564 39.6416 34.2118C39.5413 34.2118 39.4416 34.2638 39.3852 34.3555C38.5091 35.7171 37.592 37.0534 36.6551 38.3766L33.865 42.36C33.673 42.6262 33.7139 42.9996 33.9467 43.2399C39.031 49.2462 44.8392 54.8104 50.5235 60.1802C50.5297 60.174 50.5359 60.1678 50.5421 60.1616V60.169C50.5421 60.169 50.5427 60.1622 50.5427 60.1616C56.0147 54.7931 61.616 49.2741 66.7747 43.5538C67.0818 43.2139 67.1332 42.695 66.8669 42.2975Z" fill="#DE0007"/>
<path d="M49.9799 12.9069C49.4461 8.75012 49.4758 4.58779 50.0839 0.440951C50.6232 4.59707 50.5836 8.75941 49.9799 12.9069Z" fill="#3B5A4F"/>
<path d="M41.5655 14.4647C40.3902 11.9693 39.7599 9.32777 39.6961 6.56982C40.8757 9.06399 41.4973 11.7074 41.5655 14.4647Z" fill="#3B5A4F"/>
<path d="M33.3591 17.3738C30.9566 14.152 29.0445 10.6498 27.6457 6.88132C30.0519 10.1012 31.956 13.6071 33.3591 17.3738Z" fill="#3B5A4F"/>
<path d="M27.5416 23.0865C24.9992 21.3837 22.8425 19.2679 21.1013 16.7502C23.6468 18.4499 25.7973 20.5726 27.5416 23.0865Z" fill="#3B5A4F"/>
<path d="M21.4128 29.6316C17.6467 28.2285 14.1408 26.3244 10.9209 23.9182C14.6894 25.317 18.191 27.2291 21.4128 29.6316Z" fill="#3B5A4F"/>
<path d="M18.9198 38.1494C15.9928 37.6813 13.246 36.6776 10.7128 35.137C13.6416 35.6008 16.3847 36.6132 18.9198 38.1494Z" fill="#3B5A4F"/>
<path d="M17.4659 46.0444C13.3191 46.6481 9.15612 46.6877 5 46.1484C9.14683 45.5403 13.3092 45.5106 17.4659 46.0444Z" fill="#3B5A4F"/>
<path d="M18.6083 54.5628C16.2442 55.6712 13.7407 56.2322 11.1289 56.2248C13.4918 55.1121 15.9977 54.5603 18.6083 54.5628Z" fill="#3B5A4F"/>
<path d="M21.8289 62.2496C18.3118 64.989 14.4999 67.2472 10.402 69.0021C13.916 66.2596 17.7334 64.0094 21.8289 62.2496Z" fill="#3B5A4F"/>
<path d="M27.4382 69.3135C25.8562 71.5618 23.8772 73.4077 21.5174 74.8195C23.0964 72.568 25.0809 70.7284 27.4382 69.3135Z" fill="#3B5A4F"/>
<path d="M58.4339 14.4196C59.6098 11.9241 60.2401 9.28323 60.3039 6.52466C59.1243 9.01883 58.5027 11.6622 58.4339 14.4196Z" fill="#3B5A4F"/>
<path d="M66.6409 17.3286C69.0434 14.1069 70.9555 10.6047 72.3543 6.83616C69.9481 10.056 68.0434 13.562 66.6409 17.3286Z" fill="#3B5A4F"/>
<path d="M72.4584 23.042C75.0008 21.3386 77.1575 19.2227 78.8987 16.705C76.3532 18.4048 74.2027 20.5274 72.4584 23.042Z" fill="#3B5A4F"/>
<path d="M78.5867 29.5864C82.3533 28.1833 85.8593 26.2792 89.0791 23.873C85.3106 25.2718 81.809 27.1839 78.5867 29.5864Z" fill="#3B5A4F"/>
<path d="M81.0803 38.1042C84.0073 37.6361 86.754 36.6324 89.2866 35.0918C86.3584 35.5556 83.6153 36.568 81.0803 38.1042Z" fill="#3B5A4F"/>
<path d="M82.5341 45.9998C86.681 46.6029 90.8439 46.6425 95 46.1038C90.8532 45.4951 86.6909 45.4654 82.5341 45.9998Z" fill="#3B5A4F"/>
<path d="M81.3917 54.5175C83.7558 55.6259 86.2593 56.1869 88.8711 56.1795C86.5082 55.0674 84.0023 54.5151 81.3917 54.5175Z" fill="#3B5A4F"/>
<path d="M78.1712 62.2044C81.6877 64.9438 85.5001 67.2021 89.598 68.9569C86.084 66.2144 82.2666 63.9642 78.1712 62.2044Z" fill="#3B5A4F"/>
<path d="M72.5618 69.2689C74.1438 71.5166 76.1228 73.3631 78.4826 74.7743C76.9037 72.5229 74.9191 70.6832 72.5618 69.2689Z" fill="#3B5A4F"/>
<path d="M27.8537 44.5905C27.8469 50.4661 29.7943 55.8737 33.5671 60.3802C28.9237 56.7715 26.6122 50.3324 27.8537 44.5905Z" fill="#3B5A4F"/>
<path d="M51.2517 23.4339C57.0704 22.6234 63.3188 25.4086 66.5715 30.3083C62.3584 26.2098 57.1112 23.8649 51.2517 23.4339Z" fill="#3B5A4F"/>
<path d="M75.4101 85.3114L26.9788 85.255V84.8723C26.9788 81.876 28.886 79.4382 31.2303 79.4382H37.3815H63.1832H71.1586C73.503 79.4382 75.4101 81.876 75.4101 84.8723V85.3114ZM39.184 73.3223C39.1976 73.3241 39.2112 73.3235 39.2249 73.3254C39.4614 73.3563 39.7017 73.378 39.9469 73.378H60.3225C60.6414 73.378 60.9516 73.3452 61.2563 73.2932C61.2754 73.2894 61.2959 73.2907 61.3157 73.2876L62.4067 78.1917H38.1505L39.184 73.3223ZM35.6948 67.8807V67.7283C45.1513 68.2101 55.0407 68.1983 64.5734 67.6838V67.8807C64.5734 69.8727 63.1913 71.5365 61.3392 71.9953C61.255 72.0164 61.1708 72.0386 61.0854 72.0547C60.8371 72.0999 60.5838 72.1315 60.3225 72.1315H39.9469C39.7029 72.1315 39.4676 72.0993 39.2348 72.0597C39.1425 72.0436 39.0509 72.0263 38.9586 72.004C37.0911 71.5557 35.6948 69.8832 35.6948 67.8807ZM23.2691 45.5C23.2691 31.5809 35.1517 20.2568 49.7582 20.2568C64.3647 20.2568 76.2479 31.5809 76.2479 45.5C76.2479 54.2098 71.5896 61.8948 64.5288 66.4336C54.8128 66.9587 44.7216 66.9624 35.1046 66.4491C35.0793 66.4466 35.0557 66.4584 35.0303 66.4596C27.946 61.9245 23.2691 54.2265 23.2691 45.5ZM71.1586 78.1917H63.6836L62.5114 72.921C64.4563 72.0727 65.8198 70.134 65.8198 67.8807V67.0689C72.8763 62.2614 77.4944 54.3906 77.4944 45.5C77.4944 30.8935 65.052 19.0097 49.7582 19.0097C34.4644 19.0097 22.0226 30.8935 22.0226 45.5C22.0226 54.7015 26.9707 62.8069 34.4483 67.5568V67.8807C34.4483 70.2169 35.9164 72.2127 37.9765 73.0071L36.8768 78.1917H31.2303C28.1986 78.1917 25.7317 81.1887 25.7317 84.8723V85.8773C25.7317 86.221 26.0104 86.4996 26.3546 86.5002L76.033 86.5591H76.0337C76.199 86.5591 76.3575 86.4934 76.4745 86.3764C76.5909 86.2594 76.6566 86.1015 76.6566 85.9355V84.8723C76.6566 81.1887 74.1903 78.1917 71.1586 78.1917Z" fill="#3B5A4F"/>
</svg>
