<svg width="101" height="87" viewBox="0 0 101 87" fill="none" xmlns="http://www.w3.org/2000/svg">
<path d="M50.9793 59.4132C53.2344 53.5171 55.5484 47.4606 57.7491 41.4506C60.0569 41.9466 62.3777 42.3788 64.6823 42.715C64.6953 42.7348 64.7078 42.7528 64.7201 42.7719C60.1169 47.9603 55.354 53.9598 50.9793 59.4132ZM50.5223 59.9841C50.5192 59.9803 50.5161 59.9766 50.5136 59.9735C50.5198 59.9735 50.5248 59.9729 50.531 59.9729C50.5279 59.9766 50.5248 59.9803 50.5223 59.9841ZM35.3796 42.6196L35.4037 42.5763C37.3555 42.2939 39.8868 41.8227 42.4132 41.3242C44.89 47.3628 47.4863 53.4434 50.0189 59.3717C45.3507 53.6979 40.5655 47.7677 35.3796 42.6196ZM37.47 38.8839C38.2224 37.5229 38.9958 36.1749 39.8032 34.8479C40.5902 36.8393 41.3952 38.8418 42.2181 40.8524C39.9648 41.393 37.7134 41.9403 35.4619 42.4729L37.47 38.8839ZM55.149 35.0857C56.0754 35.1012 57.0017 35.1222 57.928 35.1396C56.9782 35.5192 56.0413 35.9235 55.1106 36.3415C53.492 37.0703 51.9378 37.9285 50.3718 38.7638C47.0622 37.4263 43.7463 36.1031 40.4199 34.804C45.3309 34.69 50.2406 34.9594 55.149 35.0857ZM51.5261 39.1248C54.123 37.9514 56.6611 36.6721 59.076 35.1526C59.3206 35.1557 59.5658 35.16 59.8104 35.1607C59.8395 35.2071 59.8692 35.2535 59.899 35.3C59.1757 37.0121 58.4562 38.7384 57.7423 40.4796C55.6698 39.9843 53.5886 39.5372 51.5261 39.1248ZM50.5638 58.5085C50.622 54.0898 50.7805 42.1633 50.8102 39.7954C52.9682 40.3533 55.1664 40.8877 57.3794 41.3694C55.0549 47.06 52.7812 52.8489 50.5638 58.5085ZM49.8684 39.8103L50.4926 58.6664C47.9836 52.9201 45.4064 47.029 42.7828 41.2512C45.4058 40.7304 47.9823 40.1911 49.8684 39.8103ZM39.8218 34.817C39.9568 34.8126 40.0924 34.812 40.228 34.8083C42.9773 36.3372 46.4201 37.739 49.4647 39.1905C47.1619 39.6877 44.8621 40.2183 42.5649 40.7688C41.654 38.7681 40.7382 36.7836 39.8174 34.8238C39.8187 34.8219 39.8199 34.8195 39.8218 34.817ZM64.3963 42.2797C62.325 41.6413 60.208 41.0735 58.0779 40.5583C58.712 38.8177 59.3287 37.0864 59.9374 35.3613C61.2761 37.4697 62.9795 40.118 64.3963 42.2797ZM66.8669 42.2933C65.9133 40.8642 64.9647 39.4307 63.9789 38.0226L61.0489 33.7798C60.8879 33.5334 60.6098 33.3742 60.2946 33.381C58.5732 33.4213 56.8525 33.5123 55.1311 33.5823C49.9706 33.8349 44.812 34.2523 39.6416 34.2077C39.5413 34.2077 39.4416 34.2597 39.3852 34.3513C38.5091 35.713 37.592 37.0492 36.6551 38.3725L33.865 42.3558C33.673 42.6221 33.7139 42.9955 33.9467 43.2357C39.031 49.242 44.8392 54.8063 50.5235 60.176C50.5297 60.1698 50.5359 60.1636 50.5421 60.1574V60.1649C50.5421 60.1649 50.5427 60.1581 50.5427 60.1574C56.0147 54.7889 61.616 49.2699 66.7747 43.5497C67.0818 43.2097 67.1332 42.6908 66.8669 42.2933Z" fill="#DE0007"/>
<path d="M49.9799 12.9027C49.4461 8.74597 49.4758 4.58364 50.0839 0.436801C50.6232 4.59292 50.5836 8.75526 49.9799 12.9027Z" fill="#3B5A4F"/>
<path d="M41.5655 14.4606C40.3902 11.9652 39.7599 9.32362 39.6961 6.56567C40.8757 9.05984 41.4973 11.7032 41.5655 14.4606Z" fill="#3B5A4F"/>
<path d="M33.3591 17.3696C30.9566 14.1479 29.0445 10.6457 27.6457 6.87717C30.0519 10.0971 31.956 13.603 33.3591 17.3696Z" fill="#3B5A4F"/>
<path d="M27.5416 23.0824C24.9992 21.3796 22.8425 19.2637 21.1013 16.746C23.6468 18.4458 25.7973 20.5684 27.5416 23.0824Z" fill="#3B5A4F"/>
<path d="M21.4128 29.6274C17.6467 28.2243 14.1408 26.3203 10.9209 23.914C14.6894 25.3128 18.191 27.2249 21.4128 29.6274Z" fill="#3B5A4F"/>
<path d="M18.9198 38.1453C15.9928 37.6771 13.246 36.6734 10.7128 35.1328C13.6416 35.5966 16.3847 36.609 18.9198 38.1453Z" fill="#3B5A4F"/>
<path d="M17.4659 46.0402C13.3191 46.644 9.15612 46.6836 5 46.1443C9.14683 45.5362 13.3092 45.5065 17.4659 46.0402Z" fill="#3B5A4F"/>
<path d="M18.6083 54.5587C16.2442 55.6671 13.7407 56.2281 11.1289 56.2206C13.4918 55.1079 15.9977 54.5562 18.6083 54.5587Z" fill="#3B5A4F"/>
<path d="M21.8289 62.2455C18.3118 64.9848 14.4999 67.2431 10.402 68.9979C13.916 66.2555 17.7334 64.0052 21.8289 62.2455Z" fill="#3B5A4F"/>
<path d="M27.4382 69.3093C25.8562 71.5577 23.8772 73.4035 21.5174 74.8153C23.0964 72.5639 25.0809 70.7242 27.4382 69.3093Z" fill="#3B5A4F"/>
<path d="M58.4339 14.4154C59.6098 11.92 60.2401 9.27908 60.3039 6.52051C59.1243 9.01468 58.5027 11.6581 58.4339 14.4154Z" fill="#3B5A4F"/>
<path d="M66.6409 17.3245C69.0434 14.1027 70.9555 10.6005 72.3543 6.83201C69.9481 10.0519 68.0434 13.5578 66.6409 17.3245Z" fill="#3B5A4F"/>
<path d="M72.4584 23.0378C75.0008 21.3344 77.1575 19.2186 78.8987 16.7009C76.3532 18.4006 74.2027 20.5232 72.4584 23.0378Z" fill="#3B5A4F"/>
<path d="M78.5867 29.5823C82.3533 28.1792 85.8593 26.2751 89.0791 23.8688C85.3106 25.2676 81.809 27.1797 78.5867 29.5823Z" fill="#3B5A4F"/>
<path d="M81.0803 38.1001C84.0073 37.632 86.754 36.6282 89.2866 35.0877C86.3584 35.5514 83.6153 36.5638 81.0803 38.1001Z" fill="#3B5A4F"/>
<path d="M82.5341 45.9957C86.681 46.5988 90.8439 46.6384 95 46.0997C90.8532 45.491 86.6909 45.4613 82.5341 45.9957Z" fill="#3B5A4F"/>
<path d="M81.3917 54.5134C83.7558 55.6218 86.2593 56.1828 88.8711 56.1753C86.5082 55.0632 84.0023 54.5109 81.3917 54.5134Z" fill="#3B5A4F"/>
<path d="M78.1712 62.2003C81.6877 64.9397 85.5001 67.1979 89.598 68.9528C86.084 66.2103 82.2666 63.9601 78.1712 62.2003Z" fill="#3B5A4F"/>
<path d="M72.5618 69.2648C74.1438 71.5125 76.1228 73.359 78.4826 74.7701C76.9037 72.5187 74.9191 70.679 72.5618 69.2648Z" fill="#3B5A4F"/>
<path d="M27.8537 44.5863C27.8469 50.462 29.7943 55.8695 33.5671 60.3761C28.9237 56.7674 26.6122 50.3282 27.8537 44.5863Z" fill="#3B5A4F"/>
<path d="M51.2517 23.4298C57.0704 22.6192 63.3188 25.4044 66.5715 30.3042C62.3584 26.2057 57.1112 23.8607 51.2517 23.4298Z" fill="#3B5A4F"/>
<path d="M75.4101 85.3072L26.9788 85.2509V84.8682C26.9788 81.8718 28.886 79.434 31.2303 79.434H37.3815H63.1832H71.1586C73.503 79.434 75.4101 81.8718 75.4101 84.8682V85.3072ZM39.184 73.3181C39.1976 73.32 39.2112 73.3194 39.2249 73.3212C39.4614 73.3522 39.7017 73.3738 39.9469 73.3738H60.3225C60.6414 73.3738 60.9516 73.341 61.2563 73.289C61.2754 73.2853 61.2959 73.2865 61.3157 73.2834L62.4067 78.1876H38.1505L39.184 73.3181ZM35.6948 67.8765V67.7242C45.1513 68.2059 55.0407 68.1942 64.5734 67.6796V67.8765C64.5734 69.8685 63.1913 71.5323 61.3392 71.9912C61.255 72.0122 61.1708 72.0345 61.0854 72.0506C60.8371 72.0958 60.5838 72.1274 60.3225 72.1274H39.9469C39.7029 72.1274 39.4676 72.0952 39.2348 72.0556C39.1425 72.0395 39.0509 72.0221 38.9586 71.9998C37.0911 71.5515 35.6948 69.879 35.6948 67.8765ZM23.2691 45.4959C23.2691 31.5767 35.1517 20.2526 49.7582 20.2526C64.3647 20.2526 76.2479 31.5767 76.2479 45.4959C76.2479 54.2057 71.5896 61.8906 64.5288 66.4294C54.8128 66.9545 44.7216 66.9582 35.1046 66.4449C35.0793 66.4424 35.0557 66.4542 35.0303 66.4554C27.946 61.9204 23.2691 54.2224 23.2691 45.4959ZM71.1586 78.1876H63.6836L62.5114 72.9169C64.4563 72.0686 65.8198 70.1298 65.8198 67.8765V67.0647C72.8763 62.2572 77.4944 54.3865 77.4944 45.4959C77.4944 30.8894 65.052 19.0056 49.7582 19.0056C34.4644 19.0056 22.0226 30.8894 22.0226 45.4959C22.0226 54.6973 26.9707 62.8027 34.4483 67.5527V67.8765C34.4483 70.2128 35.9164 72.2085 37.9765 73.0029L36.8768 78.1876H31.2303C28.1986 78.1876 25.7317 81.1845 25.7317 84.8682V85.8732C25.7317 86.2168 26.0104 86.4955 26.3546 86.4961L76.033 86.5549H76.0337C76.199 86.5549 76.3575 86.4893 76.4745 86.3723C76.5909 86.2552 76.6566 86.0973 76.6566 85.9314V84.8682C76.6566 81.1845 74.1903 78.1876 71.1586 78.1876Z" fill="#3B5A4F"/>
</svg>
