<svg width="101" height="87" viewBox="0 0 101 87" fill="none" xmlns="http://www.w3.org/2000/svg">
<path fill-rule="evenodd" clip-rule="evenodd" d="M52.7549 43.404C54.7607 38.2421 58.5067 34.378 63.285 31.7235V63.8742C60.8959 65.6145 58.6542 68.1217 56.7664 70.9533C55.4391 72.9589 54.2888 75.1123 53.3744 77.295V58.5649C54.6723 58.2699 55.6457 57.1195 55.6457 55.7333C55.6457 54.111 54.3479 52.8131 52.7551 52.8131C51.1328 52.8131 49.8351 54.1109 49.8351 55.7333C49.8351 57.1195 50.8084 58.2699 52.1063 58.5649V77.2949C51.2215 75.1121 50.071 72.9589 48.7437 70.9532C46.856 68.1215 44.5847 65.6143 42.1956 63.8741V31.7235C47.0033 34.3782 50.7198 38.2421 52.7549 43.404ZM52.7549 81.8079C61.3678 75.0236 76.3519 73.1359 87 74.2273V39.9234C83.372 40.1888 79.4785 40.8968 75.7621 42.2832V34.1127C71.8686 35.086 67.9751 36.6788 64.5535 39.068V29.6293C59.5687 31.989 55.3803 35.499 52.7551 40.3953C50.1004 35.499 45.9121 31.9889 40.9272 29.6293V39.068C37.5352 36.6788 33.6121 35.086 29.7187 34.1127V42.2832C26.0022 40.8969 22.1086 40.1889 18.4806 39.9234V74.2275C29.1286 73.1361 44.1127 75.0238 52.7549 81.8079ZM40.927 40.6313C37.9774 38.4191 34.5264 36.8263 30.9869 35.7643V66.2338C38.5083 67.5022 45.7939 71.6906 50.8083 77.4128C48.714 72.546 45.322 67.5905 40.927 64.5525V40.6313ZM49.9824 78.4158C44.9386 72.5755 37.417 68.3282 29.7185 67.3252V43.6399C26.4444 42.3715 23.0229 41.6341 19.7488 41.3097V72.841C29.2171 72.1331 41.6055 73.726 49.9824 78.4158ZM64.5534 40.6313C67.5031 38.4191 70.9836 36.8263 74.4936 35.7643V66.2338C66.9721 67.5022 59.716 71.6906 54.7016 77.4128C56.7958 72.546 60.1583 67.5905 64.5533 64.5525L64.5534 40.6313ZM55.4982 78.4158C60.542 72.5755 68.0636 68.3282 75.7621 67.3252V43.6399C79.0361 42.3715 82.4576 41.6341 85.7318 41.3097V72.841C76.2929 72.1331 63.8751 73.726 55.4982 78.4158Z" fill="#3B5A4F"/>
<path fill-rule="evenodd" clip-rule="evenodd" d="M85.6431 28.0659C82.2805 27.83 82.2215 26.9156 82.0151 23.7891C81.8087 26.9156 81.7202 27.83 78.3576 28.0659C81.7202 28.3019 81.8087 29.2164 82.0151 32.3429C82.2215 29.2164 82.2806 28.302 85.6431 28.0659Z" fill="#DF2F2F"/>
<path fill-rule="evenodd" clip-rule="evenodd" d="M71.2491 20.0726C66.9131 19.7482 66.8246 18.5978 66.5592 14.5863C66.2938 18.5977 66.2053 19.7482 61.8693 20.0726C66.2053 20.3676 66.2938 21.5474 66.5592 25.5295C66.8246 21.5474 66.9131 20.3676 71.2491 20.0726Z" fill="#DF2F2F"/>
<path fill-rule="evenodd" clip-rule="evenodd" d="M58.8017 9.27701C55.4096 9.01152 55.3507 8.12669 55.1441 5C54.9376 8.12654 54.8787 9.01152 51.4866 9.27701C54.8787 9.51296 54.9376 10.3978 55.1441 13.5245C55.3507 10.3979 55.4096 9.51296 58.8017 9.27701Z" fill="#DF2F2F"/>
<path fill-rule="evenodd" clip-rule="evenodd" d="M45.4104 19.4532C42.8148 19.2467 42.7557 18.5682 42.6083 16.1791C42.4608 18.5682 42.4019 19.2467 39.8062 19.4532C42.4019 19.6302 42.4608 20.338 42.6083 22.7272C42.7557 20.338 42.8148 19.6301 45.4104 19.4532Z" fill="#DF2F2F"/>
<path fill-rule="evenodd" clip-rule="evenodd" d="M32.4313 28.5082C29.8652 28.3018 29.8062 27.6234 29.6292 25.2343C29.4818 27.6234 29.4228 28.3018 26.8565 28.5082C29.4227 28.6852 29.4818 29.3637 29.6292 31.7822C29.8062 29.3637 29.8652 28.6852 32.4313 28.5082Z" fill="#DF2F2F"/>
<path fill-rule="evenodd" clip-rule="evenodd" d="M19.5748 20.1888C17.0086 19.9824 16.9495 19.304 16.8021 16.9147C16.6251 19.304 16.5662 19.9824 14 20.1888C16.5662 20.3658 16.6251 21.0442 16.8021 23.4629C16.9495 21.0442 17.0086 20.3658 19.5748 20.1888Z" fill="#DF2F2F"/>
</svg>
