<svg width="73" height="78" viewBox="0 0 73 78" fill="none" xmlns="http://www.w3.org/2000/svg">
<path fill-rule="evenodd" clip-rule="evenodd" d="M38.7549 38.8998C40.7607 33.738 44.5067 29.8739 49.285 27.2194V59.3701C46.8959 61.1103 44.6542 63.6175 42.7664 66.4492C41.4391 68.4548 40.2888 70.6081 39.3744 72.7909V54.0608C40.6723 53.7657 41.6457 52.6154 41.6457 51.2291C41.6457 49.6069 40.3479 48.309 38.7551 48.309C37.1328 48.309 35.8351 49.6067 35.8351 51.2291C35.8351 52.6154 36.8084 53.7657 38.1063 54.0608V72.7907C37.2215 70.608 36.071 68.4548 34.7437 66.449C32.856 63.6174 30.5847 61.1102 28.1956 59.3699V27.2194C33.0033 29.874 36.7198 33.738 38.7549 38.8998ZM38.7549 77.3037C47.3678 70.5195 62.3519 68.6318 73 69.7232V35.4193C69.372 35.6846 65.4785 36.3926 61.7621 37.779V29.6085C57.8686 30.5819 53.9751 32.1747 50.5535 34.5638V25.1251C45.5687 27.4849 41.3803 30.9948 38.7551 35.8912C36.1004 30.9948 31.9121 27.4847 26.9272 25.1251V34.5638C23.5352 32.1747 19.6121 30.5819 15.7187 29.6085V37.779C12.0022 36.3927 8.10857 35.6848 4.48059 35.4193V69.7233C15.1286 68.6319 30.1127 70.5196 38.7549 77.3037ZM26.927 36.1271C23.9774 33.9149 20.5264 32.3221 16.9869 31.2602V61.7297C24.5083 62.998 31.7939 67.1864 36.8083 72.9087C34.714 68.0418 31.322 63.0864 26.927 60.0484V36.1271ZM35.9824 73.9117C30.9386 68.0714 23.417 63.8241 15.7185 62.821V39.1357C12.4444 37.8674 9.02295 37.13 5.74881 36.8055V68.3369C15.2171 67.6289 27.6055 69.2219 35.9824 73.9117ZM50.5534 36.1271C53.5031 33.9149 56.9836 32.3221 60.4936 31.2602V61.7297C52.9721 62.998 45.716 67.1864 40.7016 72.9087C42.7958 68.0418 46.1583 63.0864 50.5533 60.0484L50.5534 36.1271ZM41.4982 73.9117C46.542 68.0714 54.0636 63.8241 61.7621 62.821V39.1357C65.0361 37.8674 68.4576 37.13 71.7318 36.8055V68.3369C62.2929 67.6289 49.8751 69.2219 41.4982 73.9117Z" fill="#3B5A4F"/>
<path fill-rule="evenodd" clip-rule="evenodd" d="M71.6431 23.5618C68.2805 23.3258 68.2215 22.4115 68.0151 19.2849C67.8087 22.4115 67.7202 23.3258 64.3576 23.5618C67.7202 23.7977 67.8087 24.7123 68.0151 27.8388C68.2215 24.7123 68.2806 23.7979 71.6431 23.5618Z" fill="#DF2F2F"/>
<path fill-rule="evenodd" clip-rule="evenodd" d="M57.2491 15.5684C52.9131 15.244 52.8246 14.0937 52.5592 10.0822C52.2938 14.0935 52.2053 15.244 47.8693 15.5684C52.2053 15.8635 52.2938 17.0432 52.5592 21.0253C52.8246 17.0432 52.9131 15.8635 57.2491 15.5684Z" fill="#DF2F2F"/>
<path fill-rule="evenodd" clip-rule="evenodd" d="M44.8017 4.77286C41.4096 4.50737 41.3507 3.62254 41.1441 0.49585C40.9376 3.62239 40.8787 4.50737 37.4866 4.77286C40.8787 5.00881 40.9376 5.89364 41.1441 9.02033C41.3507 5.89379 41.4096 5.00881 44.8017 4.77286Z" fill="#DF2F2F"/>
<path fill-rule="evenodd" clip-rule="evenodd" d="M31.4104 14.9491C28.8148 14.7425 28.7557 14.0641 28.6083 11.6749C28.4608 14.0641 28.4019 14.7425 25.8062 14.9491C28.4019 15.1261 28.4608 15.8339 28.6083 18.223C28.7557 15.8339 28.8148 15.1259 31.4104 14.9491Z" fill="#DF2F2F"/>
<path fill-rule="evenodd" clip-rule="evenodd" d="M18.4313 24.0041C15.8652 23.7977 15.8062 23.1193 15.6292 20.7301C15.4818 23.1193 15.4228 23.7977 12.8565 24.0041C15.4227 24.1811 15.4818 24.8595 15.6292 27.2781C15.8062 24.8595 15.8652 24.1811 18.4313 24.0041Z" fill="#DF2F2F"/>
<path fill-rule="evenodd" clip-rule="evenodd" d="M5.57479 15.6847C3.00864 15.4783 2.94955 14.7998 2.8021 12.4105C2.6251 14.7998 2.56615 15.4783 0 15.6847C2.56615 15.8617 2.6251 16.5401 2.8021 18.9588C2.94955 16.5401 3.00864 15.8617 5.57479 15.6847Z" fill="#DF2F2F"/>
</svg>
